<svg xmlns="http://www.w3.org/2000/svg" width="93.341" height="88.535" viewBox="0 0 93.341 88.535">
  <g id="Grupo_173983" data-name="Grupo 173983" transform="translate(0 -13.181)">
    <g id="Grupo_149406" data-name="Grupo 149406" transform="translate(1.869 36.468)">
      <path id="Trazado_252859" data-name="Trazado 252859" d="M147.928,296.765a1.882,1.882,0,0,1-.281-.021,35.75,35.75,0,0,0-8.036-.292,1.869,1.869,0,1,1-.285-3.727,39.473,39.473,0,0,1,8.878.322,1.869,1.869,0,0,1-.276,3.718Z" transform="translate(-114.383 -264.955)" fill="#fff"/>
      <path id="Trazado_252860" data-name="Trazado 252860" d="M84.837,306.111a1.869,1.869,0,0,1-.754-3.58,20.052,20.052,0,0,1,2.059-.764,1.869,1.869,0,0,1,1.125,3.565,16.4,16.4,0,0,0-1.678.62A1.868,1.868,0,0,1,84.837,306.111Z" transform="translate(-69.71 -272.371)" fill="#fff"/>
    </g>
    <g id="Grupo_149407" data-name="Grupo 149407" transform="translate(0 34.599)">
      <path id="Trazado_252862" data-name="Trazado 252862" d="M93.339,163.157c0-.022,0-.044,0-.067s0-.041,0-.062,0-.029,0-.044a6.393,6.393,0,0,0-.658-2.693l-4.714-18.272c-.134-3.281-2.787-6.233-7.507-8.336a40.987,40.987,0,0,0-16.223-3.016,40.986,40.986,0,0,0-16.224,3.016c-4.72,2.1-7.373,5.056-7.507,8.337l-2.967,11.5a48.434,48.434,0,0,0-8.434-.722,40.987,40.987,0,0,0-16.223,3.016c-4.72,2.1-7.373,5.056-7.507,8.337L.66,182.422A6.394,6.394,0,0,0,0,185.1c0,.02,0,.041,0,.061s0,.036,0,.053,0,.044,0,.067,0,.024,0,.036c.06,3.637,3.307,6.9,9.16,9.2,5.357,2.1,12.439,3.262,19.942,3.262s14.585-1.158,19.942-3.262c5.854-2.3,9.1-5.563,9.16-9.2,0-.012,0-.024,0-.036s0-.044,0-.067,0-.034,0-.051,0-.044,0-.065a6.392,6.392,0,0,0-.658-2.686l-1.881-7.291a68.68,68.68,0,0,0,8.568.529c7.5,0,14.585-1.158,19.942-3.262,5.854-2.3,9.1-5.563,9.161-9.2,0-.012,0-.024,0-.036ZM49.534,137.1a37.218,37.218,0,0,1,14.7-2.693,37.218,37.218,0,0,1,14.7,2.693c3.317,1.478,5.3,3.416,5.3,5.184s-1.98,3.706-5.3,5.184a37.218,37.218,0,0,1-14.7,2.693,37.216,37.216,0,0,1-14.7-2.693c-3.317-1.478-5.3-3.416-5.3-5.184S46.218,138.575,49.534,137.1ZM14.4,159.226a37.218,37.218,0,0,1,14.7-2.693,37.218,37.218,0,0,1,14.7,2.693c3.317,1.478,5.3,3.416,5.3,5.184s-1.98,3.706-5.3,5.184a37.215,37.215,0,0,1-14.7,2.693,37.215,37.215,0,0,1-14.7-2.693c-3.317-1.478-5.3-3.416-5.3-5.184s1.98-3.706,5.3-5.184Zm14.7,34.819c-14.283,0-25.014-4.51-25.358-8.623L7.8,169.7a16.856,16.856,0,0,0,5.078,3.311,40.987,40.987,0,0,0,16.223,3.016,40.985,40.985,0,0,0,16.224-3.016,16.856,16.856,0,0,0,5.078-3.311l4.057,15.724C54.119,189.535,43.389,194.045,29.105,194.045Zm35.13-22.129a62.958,62.958,0,0,1-9.58-.713l-1.82-7.055c-.134-3.281-2.787-6.233-7.506-8.337a30.05,30.05,0,0,0-4.142-1.469l1.748-6.774a16.857,16.857,0,0,0,5.078,3.311A40.989,40.989,0,0,0,64.236,153.9a40.987,40.987,0,0,0,16.223-3.016,16.857,16.857,0,0,0,5.078-3.311l4.057,15.724c-.344,4.113-11.075,8.623-25.358,8.623Z" transform="translate(0 -130.666)" fill="#fff"/>
      <path id="Trazado_252863" data-name="Trazado 252863" d="M241.314,393.393a1.122,1.122,0,0,0-1.122,1.122v2.833a1.122,1.122,0,1,0,2.243,0v-2.833A1.121,1.121,0,0,0,241.314,393.393Z" transform="translate(-196.403 -345.496)" fill="#fff"/>
      <path id="Trazado_252864" data-name="Trazado 252864" d="M195.144,423.751a1.122,1.122,0,0,0-1.122,1.122v2.832a1.122,1.122,0,1,0,2.243,0v-2.832A1.122,1.122,0,0,0,195.144,423.751Z" transform="translate(-158.65 -370.32)" fill="#fff"/>
      <path id="Trazado_252865" data-name="Trazado 252865" d="M416.72,278.8a1.122,1.122,0,0,0-1.122,1.122v2.832a1.122,1.122,0,0,0,2.243,0v-2.832A1.122,1.122,0,0,0,416.72,278.8Z" transform="translate(-339.831 -251.797)" fill="#fff"/>
    </g>
    <g id="Grupo_149409" data-name="Grupo 149409" transform="translate(10.257 13.18)">
      <path id="Trazado_252866" data-name="Trazado 252866" d="M62.4,111.631l-1.535,4.317a.692.692,0,0,1-.36.405l-3.836,1.728a.765.765,0,0,0,0,1.352l3.836,1.728a.692.692,0,0,1,.36.405l1.535,4.317a.623.623,0,0,0,1.2,0l1.535-4.317a.693.693,0,0,1,.36-.405l3.836-1.728a.765.765,0,0,0,0-1.352l-3.836-1.728a.693.693,0,0,1-.36-.405L63.6,111.631a.623.623,0,0,0-1.2,0Z" transform="translate(-56.26 -93.309)" fill="#fff"/>
      <path id="Trazado_252867" data-name="Trazado 252867" d="M257.618,13.519l-1.139,3.2a.514.514,0,0,1-.267.3L253.367,18.3a.568.568,0,0,0,0,1l2.845,1.282a.514.514,0,0,1,.267.3l1.139,3.2a.462.462,0,0,0,.891,0l1.139-3.2a.514.514,0,0,1,.267-.3l2.845-1.282a.568.568,0,0,0,0-1l-2.845-1.282a.514.514,0,0,1-.267-.3l-1.139-3.2A.462.462,0,0,0,257.618,13.519Z" transform="translate(-217.186 -13.18)" fill="#fff"/>
      <g id="Grupo_149408" data-name="Grupo 149408" transform="translate(12.595 0.819)">
        <circle id="Elipse_6240" data-name="Elipse 6240" cx="3.352" cy="3.352" r="3.352" fill="#fff"/>
        <circle id="Elipse_6241" data-name="Elipse 6241" cx="1.446" cy="1.446" r="1.446" transform="translate(59.229 6.021)" fill="#fff"/>
      </g>
    </g>
  </g>
</svg>
