<svg xmlns="http://www.w3.org/2000/svg" width="157" height="157" viewBox="0 0 157 157">
  <g id="Grupo_173999" data-name="Grupo 173999" transform="translate(-723 -12151)">
    <circle id="Elipse_4731" data-name="Elipse 4731" cx="78.5" cy="78.5" r="78.5" transform="translate(723 12151)" fill="#fff"/>
    <g id="Page-1" transform="translate(757 12185)">
      <g id="_046---Give-Crops" data-name="046---Give-Crops">
        <g id="Grupo_149404" data-name="Grupo 149404" transform="translate(1.5 4.5)">
          <path id="Shape" d="M14.5,37V68.5a3,3,0,0,1-3,3H4a3.009,3.009,0,0,1-3-3V37a3.009,3.009,0,0,1,3-3h7.5A3.009,3.009,0,0,1,14.5,37Z" transform="translate(-1 12.497)" fill="#02a9f4"/>
          <path id="Shape-2" data-name="Shape" d="M9.5,34H5a3.009,3.009,0,0,1,3,3V68.5a3,3,0,0,1-3,3H9.5a3,3,0,0,0,3-3V37A3.009,3.009,0,0,0,9.5,34Z" transform="translate(1 12.497)" fill="#0377bc"/>
          <path id="Shape-3" data-name="Shape" d="M81.65,50.354,53.542,67.468A10.509,10.509,0,0,1,48.082,69H9.73c.579-.988.4,1.3.4-33h4.2a13.77,13.77,0,0,1,8.549,3,13.74,13.74,0,0,0,8.549,3h7.844c5.748,0,9.7,6.541,5.745,10.5h3.525c1.4,0-.261.406,29.668-9.569a4.131,4.131,0,0,1,4.59,1.44v.015a4.094,4.094,0,0,1-1.155,5.97Z" transform="translate(3.364 13.496)" fill="#ffe0b2"/>
          <path id="Shape-4" data-name="Shape" d="M32.175,50.5a26.929,26.929,0,0,0,4.587-.1C40.523,46.45,36.668,40,30.93,40h-4.5C32.262,40,36.067,46.607,32.175,50.5Z" transform="translate(11.712 15.496)" fill="#dfc49c"/>
          <path id="Shape-5" data-name="Shape" d="M71.522,42.144v-.015a4.131,4.131,0,0,0-4.59-1.44l-1.123.375a4.107,4.107,0,0,1,1.213,1.065v.015a4.094,4.094,0,0,1-1.155,5.97L37.76,65.227a10.509,10.509,0,0,1-5.46,1.53c4.486,0,6.879.346,9.959-1.53L70.367,48.113a4.094,4.094,0,0,0,1.155-5.97Z" transform="translate(14.647 15.737)" fill="#dfc49c"/>
          <path id="Shape-6" data-name="Shape" d="M71.966,45.4C44.95,54.409,46.583,54,45.223,54H41.7c3.967-3.967-.013-10.5-5.745-10.5H28.109a13.74,13.74,0,0,1-8.549-3,13.386,13.386,0,0,0-3.18-1.89,10.5,10.5,0,0,1,10.874-1.845A10.481,10.481,0,0,1,44.2,37.95a.014.014,0,0,1,.015.015,10.468,10.468,0,0,1,14.144,1.8A10.48,10.48,0,0,1,71.966,45.4Z" transform="translate(6.688 11.997)" fill="sienna"/>
          <path id="Shape-7" data-name="Shape" d="M53.869,37a10.439,10.439,0,0,0-2.283.262,10.443,10.443,0,0,1,7.442,6.15L34.19,51.684a5.823,5.823,0,0,1-.843.211c-.032.033-.054.07-.087.1h3.525a5.92,5.92,0,0,0,1.9-.315L63.528,43.4A10.46,10.46,0,0,0,53.869,37Z" transform="translate(15.127 13.996)" fill="#783e22"/>
          <path id="Shape-8" data-name="Shape" d="M47,4.5A7.477,7.477,0,0,1,39.5,12H35V10.5A7.5,7.5,0,0,1,42.5,3h3A1.5,1.5,0,0,1,47,4.5Z" transform="translate(15.996 -3)" fill="#60a917"/>
          <path id="Shape-9" data-name="Shape" d="M45.5,3h-3a7.737,7.737,0,0,0-1,.1,1.5,1.5,0,0,1,1,1.4A7.477,7.477,0,0,1,35,12h4.5A7.477,7.477,0,0,0,47,4.5,1.5,1.5,0,0,0,45.5,3Z" transform="translate(15.996 -3)" fill="#549414"/>
          <path id="Shape-10" data-name="Shape" d="M39,10.5V12H34.5A7.477,7.477,0,0,1,27,4.5,1.5,1.5,0,0,1,28.5,3h3A7.5,7.5,0,0,1,39,10.5Z" transform="translate(11.997 -3)" fill="#60a917"/>
          <path id="Shape-11" data-name="Shape" d="M31.166,3h-3a1.488,1.488,0,0,0-.5.1,7.481,7.481,0,0,1,6.5,7.4V12h4.5V10.5A7.5,7.5,0,0,0,31.166,3Z" transform="translate(12.331 -3)" fill="#549414"/>
          <path id="Shape-12" data-name="Shape" d="M48.5,14.5A7.477,7.477,0,0,1,41,22H35V20.5A7.5,7.5,0,0,1,42.5,13H47A1.5,1.5,0,0,1,48.5,14.5Z" transform="translate(15.996 1.999)" fill="#60a917"/>
          <path id="Shape-13" data-name="Shape" d="M46.5,13H42a1.5,1.5,0,0,1,1.5,1.5A7.477,7.477,0,0,1,36,22h4.5A7.477,7.477,0,0,0,48,14.5,1.5,1.5,0,0,0,46.5,13Z" transform="translate(16.496 1.999)" fill="#549414"/>
          <path id="Shape-14" data-name="Shape" d="M39.5,20.5V22h-6A7.477,7.477,0,0,1,26,14.5,1.5,1.5,0,0,1,27.5,13H32A7.5,7.5,0,0,1,39.5,20.5Z" transform="translate(11.497 1.999)" fill="#60a917"/>
          <path id="Shape-15" data-name="Shape" d="M31.5,13H27a7.5,7.5,0,0,1,7.5,7.5V22H39V20.5A7.5,7.5,0,0,0,31.5,13Z" transform="translate(11.997 1.999)" fill="#549414"/>
          <path id="Shape-16" data-name="Shape" d="M50,24.5A7.477,7.477,0,0,1,42.5,32H35V30.5A7.5,7.5,0,0,1,42.5,23h6A1.5,1.5,0,0,1,50,24.5Z" transform="translate(15.996 6.998)" fill="#60a917"/>
          <path id="Shape-17" data-name="Shape" d="M47.5,23H43a1.5,1.5,0,0,1,1.5,1.5A7.477,7.477,0,0,1,37,32h4.5A7.477,7.477,0,0,0,49,24.5,1.5,1.5,0,0,0,47.5,23Z" transform="translate(16.996 6.998)" fill="#549414"/>
          <path id="Shape-18" data-name="Shape" d="M40,30.5V32H32.5A7.477,7.477,0,0,1,25,24.5,1.5,1.5,0,0,1,26.5,23h6A7.5,7.5,0,0,1,40,30.5Z" transform="translate(10.997 6.998)" fill="#60a917"/>
          <path id="Shape-19" data-name="Shape" d="M31.5,23H27a7.5,7.5,0,0,1,7.5,7.5V32H39V30.5A7.5,7.5,0,0,0,31.5,23Z" transform="translate(11.997 6.998)" fill="#549414"/>
        </g>
        <path id="Shape-20" data-name="Shape" d="M34.1,37.35a10.716,10.716,0,0,1,1.249-1.05" transform="translate(17.046 18.146)" fill="none" stroke="#000" stroke-linecap="round" stroke-linejoin="round" stroke-width="2"/>
        <path id="Shape-21" data-name="Shape" d="M44.37,37.51A10.445,10.445,0,0,1,45.8,39.745" transform="translate(22.18 18.751)" fill="none" stroke="#000" stroke-linecap="round" stroke-linejoin="round" stroke-width="2"/>
        <path id="Shape-22" data-name="Shape" d="M23.63,35.511a10.514,10.514,0,0,1,1.465.732" transform="translate(11.812 17.752)" fill="none" stroke="#000" stroke-linecap="round" stroke-linejoin="round" stroke-width="2"/>
        <path id="Shape-23" data-name="Shape" d="M4.5,89.994H12a4.478,4.478,0,0,0,3.33-1.5H52.946a12,12,0,0,0,6.24-1.747L87.294,69.634A5.616,5.616,0,0,0,82.608,59.5l-1.7.567a11.939,11.939,0,0,0-13.913-5.55,11.948,11.948,0,0,0-13-2.635V45h6a9.008,9.008,0,0,0,9-9,3,3,0,0,0-3-3H60a8.95,8.95,0,0,0-6,2.31V30h4.5a9.008,9.008,0,0,0,9-9,3,3,0,0,0-3-3H60a8.95,8.95,0,0,0-6,2.31V15h3a9.008,9.008,0,0,0,9-9,3,3,0,0,0-3-3c-3.394,0-6.07-.319-9,2.31V1.5a1.5,1.5,0,0,0-3,0V5.31C48,2.613,45.009,3,42,3a3,3,0,0,0-3,3,9.008,9.008,0,0,0,9,9h3v5.31A8.95,8.95,0,0,0,45,18H40.5a3,3,0,0,0-3,3,9.008,9.008,0,0,0,9,9H51v5.31A8.95,8.95,0,0,0,45,33H39a3,3,0,0,0-3,3,9.008,9.008,0,0,0,9,9h6v5.643A11.984,11.984,0,0,0,35,51.521,12.052,12.052,0,0,0,24.33,53.4a20.747,20.747,0,0,0-8.1-.9A4.5,4.5,0,0,0,12,49.5H4.5A4.5,4.5,0,0,0,0,54v31.5A4.5,4.5,0,0,0,4.5,89.994ZM60,36h6a6,6,0,0,1-6,6H54A6,6,0,0,1,60,36Zm0-15h4.5a6,6,0,0,1-6,6H54A6,6,0,0,1,60,21ZM60,6h3a6,6,0,0,1-6,6H54A6,6,0,0,1,60,6ZM42,6h3a6,6,0,0,1,6,6H48A6,6,0,0,1,42,6ZM40.5,21H45a6,6,0,0,1,6,6H46.5A6,6,0,0,1,40.5,21ZM39,36h6a6,6,0,0,1,6,6H45A6,6,0,0,1,39,36ZM34.88,54.653c1.228.5,1.35.841,2.025.841a1.477,1.477,0,0,0,1.021-2.56A8.959,8.959,0,0,1,50.362,54.2c-.084.076-.181.141-.264.22a1.5,1.5,0,0,0,2.1,2.142,9.023,9.023,0,0,1,14.43,2.574,1.5,1.5,0,1,0,2.709-1.29c-.115-.243-.259-.469-.391-.7a8.9,8.9,0,0,1,9.049,3.9C52.256,69.619,54.712,69,52.555,69c1.875-5.2-2.922-10.5-8.41-10.5H36.3c-4.792,0-7.349-2.584-8.828-3.54A9.137,9.137,0,0,1,34.88,54.653Zm-8.069,3.514A15.239,15.239,0,0,0,36.3,61.5h7.846c3.988,0,7.427,4.312,5.055,7.5H40.079a15.759,15.759,0,0,0-9.418,3.255,1.5,1.5,0,0,0,1.674,2.49,12.839,12.839,0,0,1,7.744-2.745c14.585,0,14.18.131,15.711-.393l27.754-9.253a2.619,2.619,0,0,1,2.184,4.72l-28.1,17.115a8.988,8.988,0,0,1-4.68,1.309H16.5v-30C19.907,55.5,23.145,55.234,26.811,58.167ZM3,54a1.5,1.5,0,0,1,1.5-1.5H12A1.5,1.5,0,0,1,13.5,54v31.5a1.5,1.5,0,0,1-1.5,1.5H4.5a1.5,1.5,0,0,1-1.5-1.5Z"/>
        <path id="Shape-24" data-name="Shape" d="M37.993,43.417a1.5,1.5,0,0,0,1.917-.9,1.029,1.029,0,0,1,.6-.6,1.5,1.5,0,1,0-1.017-2.82,4.015,4.015,0,0,0-2.4,2.4A1.5,1.5,0,0,0,37.993,43.417Z" transform="translate(18.498 19.49)"/>
      </g>
    </g>
  </g>
</svg>
