<svg xmlns="http://www.w3.org/2000/svg" width="150" height="150" viewBox="0 0 150 150">
  <g id="Grupo_224037" data-name="Grupo 224037" transform="translate(-1072.761 -11828)">
    <g id="Grupo_223937" data-name="Grupo 223937" transform="translate(-60.239 -353)">
      <circle id="Elipse_6362" data-name="Elipse 6362" cx="75" cy="75" r="75" transform="translate(1133 12181)" fill="#e2872c"/>
      <circle id="Elipse_6363" data-name="Elipse 6363" cx="63" cy="63" r="63" transform="translate(1145 12193)" fill="#fff"/>
    </g>
    <g id="Grupo_149413" data-name="Grupo 149413" transform="translate(553.559 -845.899)">
      <g id="Grupo_149412" data-name="Grupo 149412" transform="translate(558 12715)">
        <path id="Trazado_252868" data-name="Trazado 252868" d="M332.506,293.684l-13.978-2.464a.869.869,0,0,1-.6-1.3,9.732,9.732,0,0,0,1.217-3.28l1.978-11.216a9.728,9.728,0,0,0-.022-3.5.869.869,0,0,1,1-1.018l13.977,2.465a.869.869,0,0,1,.6,1.3,9.719,9.719,0,0,0-1.217,3.279l-1.978,11.217a9.724,9.724,0,0,0,.022,3.5A.87.87,0,0,1,332.506,293.684Z" transform="translate(-276.393 -233.963)" fill="#b4de87"/>
        <path id="Trazado_252869" data-name="Trazado 252869" d="M325.8,271.558l-3.694-.651a.869.869,0,0,0-1,1.018,9.728,9.728,0,0,1,.022,3.5l-1.978,11.216a9.732,9.732,0,0,1-1.217,3.28.869.869,0,0,0,.6,1.3l11.41,2.011A47.465,47.465,0,0,1,325.8,271.558Z" transform="translate(-276.393 -233.963)" fill="#92d18a"/>
        <path id="Trazado_252870" data-name="Trazado 252870" d="M358.777,144.68,344.8,142.215a.869.869,0,0,1-.6-1.3,9.721,9.721,0,0,0,1.217-3.279l1.978-11.217a9.7,9.7,0,0,0-.022-3.5.87.87,0,0,1,1.005-1.018l13.977,2.464a.87.87,0,0,1,.6,1.3,9.721,9.721,0,0,0-1.217,3.28l-1.978,11.216a9.7,9.7,0,0,0,.022,3.5A.87.87,0,0,1,358.777,144.68Z" transform="translate(-299.083 -105.272)" fill="#8ec15d"/>
        <path id="Trazado_252871" data-name="Trazado 252871" d="M352.2,122.577l-3.822-.674a.869.869,0,0,0-1,1.018,9.722,9.722,0,0,1,.022,3.5l-1.978,11.217a9.718,9.718,0,0,1-1.218,3.28.87.87,0,0,0,.6,1.3l7.267,1.281C350.376,138.792,351.108,128.4,352.2,122.577Z" transform="translate(-299.083 -105.272)" fill="#57b33b"/>
        <path id="Trazado_252872" data-name="Trazado 252872" d="M386.056,31.181a9.7,9.7,0,0,1-.022-3.5l.756-4.287-13.334-8.224-1.76,9.982a9.714,9.714,0,0,1-1.218,3.279.87.87,0,0,0,.6,1.3L385.052,32.2A.869.869,0,0,0,386.056,31.181Z" transform="translate(-321.775 -13.104)" fill="#b4de87"/>
        <path id="Trazado_252873" data-name="Trazado 252873" d="M377.374,17.589l-3.919-2.417-1.76,9.982a9.722,9.722,0,0,1-1.218,3.28.869.869,0,0,0,.6,1.3l5.969,1.053C375.252,26.827,376.313,21.546,377.374,17.589Z" transform="translate(-321.775 -13.104)" fill="#92d18a"/>
        <path id="Trazado_252874" data-name="Trazado 252874" d="M271.3,334.18l-13.977,2.464a.869.869,0,0,1-1.005-1.018,9.73,9.73,0,0,0,.022-3.5l-1.978-11.216a9.72,9.72,0,0,0-1.217-3.28.87.87,0,0,1,.6-1.3l13.977-2.464a.869.869,0,0,1,1,1.018,9.726,9.726,0,0,0-.022,3.5l1.978,11.217a9.722,9.722,0,0,0,1.218,3.279A.87.87,0,0,1,271.3,334.18Z" transform="translate(-220.438 -271.068)" fill="#8ec15d"/>
        <path id="Trazado_252875" data-name="Trazado 252875" d="M258.7,325.617l-4.96.874a.869.869,0,0,0-.6,1.3,9.721,9.721,0,0,1,1.217,3.28l1.978,11.216a9.727,9.727,0,0,1-.022,3.5.869.869,0,0,0,1,1.018l8.113-1.43C260.746,341.663,258.952,332.036,258.7,325.617Z" transform="translate(-220.436 -281.227)" fill="#57b33b"/>
        <path id="Trazado_252876" data-name="Trazado 252876" d="M245.027,185.179l-13.977,2.464a.869.869,0,0,1-1.005-1.018,9.713,9.713,0,0,0,.022-3.5l-1.978-11.217a9.719,9.719,0,0,0-1.217-3.279.869.869,0,0,1,.6-1.3l13.977-2.464a.869.869,0,0,1,1,1.018,9.728,9.728,0,0,0-.022,3.5l1.978,11.217a9.706,9.706,0,0,0,1.217,3.28A.869.869,0,0,1,245.027,185.179Z" transform="translate(-197.746 -142.379)" fill="#b4de87"/>
        <path id="Trazado_252877" data-name="Trazado 252877" d="M232.428,176.617l-4.96.874a.869.869,0,0,0-.6,1.3,9.719,9.719,0,0,1,1.217,3.279l1.978,11.217a9.713,9.713,0,0,1-.022,3.5.869.869,0,0,0,1.005,1.018l8.113-1.43C234.474,192.663,232.68,183.036,232.428,176.617Z" transform="translate(-197.746 -152.54)" fill="#92d18a"/>
        <path id="Trazado_252878" data-name="Trazado 252878" d="M235.865,73a9.708,9.708,0,0,1-1.217-3.28l-1.716-9.729L219.6,68.212l.711,4.033a9.728,9.728,0,0,1-.022,3.5.869.869,0,0,0,1,1.018L235.269,74.3A.87.87,0,0,0,235.865,73Z" transform="translate(-191.57 -51.81)" fill="#8ec15d"/>
        <path id="Trazado_252879" data-name="Trazado 252879" d="M219.6,102.75l.711,4.033a9.728,9.728,0,0,1-.022,3.5.869.869,0,0,0,1,1.018l8.113-1.431c-2.561-2.027-4.257-5.82-5.311-9.891Z" transform="translate(-191.57 -86.348)" fill="#57b33b"/>
        <path id="Trazado_252880" data-name="Trazado 252880" d="M43.991,266.723a6.468,6.468,0,0,0-5.07,2.452L34.5,274.758a87.728,87.728,0,0,0-10.851,17.634l-1.99,4.3a1.723,1.723,0,0,0,1.564,2.446H64.76a1.723,1.723,0,0,0,1.564-2.446l-1.99-4.3a87.733,87.733,0,0,0-10.851-17.634l-4.423-5.583A6.469,6.469,0,0,0,43.991,266.723Z" transform="translate(-20.475 -230.362)" fill="#f8eed1"/>
        <path id="Trazado_252881" data-name="Trazado 252881" d="M40.553,273.984a6.467,6.467,0,0,0-1.631,1.462L34.5,281.029a87.722,87.722,0,0,0-10.851,17.634l-1.99,4.3a1.723,1.723,0,0,0,1.564,2.446H56.054C38.185,299.066,36.358,282.026,40.553,273.984Z" transform="translate(-20.475 -236.633)" fill="#edd8a4"/>
        <path id="Trazado_252882" data-name="Trazado 252882" d="M406.287,16.763c-.3,1.721-3.534,1.274-7.216-1s-6.422-5.507-6.118-7.227,3.534-1.274,7.216,1S406.59,15.043,406.287,16.763Z" transform="translate(-341.272 -6.471)" fill="#f8eed1"/>
        <path id="Trazado_252883" data-name="Trazado 252883" d="M219.452,61.582c.3,1.721,3.534,1.274,7.216-1s6.422-5.506,6.118-7.227-3.534-1.273-7.216,1S219.149,59.862,219.452,61.582Z" transform="translate(-191.424 -45.18)" fill="#f8eed1"/>
        <path id="Trazado_252884" data-name="Trazado 252884" d="M78.253,465.4a.984.984,0,1,1-.984-.984A.984.984,0,0,1,78.253,465.4Z" transform="translate(-67.795 -401.103)" fill="#f8eed1"/>
        <path id="Trazado_252885" data-name="Trazado 252885" d="M105.432,398.48a.984.984,0,1,1-.984-.984A.984.984,0,0,1,105.432,398.48Z" transform="translate(-91.269 -343.307)" fill="#f8eed1"/>
        <path id="Trazado_252886" data-name="Trazado 252886" d="M135.78,442.847a.984.984,0,1,1-.984-.984A.984.984,0,0,1,135.78,442.847Z" transform="translate(-117.48 -381.626)" fill="#f8eed1"/>
        <g id="Grupo_149411" data-name="Grupo 149411" transform="translate(21.549 2.068)">
          <path id="Trazado_252887" data-name="Trazado 252887" d="M245.44,450.058a.984.984,0,1,1-.984-.984A.984.984,0,0,1,245.44,450.058Z" transform="translate(-233.739 -389.922)" fill="#edd8a4"/>
          <path id="Trazado_252888" data-name="Trazado 252888" d="M174.038,317.824a.984.984,0,1,1-.983-.984A.984.984,0,0,1,174.038,317.824Z" transform="translate(-172.071 -275.715)" fill="#edd8a4"/>
          <path id="Trazado_252889" data-name="Trazado 252889" d="M211.147,361.586a.984.984,0,1,1-.984-.984A.984.984,0,0,1,211.147,361.586Z" transform="translate(-204.121 -313.511)" fill="#edd8a4"/>
          <path id="Trazado_252890" data-name="Trazado 252890" d="M272.907,67.528c-.158-.273-.667-.275-1.137,0s-.724.713-.566.986.667.274,1.138,0S273.065,67.8,272.907,67.528Z" transform="translate(-257.649 -60.213)" fill="#edd8a4"/>
          <path id="Trazado_252891" data-name="Trazado 252891" d="M237.781,103.549c-.158-.273-.667-.274-1.137,0s-.724.713-.566.986.667.275,1.137,0S237.939,103.822,237.781,103.549Z" transform="translate(-227.311 -91.323)" fill="#edd8a4"/>
          <path id="Trazado_252892" data-name="Trazado 252892" d="M413.814,15.377c-.158.273.1.715.567.986s.979.27,1.137,0-.1-.715-.566-.986S413.972,15.1,413.814,15.377Z" transform="translate(-380.818 -15.171)" fill="#edd8a4"/>
          <path id="Trazado_252893" data-name="Trazado 252893" d="M467.978,60.66c-.158.273.1.715.566.986s.98.271,1.138,0-.1-.715-.566-.987S468.135,60.387,467.978,60.66Z" transform="translate(-427.598 -54.281)" fill="#edd8a4"/>
          <path id="Trazado_252894" data-name="Trazado 252894" d="M431.173,46.718c-.158.273.1.715.566.987s.98.27,1.138,0-.1-.715-.566-.987S431.33,46.446,431.173,46.718Z" transform="translate(-395.81 -42.24)" fill="#edd8a4"/>
        </g>
        <path id="Trazado_252895" data-name="Trazado 252895" d="M78.232,6.225a20.577,20.577,0,0,0-4.8-4.029C70.328.279,67.53-.441,65.951.268A2.143,2.143,0,0,0,64.7,1.78c-.01.036-.019.073-.026.111l-1.76,9.983a8.675,8.675,0,0,1-1.09,2.934,1.893,1.893,0,0,0-.179,1.532,1.89,1.89,0,0,0-.356,1.5,8.665,8.665,0,0,1,.02,3.13l-1.327,7.525-.294-1.668a8.664,8.664,0,0,1,.02-3.131,1.891,1.891,0,0,0-.356-1.5,1.891,1.891,0,0,0-.179-1.531,8.673,8.673,0,0,1-1.09-2.935L56.37,8a1.1,1.1,0,0,0-.027-.111,2.141,2.141,0,0,0-1.25-1.512c-1.579-.709-4.377.012-7.484,1.928a20.562,20.562,0,0,0-4.8,4.029c-.959,1.133-2.047,2.789-1.791,4.245l.711,4.033a8.661,8.661,0,0,1-.02,3.13,1.893,1.893,0,0,0,.355,1.5,1.891,1.891,0,0,0,.18,1.531,8.666,8.666,0,0,1,1.089,2.935L45.243,40.52l-1.855-2.342a7.49,7.49,0,0,0-11.742,0l-4.423,5.583A88.865,88.865,0,0,0,16.245,61.6l-1.989,4.3a2.745,2.745,0,0,0,2.491,3.9h1.775a1.022,1.022,0,1,0,0-2.045H16.747a.7.7,0,0,1-.635-.994l1.989-4.3A86.817,86.817,0,0,1,28.826,45.031l4.423-5.583a5.445,5.445,0,0,1,8.536,0l4.423,5.583c.211.267.419.536.627.8l.007.01A86.785,86.785,0,0,1,56.932,62.46l.994,2.148,0,.007.992,2.144a.7.7,0,0,1-.636.994H23.2a1.022,1.022,0,1,0,0,2.045H58.286a2.745,2.745,0,0,0,2.492-3.9l-.44-.952,4.7-.829a1.891,1.891,0,0,0,1.3-2.83,8.669,8.669,0,0,1-.635-1.309l4.233.747a1.892,1.892,0,0,0,2.187-2.215,8.674,8.674,0,0,1-.02-3.13l1.978-11.217a8.655,8.655,0,0,1,1.09-2.935A1.893,1.893,0,0,0,75.35,39.7a1.891,1.891,0,0,0,.355-1.5,8.661,8.661,0,0,1-.02-3.13l.9-5.1a1.023,1.023,0,0,0-2.014-.355l-.9,5.1a10.709,10.709,0,0,0-.014,3.649L61.341,36.192l-.378-2.145a10.664,10.664,0,0,0,.383-1.505l1.978-11.217a10.7,10.7,0,0,0,.013-3.649l13.546,2.389A10.7,10.7,0,0,0,75.649,23.5l-.237,1.347a1.023,1.023,0,1,0,2.014.355l.238-1.347a8.652,8.652,0,0,1,1.09-2.935,1.891,1.891,0,0,0,.179-1.531,1.894,1.894,0,0,0,.355-1.5,8.661,8.661,0,0,1-.02-3.13l.756-4.286h0C80.279,9.013,79.19,7.358,78.232,6.225Zm-35.1,10.113c-.087-.038-.09-.057-.1-.112-.175-.991,1.938-3.891,5.648-6.179,2.942-1.815,4.98-2.07,5.573-1.8.087.039.09.058.1.112h0c.175.991-1.939,3.892-5.648,6.179C45.766,16.35,43.729,16.6,43.135,16.338Zm.611,3.921-.317-1.8c.094.005.189.01.288.01a12.6,12.6,0,0,0,6.064-2.195,20.574,20.574,0,0,0,4.8-4.03c.125-.149.253-.306.38-.471l1.113,6.31a10.7,10.7,0,0,0,1.234,3.434L43.761,23.907A10.7,10.7,0,0,0,43.747,20.259Zm4.064,23.5-.357-.452a10.715,10.715,0,0,0-.125-2.739L45.351,29.354a10.692,10.692,0,0,0-1.235-3.434l13.546-2.388a10.7,10.7,0,0,0,.014,3.649L59.654,38.4a10.7,10.7,0,0,0,1.235,3.433l-12.82,2.261ZM73.3,40.377a10.709,10.709,0,0,0-1.234,3.434L70.089,55.027a10.707,10.707,0,0,0-.014,3.649l-4.923-.869L63.271,47.139a8.674,8.674,0,0,1,.02-3.13,1.89,1.89,0,0,0-.355-1.5,1.893,1.893,0,0,0-.179-1.531,8.663,8.663,0,0,1-1.031-2.642ZM61.243,43.845a10.683,10.683,0,0,0,.014,3.649l1.978,11.216a10.691,10.691,0,0,0,1.234,3.434l-5.021.885-.66-1.428a88.913,88.913,0,0,0-9.321-15.679ZM77.253,14.4a10.707,10.707,0,0,0-.014,3.649L63.693,15.662a10.7,10.7,0,0,0,1.234-3.434l1.158-6.563c.126.165.255.322.38.471a20.566,20.566,0,0,0,4.8,4.029,12.6,12.6,0,0,0,6.064,2.2c.1,0,.194,0,.288-.01Zm.756-4.286v0c-.01.053-.014.072-.1.11-.593.266-2.631.012-5.573-1.8-3.709-2.287-5.822-5.187-5.648-6.179.01-.055.013-.073.1-.112a1.428,1.428,0,0,1,.564-.089,10.731,10.731,0,0,1,5.009,1.892C76.07,6.223,78.183,9.124,78.009,10.115Z" transform="translate(-14.001 0)"/>
      </g>
    </g>
  </g>
</svg>
