<svg xmlns="http://www.w3.org/2000/svg" width="157" height="157" viewBox="0 0 157 157">
  <g id="Grupo_174001" data-name="Grupo 174001" transform="translate(6204 -451)">
    <circle id="Elipse_6355" data-name="Elipse 6355" cx="78.5" cy="78.5" r="78.5" transform="translate(-6204 451)" fill="#fff"/>
    <g id="Page-1" transform="translate(-6171.017 485)">
      <g id="_043---Marketer" data-name="043---Marketer" transform="translate(0.017)">
        <g id="Icons_copy" data-name="Icons copy" transform="translate(1.493 1.5)">
          <path id="Shape" d="M113.337,151.009a6,6,0,0,1-6,5.985v3.27a6.012,6.012,0,0,1-2.055,4.53l-4.095,3.585-4.155,3.63a5.968,5.968,0,0,1-3.945,1.485h-4.5a5.968,5.968,0,0,1-3.945-1.485l-4.155-3.63-4.1-3.585a6.012,6.012,0,0,1-2.055-4.53v-3.27a5.985,5.985,0,1,1,0-11.97v-.03s0-13.5,9-10.5,9,6,21,4.5a6.5,6.5,0,0,1,3,6v.03a6,6,0,0,1,6,5.985Z" transform="translate(-57.833 -111.993)" fill="#ffe0b2"/>
          <path id="Shape-2" data-name="Shape" d="M197.717,180.133v3.27a6.012,6.012,0,0,1-2.055,4.53l-4.1,3.585-4.155,3.63a5.968,5.968,0,0,1-3.945,1.485h4.5a5.968,5.968,0,0,0,3.945-1.485l4.155-3.63,4.1-3.585a6.012,6.012,0,0,0,2.055-4.53v-3.27a5.985,5.985,0,0,0,0-11.97v-.03a6.5,6.5,0,0,0-3-6c-1.5.188-2.8.3-3.966.36a6.805,6.805,0,0,1,2.466,5.64Z" transform="translate(-152.713 -135.133)" fill="#dfc49c"/>
          <path id="Shape-3" data-name="Shape" d="M123.208,52.188c0,8.985-3,10.485-3,10.485v-.03a6.5,6.5,0,0,0-3-6c-12,1.5-12-1.5-21-4.5s-9,10.5-9,10.5v.03s-9-14.97,3-20.955c0,0,6.96-12.5,23.55-5.385a.75.75,0,0,1,.03,1.365,5.249,5.249,0,0,0-2.025,1.635.75.75,0,0,0,.36,1.17C114.943,41.419,123.208,44.749,123.208,52.188Z" transform="translate(-70.704 -29.643)" fill="#d2e1f1"/>
          <path id="Shape-4" data-name="Shape" d="M196.185,40.685a.75.75,0,0,1-.36-1.17,5.249,5.249,0,0,1,2.025-1.635.75.75,0,0,0-.03-1.365,22.691,22.691,0,0,0-11.862-2.04,26.406,26.406,0,0,1,7.362,2.04.75.75,0,0,1,.03,1.365,5.249,5.249,0,0,0-2.025,1.635.75.75,0,0,0,.36,1.17c2.82.915,11.085,4.245,11.085,11.685a27.918,27.918,0,0,1-.45,5.283,7.024,7.024,0,0,1,1.95,5.172v.03s3-1.5,3-10.485C207.27,44.93,199.005,41.6,196.185,40.685Z" transform="translate(-154.766 -29.825)" fill="#b0c0d2"/>
          <path id="Shape-5" data-name="Shape" d="M176.347,432.067l-2.4,2.1h-6l-2.4-2.1,5.4-5.4Z" transform="translate(-137.943 -353.167)" fill="#5000c7"/>
          <path id="Shape-6" data-name="Shape" d="M124.949,405.567,118.514,412a1.512,1.512,0,0,1-2.13,0l-5.94-5.94-.7-.495,3.21-4.5S115.949,405.567,124.949,405.567Z" transform="translate(-91.945 -332.067)" fill="#f5f5f5"/>
          <path id="Shape-7" data-name="Shape" d="M152,341.916s-3,4.5-12,4.5-12-4.5-12-4.5a23.925,23.925,0,0,0,1.65-12.615l4.155,3.63a5.968,5.968,0,0,0,3.945,1.485h4.5a5.968,5.968,0,0,0,3.945-1.485l4.155-3.63A23.923,23.923,0,0,0,152,341.916Z" transform="translate(-106.996 -272.916)" fill="#dfc49c"/>
          <path id="Shape-8" data-name="Shape" d="M229.473,433.462l-3.09,6.7H213.8l-.465-6,2.4-2.1,1.035,1.035a1.512,1.512,0,0,0,2.13,0l5.94-5.94.705-.495,3.78,5.295a1.5,1.5,0,0,1,.15,1.5Z" transform="translate(-177.329 -353.167)" fill="#f3f9ff"/>
          <path id="Shape-9" data-name="Shape" d="M183.485,475.333h-6.93l.465-6h6Z" transform="translate(-147.016 -388.333)" fill="#5000c7"/>
          <path id="Shape-10" data-name="Shape" d="M102.89,434.167l-.465,6H89.84l-3.09-6.7a1.5,1.5,0,0,1,.15-1.5l3.78-5.295.7.495,5.94,5.94a1.513,1.513,0,0,0,2.13,0l1.035-1.035Z" transform="translate(-72.886 -353.167)" fill="#f3f9ff"/>
          <path id="Shape-11" data-name="Shape" d="M22.525,410.862a1.5,1.5,0,0,0-.15,1.5l3.09,6.7H9.985a1.5,1.5,0,0,1-1.4-1.98,19.628,19.628,0,0,1,3.795-7.02c4.32-4.5,17.13-9,17.13-9l-3.21,4.5Z" transform="translate(-8.511 -332.067)" fill="#81af1d"/>
          <path id="Shape-12" data-name="Shape" d="M284.134,419.137h-15.48l3.09-6.705a1.5,1.5,0,0,0-.15-1.5l-3.78-5.295-3.2-4.485a85.607,85.607,0,0,1,11.985,5.325v.66a4.5,4.5,0,0,0,4.5,4.5h1.8a22.5,22.5,0,0,1,2.625,5.52,1.5,1.5,0,0,1-1.4,1.98Z" transform="translate(-219.6 -332.137)" fill="#81af1d"/>
          <path id="Shape-13" data-name="Shape" d="M285.529,417.157a22.5,22.5,0,0,0-2.625-5.52h-1.8a4.5,4.5,0,0,1-4.5-4.5v-.66a85.607,85.607,0,0,0-11.985-5.325l1.785,2.511c1.838.811,3.846,1.772,5.7,2.814v.66a4.5,4.5,0,0,0,4.5,4.5h1.8a22.5,22.5,0,0,1,2.625,5.52,1.5,1.5,0,0,1-1.4,1.98h4.5a1.5,1.5,0,0,0,1.4-1.98Z" transform="translate(-219.6 -332.137)" fill="#5d8700"/>
          <path id="Shape-14" data-name="Shape" d="M211.477,405.567l-.705.495-5.94,5.94a1.512,1.512,0,0,1-2.13,0l-6.435-6.435c9,0,12-4.5,12-4.5l.015.015Z" transform="translate(-163.263 -332.067)" fill="#f5f5f5"/>
          <path id="Shape-15" data-name="Shape" d="M360.367,59.733v12h-7.5a3.009,3.009,0,0,1-3-3v-6a3.009,3.009,0,0,1,3-3Z" transform="translate(-289.863 -50.733)" fill="#cfd8dc"/>
          <path id="Shape-16" data-name="Shape" d="M420.1,25.6v24s-1.5-6-10.5-6v-12C418.6,31.6,420.1,25.6,420.1,25.6Z" transform="translate(-339.096 -22.6)" fill="#e53935"/>
          <path id="Shape-17" data-name="Shape" d="M475.333,11.533v24a3,3,0,1,1-6,0v-24a3.009,3.009,0,0,1,3-3,3.022,3.022,0,0,1,3,3Z" transform="translate(-388.329 -8.533)" fill="#9e9e9e"/>
          <path id="Shape-18" data-name="Shape" d="M372.933,128v6a3,3,0,1,1-6,0v-6Z" transform="translate(-303.929 -107)" fill="#9e9e9e"/>
          <rect id="Rectangle-path" width="30" height="30" rx="4" transform="translate(57.004 49.5)" fill="#e2a05f"/>
          <path id="Shape-19" data-name="Shape" d="M456.767,290.133h-4.5a4.5,4.5,0,0,1,4.5,4.5v21a4.5,4.5,0,0,1-4.5,4.5h4.5a4.5,4.5,0,0,0,4.5-4.5v-21A4.5,4.5,0,0,0,456.767,290.133Z" transform="translate(-374.263 -240.633)" fill="#e2872c"/>
        </g>
        <g id="Icons" transform="translate(0)">
          <path id="Shape-20" data-name="Shape" d="M178.167,290.133h-6a1.5,1.5,0,0,0,0,3h6a1.5,1.5,0,1,0,0-3Z" transform="translate(-140.67 -239.133)"/>
          <path id="Shape-21" data-name="Shape" d="M183.7,315.733h-3a1.5,1.5,0,0,0,0,3h3a1.5,1.5,0,0,0,0-3Z" transform="translate(-147.703 -260.233)"/>
          <path id="Shape-22" data-name="Shape" d="M180.7,259h3a1.5,1.5,0,0,0,0-3h-3a1.5,1.5,0,0,0,0,3Z" transform="translate(-147.703 -211)"/>
          <path id="Shape-23" data-name="Shape" d="M135.5,190.733a1.5,1.5,0,0,0,0-3h-6a1.5,1.5,0,0,0,0,3Z" transform="translate(-105.503 -154.733)"/>
          <path id="Shape-24" data-name="Shape" d="M214.833,190.733h6a1.5,1.5,0,0,0,0-3h-6a1.5,1.5,0,1,0,0,3Z" transform="translate(-175.836 -154.733)"/>
          <path id="Shape-25" data-name="Shape" d="M366.833,0a4.491,4.491,0,0,0-4.467,4.173c-.153.5-1.683,4.827-9.033,4.827h-7.5a4.5,4.5,0,0,0-4.5,4.5v6a4.5,4.5,0,0,0,3,4.224V28.5a4.5,4.5,0,0,0,9,0V24c7.35,0,8.883,4.337,9.033,4.829a4.489,4.489,0,0,0,8.967-.329V4.5A4.5,4.5,0,0,0,366.833,0Zm-22.5,13.5a1.5,1.5,0,0,1,1.5-1.5h6v3h-3a1.5,1.5,0,0,0,0,3h3v3h-6a1.5,1.5,0,0,1-1.5-1.5Zm6,15a1.5,1.5,0,1,1-3,0V24h3Zm4.5-7.435V17.937a29.63,29.63,0,0,0,3.27-.4,1.5,1.5,0,1,0-.54-2.949,26.694,26.694,0,0,1-2.73.343V11.936a12.866,12.866,0,0,0,7.5-2.733V23.8A12.865,12.865,0,0,0,354.833,21.065Zm13.5,7.435a1.5,1.5,0,1,1-3,0V4.5a1.5,1.5,0,1,1,3,0Z" transform="translate(-281.336 0)"/>
          <path id="Shape-26" data-name="Shape" d="M84.014,70.637h-21a6,6,0,0,0-6,6v17.85a94.031,94.031,0,0,0-9.348-4.023,22.537,22.537,0,0,1-1.38-10.691l3.666-3.209a7.5,7.5,0,0,0,2.562-5.65V68.986a7.482,7.482,0,0,0,1.238-14.3,20.319,20.319,0,0,0,1.762-9.495c0-7.59-7.372-11.342-10.986-12.723a3.7,3.7,0,0,1,.684-.4,2.25,2.25,0,0,0-.048-4.12c-15.85-6.783-23.709,3.395-25.2,5.623a11.862,11.862,0,0,0-6.172,7.273c-1.5,5.144.579,10.8,1.933,13.682a7.482,7.482,0,0,0,.789,14.466v1.929a7.5,7.5,0,0,0,2.562,5.645l3.666,3.209a22.548,22.548,0,0,1-1.38,10.692C18.649,91.457,8.3,95.439,4.3,99.6a21.117,21.117,0,0,0-4.139,7.594,3.05,3.05,0,0,0,.43,2.721,2.933,2.933,0,0,0,2.39,1.221h63.06a2.933,2.933,0,0,0,2.391-1.221,3.047,3.047,0,0,0,.427-2.731,27.022,27.022,0,0,0-1.46-3.548H84.014a6,6,0,0,0,6-6v-21a6,6,0,0,0-6-6Zm-34.41,37.5H39.367l-.3-3.864.779-.681.047.047a3,3,0,0,0,4.242,0l5.313-5.313,2.85,3.98Zm-30.18,0-2.679-5.83,2.838-3.977,5.31,5.307a3,3,0,0,0,4.242,0l.047-.046.778.681-.3,3.865ZM46.336,93.971l1.35,1.882-5.672,5.662-4.1-4.1a16.082,16.082,0,0,0,8.423-3.447Zm-9.385,8.166H32.078l-.77-.673,3.206-3.206,3.205,3.206Zm-9.936-.621L21.35,95.852l1.35-1.884a16.07,16.07,0,0,0,8.421,3.45Zm5.889,3.621h3.222l.233,3H32.67ZM16.678,41.669a8.985,8.985,0,0,1,5.006-5.614,1.5,1.5,0,0,0,.642-.612,14.487,14.487,0,0,1,12.549-6.819,22.048,22.048,0,0,1,7.74,1.53,6.73,6.73,0,0,0-1.248,1.272,2.25,2.25,0,0,0,1.1,3.492c2.357.766,10.05,3.777,10.05,10.27a22.359,22.359,0,0,1-.793,6.536,7.3,7.3,0,0,0-3.036-3.429,1.521,1.521,0,0,0-.856-.15c-8.027,1-10.283-.06-14.021-1.83a52.321,52.321,0,0,0-6.319-2.6,7.09,7.09,0,0,0-6.7.684,10.35,10.35,0,0,0-3.531,5.814,14.9,14.9,0,0,1-.576-8.54Zm2.836,29.246V67.636a1.5,1.5,0,0,0-1.5-1.5,4.473,4.473,0,0,1-1.5-8.7v2.7a1.5,1.5,0,0,0,3,0v-4.5c0-1.847.555-7.031,3.027-8.808a4.236,4.236,0,0,1,4-.272,50.116,50.116,0,0,1,5.985,2.474c3.855,1.821,6.663,3.15,15.126,2.158a5.39,5.39,0,0,1,1.863,4.448v4.5a1.5,1.5,0,0,0,3,0v-2.7a4.473,4.473,0,0,1-1.5,8.7,1.5,1.5,0,0,0-1.5,1.5v3.278A4.5,4.5,0,0,1,47.976,74.3l-8.25,7.224a4.508,4.508,0,0,1-2.962,1.113h-4.5A4.5,4.5,0,0,1,29.3,81.524L21.052,74.3a4.5,4.5,0,0,1-1.538-3.385Zm7.817,12.868a7.5,7.5,0,0,0,4.933,1.854h4.5A7.509,7.509,0,0,0,41.7,83.783l1.451-1.271a24.714,24.714,0,0,0,1.621,8.85c-1.1,1.069-4.1,3.274-10.261,3.274s-9.171-2.212-10.259-3.277a24.7,24.7,0,0,0,1.623-8.85ZM6.464,101.675c2.429-2.531,7.9-5.127,11.9-6.8l-4.05,5.681a3,3,0,0,0-.3,3l2.11,4.584H3.014A18.408,18.408,0,0,1,6.464,101.675Zm59.58,6.462H52.909l2.11-4.581a3,3,0,0,0-.3-3l-4.062-5.692c1.95.818,4.241,1.859,6.375,3.01a6,6,0,0,0,5.982,5.763h.968A23.213,23.213,0,0,1,66.044,108.137Zm20.97-10.5a3,3,0,0,1-3,3h-21a3,3,0,0,1-3-3v-21a3,3,0,0,1,3-3h21a3,3,0,0,1,3,3Z" transform="translate(-0.017 -21.137)"/>
          <path id="Shape-27" data-name="Shape" d="M377.813,315.733h-4.5a1.5,1.5,0,0,0,0,3h.879l-3.879,3.879-2.379-2.379a3,3,0,0,0-4.242,0l-4.94,4.94a1.5,1.5,0,1,0,2.121,2.121l4.94-4.94,2.379,2.379a3,3,0,0,0,4.242,0l3.879-3.879v.879a1.5,1.5,0,0,0,3,0v-4.5A1.5,1.5,0,0,0,377.813,315.733Z" transform="translate(-295.316 -260.233)"/>
          <path id="Shape-28" data-name="Shape" d="M359.9,401.067a1.5,1.5,0,0,0-1.5,1.5v3a1.5,1.5,0,0,0,3,0v-3A1.5,1.5,0,0,0,359.9,401.067Z" transform="translate(-295.403 -330.567)"/>
          <path id="Shape-29" data-name="Shape" d="M394.033,375.467a1.5,1.5,0,0,0-1.5,1.5v7.5a1.5,1.5,0,0,0,3,0v-7.5A1.5,1.5,0,0,0,394.033,375.467Z" transform="translate(-323.536 -309.467)"/>
          <path id="Shape-30" data-name="Shape" d="M428.167,392.533a1.5,1.5,0,0,0-1.5,1.5v4.5a1.5,1.5,0,0,0,3,0v-4.5A1.5,1.5,0,0,0,428.167,392.533Z" transform="translate(-351.67 -323.533)"/>
          <path id="Shape-31" data-name="Shape" d="M462.3,375.467a1.5,1.5,0,0,0-1.5,1.5v7.5a1.5,1.5,0,0,0,3,0v-7.5A1.5,1.5,0,0,0,462.3,375.467Z" transform="translate(-379.803 -309.467)"/>
          <circle id="Elipse_6242" data-name="Elipse 6242" cx="2.237" cy="2.237" r="2.237" transform="translate(24.865 38.539)"/>
          <circle id="Elipse_6243" data-name="Elipse 6243" cx="2.237" cy="2.237" r="2.237" transform="translate(39.781 38.539)"/>
        </g>
      </g>
    </g>
  </g>
</svg>
