<svg xmlns="http://www.w3.org/2000/svg" width="150" height="150" viewBox="0 0 150 150">
  <g id="Grupo_224039" data-name="Grupo 224039" transform="translate(5864.239 -128)">
    <g id="Grupo_223937" data-name="Grupo 223937" transform="translate(-6997.239 -12053)">
      <circle id="Elipse_6362" data-name="Elipse 6362" cx="75" cy="75" r="75" transform="translate(1133 12181)" fill="#e2872c"/>
      <circle id="Elipse_6363" data-name="Elipse 6363" cx="63" cy="63" r="63" transform="translate(1145 12193)" fill="#fff"/>
    </g>
    <g id="Grupo_149425" data-name="Grupo 149425" transform="translate(-5840.238 164.651)">
      <g id="Grupo_149422" data-name="Grupo 149422" transform="translate(14.742 1.153)">
        <path id="Trazado_252967" data-name="Trazado 252967" d="M362.482,300.274V282.653a11.382,11.382,0,0,0-10.217-11.322c-.383-.039-.771.056-1.164.056a11.133,11.133,0,0,0-11.122,11.345V300.2Z" transform="translate(-290.963 -230.77)" fill="#727997"/>
        <path id="Trazado_252968" data-name="Trazado 252968" d="M350.91,271.066a11.382,11.382,0,0,0-10.151,11.315v17.49l-2.459.057V282.381A11.381,11.381,0,0,1,349.681,271a11.24,11.24,0,0,1,1.23.066Z" transform="translate(-289.542 -230.498)" fill="#575c73"/>
        <path id="Trazado_252969" data-name="Trazado 252969" d="M398.027,405.527V393.6l-.471-1.393.471-4.093h-6.352l.269,6.475-.269,2.152v8.784l3.175.478Z" transform="translate(-334.713 -329.612)" fill="#f2d1a5"/>
        <path id="Trazado_252970" data-name="Trazado 252970" d="M356.5,432.191l-6.243,2.471.758,8.643H359.8l-.458-.5c-2.188-2.408-2.614-5.518-2.7-8.758-.018-.713-.143-1.132-.143-1.852Z" transform="translate(-299.66 -366.912)" fill="#e2872c"/>
        <path id="Trazado_252971" data-name="Trazado 252971" d="M356.57,432.392l-.02.008-6.2,2.547-.183-2.084,6.38-2.622.268,1.072Z" transform="translate(-299.588 -365.261)" fill="#e2872c"/>
        <path id="Trazado_252972" data-name="Trazado 252972" d="M422.029,432.925l-6.52-2.686c0,3.937-.043,7.986-2.74,10.937l-.437.478h10.539a1.539,1.539,0,0,0,1.539-1.539v-3.633A3.847,3.847,0,0,0,422.029,432.925Z" transform="translate(-352.195 -365.26)" fill="#e2872c"/>
        <path id="Trazado_252973" data-name="Trazado 252973" d="M391.673,388.119h0V393.6s0,2.436.02,3.149l1.6-.656a.615.615,0,0,0,.381-.569v-.683a.307.307,0,0,1,.359-.3,4.9,4.9,0,0,0,.816.07,6.009,6.009,0,0,0,3.177-1v-5.486h-6.35Z" transform="translate(-334.71 -329.615)" fill="#f2bb88"/>
        <path id="Trazado_252974" data-name="Trazado 252974" d="M367.331,311.447a7.773,7.773,0,0,0-.083,1.547c.841,4.084,4.152,8.189,6.9,8.189,3.177,0,7.1-5.479,7.1-10.076a8.712,8.712,0,0,0-2.781-6.858c-.379-.312-.691-.283-1.144-.5a.248.248,0,0,0-.349.165,9.57,9.57,0,0,1-7.239,6.907l-2.213.383C367.411,311.227,367.331,311.447,367.331,311.447Z" transform="translate(-314.011 -258.191)" fill="#f2d1a5"/>
        <path id="Trazado_252975" data-name="Trazado 252975" d="M369.3,310.7a11.047,11.047,0,0,0,8.268-8.089,6.2,6.2,0,0,0-1.247-.8.248.248,0,0,0-.349.165,9.53,9.53,0,0,1-7.187,6.928l-2.442.522a.246.246,0,0,0-.194.243h0a9.545,9.545,0,0,0,.2,1.684Z" transform="translate(-313.107 -256.553)" fill="#f2bb88"/>
        <path id="Trazado_252976" data-name="Trazado 252976" d="M46.09,435.415l-8.9-3.171a4.1,4.1,0,0,1-6.254-.222l-6.425,2.67a3.546,3.546,0,0,0-2.421,3.3v3.479a1.539,1.539,0,0,0,1.539,1.539l.306.154h6.9l3.076-.394,3.277.394h5.678l3.224-.571Z" transform="translate(-21.936 -366.769)" fill="#81af1d"/>
        <path id="Trazado_252977" data-name="Trazado 252977" d="M86.821,398.126H81l.026,4.621c.553.638.918,1.383,1.664,1.6a4.2,4.2,0,0,0,4.352-1.282l0,0v-2.441Z" transform="translate(-71.791 -338.083)" fill="#f2d1a5"/>
        <path id="Trazado_252978" data-name="Trazado 252978" d="M31.4,433.055,24.7,436.084l-.472.2a1.84,1.84,0,0,0-1.144,1.708v5.172h-.46a1.538,1.538,0,0,1-1.539-1.539v-3.634a3.847,3.847,0,0,1,2.381-3.555l6.226-2.413a8.665,8.665,0,0,0,1.7,1.034Z" transform="translate(-21.09 -366.769)" fill="#81af1d"/>
        <path id="Trazado_252979" data-name="Trazado 252979" d="M57.857,433.23,50.6,441.654H44.246l-5.285-7.078-1.025-1.564,3.48-1.21,2.832-1.562a4.2,4.2,0,0,0,6.351,0h0Z" transform="translate(-35.347 -365.261)" fill="#f8f7f7"/>
        <path id="Trazado_252980" data-name="Trazado 252980" d="M81,398.13H79v5.25l1.588.988a2.356,2.356,0,0,1,.41-.02v-2.569a.307.307,0,0,1,.355-.3,5.344,5.344,0,0,0,.821.065,6.5,6.5,0,0,0,3.177-.915v-2.5Z" transform="translate(-70.099 -338.087)" fill="#f2bb88"/>
        <g id="Grupo_149417" data-name="Grupo 149417" transform="translate(2.382 64.979)">
          <path id="Trazado_252981" data-name="Trazado 252981" d="M45.107,431.523h0l-7.286,3.051-1.231-1.649,6.519-2.687A4.029,4.029,0,0,0,45.107,431.523Z" transform="translate(-36.59 -430.24)" fill="#e8e8e8"/>
        </g>
        <path id="Trazado_252982" data-name="Trazado 252982" d="M66.691,299.209c0-4.835-2.481-7.783-7.315-7.783s-7.316,2.948-7.316,7.783a9.869,9.869,0,0,0,.352,3.059c1.2,3.739,4.329,6.972,6.963,6.972,2.612,0,5.7-3.175,6.93-6.87a9.922,9.922,0,0,0,.386-3.161Z" transform="translate(-47.3 -247.784)" fill="#f2d1a5"/>
        <path id="Trazado_252983" data-name="Trazado 252983" d="M62.658,292.394a4.955,4.955,0,0,0-1.4.361l-.006.016a2.947,2.947,0,0,0-.3-1.056,9.65,9.65,0,0,0-2.425-.29c-4.835,0-7.469,2.948-7.469,7.783a10.043,10.043,0,0,0,.508,3.058c.107-.1.223-.206.349-.335a15.308,15.308,0,0,1,4.466-3.427,11.072,11.072,0,0,0,2.9-1.308.309.309,0,0,1,.472.075,7.347,7.347,0,0,0,2.672,2.336,10.045,10.045,0,0,1,3.027,2.762A10.1,10.1,0,0,0,66,299.208c0-3.2-1.157-5.575-3.342-6.814Z" transform="translate(-46.454 -247.783)" fill="#f2bb88"/>
        <path id="Trazado_252984" data-name="Trazado 252984" d="M110.375,285.075a5.086,5.086,0,0,1,1.941-.562,4.361,4.361,0,0,1,3.188,1.225c2.908,2.945,1.381,7.485.264,9.478a.307.307,0,0,1-.5.055,18.866,18.866,0,0,0-3.781-3.261,7.107,7.107,0,0,1-1.542-1.325,5.493,5.493,0,0,1-.863-1.93Z" transform="translate(-95.559 -241.933)" fill="#727997"/>
        <path id="Trazado_252985" data-name="Trazado 252985" d="M110.853,287.4a8.633,8.633,0,0,1-2.058,3.286,5.548,5.548,0,0,1-1.074-1.8l1.488-3.972a5.124,5.124,0,0,1,1.954-.4,6.331,6.331,0,0,1-.309,2.885Z" transform="translate(-94.404 -241.931)" fill="#575c73"/>
        <path id="Trazado_252986" data-name="Trazado 252986" d="M51.58,270.483a3.562,3.562,0,0,0-2.533-1.473c-1.785-.284-4.016.54-6.064,2.038-3.862,2.823-3.072,8.353-1.861,10.809a.308.308,0,0,0,.527.046c.211-.292.546-.506,1.016-.986a12.406,12.406,0,0,1,4.62-2.966C51.16,276.54,52.9,272.548,51.58,270.483Z" transform="translate(-37.202 -228.766)" fill="#727997"/>
        <path id="Trazado_252987" data-name="Trazado 252987" d="M48.864,268.922a9.425,9.425,0,0,0-4.169,1.754c-3.351,2.449-3.137,7.3-2.23,10.149a10.543,10.543,0,0,0-1.018,1.2.309.309,0,0,1-.527-.046c-1.211-2.456-2.086-8.475,1.777-11.3A8.539,8.539,0,0,1,48.864,268.922Z" transform="translate(-37.001 -228.675)" fill="#575c73"/>
        <path id="Trazado_252988" data-name="Trazado 252988" d="M48.208,110.459l-3.571-.02a1.649,1.649,0,0,0-1.156.473l-2.406,2.364a.824.824,0,0,1-1.16,0l-2.357-2.352a1.649,1.649,0,0,0-1.165-.482H32.684a2.968,2.968,0,0,1-2.968-2.968V97.081a3.045,3.045,0,0,1,1.845-2.96,2.966,2.966,0,0,1,.969-.162H51.423v13.665a2.962,2.962,0,0,1-.162.97,3.192,3.192,0,0,1-3.052,1.864Z" transform="translate(-28.39 -80.67)" fill="#f8f7f7"/>
        <path id="Trazado_252989" data-name="Trazado 252989" d="M50.416,109.492a2.968,2.968,0,0,1-2.8,2H43.948a1.653,1.653,0,0,0-1.157.473l-2.559,2.518a.825.825,0,0,1-1.161,0l-2.51-2.505a1.654,1.654,0,0,0-1.165-.481H31.687a2.968,2.968,0,0,1-2.967-2.968v-10.7a2.965,2.965,0,0,1,2-2.805v13.5a.97.97,0,0,0,.968.97H35.4a3.623,3.623,0,0,1,2.576,1.065l1.256,1.254a.616.616,0,0,0,.867,0l1.3-1.276a3.647,3.647,0,0,1,2.558-1.047Z" transform="translate(-27.547 -81.567)" fill="#e8e8e8"/>
        <g id="Grupo_149418" data-name="Grupo 149418" transform="translate(7.29 18.607)">
          <path id="Trazado_252990" data-name="Trazado 252990" d="M74.239,129.29a.359.359,0,0,0,.49,0,2.742,2.742,0,0,1,1.881-.735,2.688,2.688,0,0,1,2.684,2.7c-.028,1.941-2.1,3.6-3.515,4.513a5.567,5.567,0,0,1-1.135.462.359.359,0,0,1-.325,0c-.848-.418-4.494-2.276-4.44-4.984a2.584,2.584,0,0,1,1.5-2.42,2.637,2.637,0,0,1,.3-.172,2.581,2.581,0,0,1,.691-.1A2.688,2.688,0,0,1,74.239,129.29Z" transform="translate(-69.67 -128.552)" fill="#e53935"/>
          <path id="Trazado_252991" data-name="Trazado 252991" d="M74.626,136.311c-.5.321-.919.549-1.136.663a.355.355,0,0,1-.324,0c-.848-.418-4.7-2.472-4.648-5.18a2.8,2.8,0,0,1,2.009-2.6,2.756,2.756,0,0,0-.626,1.675C69.857,133.069,72.985,135.313,74.626,136.311Z" transform="translate(-68.517 -129.1)" fill="#e53935"/>
        </g>
        <path id="Trazado_252992" data-name="Trazado 252992" d="M360.438,110.438h-3.665a1.649,1.649,0,0,0-1.156.473l-2.405,2.518a.824.824,0,0,1-1.161,0l-2.357-2.505a1.649,1.649,0,0,0-1.165-.482h-3.709a2.968,2.968,0,0,1-2.968-2.968l.2-13.208,2.993-.3h15.55a2.968,2.968,0,0,1,2.968,2.968v10.7a2.961,2.961,0,0,1-.162.97,3.044,3.044,0,0,1-2.959,1.844Z" transform="translate(-292.549 -80.67)" fill="#f8f7f7"/>
        <g id="Grupo_149419" data-name="Grupo 149419" transform="translate(55.268 18.607)">
          <path id="Trazado_252993" data-name="Trazado 252993" d="M386.378,129.29a.359.359,0,0,0,.49,0,2.742,2.742,0,0,1,1.881-.735,2.688,2.688,0,0,1,2.684,2.7c-.028,1.941-2.1,3.6-3.515,4.513a5.567,5.567,0,0,1-1.135.462.359.359,0,0,1-.325,0c-.848-.418-4.494-2.276-4.44-4.984a2.584,2.584,0,0,1,1.5-2.42,2.637,2.637,0,0,1,.3-.172,2.581,2.581,0,0,1,.691-.1,2.688,2.688,0,0,1,1.868.738Z" transform="translate(-381.809 -128.552)" fill="#e53935"/>
          <path id="Trazado_252994" data-name="Trazado 252994" d="M386.765,136.311c-.5.321-.919.549-1.136.663a.355.355,0,0,1-.324,0c-.848-.418-4.7-2.472-4.648-5.18a2.8,2.8,0,0,1,2.009-2.6,2.756,2.756,0,0,0-.626,1.675C382,133.069,385.123,135.313,386.765,136.311Z" transform="translate(-380.656 -129.1)" fill="#e53935"/>
        </g>
        <path id="Trazado_252995" data-name="Trazado 252995" d="M356.078,108.594a3.63,3.63,0,0,0-2.558,1.047l-1.512,1.489a.309.309,0,0,1-.433,0l-1.471-1.469a3.645,3.645,0,0,0-2.576-1.065h-3.709a.97.97,0,0,1-.97-.97v-5.381a.308.308,0,0,1,.075-.2,4.206,4.206,0,0,0,.4-.548,6.127,6.127,0,0,0,.875-3.156V93.959H340.85v13.665a2.968,2.968,0,0,0,2.968,2.968h3.709a1.654,1.654,0,0,1,1.165.481l2.51,2.505a.825.825,0,0,0,1.161,0l2.559-2.518a1.653,1.653,0,0,1,1.156-.473h3.664a2.968,2.968,0,0,0,2.805-2h-6.47Z" transform="translate(-291.7 -80.67)" fill="#e8e8e8"/>
        <path id="Trazado_252996" data-name="Trazado 252996" d="M187.309,28.929l-4.443.15a2.473,2.473,0,0,0-1.843.824l-2.58,2.839a1.154,1.154,0,0,1-1.726-.007l-2.386-2.889a2.473,2.473,0,0,0-1.856-.839l-5.093.285a4.123,4.123,0,0,1-4.122-4.122V11.622A4.121,4.121,0,0,1,167.381,7.5h20.4a4.122,4.122,0,0,1,4.122,4.122V25.17a4.1,4.1,0,0,1-.589,2.124c-.721,1.2-2.5,1.635-4,1.635Z" transform="translate(-141.406 -7.5)" fill="#f8f7f7"/>
        <path id="Trazado_252997" data-name="Trazado 252997" d="M191.313,30.536a4.123,4.123,0,0,1-3.534,2h-4.914a2.478,2.478,0,0,0-1.845.824l-2.573,2.876a1.153,1.153,0,0,1-1.726-.006l-2.513-2.854a2.472,2.472,0,0,0-1.857-.839h-4.969a4.123,4.123,0,0,1-4.122-4.122V14.864a4.123,4.123,0,0,1,2-3.534V28.412a2.125,2.125,0,0,0,2.124,2.124h4.969a4.469,4.469,0,0,1,3.357,1.517l1.542,1.751a.46.46,0,0,0,.689,0l1.594-1.78a4.467,4.467,0,0,1,3.332-1.489Z" transform="translate(-141.407 -10.741)" fill="#e8e8e8"/>
        <path id="Trazado_252998" data-name="Trazado 252998" d="M216.975,45.091a.55.55,0,0,0,.751,0,4.207,4.207,0,0,1,2.886-1.128A4.124,4.124,0,0,1,224.73,48.1c-.045,3.122-3.535,5.772-5.7,7.117a10.181,10.181,0,0,1-1.389.649.55.55,0,0,1-.5.005c-1.3-.642-6.977-3.38-6.894-7.535a4.376,4.376,0,0,1,2.616-4.166,3.964,3.964,0,0,1,1.242-.209,4.123,4.123,0,0,1,2.867,1.133Z" transform="translate(-181.174 -38.354)" fill="#e53935"/>
        <path id="Trazado_252999" data-name="Trazado 252999" d="M217.461,56.376c-.63.392-1.148.673-1.436.822a.552.552,0,0,1-.5.006c-1.3-.643-7.215-3.79-7.132-7.945a4.3,4.3,0,0,1,2.9-3.929,4.235,4.235,0,0,0-1.211,2.853C210.015,51.735,215.155,55.078,217.461,56.376Z" transform="translate(-179.604 -39.515)" fill="#dc4955"/>
        <path id="Trazado_253000" data-name="Trazado 253000" d="M238.2,357.911h-8l.378,5.335-.378,2.82v0a5.954,5.954,0,0,0,1.064,1.207,5.611,5.611,0,0,0,5.789.216c.465-.28.768-.987,1.145-1.422l0,0v-3.389l-.323-.531Z" transform="translate(-198.057 -304.05)" fill="#e3a76f"/>
        <path id="Trazado_253001" data-name="Trazado 253001" d="M186.522,416.885l-4.185-1.724-4.169-1.267a5.3,5.3,0,0,1-8,.219l-8.046,2.773a4.616,4.616,0,0,0-2.857,4.268l.154,6.36,1.536.307h10.1l3.269-.741,2.9.741h12.161v-6.667A4.616,4.616,0,0,0,186.522,416.885Z" transform="translate(-138.025 -351.427)" fill="#e53935"/>
        <path id="Trazado_253002" data-name="Trazado 253002" d="M232.2,357.91h-2v8.156c.251.29.138.778.43,1,.333.251,1.076.226,1.448.388h0v-3.794a.307.307,0,0,1,.377-.3,8.041,8.041,0,0,0,1.744.266,8.766,8.766,0,0,0,4-.948V357.91h-6Z" transform="translate(-198.058 -304.049)" fill="#d6995c"/>
        <path id="Trazado_253003" data-name="Trazado 253003" d="M170.174,413.174l-4.627,1.979-4.667,1.923a2.609,2.609,0,0,0-1.622,2.419v6.668h-2V419.5a4.615,4.615,0,0,1,2.857-4.267l4.164-1.715,1.9-.587,2.208-.991a4.549,4.549,0,0,0,1.786,1.238Z" transform="translate(-136.33 -349.771)" fill="#e53935"/>
        <path id="Trazado_253004" data-name="Trazado 253004" d="M220.25,412.687l-.174.2a21.331,21.331,0,0,0-4.945,12.287v.171h-6.165v-.111a21.324,21.324,0,0,0-3.81-10.9,18.346,18.346,0,0,0-1.046-1.529l-.046-.06,4.017-1.619a4.834,4.834,0,0,0,1.88,1.228,5.3,5.3,0,0,0,6.119-1.385l0,0Z" transform="translate(-175.939 -348.953)" fill="#f8f7f7"/>
        <path id="Trazado_253005" data-name="Trazado 253005" d="M209.008,412.357l-4.8,1.98q-.569-.816-1.219-1.58l-.046-.06,4.19-1.726a5.285,5.285,0,0,0,1.242,1.054q.062.039.125.074a5.32,5.32,0,0,0,.512.258Z" transform="translate(-174.988 -348.953)" fill="#e8e8e8"/>
        <path id="Trazado_253006" data-name="Trazado 253006" d="M216.886,241.747c0-5.79-2.912-10.429-8.7-10.429s-8.415,4.68-8.415,10.47c0,.967-.442,1.978-.269,2.969.865,4.947,3.86,9.736,8.684,9.736,5.136,0,8.2-5.43,8.825-10.7a17.429,17.429,0,0,0-.123-2.047Z" transform="translate(-172.044 -196.915)" fill="#e3a76f"/>
        <path id="Trazado_253007" data-name="Trazado 253007" d="M215.913,241.8c0-4.234-1.689-7.879-4.859-9.534a.155.155,0,0,1-.272-.137,8.826,8.826,0,0,0-3.813-.812c-5.79,0-8.945,4.694-8.945,10.484a17.234,17.234,0,0,0,.262,2.955,4.116,4.116,0,0,1,.494-.474c1.515-1.425,3.688-1.476,3.919-2.967a.308.308,0,0,1,.387-.257,5.3,5.3,0,0,0,5.456-2.508.307.307,0,0,1,.48-.091,3.357,3.357,0,0,0,2.527.694.308.308,0,0,1,.325.206c.87,2.543,3.255,1.61,3.92,4.434a16.884,16.884,0,0,0,.12-1.993Z" transform="translate(-170.827 -196.916)" fill="#d6995c"/>
        <g id="Grupo_149420" data-name="Grupo 149420" transform="translate(23.48 29.512)">
          <path id="Trazado_253008" data-name="Trazado 253008" d="M196.246,207c-.081-.023-.231-.052-.356-.074a.152.152,0,0,1-.114-.213,3.228,3.228,0,0,0-5.2-3.663.153.153,0,0,1-.259-.078,3.918,3.918,0,0,0-6.307-2.295.155.155,0,0,1-.217-.021,3.224,3.224,0,0,0-5.669,1.639.154.154,0,0,1-.145.135,4.6,4.6,0,0,0-1.045.182,4.538,4.538,0,0,0-3.091,4.5,4.14,4.14,0,0,0,1.177,2.9.147.147,0,0,1,.039.108,13.676,13.676,0,0,0,.145,3.123,4.072,4.072,0,0,0,2.355,3.136,1.541,1.541,0,0,1,.756-1.337c.94-.777,2.563-.917,2.972-2.35a.15.15,0,0,1,.169-.11,7.9,7.9,0,0,0,1.094.129,5.534,5.534,0,0,0,5.166-3.55.148.148,0,0,1,.254-.036,3.767,3.767,0,0,0,3.977,1.294.151.151,0,0,1,.186.1c.943,3.082,3.3,2.087,3.3,4.964,1.546-.7,2.47-3.084,2.911-4.67A3.106,3.106,0,0,0,196.246,207Z" transform="translate(-173.849 -199.5)" fill="#12263f"/>
        </g>
        <g id="Grupo_149421" data-name="Grupo 149421" transform="translate(23.273 32.625)">
          <path id="Trazado_253009" data-name="Trazado 253009" d="M177.179,232.187a1.845,1.845,0,0,0-.668,1.527,4.417,4.417,0,0,1-2.628-3.243,13.886,13.886,0,0,1-.16-3.11.146.146,0,0,0-.038-.108,4.609,4.609,0,0,1,2.113-7.5,4.607,4.607,0,0,0-.423,6.582.145.145,0,0,1,.038.108,13.888,13.888,0,0,0,.16,3.11,4.3,4.3,0,0,0,1.6,2.638Z" transform="translate(-172.5 -219.75)" fill="#0c1929"/>
        </g>
      </g>
      <g id="Grupo_149424" data-name="Grupo 149424" transform="translate(13.589)">
        <g id="Grupo_149423" data-name="Grupo 149423">
          <path id="Trazado_253010" data-name="Trazado 253010" d="M378.445,131.113a1.517,1.517,0,0,0,1.368-.015c1.225-.639,5.225-2.971,5.271-6.181a3.86,3.86,0,0,0-5.962-3.245,3.823,3.823,0,0,0-2.095-.623,3.974,3.974,0,0,0-3.872,3.827c-.067,3.331,4.033,5.615,5.291,6.236Zm-1.43-7.758h.011a1.539,1.539,0,0,1,1.059.425h0a1.514,1.514,0,0,0,2.066,0,1.557,1.557,0,0,1,2.627,1.1c-.022,1.519-2.174,3.128-3.673,3.975-1.515-.816-3.677-2.387-3.646-3.936a1.636,1.636,0,0,1,1.556-1.568Z" transform="translate(-317.885 -102.443)"/>
          <path id="Trazado_253011" data-name="Trazado 253011" d="M66.307,131.113a1.517,1.517,0,0,0,1.367-.015c1.225-.639,5.225-2.971,5.271-6.181a3.86,3.86,0,0,0-5.962-3.245,3.824,3.824,0,0,0-2.122-.623,3.916,3.916,0,0,0-3.845,3.827c-.067,3.331,4.033,5.615,5.292,6.236Zm-1.43-7.758h.011a1.538,1.538,0,0,1,1.059.425h0a1.514,1.514,0,0,0,2.066,0,1.557,1.557,0,0,1,2.627,1.1c-.022,1.519-2.174,3.128-3.674,3.975-1.515-.816-3.677-2.387-3.645-3.936A1.636,1.636,0,0,1,64.877,123.355Z" transform="translate(-53.725 -102.443)"/>
          <path id="Trazado_253012" data-name="Trazado 253012" d="M25.336,32.228h3.709a.493.493,0,0,1,.35.145l2.511,2.506a1.983,1.983,0,0,0,2.783.01l2.559-2.518a.493.493,0,0,1,.348-.142H41.26a4.125,4.125,0,0,0,4.121-4.121V23.785a5.251,5.251,0,0,0,1.79.313h4.97a1.321,1.321,0,0,1,.991.448L55.645,27.4a2.308,2.308,0,0,0,1.722.783h.009a2.309,2.309,0,0,0,1.719-.769l2.574-2.876a1.321,1.321,0,0,1,.984-.44h4.915a5.255,5.255,0,0,0,1.625-.257v4.266a4.125,4.125,0,0,0,4.121,4.121h3.709a.493.493,0,0,1,.35.145l2.511,2.506a1.983,1.983,0,0,0,2.783.01l2.559-2.518a.493.493,0,0,1,.348-.142h3.665a4.125,4.125,0,0,0,4.12-4.121V17.41a4.125,4.125,0,0,0-4.12-4.121h-16.4V5.275A5.281,5.281,0,0,0,67.568,0H58.177a1.153,1.153,0,1,0,0,2.306h9.392a2.972,2.972,0,0,1,2.969,2.969V18.823a2.972,2.972,0,0,1-2.969,2.969H62.653A3.631,3.631,0,0,0,59.951,23l-2.575,2.877-2.513-2.855a3.627,3.627,0,0,0-2.722-1.23h-4.97A2.972,2.972,0,0,1,44.2,18.823V5.275a2.972,2.972,0,0,1,2.969-2.969H52.8A1.153,1.153,0,1,0,52.8,0H47.171A5.281,5.281,0,0,0,41.9,5.275v8.015H25.336a4.125,4.125,0,0,0-4.121,4.121v10.7A4.125,4.125,0,0,0,25.336,32.228ZM89.239,15.6a1.817,1.817,0,0,1,1.815,1.815v10.7a1.817,1.817,0,0,1-1.815,1.815H85.574a2.785,2.785,0,0,0-1.965.8l-2.328,2.29L79,30.741a2.783,2.783,0,0,0-1.979-.818H73.314A1.817,1.817,0,0,1,71.5,28.107V22.336a5.253,5.253,0,0,0,1.344-3.513V15.595h16.4ZM23.521,17.41A1.817,1.817,0,0,1,25.336,15.6H41.9v3.228a5.25,5.25,0,0,0,1.179,3.319v5.965a1.817,1.817,0,0,1-1.815,1.815H37.6a2.785,2.785,0,0,0-1.965.8L33.3,33.016l-2.28-2.276a2.783,2.783,0,0,0-1.979-.818H25.335a1.817,1.817,0,0,1-1.815-1.815V17.41Z" transform="translate(-20.043)"/>
          <path id="Trazado_253013" data-name="Trazado 253013" d="M200.9,41.721c-.1,4.747,5.926,8.091,7.774,9a1.709,1.709,0,0,0,1.542-.017c1.8-.939,7.689-4.362,7.755-8.946a5.308,5.308,0,0,0-8.533-4.216,5.278,5.278,0,0,0-3.249-1.092,5.388,5.388,0,0,0-5.288,5.269Zm5.3-2.963h.021a2.974,2.974,0,0,1,2.046.819h0a1.706,1.706,0,0,0,2.328,0,3,3,0,0,1,5.065,2.151c-.037,2.552-3.326,5.214-6.245,6.79-2.961-1.518-6.268-4.137-6.216-6.751A3.106,3.106,0,0,1,206.2,38.758Z" transform="translate(-172.104 -30.849)"/>
          <path id="Trazado_253014" data-name="Trazado 253014" d="M87.414,232.316V215.524A12.538,12.538,0,0,0,69.16,204.369a1.153,1.153,0,1,0,1.054,2.051A10.114,10.114,0,0,1,74.88,205.3a10.24,10.24,0,0,1,10.228,10.228v14.758c-.032-.014-.061-.03-.093-.043h0l-5.806-2.393v-2.254a13.64,13.64,0,0,0,3.924-9.036c0-4.209-1.874-7.516-5.012-8.847a1.155,1.155,0,0,0-.894,0,1.2,1.2,0,0,0-.683.818,8.316,8.316,0,0,1-6.37,6.339l-2.639.565a1.337,1.337,0,0,0-.909,1.358,13.672,13.672,0,0,0,3.924,8.819v2.239l-4.586,1.89a5.741,5.741,0,0,0-1.313-1.186V215.524a10.163,10.163,0,0,1,1.847-5.864,1.153,1.153,0,1,0-1.888-1.324,12.457,12.457,0,0,0-2.265,7.188v11.961l-6.309-2.6v-4.379c2.888-2.339,4.6-6.548,4.918-10.689,1.511-1.085,2.394-3.278,2.882-5.034a4.277,4.277,0,0,0-.561-3.521,4.226,4.226,0,0,0-1.736-1.49,4.42,4.42,0,0,0,.052-1.175,4.378,4.378,0,0,0-6.241-3.559,5.074,5.074,0,0,0-6.946-2.1,4.382,4.382,0,0,0-6.872,2.088,5.764,5.764,0,0,0-3.464,9.189,14.56,14.56,0,0,0,.2,2.986,5.485,5.485,0,0,0,2.692,3.778,18.888,18.888,0,0,0,.44,2.233,1.215,1.215,0,0,0,1.407.823,1.153,1.153,0,0,0,.823-1.407,16.6,16.6,0,0,1-.442-2.395c-.051-.446.116-.642,1.126-1.135a4.658,4.658,0,0,0,2.1-1.6,6.744,6.744,0,0,0,6.11-2.983,5.156,5.156,0,0,0,3.208.846,5.347,5.347,0,0,0,2.057,2.269c.687.473.9.621.9,1.49-.239,5.388-3.219,10.951-7.805,10.951a6.5,6.5,0,0,1-5.217-2.961,1.153,1.153,0,0,0-1.866,1.355,10.757,10.757,0,0,0,1.931,2.059v4.367l-7.64,3.148a5.763,5.763,0,0,0-2.305,1.726l-4.638-1.911V224.3a13.425,13.425,0,0,0,3.742-5.863,1.152,1.152,0,0,0,.807-.518c1.2-1.872,3.5-7.549-.19-11.287a5.719,5.719,0,0,0-5.175-1.455,3.647,3.647,0,0,0-.241-.444c-1.557-2.432-5.581-2.774-9.161-.776a1.153,1.153,0,1,0,1.123,2.013c2.685-1.5,5.32-1.206,6.1.006a2.514,2.514,0,0,1,.057,2.117,6.19,6.19,0,0,1-3.774,3.646,13.536,13.536,0,0,0-5.21,3.41,10.5,10.5,0,0,1-.088-5.667,1.153,1.153,0,0,0-2.208-.666,12.633,12.633,0,0,0,1.018,9.2,1.152,1.152,0,0,0,.835.523,13.462,13.462,0,0,0,3.711,5.755v3.554c-.106.046-5.759,2.367-5.871,2.422a4.981,4.981,0,0,0-3.03,4.593V238.5a2.7,2.7,0,0,0,2.691,2.692H85.419A2.694,2.694,0,0,0,88.11,238.5v-3.633a4.99,4.99,0,0,0-.7-2.546ZM57.58,203.725a1.153,1.153,0,0,0-1.466-.786,2.615,2.615,0,0,1-2.973-1.022,1.153,1.153,0,0,0-2.05.287,4.372,4.372,0,0,1-4.162,3.014,7.85,7.85,0,0,1-1.013-.133,1.153,1.153,0,0,0-1.342.884c-.1.451-.442.655-1.258,1.046a4.7,4.7,0,0,0-1.931,1.411,3.153,3.153,0,0,1-.854-1.652,12.878,12.878,0,0,1-.14-2.868,1.153,1.153,0,0,0-.3-.873,3.456,3.456,0,0,1,2.433-5.8,1.153,1.153,0,0,0,1.114-1.045,2.072,2.072,0,0,1,3.716-1.056,1.153,1.153,0,0,0,1.677.17,2.765,2.765,0,0,1,4.569,1.766,1.153,1.153,0,0,0,2.033.606,2.056,2.056,0,0,1,1.787-.743,2.075,2.075,0,0,1,1.63,3.063,1.153,1.153,0,0,0,.89,1.7,1.935,1.935,0,0,1,1.42.848,1.973,1.973,0,0,1,.258,1.625A10.879,10.879,0,0,1,60.446,207a4.472,4.472,0,0,0-1.352-1.274,3.082,3.082,0,0,1-1.514-2Zm13.077,13.4a10.631,10.631,0,0,0,7.7-6.618,7.473,7.473,0,0,1,2.472,6.055c0,4.137-3.6,8.923-5.949,8.923-2.177,0-5.427-4.074-5.893-8Zm-21.82,21.76a22.651,22.651,0,0,0-4.292-11.014l2.068-.852a6.438,6.438,0,0,0,4.271,1.622h0a6.44,6.44,0,0,0,4.273-1.622l2.035.839a22.663,22.663,0,0,0-4.328,11.027ZM59.4,228.765l3.4,1.4a3.452,3.452,0,0,1,2.144,3.2v5.514H55.188A20.326,20.326,0,0,1,59.4,228.765Zm-8.518-6.394a7.919,7.919,0,0,0,2.849-.521V225.2a4.136,4.136,0,0,1-2.848,1.135h0a4.136,4.136,0,0,1-2.847-1.135v-3.345a7.97,7.97,0,0,0,2.846.518ZM34.52,238.881H32.51l2.011-2.334ZM34.534,233l-5.067,5.883H24.221l-5.285-7.075,4.444-1.831a5.351,5.351,0,0,0,3.438,1.251h0a5.35,5.35,0,0,0,3.439-1.251l4.476,1.844a5.776,5.776,0,0,0-.2,1.18Zm-.667-24.744c2.007,2.032,1.375,5.114.583,7.045a19.514,19.514,0,0,0-3.157-2.553,5.559,5.559,0,0,1-1.9-1.979,7.519,7.519,0,0,0,.994-1.933,5.991,5.991,0,0,0,.295-1.367,3.5,3.5,0,0,1,3.183.788ZM20.72,216.923a11.2,11.2,0,0,1,4.5-3.016,9.076,9.076,0,0,0,2.533-1.413,8.034,8.034,0,0,0,2.3,2.194,17.3,17.3,0,0,1,2.845,2.319c-.889,3.785-3.989,6.936-6.078,6.936s-5.234-3.2-6.1-7.021Zm6.1,9.326a5.19,5.19,0,0,0,2.025-.445v2.346a3.046,3.046,0,0,1-2.023.768h0a3.046,3.046,0,0,1-2.023-.769V225.8a5.162,5.162,0,0,0,2.022.448ZM15.895,238.5v-3.633a2.683,2.683,0,0,1,.927-2.033l4.521,6.052H16.281A.386.386,0,0,1,15.895,238.5Zm20.931-5.128a3.452,3.452,0,0,1,2.144-3.2l3.369-1.388a20.319,20.319,0,0,1,4.174,10.1H36.826v-5.514Zm30.423,5.514v-5.514a5.793,5.793,0,0,0-.22-1.574l3.532-1.455c.045,2.9.314,5.957,1.929,8.544Zm5.608-10.264v-1.331a4.335,4.335,0,0,0,4.047,0s0,1.218,0,1.338c0,3.46,0,7.03-2.023,9.66-2.023-2.626-2.024-6.2-2.024-9.663a.013.013,0,0,0,0,0ZM85.8,238.5a.386.386,0,0,1-.386.386H77.27c1.617-2.59,1.886-5.64,1.93-8.544l4.936,2.034h0a2.685,2.685,0,0,1,1.668,2.491Z" transform="translate(-13.589 -162.488)"/>
        </g>
      </g>
    </g>
  </g>
</svg>
