<svg xmlns="http://www.w3.org/2000/svg" width="157" height="157" viewBox="0 0 157 157">
  <g id="Grupo_173998" data-name="Grupo 173998" transform="translate(-376 -12151)">
    <circle id="Elipse_4730" data-name="Elipse 4730" cx="78.5" cy="78.5" r="78.5" transform="translate(376 12151)" fill="#fff"/>
    <g id="Grupo_149416" data-name="Grupo 149416" transform="translate(125 -831.666)">
      <g id="Grupo_149415" data-name="Grupo 149415" transform="translate(285 13015.667)">
        <path id="Trazado_252896" data-name="Trazado 252896" d="M16,16H53.174V46.326H16Z" transform="translate(-15.022 -15.022)" fill="#dfdddc"/>
        <path id="Trazado_252897" data-name="Trazado 252897" d="M73.718,83.218V66.587L62.957,48H53.174V72.457H16V83.218Z" transform="translate(-15.022 -41.152)" fill="#f2ae40"/>
        <circle id="Elipse_6244" data-name="Elipse 6244" cx="5.87" cy="5.87" r="5.87" transform="translate(74.348 6.848)" fill="#6ebaed"/>
        <path id="Trazado_252898" data-name="Trazado 252898" d="M411.739,112h-5.87a5.869,5.869,0,0,0-5.87,5.87v4.891h17.609V117.87A5.869,5.869,0,0,0,411.739,112Z" transform="translate(-328.586 -93.413)" fill="#6ebaed"/>
        <path id="Trazado_252899" data-name="Trazado 252899" d="M263.071,80.094h-12.4V69.333h6.183Z" transform="translate(-206.645 -58.572)" fill="#ddd"/>
        <path id="Trazado_252900" data-name="Trazado 252900" d="M74.667,368H85.428v23.478H74.667Z" transform="translate(-62.928 -302.456)" fill="#dfdddc"/>
        <path id="Trazado_252901" data-name="Trazado 252901" d="M133.333,314.667h15.652v33.261H133.333Z" transform="translate(-110.833 -258.906)" fill="#ddd"/>
        <path id="Trazado_252902" data-name="Trazado 252902" d="M252.906,374.058H218.667V353.515l6.848-6.848v6.848l6.848-6.848v6.848l6.848-6.848v6.848l6.848-6.848v6.848l6.848-6.848Z" transform="translate(-180.515 -285.036)" fill="#ef6662"/>
        <path id="Trazado_252903" data-name="Trazado 252903" d="M405.333,405.333h16.631v16.631H405.333Z" transform="translate(-332.941 -332.941)" fill="#dfdddc"/>
        <path id="Trazado_252904" data-name="Trazado 252904" d="M160,464h5.87v5.87H160Z" transform="translate(-132.609 -380.847)" fill="#9c9b9a"/>
        <path id="Trazado_252905" data-name="Trazado 252905" d="M437.333,469.333h4.891v4.891h-4.891Z" transform="translate(-359.072 -385.202)" fill="#9c9b9a"/>
        <path id="Trazado_252906" data-name="Trazado 252906" d="M24.185,408.363a2.951,2.951,0,0,1-2.838-3.762l2.838-9.933,2.838,9.933A2.951,2.951,0,0,1,24.185,408.363Z" transform="translate(-19.294 -324.232)" fill="#f2ae40"/>
        <path id="Trazado_252907" data-name="Trazado 252907" d="M368,283.833v-22.5h3.913V279.92Z" transform="translate(-302.456 -215.355)" fill="#c9c7c6"/>
        <path id="Trazado_252908" data-name="Trazado 252908" d="M16,16H53.174v9.783H16Z" transform="translate(-15.022 -15.022)" fill="#c9c7c6"/>
        <path id="Trazado_252909" data-name="Trazado 252909" d="M90.667,16V33.609l4.891-4.891,4.891,4.891V16Z" transform="translate(-75.993 -15.022)" fill="#f2ae40"/>
        <g id="Grupo_149414" data-name="Grupo 149414" transform="translate(4.891 36.196)">
          <circle id="Elipse_6245" data-name="Elipse 6245" cx="5.87" cy="5.87" r="5.87" fill="#9c9b9a"/>
          <circle id="Elipse_6246" data-name="Elipse 6246" cx="5.87" cy="5.87" r="5.87" transform="translate(11.739)" fill="#9c9b9a"/>
          <circle id="Elipse_6247" data-name="Elipse 6247" cx="5.87" cy="5.87" r="5.87" transform="translate(35.218)" fill="#9c9b9a"/>
        </g>
        <circle id="Elipse_6248" data-name="Elipse 6248" cx="1.957" cy="1.957" r="1.957" transform="translate(20.544 40.109)" fill="#c9c7c6"/>
        <circle id="Elipse_6249" data-name="Elipse 6249" cx="1.957" cy="1.957" r="1.957" transform="translate(44.022 40.109)" fill="#c9c7c6"/>
        <circle id="Elipse_6250" data-name="Elipse 6250" cx="1.957" cy="1.957" r="1.957" transform="translate(8.804 40.109)" fill="#c9c7c6"/>
        <path id="Trazado_252910" data-name="Trazado 252910" d="M11.645,53.711h3.013A6.835,6.835,0,0,0,27.3,56.242a6.835,6.835,0,0,0,12.639-2.531h9.939a6.839,6.839,0,0,0,13.539,0h5.948a.978.978,0,0,0,.978-.978V36.1a.969.969,0,0,0-.132-.49L59.448,17.025a.976.976,0,0,0-.846-.488H49.8V11.645a.978.978,0,0,0-.978-.978H11.645a.978.978,0,0,0-.978.978V52.732A.978.978,0,0,0,11.645,53.711Zm9.783,3.913a4.891,4.891,0,1,1,4.891-4.891A4.9,4.9,0,0,1,21.428,57.624Zm11.739,0a4.891,4.891,0,1,1,4.891-4.891A4.9,4.9,0,0,1,33.167,57.624Zm23.478,0a4.891,4.891,0,1,1,4.891-4.891A4.9,4.9,0,0,1,56.646,57.624ZM60.3,22.406l5.1,8.8H55.667v-8.8ZM26.319,12.623h7.826v3.913a.978.978,0,1,0,1.956,0V12.623H47.841v6.848H35.124a.978.978,0,0,0-.978.978v6.443l-3.222-3.221a.977.977,0,0,0-1.383,0l-3.222,3.221Zm-13.7,0H24.363v6.848H12.623Zm0,8.8H24.363v7.826a.978.978,0,0,0,1.67.692l4.2-4.2,4.2,4.2a.979.979,0,0,0,.692.287.968.968,0,0,0,.375-.074.979.979,0,0,0,.6-.9V21.428H47.841V40.993H12.623Zm0,21.522h36.2a.978.978,0,0,0,.978-.978V18.493h8.24l1.133,1.957H54.689a.978.978,0,0,0-.978.978V32.189a.978.978,0,0,0,.978.978H66.534l1.851,3.2V51.754h-4.97a6.839,6.839,0,0,0-13.539,0H39.937A6.835,6.835,0,0,0,27.3,49.223a6.835,6.835,0,0,0-12.639,2.531H12.623Z" transform="translate(-10.667 -10.667)"/>
        <circle id="Elipse_6251" data-name="Elipse 6251" cx="0.978" cy="0.978" r="0.978" transform="translate(3.913 26.413)"/>
        <circle id="Elipse_6252" data-name="Elipse 6252" cx="0.978" cy="0.978" r="0.978" transform="translate(7.826 26.413)"/>
        <circle id="Elipse_6253" data-name="Elipse 6253" cx="0.978" cy="0.978" r="0.978" transform="translate(11.739 26.413)"/>
        <path id="Trazado_252911" data-name="Trazado 252911" d="M409.009,54.609a6.848,6.848,0,1,0-9.12,0,6.856,6.856,0,0,0-5.223,6.645v4.891a.978.978,0,0,0,.978.978h17.609a.978.978,0,0,0,.978-.978V61.254A6.855,6.855,0,0,0,409.009,54.609Zm-9.451-5.094a4.891,4.891,0,1,1,4.891,4.891A4.9,4.9,0,0,1,399.558,49.515Zm12.718,15.652H396.623V61.254a4.9,4.9,0,0,1,4.891-4.891h5.87a4.9,4.9,0,0,1,4.891,4.891Z" transform="translate(-324.232 -36.797)"/>
        <path id="Trazado_252912" data-name="Trazado 252912" d="M120.268,224a2.935,2.935,0,1,0,2.935,2.935A2.938,2.938,0,0,0,120.268,224Zm0,3.913a.978.978,0,1,1,.978-.978A.979.979,0,0,1,120.268,227.913Z" transform="translate(-97.768 -184.869)"/>
        <path id="Trazado_252913" data-name="Trazado 252913" d="M248.268,224a2.935,2.935,0,1,0,2.935,2.935A2.938,2.938,0,0,0,248.268,224Zm0,3.913a.978.978,0,1,1,.978-.978A.979.979,0,0,1,248.268,227.913Z" transform="translate(-202.289 -184.869)"/>
        <path id="Trazado_252914" data-name="Trazado 252914" d="M56.268,224a2.935,2.935,0,1,0,2.935,2.935A2.938,2.938,0,0,0,56.268,224Zm0,3.913a.978.978,0,1,1,.978-.978A.979.979,0,0,1,56.268,227.913Z" transform="translate(-45.507 -184.869)"/>
        <path id="Trazado_252915" data-name="Trazado 252915" d="M235.645,151.29h3.913a.978.978,0,1,0,0-1.957h-3.913a.978.978,0,0,0,0,1.957Z" transform="translate(-193.58 -123.898)"/>
        <path id="Trazado_252916" data-name="Trazado 252916" d="M99.689,282.413H83.059a.978.978,0,0,0-.978.978v15.652H49.8v-19.16l4.891-4.891v4.486a.978.978,0,0,0,1.67.692l5.178-5.178v4.486a.978.978,0,0,0,1.67.692l5.178-5.178v4.486a.978.978,0,0,0,1.67.692l5.178-5.178v4.486a.978.978,0,0,0,1.67.692l3.912-3.912,0,0,1.264-1.264v4.486a.978.978,0,0,0,1.957,0v-6.848a.978.978,0,0,0-1.67-.692L81.1,273.2V256.978a.978.978,0,0,0-.978-.978H76.211a.978.978,0,0,0-.978.978v15.247l-4.891,4.891v-4.486a.978.978,0,0,0-1.67-.692l-5.178,5.178v-4.486a.978.978,0,0,0-1.67-.692l-5.178,5.178v-4.486a.978.978,0,0,0-1.67-.692l-6.848,6.848a.979.979,0,0,0-.287.692v19.565H44.906v-4.891a.978.978,0,0,0-.978-.978h-5.87a.978.978,0,0,0-.978.978v4.891H34.145v-31.3h13.7v6.848a.978.978,0,1,0,1.957,0v-7.826a.978.978,0,0,0-.978-.978H33.167a.978.978,0,0,0-.978.978v8.8H22.406a.978.978,0,0,0-.978.978v22.5H16.537V295.98a3.919,3.919,0,0,0,2.8-4.879L16.5,281.167a.977.977,0,0,0-1.88,0L11.78,291.1a3.92,3.92,0,0,0,2.8,4.88v3.064H11.645a.978.978,0,0,0,0,1.956H99.689a.978.978,0,0,0,.978-.978V283.391A.978.978,0,0,0,99.689,282.413Zm-22.5-24.457h1.957v17.2l-1.957,1.956Zm-63.206,35.41a1.957,1.957,0,0,1-.322-1.73l1.9-6.64,1.9,6.641a1.959,1.959,0,0,1-.322,1.731A2.032,2.032,0,0,1,13.983,293.367Zm18.206,5.677h-8.8V277.522h8.8Zm10.761,0H39.037v-3.913H42.95Zm49.892,0H89.907v-2.935h2.935Zm5.87,0H94.8v-2.935h.978a.978.978,0,0,0,0-1.957h-8.8a.978.978,0,1,0,0,1.957h.978v2.935H84.037V284.37H98.711Z" transform="translate(-10.667 -211)"/>
        <path id="Trazado_252917" data-name="Trazado 252917" d="M236.623,410.667h-.978a.978.978,0,1,0,0,1.956h.978a.978.978,0,1,0,0-1.956Z" transform="translate(-193.58 -337.297)"/>
        <path id="Trazado_252918" data-name="Trazado 252918" d="M263.29,410.667h-.978a.978.978,0,1,0,0,1.956h.978a.978.978,0,1,0,0-1.956Z" transform="translate(-215.355 -337.297)"/>
        <path id="Trazado_252919" data-name="Trazado 252919" d="M289.957,410.667h-.978a.978.978,0,1,0,0,1.956h.978a.978.978,0,1,0,0-1.956Z" transform="translate(-237.13 -337.297)"/>
        <path id="Trazado_252920" data-name="Trazado 252920" d="M316.623,410.667h-.978a.978.978,0,1,0,0,1.956h.978a.978.978,0,1,0,0-1.956Z" transform="translate(-258.906 -337.297)"/>
        <path id="Trazado_252921" data-name="Trazado 252921" d="M343.29,410.667h-.978a.978.978,0,1,0,0,1.956h.978a.978.978,0,1,0,0-1.956Z" transform="translate(-280.681 -337.297)"/>
        <path id="Trazado_252922" data-name="Trazado 252922" d="M369.957,410.667h-.978a.978.978,0,1,0,0,1.956h.978a.978.978,0,1,0,0-1.956Z" transform="translate(-302.456 -337.297)"/>
        <path id="Trazado_252923" data-name="Trazado 252923" d="M236.623,432h-.978a.978.978,0,0,0,0,1.957h.978a.978.978,0,1,0,0-1.957Z" transform="translate(-193.58 -354.717)"/>
        <path id="Trazado_252924" data-name="Trazado 252924" d="M263.29,432h-.978a.978.978,0,1,0,0,1.957h.978a.978.978,0,0,0,0-1.957Z" transform="translate(-215.355 -354.717)"/>
        <path id="Trazado_252925" data-name="Trazado 252925" d="M289.957,432h-.978a.978.978,0,0,0,0,1.957h.978a.978.978,0,0,0,0-1.957Z" transform="translate(-237.13 -354.717)"/>
        <path id="Trazado_252926" data-name="Trazado 252926" d="M316.623,432h-.978a.978.978,0,0,0,0,1.957h.978a.978.978,0,1,0,0-1.957Z" transform="translate(-258.906 -354.717)"/>
        <path id="Trazado_252927" data-name="Trazado 252927" d="M343.29,432h-.978a.978.978,0,1,0,0,1.957h.978a.978.978,0,0,0,0-1.957Z" transform="translate(-280.681 -354.717)"/>
        <path id="Trazado_252928" data-name="Trazado 252928" d="M369.957,432h-.978a.978.978,0,0,0,0,1.957h.978a.978.978,0,0,0,0-1.957Z" transform="translate(-302.456 -354.717)"/>
        <path id="Trazado_252929" data-name="Trazado 252929" d="M236.623,453.333h-.978a.978.978,0,0,0,0,1.957h.978a.978.978,0,1,0,0-1.957Z" transform="translate(-193.58 -372.137)"/>
        <path id="Trazado_252930" data-name="Trazado 252930" d="M263.29,453.333h-.978a.978.978,0,1,0,0,1.957h.978a.978.978,0,0,0,0-1.957Z" transform="translate(-215.355 -372.137)"/>
        <path id="Trazado_252931" data-name="Trazado 252931" d="M289.957,453.333h-.978a.978.978,0,0,0,0,1.957h.978a.978.978,0,0,0,0-1.957Z" transform="translate(-237.13 -372.137)"/>
        <path id="Trazado_252932" data-name="Trazado 252932" d="M156.623,336h-.978a.978.978,0,0,0,0,1.957h.978a.978.978,0,1,0,0-1.957Z" transform="translate(-128.254 -276.326)"/>
        <path id="Trazado_252933" data-name="Trazado 252933" d="M183.29,336h-.978a.978.978,0,1,0,0,1.957h.978a.978.978,0,0,0,0-1.957Z" transform="translate(-150.029 -276.326)"/>
        <path id="Trazado_252934" data-name="Trazado 252934" d="M156.623,357.333h-.978a.978.978,0,0,0,0,1.957h.978a.978.978,0,1,0,0-1.957Z" transform="translate(-128.254 -293.746)"/>
        <path id="Trazado_252935" data-name="Trazado 252935" d="M183.29,357.333h-.978a.978.978,0,1,0,0,1.957h.978a.978.978,0,0,0,0-1.957Z" transform="translate(-150.029 -293.746)"/>
        <path id="Trazado_252936" data-name="Trazado 252936" d="M156.623,378.667h-.978a.978.978,0,1,0,0,1.956h.978a.978.978,0,1,0,0-1.956Z" transform="translate(-128.254 -311.166)"/>
        <path id="Trazado_252937" data-name="Trazado 252937" d="M91.645,385.957H94.58a.978.978,0,0,0,0-1.957H91.645a.978.978,0,0,0,0,1.957Z" transform="translate(-75.993 -315.521)"/>
        <path id="Trazado_252938" data-name="Trazado 252938" d="M91.645,407.29H94.58a.978.978,0,0,0,0-1.957H91.645a.978.978,0,0,0,0,1.957Z" transform="translate(-75.993 -332.941)"/>
        <path id="Trazado_252939" data-name="Trazado 252939" d="M91.645,428.623H94.58a.978.978,0,0,0,0-1.956H91.645a.978.978,0,1,0,0,1.956Z" transform="translate(-75.993 -350.362)"/>
        <path id="Trazado_252940" data-name="Trazado 252940" d="M91.645,449.957H94.58a.978.978,0,0,0,0-1.957H91.645a.978.978,0,0,0,0,1.957Z" transform="translate(-75.993 -367.782)"/>
        <path id="Trazado_252941" data-name="Trazado 252941" d="M91.645,471.29H94.58a.978.978,0,0,0,0-1.957H91.645a.978.978,0,0,0,0,1.957Z" transform="translate(-75.993 -385.202)"/>
        <path id="Trazado_252942" data-name="Trazado 252942" d="M183.29,378.667h-.978a.978.978,0,1,0,0,1.956h.978a.978.978,0,1,0,0-1.956Z" transform="translate(-150.029 -311.166)"/>
        <path id="Trazado_252943" data-name="Trazado 252943" d="M156.623,400h-.978a.978.978,0,0,0,0,1.957h.978a.978.978,0,1,0,0-1.957Z" transform="translate(-128.254 -328.586)"/>
        <path id="Trazado_252944" data-name="Trazado 252944" d="M183.29,400h-.978a.978.978,0,1,0,0,1.957h.978a.978.978,0,0,0,0-1.957Z" transform="translate(-150.029 -328.586)"/>
        <path id="Trazado_252945" data-name="Trazado 252945" d="M156.623,421.333h-.978a.978.978,0,0,0,0,1.957h.978a.978.978,0,1,0,0-1.957Z" transform="translate(-128.254 -346.006)"/>
        <path id="Trazado_252946" data-name="Trazado 252946" d="M183.29,421.333h-.978a.978.978,0,1,0,0,1.957h.978a.978.978,0,0,0,0-1.957Z" transform="translate(-150.029 -346.006)"/>
        <path id="Trazado_252947" data-name="Trazado 252947" d="M316.623,453.333h-.978a.978.978,0,0,0,0,1.957h.978a.978.978,0,1,0,0-1.957Z" transform="translate(-258.906 -372.137)"/>
        <path id="Trazado_252948" data-name="Trazado 252948" d="M343.29,453.333h-.978a.978.978,0,1,0,0,1.957h.978a.978.978,0,0,0,0-1.957Z" transform="translate(-280.681 -372.137)"/>
        <path id="Trazado_252949" data-name="Trazado 252949" d="M369.957,453.333h-.978a.978.978,0,0,0,0,1.957h.978a.978.978,0,0,0,0-1.957Z" transform="translate(-302.456 -372.137)"/>
        <path id="Trazado_252950" data-name="Trazado 252950" d="M422.311,423.29h8.8a.978.978,0,0,0,0-1.957h-8.8a.978.978,0,1,0,0,1.957Z" transform="translate(-346.006 -346.006)"/>
        <path id="Trazado_252951" data-name="Trazado 252951" d="M422.311,444.623h8.8a.978.978,0,1,0,0-1.956h-8.8a.978.978,0,1,0,0,1.956Z" transform="translate(-346.006 -363.427)"/>
        <path id="Trazado_252952" data-name="Trazado 252952" d="M86.311,336a.978.978,0,0,0-.978.978v.978a.978.978,0,0,0,1.957,0v-.978A.978.978,0,0,0,86.311,336Z" transform="translate(-71.637 -276.326)"/>
        <path id="Trazado_252953" data-name="Trazado 252953" d="M87.29,310.311a.978.978,0,1,0-1.957,0v.978a.978.978,0,0,0,1.957,0Z" transform="translate(-71.637 -254.55)"/>
        <path id="Trazado_252954" data-name="Trazado 252954" d="M87.29,283.645a.978.978,0,0,0-1.957,0v.978a.978.978,0,1,0,1.957,0Z" transform="translate(-71.637 -232.775)"/>
        <path id="Trazado_252955" data-name="Trazado 252955" d="M385.957,65.957a.978.978,0,0,0,0-1.957h-.978a.978.978,0,0,0,0,1.957Z" transform="translate(-315.521 -54.217)"/>
        <path id="Trazado_252956" data-name="Trazado 252956" d="M359.29,65.957a.978.978,0,0,0,0-1.957h-.978a.978.978,0,1,0,0,1.957Z" transform="translate(-293.746 -54.217)"/>
        <path id="Trazado_252957" data-name="Trazado 252957" d="M332.623,65.957a.978.978,0,1,0,0-1.957h-.978a.978.978,0,0,0,0,1.957Z" transform="translate(-271.971 -54.217)"/>
        <path id="Trazado_252958" data-name="Trazado 252958" d="M305.957,65.957a.978.978,0,0,0,0-1.957h-.978a.978.978,0,0,0,0,1.957Z" transform="translate(-250.195 -54.217)"/>
        <path id="Trazado_252959" data-name="Trazado 252959" d="M448,375.29a.978.978,0,0,0,1.957,0v-.978a.978.978,0,1,0-1.957,0Z" transform="translate(-367.782 -306.811)"/>
        <path id="Trazado_252960" data-name="Trazado 252960" d="M448,348.623a.978.978,0,1,0,1.957,0v-.978a.978.978,0,0,0-1.957,0Z" transform="translate(-367.782 -285.036)"/>
        <path id="Trazado_252961" data-name="Trazado 252961" d="M448,321.957a.978.978,0,0,0,1.957,0v-.978a.978.978,0,0,0-1.957,0Z" transform="translate(-367.782 -263.26)"/>
        <path id="Trazado_252962" data-name="Trazado 252962" d="M448,295.29a.978.978,0,0,0,1.957,0v-.978a.978.978,0,1,0-1.957,0Z" transform="translate(-367.782 -241.485)"/>
        <path id="Trazado_252963" data-name="Trazado 252963" d="M448,268.623a.978.978,0,1,0,1.957,0v-.978a.978.978,0,0,0-1.957,0Z" transform="translate(-367.782 -219.71)"/>
        <path id="Trazado_252964" data-name="Trazado 252964" d="M448,241.957a.978.978,0,0,0,1.957,0v-.978a.978.978,0,0,0-1.957,0Z" transform="translate(-367.782 -197.935)"/>
        <path id="Trazado_252965" data-name="Trazado 252965" d="M448,215.29a.978.978,0,0,0,1.957,0v-.978a.978.978,0,1,0-1.957,0Z" transform="translate(-367.782 -176.159)"/>
        <path id="Trazado_252966" data-name="Trazado 252966" d="M448.978,189.6a.978.978,0,0,0,.978-.978v-.978a.978.978,0,0,0-1.957,0v.978A.978.978,0,0,0,448.978,189.6Z" transform="translate(-367.782 -154.384)"/>
      </g>
    </g>
  </g>
</svg>
