<svg xmlns="http://www.w3.org/2000/svg" width="157" height="157" viewBox="0 0 157 157">
  <g id="Grupo_174002" data-name="Grupo 174002" transform="translate(5868 -451)">
    <circle id="Elipse_6356" data-name="Elipse 6356" cx="78.5" cy="78.5" r="78.5" transform="translate(-5868 451)" fill="#fff"/>
    <g id="Grupo_149425" data-name="Grupo 149425" transform="translate(-5845.589 485)">
      <g id="Grupo_149422" data-name="Grupo 149422" transform="translate(14.908 1.318)">
        <path id="Trazado_252967" data-name="Trazado 252967" d="M365.714,304.432V284.281a13.017,13.017,0,0,0-11.685-12.948c-.438-.044-.882.064-1.331.064a12.731,12.731,0,0,0-12.72,12.974v19.977Z" transform="translate(-283.924 -224.947)" fill="#727997"/>
        <path id="Trazado_252968" data-name="Trazado 252968" d="M352.721,271.076a13.016,13.016,0,0,0-11.609,12.939v20l-2.812.065V284.015A13.015,13.015,0,0,1,351.315,271a12.84,12.84,0,0,1,1.406.076Z" transform="translate(-282.54 -224.682)" fill="#575c73"/>
        <path id="Trazado_252969" data-name="Trazado 252969" d="M398.94,408.027V394.39L398.4,392.8l.539-4.681h-7.265l.308,7.4-.308,2.461v10.046l3.631.547Z" transform="translate(-326.533 -321.211)" fill="#f2d1a5"/>
        <path id="Trazado_252970" data-name="Trazado 252970" d="M357.395,432.191l-7.14,2.826.867,9.884h10.045l-.524-.577c-2.5-2.753-2.99-6.31-3.084-10.016-.021-.815-.164-1.295-.164-2.118Z" transform="translate(-292.394 -357.538)" fill="#e2872c"/>
        <path id="Trazado_252971" data-name="Trazado 252971" d="M357.49,432.7l-.023.009-7.088,2.913-.209-2.384,7.3-3,.307,1.226Z" transform="translate(-292.324 -355.93)" fill="#e2872c"/>
        <path id="Trazado_252972" data-name="Trazado 252972" d="M423.421,433.311l-7.456-3.072c0,4.5-.049,9.132-3.134,12.507l-.5.547h12.053a1.76,1.76,0,0,0,1.76-1.76v-4.155A4.4,4.4,0,0,0,423.421,433.311Z" transform="translate(-343.559 -355.929)" fill="#e2872c"/>
        <path id="Trazado_252973" data-name="Trazado 252973" d="M391.673,388.119h0v6.264s0,2.785.023,3.6l1.827-.751a.7.7,0,0,0,.436-.65V395.8a.351.351,0,0,1,.41-.345,5.6,5.6,0,0,0,.933.08,6.872,6.872,0,0,0,3.633-1.144v-6.274h-7.262Z" transform="translate(-326.531 -321.213)" fill="#f2bb88"/>
        <path id="Trazado_252974" data-name="Trazado 252974" d="M367.348,312.557a8.889,8.889,0,0,0-.095,1.769c.962,4.671,4.748,9.365,7.891,9.365,3.634,0,8.122-6.266,8.122-11.523,0-3.254-1.1-6.126-3.18-7.843-.433-.357-.79-.324-1.308-.574a.284.284,0,0,0-.4.189,10.945,10.945,0,0,1-8.278,7.9l-2.53.438C367.439,312.305,367.348,312.557,367.348,312.557Z" transform="translate(-306.372 -251.652)" fill="#f2d1a5"/>
        <path id="Trazado_252975" data-name="Trazado 252975" d="M369.749,311.982a12.633,12.633,0,0,0,9.455-9.251,7.087,7.087,0,0,0-1.426-.916.284.284,0,0,0-.4.189,10.9,10.9,0,0,1-8.219,7.923l-2.792.6a.281.281,0,0,0-.222.278h0a10.913,10.913,0,0,0,.229,1.926Z" transform="translate(-305.491 -250.057)" fill="#f2bb88"/>
        <path id="Trazado_252976" data-name="Trazado 252976" d="M49.537,435.9l-10.179-3.627a4.689,4.689,0,0,1-7.152-.254l-7.348,3.053a4.055,4.055,0,0,0-2.768,3.773v3.979a1.76,1.76,0,0,0,1.76,1.76l.35.176h7.893l3.517-.451,3.748.451H45.85l3.686-.653Z" transform="translate(-21.914 -357.398)" fill="#81af1d"/>
        <path id="Trazado_252977" data-name="Trazado 252977" d="M87.657,398.126H81l.03,5.285c.632.73,1.049,1.582,1.9,1.83a4.8,4.8,0,0,0,4.977-1.466l0,0v-2.791Z" transform="translate(-70.469 -329.461)" fill="#f2d1a5"/>
        <path id="Trazado_252978" data-name="Trazado 252978" d="M32.878,433.2l-7.655,3.464-.54.226a2.1,2.1,0,0,0-1.308,1.953v5.915H22.85A1.759,1.759,0,0,1,21.09,443v-4.155a4.4,4.4,0,0,1,2.723-4.066l7.12-2.76a9.909,9.909,0,0,0,1.945,1.182Z" transform="translate(-21.09 -357.398)" fill="#81af1d"/>
        <path id="Trazado_252979" data-name="Trazado 252979" d="M60.718,433.659l-8.3,9.635H45.153L39.108,435.2l-1.172-1.789,3.979-1.384,3.239-1.787a4.8,4.8,0,0,0,7.263,0v0Z" transform="translate(-34.975 -355.93)" fill="#f8f7f7"/>
        <path id="Trazado_252980" data-name="Trazado 252980" d="M81.285,398.13H79v6l1.816,1.13a2.693,2.693,0,0,1,.469-.023V402.3a.351.351,0,0,1,.406-.346,6.109,6.109,0,0,0,.939.074,7.437,7.437,0,0,0,3.633-1.046V398.13Z" transform="translate(-68.821 -329.465)" fill="#f2bb88"/>
        <g id="Grupo_149417" data-name="Grupo 149417" transform="translate(2.725 74.31)">
          <path id="Trazado_252981" data-name="Trazado 252981" d="M46.33,431.708v0L38,435.2l-1.408-1.886,7.455-3.073A4.607,4.607,0,0,0,46.33,431.708Z" transform="translate(-36.59 -430.24)" fill="#e8e8e8"/>
        </g>
        <path id="Trazado_252982" data-name="Trazado 252982" d="M68.792,300.327c0-5.529-2.837-8.9-8.366-8.9s-8.366,3.372-8.366,8.9a11.286,11.286,0,0,0,.4,3.5c1.375,4.276,4.951,7.973,7.963,7.973,2.987,0,6.523-3.631,7.925-7.856a11.346,11.346,0,0,0,.441-3.615Z" transform="translate(-46.616 -241.517)" fill="#f2d1a5"/>
        <path id="Trazado_252983" data-name="Trazado 252983" d="M64.323,292.533a5.668,5.668,0,0,0-1.6.413l-.007.018a3.371,3.371,0,0,0-.34-1.208,11.037,11.037,0,0,0-2.773-.331c-5.529,0-8.542,3.372-8.542,8.9a11.485,11.485,0,0,0,.581,3.5c.123-.111.255-.236.4-.383a17.507,17.507,0,0,1,5.108-3.92c1.328-.58,2.452-.74,3.321-1.5a.353.353,0,0,1,.54.086,8.4,8.4,0,0,0,3.056,2.672,11.487,11.487,0,0,1,3.462,3.158,11.55,11.55,0,0,0,.617-3.615c0-3.662-1.323-6.376-3.821-7.793Z" transform="translate(-45.793 -241.516)" fill="#f2bb88"/>
        <path id="Trazado_252984" data-name="Trazado 252984" d="M110.56,285.156a5.816,5.816,0,0,1,2.22-.643,4.987,4.987,0,0,1,3.646,1.4c3.326,3.367,1.58,8.56.3,10.84a.351.351,0,0,1-.571.063,21.575,21.575,0,0,0-4.324-3.729,8.129,8.129,0,0,1-1.763-1.515,6.282,6.282,0,0,1-.986-2.207Z" transform="translate(-93.616 -235.819)" fill="#727997"/>
        <path id="Trazado_252985" data-name="Trazado 252985" d="M111.3,287.809a9.873,9.873,0,0,1-2.354,3.758,6.344,6.344,0,0,1-1.229-2.064l1.7-4.542a5.859,5.859,0,0,1,2.234-.452,7.24,7.24,0,0,1-.353,3.3Z" transform="translate(-92.492 -235.817)" fill="#575c73"/>
        <path id="Trazado_252986" data-name="Trazado 252986" d="M53.224,270.7a4.073,4.073,0,0,0-2.9-1.684c-2.042-.325-4.592.618-6.935,2.331-4.417,3.228-3.514,9.553-2.128,12.361a.352.352,0,0,0,.6.053c.242-.333.625-.579,1.162-1.128a14.188,14.188,0,0,1,5.283-3.392C52.744,277.629,54.737,273.064,53.224,270.7Z" transform="translate(-36.782 -222.995)" fill="#727997"/>
        <path id="Trazado_252987" data-name="Trazado 252987" d="M50.153,268.933a10.779,10.779,0,0,0-4.767,2.006c-3.832,2.8-3.588,8.351-2.551,11.607a12.055,12.055,0,0,0-1.164,1.368.353.353,0,0,1-.6-.053c-1.385-2.809-2.385-9.693,2.032-12.922A9.765,9.765,0,0,1,50.153,268.933Z" transform="translate(-36.586 -222.906)" fill="#575c73"/>
        <path id="Trazado_252988" data-name="Trazado 252988" d="M50.863,112.828l-4.084-.023a1.886,1.886,0,0,0-1.322.541l-2.751,2.7a.943.943,0,0,1-1.327,0l-2.7-2.689a1.885,1.885,0,0,0-1.332-.551H33.11a3.394,3.394,0,0,1-3.394-3.394V97.53a3.482,3.482,0,0,1,2.11-3.384,3.392,3.392,0,0,1,1.108-.185H54.54v15.627a3.387,3.387,0,0,1-.185,1.109,3.65,3.65,0,0,1-3.491,2.131Z" transform="translate(-28.2 -78.762)" fill="#f8f7f7"/>
        <path id="Trazado_252989" data-name="Trazado 252989" d="M53.532,111.57a3.394,3.394,0,0,1-3.206,2.285H46.135a1.891,1.891,0,0,0-1.324.541l-2.927,2.879a.943.943,0,0,1-1.327-.005l-2.87-2.865a1.891,1.891,0,0,0-1.332-.55H32.113a3.394,3.394,0,0,1-3.393-3.394V98.228a3.39,3.39,0,0,1,2.285-3.208v15.441a1.109,1.109,0,0,0,1.107,1.109h4.242a4.143,4.143,0,0,1,2.946,1.218l1.436,1.434a.705.705,0,0,0,.991,0l1.482-1.459a4.171,4.171,0,0,1,2.925-1.2Z" transform="translate(-27.379 -79.636)" fill="#e8e8e8"/>
        <g id="Grupo_149418" data-name="Grupo 149418" transform="translate(8.337 21.279)">
          <path id="Trazado_252990" data-name="Trazado 252990" d="M74.865,129.4a.41.41,0,0,0,.56,0,3.136,3.136,0,0,1,2.151-.841,3.074,3.074,0,0,1,3.07,3.085c-.032,2.22-2.4,4.12-4.02,5.161a6.368,6.368,0,0,1-1.3.528.411.411,0,0,1-.371,0c-.969-.478-5.14-2.6-5.077-5.7a2.955,2.955,0,0,1,1.713-2.768,3.014,3.014,0,0,1,.345-.2,2.951,2.951,0,0,1,.791-.114A3.074,3.074,0,0,1,74.865,129.4Z" transform="translate(-69.64 -128.552)" fill="#e53935"/>
          <path id="Trazado_252991" data-name="Trazado 252991" d="M75.5,137.332c-.571.367-1.051.628-1.3.758a.406.406,0,0,1-.371.005c-.97-.478-5.379-2.827-5.316-5.924a3.208,3.208,0,0,1,2.3-2.971,3.152,3.152,0,0,0-.715,1.916C70.049,133.624,73.626,136.191,75.5,137.332Z" transform="translate(-68.517 -129.086)" fill="#e53935"/>
        </g>
        <path id="Trazado_252992" data-name="Trazado 252992" d="M363.107,112.8h-4.191a1.886,1.886,0,0,0-1.322.541l-2.751,2.879a.943.943,0,0,1-1.327,0l-2.7-2.865a1.885,1.885,0,0,0-1.332-.551h-4.242a3.394,3.394,0,0,1-3.394-3.394l.224-15.1,3.423-.348h17.783a3.394,3.394,0,0,1,3.394,3.394v12.233a3.386,3.386,0,0,1-.185,1.109,3.482,3.482,0,0,1-3.384,2.109Z" transform="translate(-285.469 -78.761)" fill="#f8f7f7"/>
        <g id="Grupo_149419" data-name="Grupo 149419" transform="translate(63.205 21.279)">
          <path id="Trazado_252993" data-name="Trazado 252993" d="M387,129.4a.41.41,0,0,0,.56,0,3.136,3.136,0,0,1,2.151-.841,3.074,3.074,0,0,1,3.07,3.085c-.032,2.22-2.4,4.12-4.02,5.161a6.368,6.368,0,0,1-1.3.528.41.41,0,0,1-.371,0c-.969-.478-5.14-2.6-5.077-5.7a2.955,2.955,0,0,1,1.713-2.768,3.015,3.015,0,0,1,.345-.2,2.951,2.951,0,0,1,.791-.114A3.074,3.074,0,0,1,387,129.4Z" transform="translate(-381.779 -128.552)" fill="#e53935"/>
          <path id="Trazado_252994" data-name="Trazado 252994" d="M387.642,137.332c-.571.367-1.051.628-1.3.758a.406.406,0,0,1-.371.005c-.97-.478-5.379-2.827-5.316-5.924a3.208,3.208,0,0,1,2.3-2.971,3.152,3.152,0,0,0-.715,1.916C382.188,133.624,385.765,136.191,387.642,137.332Z" transform="translate(-380.656 -129.086)" fill="#e53935"/>
        </g>
        <path id="Trazado_252995" data-name="Trazado 252995" d="M358.265,110.7a4.152,4.152,0,0,0-2.925,1.2l-1.73,1.7a.353.353,0,0,1-.5,0l-1.682-1.68a4.169,4.169,0,0,0-2.946-1.218h-4.242a1.109,1.109,0,0,1-1.109-1.109v-6.154a.352.352,0,0,1,.085-.228,4.811,4.811,0,0,0,.453-.627,7.007,7.007,0,0,0,1-3.609v-5.01H340.85v15.627a3.394,3.394,0,0,0,3.394,3.394h4.242a1.891,1.891,0,0,1,1.332.55l2.87,2.865a.943.943,0,0,0,1.327.005l2.927-2.879a1.89,1.89,0,0,1,1.322-.541h4.191a3.394,3.394,0,0,0,3.208-2.285h-7.4Z" transform="translate(-284.642 -78.761)" fill="#e8e8e8"/>
        <path id="Trazado_252996" data-name="Trazado 252996" d="M190.762,32.007l-5.081.172a2.828,2.828,0,0,0-2.108.942l-2.95,3.247a1.32,1.32,0,0,1-1.974-.008l-2.729-3.3A2.828,2.828,0,0,0,173.8,32.1l-5.824.326a4.715,4.715,0,0,1-4.714-4.714V12.214A4.712,4.712,0,0,1,167.973,7.5H191.3a4.714,4.714,0,0,1,4.714,4.714V27.708a4.693,4.693,0,0,1-.673,2.429c-.825,1.369-2.863,1.87-4.578,1.87Z" transform="translate(-138.268 -7.5)" fill="#f8f7f7"/>
        <path id="Trazado_252997" data-name="Trazado 252997" d="M195.342,33.294a4.715,4.715,0,0,1-4.041,2.285h-5.62a2.834,2.834,0,0,0-2.109.942l-2.943,3.289a1.319,1.319,0,0,1-1.974-.007l-2.874-3.264a2.826,2.826,0,0,0-2.123-.96h-5.683a4.715,4.715,0,0,1-4.714-4.714V15.371a4.715,4.715,0,0,1,2.285-4.041V30.865a2.43,2.43,0,0,0,2.429,2.429h5.683a5.11,5.11,0,0,1,3.839,1.735l1.763,2a.526.526,0,0,0,.788,0L181.87,35a5.109,5.109,0,0,1,3.811-1.7Z" transform="translate(-138.269 -10.657)" fill="#e8e8e8"/>
        <path id="Trazado_252998" data-name="Trazado 252998" d="M217.941,45.253a.629.629,0,0,0,.859-.005,4.811,4.811,0,0,1,3.3-1.29,4.717,4.717,0,0,1,4.71,4.733c-.051,3.57-4.042,6.6-6.518,8.139a11.642,11.642,0,0,1-1.588.742.629.629,0,0,1-.57.006c-1.487-.734-7.979-3.865-7.884-8.617.041-2.04,1.109-4.13,2.992-4.765a4.533,4.533,0,0,1,1.421-.239,4.716,4.716,0,0,1,3.279,1.3Z" transform="translate(-176.998 -37.549)" fill="#e53935"/>
        <path id="Trazado_252999" data-name="Trazado 252999" d="M218.763,57.962c-.721.448-1.313.77-1.642.94a.631.631,0,0,1-.57.007c-1.487-.735-8.251-4.335-8.156-9.086a4.918,4.918,0,0,1,3.319-4.493,4.843,4.843,0,0,0-1.385,3.263C210.248,52.655,216.126,56.478,218.763,57.962Z" transform="translate(-175.47 -38.68)" fill="#dc4955"/>
        <path id="Trazado_253000" data-name="Trazado 253000" d="M239.349,357.911H230.2l.433,6.1-.433,3.225v0a6.808,6.808,0,0,0,1.216,1.381,6.416,6.416,0,0,0,6.62.247c.532-.32.878-1.128,1.31-1.626l0,0v-3.875l-.37-.607Z" transform="translate(-193.442 -296.315)" fill="#e3a76f"/>
        <path id="Trazado_253001" data-name="Trazado 253001" d="M190.436,417.315l-4.786-1.972-4.767-1.45a6.057,6.057,0,0,1-9.149.251l-9.2,3.171a5.279,5.279,0,0,0-3.268,4.881l.176,7.273,1.757.352h11.549l3.738-.847,3.312.847H193.7V422.2A5.279,5.279,0,0,0,190.436,417.315Z" transform="translate(-134.976 -342.457)" fill="#e53935"/>
        <path id="Trazado_253002" data-name="Trazado 253002" d="M232.485,357.91H230.2v9.327c.287.331.158.89.492,1.142.381.287,1.231.258,1.656.443h0l0-4.339a.351.351,0,0,1,.431-.342,9.2,9.2,0,0,0,1.994.3,10.024,10.024,0,0,0,4.576-1.085V357.91h-6.864Z" transform="translate(-193.442 -296.314)" fill="#d6995c"/>
        <path id="Trazado_253003" data-name="Trazado 253003" d="M172.029,413.352l-5.292,2.264-5.337,2.2a2.984,2.984,0,0,0-1.854,2.767v7.625H157.26v-7.625a5.277,5.277,0,0,1,3.268-4.88l4.762-1.962,2.172-.671,2.525-1.133a5.2,5.2,0,0,0,2.042,1.416Z" transform="translate(-133.324 -340.844)" fill="#e53935"/>
        <path id="Trazado_253004" data-name="Trazado 253004" d="M222.575,412.933c-.114.134-.192.221-.2.23a24.394,24.394,0,0,0-5.655,14.052v.2h-7.051v-.127a24.386,24.386,0,0,0-4.357-12.465,20.981,20.981,0,0,0-1.2-1.749l-.053-.069,4.594-1.851a5.529,5.529,0,0,0,2.15,1.4,6.055,6.055,0,0,0,7-1.584l0,0Z" transform="translate(-171.901 -340.048)" fill="#f8f7f7"/>
        <path id="Trazado_253005" data-name="Trazado 253005" d="M209.88,412.556l-5.493,2.264q-.651-.933-1.394-1.807l-.053-.069,4.792-1.974a6.043,6.043,0,0,0,1.42,1.206q.071.045.142.084a6.087,6.087,0,0,0,.585.3Z" transform="translate(-170.974 -340.048)" fill="#e8e8e8"/>
        <path id="Trazado_253006" data-name="Trazado 253006" d="M219.389,243.245c0-6.621-3.33-11.927-9.951-11.927s-9.624,5.352-9.624,11.973c0,1.105-.505,2.262-.307,3.4.99,5.657,4.414,11.134,9.931,11.134,5.874,0,9.376-6.21,10.092-12.234a19.93,19.93,0,0,0-.141-2.341Z" transform="translate(-168.106 -191.975)" fill="#e3a76f"/>
        <path id="Trazado_253007" data-name="Trazado 253007" d="M218.482,243.308c0-4.842-1.931-9.01-5.557-10.9a.177.177,0,0,1-.311-.157,10.093,10.093,0,0,0-4.361-.929c-6.621,0-10.229,5.368-10.229,11.989a19.706,19.706,0,0,0,.3,3.379,4.707,4.707,0,0,1,.565-.542c1.732-1.63,4.217-1.688,4.482-3.393a.352.352,0,0,1,.442-.294,6.059,6.059,0,0,0,6.239-2.868.351.351,0,0,1,.549-.1,3.839,3.839,0,0,0,2.89.794.353.353,0,0,1,.371.236c.995,2.908,3.722,1.841,4.482,5.071a19.306,19.306,0,0,0,.138-2.279Z" transform="translate(-166.921 -191.976)" fill="#d6995c"/>
        <g id="Grupo_149420" data-name="Grupo 149420" transform="translate(26.852 33.75)">
          <path id="Trazado_253008" data-name="Trazado 253008" d="M199.463,208.078c-.092-.027-.264-.059-.407-.084a.174.174,0,0,1-.13-.244,3.691,3.691,0,0,0-5.941-4.189.175.175,0,0,1-.3-.089,4.481,4.481,0,0,0-7.213-2.624.177.177,0,0,1-.248-.025,3.687,3.687,0,0,0-6.483,1.874.176.176,0,0,1-.165.154,5.264,5.264,0,0,0-1.195.208,5.19,5.19,0,0,0-3.534,5.15,4.735,4.735,0,0,0,1.346,3.321.168.168,0,0,1,.044.124,15.639,15.639,0,0,0,.165,3.571,4.656,4.656,0,0,0,2.693,3.587,1.762,1.762,0,0,1,.865-1.529c1.075-.889,2.931-1.049,3.4-2.687a.172.172,0,0,1,.193-.126,9.031,9.031,0,0,0,1.252.148,6.329,6.329,0,0,0,5.908-4.06.169.169,0,0,1,.291-.041A4.308,4.308,0,0,0,194.553,212a.173.173,0,0,1,.212.116c1.079,3.524,3.778,2.387,3.778,5.677,1.768-.8,2.825-3.527,3.329-5.341a3.552,3.552,0,0,0-2.41-4.37Z" transform="translate(-173.849 -199.5)" fill="#12263f"/>
        </g>
        <g id="Grupo_149421" data-name="Grupo 149421" transform="translate(26.615 37.31)">
          <path id="Trazado_253009" data-name="Trazado 253009" d="M177.851,233.972a2.11,2.11,0,0,0-.764,1.747,5.051,5.051,0,0,1-3-3.708,15.878,15.878,0,0,1-.183-3.556.167.167,0,0,0-.044-.123,5.271,5.271,0,0,1,2.417-8.582,5.269,5.269,0,0,0-.483,7.527.166.166,0,0,1,.044.123,15.882,15.882,0,0,0,.183,3.556,4.914,4.914,0,0,0,1.835,3.016Z" transform="translate(-172.5 -219.75)" fill="#0c1929"/>
        </g>
      </g>
      <g id="Grupo_149424" data-name="Grupo 149424" transform="translate(13.589)">
        <g id="Grupo_149423" data-name="Grupo 149423">
          <path id="Trazado_253010" data-name="Trazado 253010" d="M379.205,132.558a1.734,1.734,0,0,0,1.564-.017c1.4-.73,5.975-3.4,6.028-7.069a4.414,4.414,0,0,0-6.818-3.711,4.372,4.372,0,0,0-2.4-.712,4.544,4.544,0,0,0-4.429,4.377c-.077,3.809,4.612,6.422,6.051,7.131Zm-1.635-8.872h.012a1.76,1.76,0,0,1,1.211.486h0a1.732,1.732,0,0,0,2.363,0,1.78,1.78,0,0,1,3,1.261c-.025,1.737-2.487,3.578-4.2,4.546-1.733-.933-4.2-2.729-4.169-4.5a1.871,1.871,0,0,1,1.78-1.794Z" transform="translate(-309.949 -99.771)"/>
          <path id="Trazado_253011" data-name="Trazado 253011" d="M67.067,132.558a1.735,1.735,0,0,0,1.564-.017c1.4-.73,5.975-3.4,6.028-7.069a4.415,4.415,0,0,0-6.819-3.711,4.373,4.373,0,0,0-2.427-.712,4.479,4.479,0,0,0-4.4,4.377c-.077,3.809,4.612,6.422,6.051,7.132Zm-1.635-8.872h.012a1.759,1.759,0,0,1,1.211.486h0a1.731,1.731,0,0,0,2.362,0,1.78,1.78,0,0,1,3,1.261c-.025,1.737-2.487,3.578-4.2,4.546-1.733-.933-4.2-2.729-4.169-4.5A1.87,1.87,0,0,1,65.432,123.686Z" transform="translate(-52.678 -99.771)"/>
          <path id="Trazado_253012" data-name="Trazado 253012" d="M25.927,36.856h4.242a.564.564,0,0,1,.4.166l2.871,2.866a2.268,2.268,0,0,0,3.183.011l2.927-2.879a.564.564,0,0,1,.4-.163h4.191a4.718,4.718,0,0,0,4.712-4.712V27.2a6.005,6.005,0,0,0,2.047.358h5.684a1.511,1.511,0,0,1,1.133.512l2.874,3.265a2.64,2.64,0,0,0,1.97.895h.011a2.64,2.64,0,0,0,1.966-.879l2.943-3.29a1.511,1.511,0,0,1,1.125-.5h5.621a6.01,6.01,0,0,0,1.858-.294v4.879A4.718,4.718,0,0,0,80.8,36.856h4.242a.564.564,0,0,1,.4.166l2.871,2.866a2.268,2.268,0,0,0,3.183.011l2.927-2.88a.564.564,0,0,1,.4-.163h4.191a4.718,4.718,0,0,0,4.712-4.712V19.91A4.718,4.718,0,0,0,99.007,15.2H80.257V6.032A6.039,6.039,0,0,0,74.225,0H63.485a1.318,1.318,0,1,0,0,2.637h10.74a3.4,3.4,0,0,1,3.4,3.4V21.526a3.4,3.4,0,0,1-3.4,3.4H68.6a4.152,4.152,0,0,0-3.09,1.382l-2.945,3.29-2.874-3.265a4.148,4.148,0,0,0-3.113-1.407H50.9a3.4,3.4,0,0,1-3.4-3.4V6.032a3.4,3.4,0,0,1,3.4-3.4h6.434a1.318,1.318,0,0,0,0-2.637H50.9a6.039,6.039,0,0,0-6.032,6.032V15.2H25.927a4.718,4.718,0,0,0-4.712,4.712V32.144A4.718,4.718,0,0,0,25.927,36.856Zm73.08-19.021a2.078,2.078,0,0,1,2.075,2.076V32.144a2.078,2.078,0,0,1-2.075,2.076H94.816a3.184,3.184,0,0,0-2.247.92l-2.662,2.618-2.608-2.6a3.183,3.183,0,0,0-2.263-.936H80.8a2.078,2.078,0,0,1-2.076-2.076v-6.6a6.008,6.008,0,0,0,1.537-4.017V17.834h18.75ZM23.852,19.91a2.078,2.078,0,0,1,2.076-2.076H44.866v3.692a6,6,0,0,0,1.349,3.8v6.821a2.078,2.078,0,0,1-2.076,2.076H39.948a3.185,3.185,0,0,0-2.247.92l-2.662,2.618-2.608-2.6a3.183,3.183,0,0,0-2.263-.936H25.927a2.078,2.078,0,0,1-2.076-2.076V19.91Z" transform="translate(-19.874)"/>
          <path id="Trazado_253013" data-name="Trazado 253013" d="M200.9,42.478c-.109,5.429,6.777,9.253,8.89,10.295a1.955,1.955,0,0,0,1.763-.019c2.062-1.074,8.793-4.988,8.869-10.23a6.07,6.07,0,0,0-9.758-4.822,6.036,6.036,0,0,0-3.716-1.249,6.162,6.162,0,0,0-6.047,6.025Zm6.066-3.388h.024a3.4,3.4,0,0,1,2.34.937h0a1.951,1.951,0,0,0,2.662,0,3.435,3.435,0,0,1,5.793,2.46c-.042,2.918-3.8,5.963-7.141,7.765-3.387-1.736-7.168-4.731-7.108-7.72A3.552,3.552,0,0,1,206.962,39.09Z" transform="translate(-167.97 -30.044)"/>
          <path id="Trazado_253014" data-name="Trazado 253014" d="M98.016,238.105V218.9A14.338,14.338,0,0,0,77.14,206.145a1.318,1.318,0,1,0,1.2,2.345,11.567,11.567,0,0,1,5.337-1.285,11.71,11.71,0,0,1,11.7,11.7V235.78c-.036-.016-.07-.034-.107-.049h0l-6.64-2.736v-2.577a15.6,15.6,0,0,0,4.488-10.333c0-4.813-2.143-8.6-5.732-10.117a1.32,1.32,0,0,0-1.022,0,1.371,1.371,0,0,0-.781.935,9.511,9.511,0,0,1-7.285,7.25l-3.017.646a1.529,1.529,0,0,0-1.039,1.553,15.635,15.635,0,0,0,4.487,10.086v2.561l-5.245,2.161a6.565,6.565,0,0,0-1.5-1.356V218.9A11.623,11.623,0,0,1,74.1,212.2a1.318,1.318,0,1,0-2.159-1.514,14.245,14.245,0,0,0-2.59,8.22V232.58l-7.215-2.973V224.6c3.3-2.675,5.26-7.489,5.624-12.224,1.728-1.24,2.738-3.749,3.3-5.757a4.891,4.891,0,0,0-.642-4.027,4.833,4.833,0,0,0-1.986-1.7,5.055,5.055,0,0,0,.059-1.344,5.007,5.007,0,0,0-7.137-4.07,5.8,5.8,0,0,0-7.943-2.4,5.011,5.011,0,0,0-7.859,2.388,6.592,6.592,0,0,0-3.962,10.509,16.651,16.651,0,0,0,.224,3.415,6.273,6.273,0,0,0,3.078,4.321,21.6,21.6,0,0,0,.5,2.553A1.39,1.39,0,0,0,47,217.2a1.318,1.318,0,0,0,.941-1.609,18.979,18.979,0,0,1-.505-2.739c-.058-.51.132-.734,1.288-1.3a5.327,5.327,0,0,0,2.4-1.835,7.713,7.713,0,0,0,6.988-3.411,5.9,5.9,0,0,0,3.668.968,6.115,6.115,0,0,0,2.352,2.595c.785.541,1.027.71,1.032,1.7-.273,6.161-3.682,12.524-8.926,12.524a7.436,7.436,0,0,1-5.966-3.386,1.318,1.318,0,0,0-2.133,1.55,12.3,12.3,0,0,0,2.208,2.355v4.994l-8.737,3.6a6.591,6.591,0,0,0-2.636,1.973L33.67,233v-4.054a15.352,15.352,0,0,0,4.28-6.705,1.317,1.317,0,0,0,.923-.593c1.371-2.141,4-8.634-.217-12.907a6.54,6.54,0,0,0-5.918-1.664,4.17,4.17,0,0,0-.276-.508c-1.78-2.782-6.382-3.172-10.477-.888a1.318,1.318,0,1,0,1.285,2.3c3.071-1.713,6.084-1.38,6.971.007a2.876,2.876,0,0,1,.065,2.421,7.079,7.079,0,0,1-4.316,4.169,15.48,15.48,0,0,0-5.958,3.9,12.006,12.006,0,0,1-.1-6.481,1.318,1.318,0,0,0-2.525-.761,14.447,14.447,0,0,0,1.164,10.519,1.318,1.318,0,0,0,.954.6,15.4,15.4,0,0,0,4.244,6.581v4.064c-.121.053-6.585,2.707-6.714,2.77a5.7,5.7,0,0,0-3.465,5.253v4.155a3.082,3.082,0,0,0,3.078,3.078H95.733a3.081,3.081,0,0,0,3.078-3.078v-4.155a5.707,5.707,0,0,0-.8-2.912ZM63.9,205.409a1.318,1.318,0,0,0-1.676-.9,2.99,2.99,0,0,1-3.4-1.169,1.318,1.318,0,0,0-2.344.329,5,5,0,0,1-4.76,3.447,8.976,8.976,0,0,1-1.159-.152,1.319,1.319,0,0,0-1.535,1.011c-.114.516-.505.749-1.439,1.2a5.37,5.37,0,0,0-2.208,1.613A3.606,3.606,0,0,1,44.4,208.9a14.727,14.727,0,0,1-.16-3.28,1.319,1.319,0,0,0-.347-1,3.953,3.953,0,0,1,2.783-6.637,1.318,1.318,0,0,0,1.274-1.2,2.369,2.369,0,0,1,4.249-1.207,1.318,1.318,0,0,0,1.918.194,3.162,3.162,0,0,1,5.226,2.019,1.318,1.318,0,0,0,2.325.694,2.352,2.352,0,0,1,2.044-.85,2.373,2.373,0,0,1,1.865,3.5,1.318,1.318,0,0,0,1.018,1.946,2.213,2.213,0,0,1,1.624.97,2.256,2.256,0,0,1,.295,1.858,12.441,12.441,0,0,1-1.338,3.241,5.114,5.114,0,0,0-1.546-1.457,3.524,3.524,0,0,1-1.732-2.287Zm14.955,15.319a12.158,12.158,0,0,0,8.8-7.568c1.793,1.4,2.827,3.879,2.827,6.925,0,4.731-4.117,10.2-6.8,10.2-2.489,0-6.207-4.659-6.739-9.152ZM53.9,245.613a25.9,25.9,0,0,0-4.908-12.6l2.364-.974a7.362,7.362,0,0,0,4.884,1.855h0a7.365,7.365,0,0,0,4.887-1.855l2.327.959a25.917,25.917,0,0,0-4.949,12.61ZM65.98,234.044l3.886,1.6a3.947,3.947,0,0,1,2.452,3.662v6.306H61.162A23.245,23.245,0,0,1,65.98,234.044Zm-9.741-7.312a9.056,9.056,0,0,0,3.258-.6v3.827a4.73,4.73,0,0,1-3.257,1.3h0a4.73,4.73,0,0,1-3.256-1.3v-3.825a9.114,9.114,0,0,0,3.255.593ZM37.526,245.613h-2.3l2.3-2.669Zm.016-6.727-5.795,6.727h-6L19.7,237.522l5.083-2.094a6.119,6.119,0,0,0,3.932,1.43h0a6.118,6.118,0,0,0,3.932-1.431l5.119,2.109a6.606,6.606,0,0,0-.228,1.349Zm-.763-28.3c2.295,2.324,1.572,5.848.667,8.057a22.317,22.317,0,0,0-3.611-2.92,6.358,6.358,0,0,1-2.17-2.264,8.6,8.6,0,0,0,1.137-2.211,6.852,6.852,0,0,0,.337-1.564,4,4,0,0,1,3.64.9ZM21.743,220.5a12.805,12.805,0,0,1,5.147-3.449,10.38,10.38,0,0,0,2.9-1.616,9.188,9.188,0,0,0,2.627,2.509,19.787,19.787,0,0,1,3.254,2.652c-1.017,4.329-4.562,7.932-6.951,7.932s-5.986-3.665-6.974-8.029Zm6.974,10.665a5.935,5.935,0,0,0,2.315-.508v2.683a3.484,3.484,0,0,1-2.314.879h0a3.483,3.483,0,0,1-2.313-.879v-2.686a5.9,5.9,0,0,0,2.313.512Zm-12.492,14v-4.155a3.069,3.069,0,0,1,1.06-2.325l5.17,6.921H16.667A.442.442,0,0,1,16.226,245.172Zm23.937-5.865a3.948,3.948,0,0,1,2.452-3.662l3.853-1.588a23.237,23.237,0,0,1,4.774,11.556H40.163v-6.306Zm34.791,6.306v-6.306a6.625,6.625,0,0,0-.252-1.8l4.039-1.664c.051,3.322.359,6.812,2.207,9.771Zm6.414-11.738v-1.522a4.957,4.957,0,0,0,4.628,0s0,1.393,0,1.53c0,3.957,0,8.039-2.314,11.048-2.313-3-2.314-7.091-2.314-11.051a.015.015,0,0,0,0,0Zm14.807,11.3a.442.442,0,0,1-.441.441H86.415c1.849-2.961,2.156-6.45,2.208-9.77l5.645,2.326h0a3.071,3.071,0,0,1,1.907,2.848Z" transform="translate(-13.589 -158.25)"/>
        </g>
      </g>
    </g>
  </g>
</svg>
