<svg xmlns="http://www.w3.org/2000/svg" width="150" height="150" viewBox="0 0 150 150">
  <g id="Grupo_224038" data-name="Grupo 224038" transform="translate(6201.239 -128)">
    <g id="Grupo_223937" data-name="Grupo 223937" transform="translate(-7334.239 -12053)">
      <circle id="Elipse_6362" data-name="Elipse 6362" cx="75" cy="75" r="75" transform="translate(1133 12181)" fill="#e2872c"/>
      <circle id="Elipse_6363" data-name="Elipse 6363" cx="63" cy="63" r="63" transform="translate(1145 12193)" fill="#fff"/>
    </g>
    <g id="Page-1" transform="translate(-6163.669 166.348)">
      <g id="_043---Marketer" data-name="043---Marketer" transform="translate(0.017)">
        <g id="Icons_copy" data-name="Icons copy" transform="translate(1.249 1.255)">
          <path id="Shape" d="M105.991,148.241a5.02,5.02,0,0,1-5.02,5.008v2.736a5.03,5.03,0,0,1-1.719,3.79l-3.426,3-3.477,3.037a4.994,4.994,0,0,1-3.3,1.242H85.283a4.994,4.994,0,0,1-3.3-1.242l-3.476-3.037-3.426-3a5.03,5.03,0,0,1-1.719-3.79v-2.736a5.008,5.008,0,1,1,0-10.015v-.025s0-11.3,7.53-8.785,7.53,5.02,17.571,3.765a5.438,5.438,0,0,1,2.51,5.02v.025a5.02,5.02,0,0,1,5.02,5.008Z" transform="translate(-59.551 -115.597)" fill="#ffe0b2"/>
          <path id="Shape-2" data-name="Shape" d="M195.39,177.194v2.736a5.03,5.03,0,0,1-1.719,3.79l-3.426,3-3.477,3.037a4.994,4.994,0,0,1-3.3,1.242h3.765a4.994,4.994,0,0,0,3.3-1.242l3.477-3.037,3.426-3a5.03,5.03,0,0,0,1.719-3.79v-2.736a5.008,5.008,0,0,0,0-10.015v-.025a5.438,5.438,0,0,0-2.51-5.02c-1.255.157-2.346.251-3.318.3a5.694,5.694,0,0,1,2.063,4.719Z" transform="translate(-157.735 -139.542)" fill="#dfc49c"/>
          <path id="Shape-3" data-name="Shape" d="M116.8,49.242c0,7.518-2.51,8.773-2.51,8.773V57.99a5.438,5.438,0,0,0-2.51-5.02C101.74,54.225,101.74,51.715,94.209,49.2s-7.53,8.786-7.53,8.786v.025s-7.53-12.525,2.51-17.533c0,0,5.823-10.455,19.7-4.506a.628.628,0,0,1,.025,1.142,4.392,4.392,0,0,0-1.694,1.368.627.627,0,0,0,.3.979C109.885,40.231,116.8,43.017,116.8,49.242Z" transform="translate(-72.87 -30.379)" fill="#d2e1f1"/>
          <path id="Shape-4" data-name="Shape" d="M194.515,39.653a.627.627,0,0,1-.3-.979,4.392,4.392,0,0,1,1.694-1.368.628.628,0,0,0-.025-1.142,18.986,18.986,0,0,0-9.925-1.707,22.094,22.094,0,0,1,6.16,1.707.628.628,0,0,1,.025,1.142,4.392,4.392,0,0,0-1.694,1.368.627.627,0,0,0,.3.979c2.359.766,9.275,3.552,9.275,9.777a23.36,23.36,0,0,1-.377,4.42,5.877,5.877,0,0,1,1.632,4.327V58.2s2.51-1.255,2.51-8.773C203.79,43.2,196.874,40.419,194.515,39.653Z" transform="translate(-159.86 -30.566)" fill="#b0c0d2"/>
          <path id="Shape-5" data-name="Shape" d="M174.583,431.185l-2.008,1.757h-5.02l-2.008-1.757,4.518-4.518Z" transform="translate(-142.451 -365.169)" fill="#5000c7"/>
          <path id="Shape-6" data-name="Shape" d="M122.465,404.832l-5.384,5.384a1.265,1.265,0,0,1-1.782,0l-4.97-4.97-.59-.414,2.686-3.765S114.935,404.832,122.465,404.832Z" transform="translate(-94.851 -343.334)" fill="#f5f5f5"/>
          <path id="Shape-7" data-name="Shape" d="M148.081,339.856s-2.51,3.765-10.04,3.765S128,339.856,128,339.856a20.019,20.019,0,0,0,1.381-10.555l3.476,3.037a4.993,4.993,0,0,0,3.3,1.243h3.765a4.993,4.993,0,0,0,3.3-1.243L146.7,329.3a20.017,20.017,0,0,0,1.38,10.555Z" transform="translate(-110.426 -282.123)" fill="#dfc49c"/>
          <path id="Shape-8" data-name="Shape" d="M226.837,432.352l-2.585,5.61h-10.53l-.389-5.02,2.008-1.757.866.866a1.265,1.265,0,0,0,1.782,0l4.97-4.97.59-.414,3.163,4.43a1.255,1.255,0,0,1,.125,1.255Z" transform="translate(-183.208 -365.169)" fill="#f3f9ff"/>
          <path id="Shape-9" data-name="Shape" d="M182.353,474.353h-5.8l.389-5.02h5.02Z" transform="translate(-151.84 -401.56)" fill="#5000c7"/>
          <path id="Shape-10" data-name="Shape" d="M100.233,432.942l-.389,5.02H89.314l-2.585-5.61a1.255,1.255,0,0,1,.126-1.255l3.163-4.43.59.414,4.97,4.97a1.266,1.266,0,0,0,1.782,0l.866-.866Z" transform="translate(-75.128 -365.169)" fill="#f3f9ff"/>
          <path id="Shape-11" data-name="Shape" d="M20.236,409.262a1.255,1.255,0,0,0-.126,1.255l2.585,5.61H9.744a1.255,1.255,0,0,1-1.167-1.657,16.423,16.423,0,0,1,3.175-5.874c3.615-3.765,14.333-7.53,14.333-7.53L23.4,404.832Z" transform="translate(-8.511 -343.334)" fill="#81af1d"/>
          <path id="Shape-12" data-name="Shape" d="M280.947,416.2H267.995l2.585-5.61a1.255,1.255,0,0,0-.125-1.255l-3.163-4.43-2.673-3.753a71.636,71.636,0,0,1,10.028,4.455v.552a3.765,3.765,0,0,0,3.765,3.765h1.506a18.83,18.83,0,0,1,2.2,4.619,1.255,1.255,0,0,1-1.167,1.657Z" transform="translate(-226.951 -343.407)" fill="#81af1d"/>
          <path id="Shape-13" data-name="Shape" d="M282.114,414.544a18.83,18.83,0,0,0-2.2-4.619h-1.506a3.765,3.765,0,0,1-3.765-3.765v-.552a71.636,71.636,0,0,0-10.028-4.455l1.493,2.1c1.538.679,3.218,1.482,4.769,2.354v.552a3.765,3.765,0,0,0,3.765,3.765h1.506a18.826,18.826,0,0,1,2.2,4.619,1.255,1.255,0,0,1-1.167,1.657h3.765a1.255,1.255,0,0,0,1.167-1.657Z" transform="translate(-226.951 -343.407)" fill="#5d8700"/>
          <path id="Shape-14" data-name="Shape" d="M208.993,404.832l-.59.414-4.97,4.97a1.265,1.265,0,0,1-1.782,0l-5.384-5.384c7.53,0,10.04-3.765,10.04-3.765l.013.013Z" transform="translate(-168.652 -343.334)" fill="#f5f5f5"/>
          <path id="Shape-15" data-name="Shape" d="M358.652,59.733V69.774h-6.275a2.518,2.518,0,0,1-2.51-2.51v-5.02a2.518,2.518,0,0,1,2.51-2.51Z" transform="translate(-299.661 -52.203)" fill="#cfd8dc"/>
          <path id="Shape-16" data-name="Shape" d="M418.385,25.6V45.681s-1.255-5.02-8.785-5.02V30.62C417.13,30.62,418.385,25.6,418.385,25.6Z" transform="translate(-350.609 -23.09)" fill="#e53935"/>
          <path id="Shape-17" data-name="Shape" d="M474.353,11.043V31.124a2.51,2.51,0,0,1-5.02,0V11.043a2.518,2.518,0,0,1,2.51-2.51,2.529,2.529,0,0,1,2.51,2.51Z" transform="translate(-401.557 -8.533)" fill="#9e9e9e"/>
          <path id="Shape-18" data-name="Shape" d="M371.953,128v5.02a2.51,2.51,0,1,1-5.02,0V128Z" transform="translate(-314.217 -110.429)" fill="#9e9e9e"/>
          <rect id="Rectangle-path" width="25.101" height="25.101" rx="4" transform="translate(47.696 41.417)" fill="#e2a05f"/>
          <path id="Shape-19" data-name="Shape" d="M456.032,290.133h-3.765a3.765,3.765,0,0,1,3.765,3.765v17.571a3.765,3.765,0,0,1-3.765,3.765h3.765a3.765,3.765,0,0,0,3.765-3.765V293.9A3.765,3.765,0,0,0,456.032,290.133Z" transform="translate(-387.001 -248.716)" fill="#e2872c"/>
        </g>
        <g id="Icons" transform="translate(0)">
          <path id="Shape-20" data-name="Shape" d="M176.942,290.133h-5.02a1.255,1.255,0,0,0,0,2.51h5.02a1.255,1.255,0,1,0,0-2.51Z" transform="translate(-145.568 -247.461)"/>
          <path id="Shape-21" data-name="Shape" d="M182.965,315.733h-2.51a1.255,1.255,0,0,0,0,2.51h2.51a1.255,1.255,0,0,0,0-2.51Z" transform="translate(-152.846 -269.296)"/>
          <path id="Shape-22" data-name="Shape" d="M180.455,258.51h2.51a1.255,1.255,0,0,0,0-2.51h-2.51a1.255,1.255,0,0,0,0,2.51Z" transform="translate(-152.846 -218.348)"/>
          <path id="Shape-23" data-name="Shape" d="M134.275,190.243a1.255,1.255,0,0,0,0-2.51h-5.02a1.255,1.255,0,0,0,0,2.51Z" transform="translate(-109.177 -160.122)"/>
          <path id="Shape-24" data-name="Shape" d="M214.588,190.243h5.02a1.255,1.255,0,0,0,0-2.51h-5.02a1.255,1.255,0,1,0,0,2.51Z" transform="translate(-181.959 -160.122)"/>
          <path id="Shape-25" data-name="Shape" d="M362.669,0a3.758,3.758,0,0,0-3.738,3.492c-.128.418-1.408,4.039-7.558,4.039H345.1a3.765,3.765,0,0,0-3.765,3.765v5.02a3.765,3.765,0,0,0,2.51,3.534v4a3.765,3.765,0,0,0,7.53,0V20.081c6.15,0,7.432,3.628,7.558,4.04a3.756,3.756,0,0,0,7.5-.275V3.765A3.765,3.765,0,0,0,362.669,0ZM343.843,11.3a1.255,1.255,0,0,1,1.255-1.255h5.02v2.51h-2.51a1.255,1.255,0,0,0,0,2.51h2.51v2.51H345.1a1.255,1.255,0,0,1-1.255-1.255Zm5.02,12.551a1.255,1.255,0,1,1-2.51,0V20.081h2.51Zm3.765-6.221V15.008a24.792,24.792,0,0,0,2.736-.338,1.255,1.255,0,1,0-.452-2.467,22.336,22.336,0,0,1-2.284.287v-2.5A10.765,10.765,0,0,0,358.9,7.7V19.911A10.764,10.764,0,0,0,352.629,17.625Zm11.3,6.221a1.255,1.255,0,1,1-2.51,0V3.765a1.255,1.255,0,0,1,2.51,0Z" transform="translate(-291.133 0)"/>
          <path id="Shape-26" data-name="Shape" d="M70.3,63.29H52.727a5.02,5.02,0,0,0-5.02,5.02V83.245a78.677,78.677,0,0,0-7.822-3.366,18.857,18.857,0,0,1-1.155-8.945L41.8,68.25a6.275,6.275,0,0,0,2.144-4.728V61.909a6.26,6.26,0,0,0,1.035-11.968A17,17,0,0,0,46.452,42c0-6.351-6.169-9.49-9.192-10.645a3.1,3.1,0,0,1,.572-.336,1.883,1.883,0,0,0-.04-3.448c-13.262-5.675-19.837,2.84-21.085,4.705a9.925,9.925,0,0,0-5.164,6.086c-1.255,4.3.484,9.036,1.618,11.447a6.26,6.26,0,0,0,.66,12.1v1.614a6.275,6.275,0,0,0,2.144,4.723l3.067,2.685a18.866,18.866,0,0,1-1.155,8.946c-2.27.833-10.932,4.165-14.274,7.647A17.669,17.669,0,0,0,.14,93.878,2.552,2.552,0,0,0,.5,96.155a2.454,2.454,0,0,0,2,1.022H55.262a2.454,2.454,0,0,0,2-1.022,2.55,2.55,0,0,0,.358-2.285A22.609,22.609,0,0,0,56.4,90.9H70.3a5.02,5.02,0,0,0,5.02-5.02V68.31a5.02,5.02,0,0,0-5.02-5.02ZM41.507,94.666H32.941l-.251-3.233.651-.57.039.039a2.51,2.51,0,0,0,3.549,0l4.445-4.445,2.385,3.33Zm-25.252,0-2.241-4.878,2.375-3.327,4.443,4.44a2.51,2.51,0,0,0,3.549,0l.039-.039.651.57-.25,3.234ZM38.772,82.813l1.13,1.575-4.745,4.738-3.431-3.431a13.456,13.456,0,0,0,7.047-2.884Zm-7.853,6.832H26.843l-.644-.563L28.881,86.4l2.682,2.682Zm-8.314-.52-4.739-4.739L19,82.811A13.446,13.446,0,0,0,26.042,85.7Zm4.927,3.03h2.7l.195,2.51H27.338Zm-13.576-53.1a7.518,7.518,0,0,1,4.188-4.7,1.255,1.255,0,0,0,.537-.512,12.121,12.121,0,0,1,10.5-5.705,18.448,18.448,0,0,1,6.476,1.28,5.631,5.631,0,0,0-1.044,1.064,1.883,1.883,0,0,0,.919,2.922c1.972.641,8.409,3.16,8.409,8.593a18.708,18.708,0,0,1-.664,5.468,6.111,6.111,0,0,0-2.54-2.869,1.273,1.273,0,0,0-.717-.125c-6.716.84-8.6-.05-11.731-1.531A43.777,43.777,0,0,0,23,40.76a5.932,5.932,0,0,0-5.609.572A8.66,8.66,0,0,0,14.439,46.2a12.466,12.466,0,0,1-.482-7.145Zm2.373,24.47V60.779a1.255,1.255,0,0,0-1.255-1.255,3.743,3.743,0,0,1-1.255-7.279V54.5a1.255,1.255,0,0,0,2.51,0V50.739c0-1.545.464-5.882,2.533-7.37a3.544,3.544,0,0,1,3.346-.227,41.932,41.932,0,0,1,5.008,2.07c3.226,1.524,5.575,2.636,12.656,1.806a4.51,4.51,0,0,1,1.559,3.721V54.5a1.255,1.255,0,0,0,2.51,0V52.245a3.743,3.743,0,0,1-1.255,7.279,1.255,1.255,0,0,0-1.255,1.255v2.742a3.765,3.765,0,0,1-1.286,2.833l-6.9,6.044a3.772,3.772,0,0,1-2.479.931H27a3.766,3.766,0,0,1-2.479-.931l-6.9-6.044a3.765,3.765,0,0,1-1.286-2.833Zm6.54,10.767A6.275,6.275,0,0,0,27,75.84h3.765A6.283,6.283,0,0,0,34.9,74.289l1.214-1.063a20.678,20.678,0,0,0,1.357,7.4c-.92.895-3.43,2.74-8.586,2.74s-7.673-1.851-8.583-2.742a20.663,20.663,0,0,0,1.358-7.4ZM5.411,89.259c2.032-2.117,6.613-4.29,9.953-5.692l-3.389,4.753a2.51,2.51,0,0,0-.251,2.51l1.766,3.835H2.525A15.4,15.4,0,0,1,5.411,89.259Zm49.851,5.407H44.272l1.766-3.833a2.51,2.51,0,0,0-.251-2.51l-3.4-4.763c1.632.684,3.548,1.555,5.334,2.519A5.02,5.02,0,0,0,52.727,90.9h.81A19.422,19.422,0,0,1,55.262,94.666Zm17.546-8.785a2.51,2.51,0,0,1-2.51,2.51H52.727a2.51,2.51,0,0,1-2.51-2.51V68.31a2.51,2.51,0,0,1,2.51-2.51H70.3a2.51,2.51,0,0,1,2.51,2.51Z" transform="translate(-0.017 -21.873)"/>
          <path id="Shape-27" data-name="Shape" d="M374.626,315.733h-3.765a1.255,1.255,0,0,0,0,2.51h.736l-3.246,3.246L366.36,319.5a2.51,2.51,0,0,0-3.549,0l-4.133,4.133a1.255,1.255,0,1,0,1.775,1.775l4.133-4.133,1.991,1.991a2.51,2.51,0,0,0,3.549,0l3.246-3.246v.736a1.255,1.255,0,0,0,2.51,0v-3.765A1.255,1.255,0,0,0,374.626,315.733Z" transform="translate(-305.6 -269.296)"/>
          <path id="Shape-28" data-name="Shape" d="M359.655,401.067a1.255,1.255,0,0,0-1.255,1.255v2.51a1.255,1.255,0,0,0,2.51,0v-2.51A1.255,1.255,0,0,0,359.655,401.067Z" transform="translate(-305.69 -342.079)"/>
          <path id="Shape-29" data-name="Shape" d="M393.788,375.467a1.255,1.255,0,0,0-1.255,1.255V383a1.255,1.255,0,0,0,2.51,0v-6.275A1.255,1.255,0,0,0,393.788,375.467Z" transform="translate(-334.803 -320.244)"/>
          <path id="Shape-30" data-name="Shape" d="M427.922,392.533a1.255,1.255,0,0,0-1.255,1.255v3.765a1.255,1.255,0,0,0,2.51,0v-3.765A1.255,1.255,0,0,0,427.922,392.533Z" transform="translate(-363.916 -334.8)"/>
          <path id="Shape-31" data-name="Shape" d="M462.055,375.467a1.255,1.255,0,0,0-1.255,1.255V383a1.255,1.255,0,0,0,2.51,0v-6.275A1.255,1.255,0,0,0,462.055,375.467Z" transform="translate(-393.029 -320.244)"/>
          <circle id="Elipse_6242" data-name="Elipse 6242" cx="1.872" cy="1.872" r="1.872" transform="translate(20.805 32.246)"/>
          <circle id="Elipse_6243" data-name="Elipse 6243" cx="1.872" cy="1.872" r="1.872" transform="translate(33.285 32.246)"/>
        </g>
      </g>
    </g>
  </g>
</svg>
