<svg xmlns="http://www.w3.org/2000/svg" width="523.792" height="335" viewBox="0 0 523.792 335">
  <g id="Grupo_174003" data-name="Grupo 174003" transform="translate(-896.208 -13238.004)">
    <g id="Grupo_171544" data-name="Grupo 171544" transform="translate(711.344 13093.004)">
      <path id="Trazado_258684" data-name="Trazado 258684" d="M254.7,479.4s-63.569-61.7-23.127-134.293,94.76-36.086,92.131-120.577,124.919-91.75,165.519-67.251,40.355,54.005,124.168,44.243,99.825,71.618,78.02,113.094c-30.937,58.847,85.864,49.142,12.266,164.785Z" transform="translate(-26.524)" fill="#f2f7e8" opacity="0.4"/>
      <g id="Grupo_171530" data-name="Grupo 171530" transform="translate(506.065 258.496)">
        <path id="Trazado_258685" data-name="Trazado 258685" d="M1779.87,829.978s13.507-57.25,59.074-63.544c0,0,8.866-1.089,11.818,8.673s-14.675,9.833-25.572,13.76S1788.893,809.441,1779.87,829.978Z" transform="translate(-1778.602 -754.264)" fill="#81af1d"/>
        <path id="Trazado_258686" data-name="Trazado 258686" d="M1773.831,771.38s-4.738-47.421,28.515-64.251c0,0,6.506-3.171,11.34,3.531s-8.652,11.4-15.966,17.28S1775.332,753.268,1773.831,771.38Z" transform="translate(-1773.598 -706.379)" fill="#81af1d"/>
      </g>
      <rect id="Rectángulo_44568" data-name="Rectángulo 44568" width="523.792" height="1.439" rx="0.719" transform="translate(184.864 478.562)" fill="#2e3552"/>
      <path id="Trazado_258687" data-name="Trazado 258687" d="M553.854,1374.753c-7.035-16.03,18.483-29.8,18.483-29.8s33.626,10.884,38.454,7.9-26.933-14.919-26.933-14.919c7.836-7.668,37.885-14.694,37.885-14.694s20.269,27.971,24.214,23.889-19.211-23.851-19.211-23.851c10.212-4.157,25.616-.745,25.616-.745,22.182,7.9,10.895,35.973,10.895,35.973s7.233,9.542,21.6,15.6h0a40.752,40.752,0,0,1,6.913,3.219l-2.242,1.806c-.667-.454-1.337-.872-2.01-1.25a.017.017,0,0,0-.012-.007l-.029-.016c-.433-.222-1.05-.538-1.809-.917h0l0,0c-1.765-.789-3.026-1.407-3.894-1.887l-.007,0c-5.443-2.556-12.818-5.659-15.717-5.221a5.574,5.574,0,0,0-.348-1.415l.348,1.415c2.786,11.316-15.3,28.144-27.758,34.562s-10.227-.351-8.412-9.883,14.917-17.957,16.935-22.747-4.736-2.513-11.422,3.776-4.509,16.288-15.14,26.659-36.848-4.221-36.848-4.221c9.937-3.936,20.66-19.8,19-22.988s-22.549,14.094-26.5,15.921S560.889,1390.783,553.854,1374.753Z" transform="translate(-293.411 -938.412)" fill="#81af1d"/>
      <path id="Trazado_258688" data-name="Trazado 258688" d="M1672.218,1401.65c10.263-12.109-8.348-30.684-8.348-30.684s-32.04.754-35.463-3.09,27.267-5.993,27.267-5.993c-4.825-8.692-29.119-22.576-29.119-22.576s-24.854,19.06-27.226,14.493,22.869-15.754,22.869-15.754c-7.8-6.256-22.068-7.278-22.068-7.278-21.321,1.122-18.779,28.442-18.779,28.442s-8.756,6.42-22.81,7.962h0a36.913,36.913,0,0,0-6.841,1.008l1.481,2.15c.7-.221,1.388-.412,2.071-.566a.016.016,0,0,1,.012,0l.03-.006c.434-.082,1.052-.2,1.81-.329h.007c1.738-.229,2.994-.44,3.873-.631l.008,0c5.392-.812,12.6-1.6,15.01-.469a5.061,5.061,0,0,1,.669-1.14l-.669,1.14c-5.35,9.112,6.011,28.418,15.176,37.22s8.978,2.342,9.868-6.411-8.315-19.466-8.829-24.151,4.766-.958,8.949,6.238-.3,15.322,6.256,27.086,33.115,5.87,33.115,5.87c-7.617-5.993-12.828-22.559-10.562-24.9s15.947,18.084,18.909,20.7S1661.955,1413.759,1672.218,1401.65Z" transform="translate(-1090.496 -946.035)" fill="#81af1d"/>
      <path id="Trazado_258689" data-name="Trazado 258689" d="M861.236,487.018c10.578-17.75,41.308-2.675,41.308-2.675s12.6,39.771,18.776,42.363-4.131-36.106-4.131-36.106c12.74,2.272,40.093,26.325,40.093,26.325s-12.977,38.652-6.351,39.644,9.745-34.81,9.745-34.81c11,6.961,18.279,24.1,18.279,24.1,7.62,26.727-27.094,35.132-27.094,35.132s-4.208,13.492-.174,31.449h0a48.11,48.11,0,0,1,1.646,8.849l-3.273-.916c-.022-.952-.079-1.883-.177-2.789a.02.02,0,0,0,0-.017l0-.039c-.082-.569-.2-1.378-.359-2.367v0s0,0,0,0c-.452-2.237-.723-3.872-.858-5.036a.034.034,0,0,1,0-.01c-1.276-6.982-3.351-16.2-5.759-18.681a6.58,6.58,0,0,0,1.121-1.3l-1.121,1.3c-8.962,10.436-37.531,4.6-52.239-2.974s-6.675-10.066,3.728-14.858,27.48,2.02,33.466.675-.833-6.274-11.46-8.386-18.741,6.835-35.994,3.731-21.208-38.3-21.208-38.3c10.6,6.849,33.194,6.272,35.114,2.495s-29-12-33.467-14.546S850.658,504.767,861.236,487.018Z" transform="translate(-534.835 -265.972)" fill="#81af1d"/>
      <g id="Grupo_171532" data-name="Grupo 171532" transform="translate(444.51 194.894)">
        <g id="Grupo_171531" data-name="Grupo 171531" transform="translate(0)">
          <path id="Trazado_258690" data-name="Trazado 258690" d="M1469.132,450.427a8.11,8.11,0,0,1,.614-3.18,7.431,7.431,0,0,1,1.736-2.529,7.971,7.971,0,0,1,2.7-1.669,9.938,9.938,0,0,1,3.552-.6,10.162,10.162,0,0,1,3.579.6,7.923,7.923,0,0,1,2.724,1.669,7.445,7.445,0,0,1,1.736,2.529,8.128,8.128,0,0,1,.614,3.18,7.936,7.936,0,0,1-.614,3.154,7.494,7.494,0,0,1-1.736,2.5,7.9,7.9,0,0,1-2.724,1.669,10.168,10.168,0,0,1-3.579.6,9.944,9.944,0,0,1-3.552-.6,7.949,7.949,0,0,1-2.7-1.669,7.48,7.48,0,0,1-1.736-2.5A7.919,7.919,0,0,1,1469.132,450.427Zm15.009-14.836h-12.819l-1.816-43.8h16.452Z" transform="translate(-1469.132 -391.789)" fill="#e53935"/>
        </g>
      </g>
      <g id="Grupo_171534" data-name="Grupo 171534" transform="translate(405.803 165.709)">
        <g id="Grupo_171533" data-name="Grupo 171533" transform="translate(0 0)">
          <path id="Trazado_258691" data-name="Trazado 258691" d="M1277.678,292.435a6.229,6.229,0,0,1,.471-2.441,5.706,5.706,0,0,1,1.332-1.94,6.12,6.12,0,0,1,2.07-1.281,7.628,7.628,0,0,1,2.726-.46,7.8,7.8,0,0,1,2.747.46,6.084,6.084,0,0,1,2.091,1.281,5.716,5.716,0,0,1,1.332,1.94,6.242,6.242,0,0,1,.471,2.441,6.093,6.093,0,0,1-.471,2.421,5.752,5.752,0,0,1-1.332,1.921,6.065,6.065,0,0,1-2.091,1.281,7.8,7.8,0,0,1-2.747.46,7.632,7.632,0,0,1-2.726-.46,6.1,6.1,0,0,1-2.07-1.281,5.741,5.741,0,0,1-1.332-1.921A6.08,6.08,0,0,1,1277.678,292.435Zm11.52-11.386h-9.839l-1.394-33.618h12.627Z" transform="translate(-1277.678 -247.431)" fill="#e53935"/>
        </g>
      </g>
      <g id="Grupo_171536" data-name="Grupo 171536" transform="translate(596.934 222.511)">
        <g id="Grupo_171535" data-name="Grupo 171535" transform="translate(0 0)">
          <path id="Trazado_258692" data-name="Trazado 258692" d="M2223.052,573.394a6.225,6.225,0,0,1,.471-2.441,5.7,5.7,0,0,1,1.333-1.941,6.12,6.12,0,0,1,2.07-1.281,7.631,7.631,0,0,1,2.726-.46,7.8,7.8,0,0,1,2.746.46,6.081,6.081,0,0,1,2.091,1.281,5.713,5.713,0,0,1,1.332,1.941,6.234,6.234,0,0,1,.471,2.441,6.085,6.085,0,0,1-.471,2.421,5.75,5.75,0,0,1-1.332,1.921,6.06,6.06,0,0,1-2.091,1.28,7.792,7.792,0,0,1-2.746.46,7.622,7.622,0,0,1-2.726-.46,6.1,6.1,0,0,1-2.07-1.28,5.74,5.74,0,0,1-1.333-1.921A6.077,6.077,0,0,1,2223.052,573.394Zm11.52-11.387h-9.839l-1.394-33.618h12.627Z" transform="translate(-2223.052 -528.39)" fill="#e53935"/>
        </g>
      </g>
      <g id="Grupo_171538" data-name="Grupo 171538" transform="translate(542.31 307.977)">
        <g id="Grupo_171537" data-name="Grupo 171537">
          <path id="Trazado_258693" data-name="Trazado 258693" d="M1985.853,1104.541a66.35,66.35,0,0,1-7.244,10.8v0c-2.75,3.283-5.565,5.778-7.94,6.623l-.018.006c-.124.043-.246.083-.368.116a.029.029,0,0,1-.018,0l0,0a4.33,4.33,0,0,1-1.38.177c-7.8-.35-16.012-17.072-16.012-17.072a5.943,5.943,0,0,1,1.73-3.382,7.013,7.013,0,0,1,2.341-1.541s8.4,8.622,10.447,9.243c1.29.389,2.986-5.632,5.416-13.193s10.97-9.426,10.97-9.426S1992.417,1092.37,1985.853,1104.541Z" transform="translate(-1952.871 -1059.45)" fill="#c2a6eb"/>
          <path id="Trazado_258694" data-name="Trazado 258694" d="M2047.241,1204.308v0c-2.75,3.283-5.564,5.778-7.94,6.623l-.018.006-.368.116-.02.006,0,0c.086-.057,2.628-1.375,3.027-3.822.408-2.5-2.238-4.546,4.411-8.414C2050.208,1196.569,2047.241,1204.308,2047.241,1204.308Z" transform="translate(-2021.502 -1148.416)" fill="#b28beb"/>
          <path id="Trazado_258695" data-name="Trazado 258695" d="M2050.075,1755.282h18.271c1.309-.888-.353-9.567-.353-9.567s-4.986-1.892-5.848,1.956-6.352,5.067-9.255,5.537A3.128,3.128,0,0,0,2050.075,1755.282Z" transform="translate(-2030.423 -1584.698)" fill="#24406d"/>
          <path id="Trazado_258696" data-name="Trazado 258696" d="M2097.336,1325.171s-.382,7.062-.93,16.662c-.1,1.811-.233,4.05-.367,6.347-.519,8.856-1.109,18.582-1.616,25.867-.067.967-.134,1.891-.2,2.764-.018.27-.039.539-.059.808a162.422,162.422,0,0,1-5.683,30.643c-5.137,1.083-7.457-.9-7.457-.9s-3.54-41.481-4.85-58.211c-.965-12.316-1.787-30.247-1.787-30.247Z" transform="translate(-2049.822 -1244.55)" fill="#e53935"/>
          <path id="Trazado_258697" data-name="Trazado 258697" d="M2134.769,1412.674c-.519,8.856-1.109,18.582-1.616,25.867-3.358-7.922-10.219-38.8-10.219-38.8Z" transform="translate(-2088.551 -1309.044)" fill="#b72d2a"/>
          <path id="Trazado_258698" data-name="Trazado 258698" d="M2184.1,1755.282h18.271c1.309-.888-.353-9.567-.353-9.567s-4.986-1.892-5.848,1.956-6.351,5.067-9.256,5.537A3.127,3.127,0,0,0,2184.1,1755.282Z" transform="translate(-2137.354 -1584.698)" fill="#24406d"/>
          <path id="Trazado_258699" data-name="Trazado 258699" d="M2098.939,1314.641s13.048,32.478,17.218,44.788c2.971,8.769,11.35,39.532,11.35,39.532a8.421,8.421,0,0,0,6.706-1.035s3.117-31.43-3.18-40.292c-3.341-4.7-.83-48.876-14.375-49.254S2098.939,1314.641,2098.939,1314.641Z" transform="translate(-2069.407 -1236.141)" fill="#e53935"/>
          <path id="Trazado_258700" data-name="Trazado 258700" d="M2098.432,1120.738c-.055,4.618-.105,8.009-.093,8.866.037,2.794-1.75,3.425-3.592,3.851,0,0-1.7.366-3.849.731a42.353,42.353,0,0,1-6.429.688,57.994,57.994,0,0,1-16.828-2.77c-1.724,0-2.509-2.666-2.792-6.389-.191-2.52.586-27.648.684-33.922a16.376,16.376,0,0,1,3.228-9.267c6.4-5.656,25.274-4.944,28.671-1.042.841.965,1.085,10.268,1.113,20.459C2098.563,1108.5,2098.5,1115.43,2098.432,1120.738Z" transform="translate(-2042.185 -1052.683)" fill="#c2a6eb"/>
          <path id="Trazado_258701" data-name="Trazado 258701" d="M2134.5,1048.176c-2.41,2.611-10.5,2.225-10.264-.055.033-.281.085-1.95.112-2.208.021-.208.041-.411.057-.6q.082-.843.136-1.488c.108-1.25.143-1.927.143-1.927h.008c.232-.065,5.436-1.542,8.025-2.155a4.169,4.169,0,0,1,1.435-.238C2133.353,1045.316,2135.285,1047.319,2134.5,1048.176Z" transform="translate(-2089.583 -1021.614)" fill="#ffb27d"/>
          <path id="Trazado_258702" data-name="Trazado 258702" d="M2134.212,1042.49s-2.174,2.208-8.45,2.367c.108-1.25.143-1.927.143-1.927h.008c.232-.065,5.437-1.543,8.025-2.155C2134.394,1040.961,2133.789,1042.176,2134.212,1042.49Z" transform="translate(-2090.807 -1022.649)" fill="#ed975d"/>
          <path id="Trazado_258703" data-name="Trazado 258703" d="M2114.37,987.284a19.643,19.643,0,0,0,3.616.843c2.963.4,6.859.164,8.083-3.421,2.061-6.034,4.7-9.652-1.372-12.116-3.248-1.319-5.325-1.389-6.736-.886a4.879,4.879,0,0,0-2.5,2.161C2114.286,975.712,2111.916,986.228,2114.37,987.284Z" transform="translate(-2080.864 -967.313)" fill="#ffb27d"/>
          <path id="Trazado_258704" data-name="Trazado 258704" d="M2121.189,953.007a2.862,2.862,0,0,0,1.094,5.208,21.045,21.045,0,0,1,3.557.653c1.509.67,2.805,1.381,2.449,3.722-.121.8-.509,1.766,1.54,1.284a1,1,0,0,1,.744.044c.85.5-.236,2.948-.564,3.478,0,0-.471,1.751.575,2.6.126.1,2.182,1,7.135-6.579a7.039,7.039,0,0,0,.319-6.451c-1.2-2.581-4.55-5.845-10.86-5.845A12.033,12.033,0,0,0,2121.189,953.007Z" transform="translate(-2086.133 -951.124)" fill="#233862"/>
          <path id="Trazado_258705" data-name="Trazado 258705" d="M2206.783,1203.257c-.922,4.284-.687,4.329-2.1,3.205-5.762-4.58-4.078-6.979-2.8-10.948s-3.214-10.176,0-12.822c3.143-2.587,4.933,1.583,5.011,1.769C2206.913,1191.021,2206.846,1197.949,2206.783,1203.257Z" transform="translate(-2150.535 -1135.202)" fill="#b28beb"/>
          <path id="Trazado_258706" data-name="Trazado 258706" d="M2188.815,1285.014s-2.171,3.551-3.6,3.426-3.345-.656-4.455.4-2.9,3.789-2.4,4.517,2.508.082,3.952-.714,3.717.392,4.928-.512a42.242,42.242,0,0,0,4.113-4.5Z" transform="translate(-2132.709 -1217.51)" fill="#ffb27d"/>
          <path id="Trazado_258707" data-name="Trazado 258707" d="M2210.752,1093.576s18.024,16.96,15.683,28.242c-1.066,5.14-4.375,9.478-13.2,16.5,0,0-4.172-2.884-5.088-5.224,0,0,8.005-11.276,7.7-13.2-.379-2.35-5.844-8.243-7.8-9.159S2206.263,1095.544,2210.752,1093.576Z" transform="translate(-2155.505 -1064.776)" fill="#c2a6eb"/>
          <path id="Trazado_258708" data-name="Trazado 258708" d="M2200.935,1296.83s-1.9-.831-2.51-1.187-.475.22-.289.509a2.107,2.107,0,0,0,1.442,1A2.382,2.382,0,0,0,2200.935,1296.83Z" transform="translate(-2148.424 -1225.9)" fill="#ffb27d"/>
        </g>
      </g>
      <g id="Grupo_171540" data-name="Grupo 171540" transform="translate(256.457 303.219)">
        <path id="Trazado_258709" data-name="Trazado 258709" d="M610.756,966.423c-.652-1.257,14.217-5.783,14.452,6.621,0,0,27.853-.685,14.554-16.209-4.6-5.375-4.13-9.818-3.993-13.955s-2.868-16.16-13.177-14.95a7.678,7.678,0,0,0-6.069.649C608.861,932.555,591.7,971,610.756,966.423Z" transform="translate(-589.321 -927.59)" fill="#163560"/>
        <path id="Trazado_258710" data-name="Trazado 258710" d="M870.234,1163.042s1.813-2.76,3.274-2.814,4.167-.812,3.95-.271-1.894.6-2.056.92,2.49.812,3.247.866,2.544,0,2.49.378-3.219,1.948-5.452,1.732a15.143,15.143,0,0,0-4.993.649Z" transform="translate(-803.263 -1112.824)" fill="#ffb27d"/>
        <path id="Trazado_258711" data-name="Trazado 258711" d="M740.543,1093.424a27.185,27.185,0,0,0,2.773,4.194c2.154,2.7,5.476,5.815,9.647,6.431a10.356,10.356,0,0,0,5.731-.93l.007,0c5.065-2.249,8.874-7.42,8.874-7.42a4.164,4.164,0,0,0-.568-4.087s-10.228,2.3-11.2,1.813-6.963-13.773-8.042-15.987a12.132,12.132,0,0,0-5.932-6.053Z" transform="translate(-699.792 -1042.313)" fill="#c2a6eb"/>
        <path id="Trazado_258712" data-name="Trazado 258712" d="M752.989,1179.749c2.154,2.7,5.476,5.815,9.647,6.431a10.356,10.356,0,0,0,5.731-.93c-.2.026-5.257.651-7.273-2.957-2.057-3.68-4.281-9.525-7.337-7.577C752.439,1175.557,752.5,1177.646,752.989,1179.749Z" transform="translate(-709.465 -1124.444)" fill="#b28beb"/>
        <path id="Trazado_258713" data-name="Trazado 258713" d="M541.572,1721.18s-3.121,2.848-2.512,4.872,3.426,3.373,3.806,5.846,1.9,3.823,3.273,3.823h6.533s1.009-1.741-1.427-2.265-3.355-3.432-3.2-6.13a47.592,47.592,0,0,0-.228-6.3l-5.177-1.2Z" transform="translate(-538.981 -1559.66)" fill="#1d3356"/>
        <path id="Trazado_258714" data-name="Trazado 258714" d="M680.748,1732.485s-1.123,12.066.247,12.741l17.536-.036s0-2.024-2.817-2.473-7.764-2.1-8.6-5.771S680.748,1732.485,680.748,1732.485Z" transform="translate(-651.741 -1569.756)" fill="#1d3356"/>
        <path id="Trazado_258715" data-name="Trazado 258715" d="M615.278,1079.571a69.811,69.811,0,0,0,0,8.1c.174,2.931,3.138,6.856,3.559,7.827,1.055,2.435,2.245,2.831,2.245,2.831l9.207,2.257,3.237.792,10.209-3.049s4.65-12.979,2.783-20.285a56.15,56.15,0,0,0-4.72-12.379s-6.921-2.731-19.177-.692Z" transform="translate(-599.76 -1036.599)" fill="#c2a6eb"/>
        <path id="Trazado_258716" data-name="Trazado 258716" d="M629.066,1174.448a28.657,28.657,0,0,0,.864,6.63c1.055,2.435,2.245,2.831,2.245,2.831l9.207,2.257,4-1.176s-13.349-2.023-11.87-13.508Z" transform="translate(-610.853 -1122.174)" fill="#f2ccaa"/>
        <path id="Trazado_258717" data-name="Trazado 258717" d="M686.438,1242.691s5.056,15.736,5.38,21.094-9.664,76.111-10.066,78.579c-.379,2.327-3.268,3.811-3.268,3.811a4.372,4.372,0,0,1-3.226.248,7.978,7.978,0,0,1-3.464-1.633s-3.935-50.461-1.5-68.486a285.539,285.539,0,0,0,2.464-33.614Z" transform="translate(-643.112 -1178.985)" fill="#233862"/>
        <path id="Trazado_258718" data-name="Trazado 258718" d="M575.317,1240.371s-7.712,10.347-8.431,17.342-1.128,31.564-2.66,38.383-7.159,19.942-7.159,41.21a4.243,4.243,0,0,0,2.391,1.868,19.66,19.66,0,0,0,2.1.581,3.306,3.306,0,0,0,3.7-1.755c3.8-7.661,15.924-32.367,16.545-37.5.44-3.63,4.266-27.65,12.613-41.745,2-3.384-1.23-16.841-1.23-16.841Z" transform="translate(-553.41 -1177.135)" fill="#2b478b"/>
        <path id="Trazado_258719" data-name="Trazado 258719" d="M665.248,1230.676a10.6,10.6,0,0,1-6.062,1.687c-4.816.1-16.749-1.228-16.749-1.228a9.865,9.865,0,0,0-.509,3.046s14.575,3.676,23.019.537A5.336,5.336,0,0,0,665.248,1230.676Z" transform="translate(-621.115 -1169.4)" fill="#233862"/>
        <g id="Grupo_171539" data-name="Grupo 171539" transform="translate(37.03 62.139)">
          <path id="Trazado_258720" data-name="Trazado 258720" d="M722.139,1237.429a2.214,2.214,0,1,1,2.2,2.487A2.359,2.359,0,0,1,722.139,1237.429Zm.729,0a1.493,1.493,0,1,0,1.469-1.759A1.635,1.635,0,0,0,722.867,1237.429Z" transform="translate(-722.139 -1234.942)" fill="#fff"/>
        </g>
        <path id="Trazado_258721" data-name="Trazado 258721" d="M571.717,1168.774l11.835,10.305a2.053,2.053,0,0,0,2.9-.2l15.1-17.343a2.053,2.053,0,0,0-.2-2.9l-11.835-10.306a2.053,2.053,0,0,0-2.9.2l-15.1,17.343A2.053,2.053,0,0,0,571.717,1168.774Z" transform="translate(-564.536 -1103.302)" fill="#f78248"/>
        <path id="Trazado_258722" data-name="Trazado 258722" d="M657.01,1244.992c.168.045,6.287.764,6.288,2.028a3.8,3.8,0,0,1-3.484,3.328c-.685-.037-3.841-2.94-3.841-2.94Z" transform="translate(-632.32 -1180.821)" fill="#ffb27d"/>
        <path id="Trazado_258723" data-name="Trazado 258723" d="M675.924,1035.282a20.356,20.356,0,0,0,1.091-7.443l.462.091,7.772,1.539s-.177,2.446-.182,4.75c0,.019,0,.038,0,.057-.01,2,1.352,4.009-1.858,4.8C682.217,1039.326,674.462,1038.828,675.924,1035.282Z" transform="translate(-648.092 -1007.572)" fill="#ffb27d"/>
        <path id="Trazado_258724" data-name="Trazado 258724" d="M692.1,1029.829s-.177,2.446-.182,4.75c-4.349-.122-6.648-4.09-7.59-6.289Z" transform="translate(-654.943 -1007.931)" fill="#e8945b"/>
        <path id="Trazado_258725" data-name="Trazado 258725" d="M688.864,978.174s-10.29.17-10.3-6.24-1.34-10.7,5.23-11.084,7.849,2.065,8.372,4.2S691.541,977.964,688.864,978.174Z" transform="translate(-650.254 -954.094)" fill="#ffb27d"/>
        <path id="Trazado_258726" data-name="Trazado 258726" d="M675.427,955.087s-2.818,7.52-7.141,8.632-6.2-.047-6.2-.047a12.243,12.243,0,0,0,4-7.234S673.3,951.507,675.427,955.087Z" transform="translate(-637.197 -948.488)" fill="#163560"/>
        <path id="Trazado_258727" data-name="Trazado 258727" d="M724.618,958.409a6.383,6.383,0,0,1,2.949,2.3,10.361,10.361,0,0,1,1.391,5.885s2.123-5.111-.263-8C726.166,955.529,724.618,958.409,724.618,958.409Z" transform="translate(-687.087 -951.199)" fill="#163560"/>
        <path id="Trazado_258728" data-name="Trazado 258728" d="M661.1,1243.576a6.992,6.992,0,0,1,2.446-.334c.98.137,1.705-.02,1.705.255s-1.265.4-1.534.534A13.319,13.319,0,0,1,661.1,1243.576Z" transform="translate(-636.415 -1179.405)" fill="#ffb27d"/>
        <path id="Trazado_258729" data-name="Trazado 258729" d="M580.168,1067.964s-7.3.512-10.1,7.319-8.112,18.235-8.112,20.158,2.968,7.849,18.9,11.257c0,0,1.648-1.734,1.549-3.105,0,0-9.949-8.545-9.922-9.544.051-1.889,1.631-4.383,10.365-13.121C585.223,1078.552,580.168,1067.964,580.168,1067.964Z" transform="translate(-557.307 -1039.584)" fill="#c2a6eb"/>
      </g>
      <g id="Grupo_171543" data-name="Grupo 171543" transform="translate(341.506 273.598)">
        <g id="Grupo_171542" data-name="Grupo 171542">
          <path id="Trazado_258730" data-name="Trazado 258730" d="M1101.6,781.076h-78.936a7.2,7.2,0,0,0-5.09,2.108L961.761,839a7.2,7.2,0,0,0-2.108,5.09v78.936a7.2,7.2,0,0,0,2.108,5.09l55.816,55.816a7.2,7.2,0,0,0,5.09,2.108H1101.6a7.2,7.2,0,0,0,5.089-2.108l55.816-55.816a7.2,7.2,0,0,0,2.108-5.09V844.09a7.2,7.2,0,0,0-2.108-5.09l-55.816-55.816A7.2,7.2,0,0,0,1101.6,781.076Z" transform="translate(-959.653 -781.076)" fill="#e53935"/>
          <g id="Grupo_171541" data-name="Grupo 171541" transform="translate(10.26 10.26)">
            <path id="Trazado_258731" data-name="Trazado 258731" d="M1136.539,1016.268H1068.71a10.279,10.279,0,0,1-7.314-3.029l-47.963-47.963a10.275,10.275,0,0,1-3.03-7.314v-67.83a10.276,10.276,0,0,1,3.03-7.314l47.962-47.962a10.277,10.277,0,0,1,7.314-3.03h67.829a10.275,10.275,0,0,1,7.314,3.03l47.963,47.963a10.276,10.276,0,0,1,3.029,7.314v67.83a10.275,10.275,0,0,1-3.029,7.314l-47.963,47.963A10.276,10.276,0,0,1,1136.539,1016.268ZM1068.71,838.859a3.287,3.287,0,0,0-2.341.97l-47.963,47.963a3.288,3.288,0,0,0-.97,2.341v67.83a3.288,3.288,0,0,0,.97,2.34l47.963,47.963a3.289,3.289,0,0,0,2.341.969h67.829a3.29,3.29,0,0,0,2.341-.969l47.963-47.963a3.29,3.29,0,0,0,.969-2.341v-67.83a3.29,3.29,0,0,0-.969-2.341l-47.963-47.963a3.288,3.288,0,0,0-2.341-.97Z" transform="translate(-1010.403 -831.825)" fill="#ffe5d4"/>
          </g>
          <path id="Trazado_258732" data-name="Trazado 258732" d="M1378.95,1043.788l-1.382-1.2a8.374,8.374,0,0,0-11.777.847l-7.805,9.015a1.84,1.84,0,0,1-3.231-1.2h0a19.907,19.907,0,0,0-.114-2.116V992.38a6.8,6.8,0,0,0-6.777-6.777h-.5a6.8,6.8,0,0,0-6.777,6.777v36.936a1.623,1.623,0,0,1-1.623,1.623h0a1.792,1.792,0,0,1-1.792-1.792V985.224a6.569,6.569,0,0,0-6.55-6.55h-.954a6.569,6.569,0,0,0-6.55,6.55v44.213a1.5,1.5,0,0,1-1.5,1.5h0a1.912,1.912,0,0,1-1.912-1.912V993.781a6.8,6.8,0,0,0-6.777-6.777h-.5a6.8,6.8,0,0,0-6.777,6.777v35.532a1.626,1.626,0,0,1-1.626,1.626h0a1.788,1.788,0,0,1-1.788-1.788v-27.8a6.8,6.8,0,0,0-6.777-6.777h-.5a6.8,6.8,0,0,0-6.777,6.777v48.81c0,.135.005.27.013.4-.008.227-.013.455-.013.684v26.866a19.912,19.912,0,0,0,19.854,19.854H1334.9a19.882,19.882,0,0,0,16.7-9.146,41.971,41.971,0,0,1,3.519-4.751l24.681-28.505A8.374,8.374,0,0,0,1378.95,1043.788Z" transform="translate(-1221.761 -938.725)" fill="#ffe5d4"/>
        </g>
      </g>
    </g>
  </g>
</svg>
