<svg xmlns="http://www.w3.org/2000/svg" width="150" height="150" viewBox="0 0 150 150">
  <g id="Grupo_224040" data-name="Grupo 224040" transform="translate(-379 -11828)">
    <g id="Grupo_223938" data-name="Grupo 223938" transform="translate(0 -326)">
      <g id="Grupo_224035" data-name="Grupo 224035">
        <g id="Grupo_223937" data-name="Grupo 223937" transform="translate(-754 -27)">
          <circle id="Elipse_6362" data-name="Elipse 6362" cx="75" cy="75" r="75" transform="translate(1133 12181)" fill="#e2872c"/>
          <circle id="Elipse_6363" data-name="Elipse 6363" cx="63" cy="63" r="63" transform="translate(1145 12193)" fill="#fff"/>
        </g>
      </g>
    </g>
    <g id="Grupo_149416" data-name="Grupo 149416" transform="translate(132.068 -1150.598)">
      <g id="Grupo_149415" data-name="Grupo 149415" transform="translate(285 13015.667)">
        <path id="Trazado_252896" data-name="Trazado 252896" d="M16,16H47.335V41.563H16Z" transform="translate(-15.175 -15.175)" fill="#dfdddc"/>
        <path id="Trazado_252897" data-name="Trazado 252897" d="M64.652,77.686V63.667L55.581,48H47.335V68.615H16v9.071Z" transform="translate(-15.175 -42.228)" fill="#f2ae40"/>
        <circle id="Elipse_6244" data-name="Elipse 6244" cx="4.948" cy="4.948" r="4.948" transform="translate(62.67 5.772)" fill="#6ebaed"/>
        <path id="Trazado_252898" data-name="Trazado 252898" d="M409.9,112h-4.948A4.947,4.947,0,0,0,400,116.948v4.123h14.843v-4.123A4.947,4.947,0,0,0,409.9,112Z" transform="translate(-339.804 -96.333)" fill="#6ebaed"/>
        <path id="Trazado_252899" data-name="Trazado 252899" d="M261.123,78.4H250.667V69.333h5.211Z" transform="translate(-213.56 -60.262)" fill="#ddd"/>
        <path id="Trazado_252900" data-name="Trazado 252900" d="M74.667,368h9.071v19.79H74.667Z" transform="translate(-64.772 -312.752)" fill="#dfdddc"/>
        <path id="Trazado_252901" data-name="Trazado 252901" d="M133.333,314.667h13.194V342.7H133.333Z" transform="translate(-114.367 -267.665)" fill="#ddd"/>
        <path id="Trazado_252902" data-name="Trazado 252902" d="M247.528,369.756H218.667V352.439l5.772-5.772v5.772l5.772-5.772v5.772l5.772-5.772v5.772l5.772-5.772v5.772l5.772-5.772Z" transform="translate(-186.508 -294.717)" fill="#ef6662"/>
        <path id="Trazado_252903" data-name="Trazado 252903" d="M405.333,405.333h14.018v14.018H405.333Z" transform="translate(-344.313 -344.313)" fill="#dfdddc"/>
        <path id="Trazado_252904" data-name="Trazado 252904" d="M160,464h4.948v4.948H160Z" transform="translate(-136.911 -393.909)" fill="#9c9b9a"/>
        <path id="Trazado_252905" data-name="Trazado 252905" d="M437.333,469.333h4.123v4.123h-4.123Z" transform="translate(-371.365 -398.417)" fill="#9c9b9a"/>
        <path id="Trazado_252906" data-name="Trazado 252906" d="M23.721,406.211a2.488,2.488,0,0,1-2.392-3.171l2.392-8.373,2.392,8.373A2.488,2.488,0,0,1,23.721,406.211Z" transform="translate(-19.598 -335.296)" fill="#f2ae40"/>
        <path id="Trazado_252907" data-name="Trazado 252907" d="M368,280.3V261.333h3.3V277Z" transform="translate(-312.752 -222.577)" fill="#c9c7c6"/>
        <path id="Trazado_252908" data-name="Trazado 252908" d="M16,16H47.335v8.246H16Z" transform="translate(-15.175 -15.175)" fill="#c9c7c6"/>
        <path id="Trazado_252909" data-name="Trazado 252909" d="M90.667,16V30.843L94.79,26.72l4.123,4.123V16Z" transform="translate(-78.298 -15.175)" fill="#f2ae40"/>
        <g id="Grupo_149414" data-name="Grupo 149414" transform="translate(4.123 30.51)">
          <circle id="Elipse_6245" data-name="Elipse 6245" cx="4.948" cy="4.948" r="4.948" fill="#9c9b9a"/>
          <circle id="Elipse_6246" data-name="Elipse 6246" cx="4.948" cy="4.948" r="4.948" transform="translate(9.895)" fill="#9c9b9a"/>
          <circle id="Elipse_6247" data-name="Elipse 6247" cx="4.948" cy="4.948" r="4.948" transform="translate(29.686)" fill="#9c9b9a"/>
        </g>
        <circle id="Elipse_6248" data-name="Elipse 6248" cx="1.649" cy="1.649" r="1.649" transform="translate(17.317 33.809)" fill="#c9c7c6"/>
        <circle id="Elipse_6249" data-name="Elipse 6249" cx="1.649" cy="1.649" r="1.649" transform="translate(37.107 33.809)" fill="#c9c7c6"/>
        <circle id="Elipse_6250" data-name="Elipse 6250" cx="1.649" cy="1.649" r="1.649" transform="translate(7.421 33.809)" fill="#c9c7c6"/>
        <path id="Trazado_252910" data-name="Trazado 252910" d="M11.492,46.949h2.54a5.761,5.761,0,0,0,10.654,2.133,5.761,5.761,0,0,0,10.654-2.133h8.378a5.764,5.764,0,0,0,11.412,0h5.014a.824.824,0,0,0,.825-.825V32.107a.817.817,0,0,0-.111-.413L51.786,16.026a.823.823,0,0,0-.713-.411H43.651V11.492a.824.824,0,0,0-.825-.825H11.492a.824.824,0,0,0-.825.825V46.125A.824.824,0,0,0,11.492,46.949Zm8.246,3.3a4.123,4.123,0,1,1,4.123-4.123A4.128,4.128,0,0,1,19.738,50.248Zm9.9,0a4.123,4.123,0,1,1,4.123-4.123A4.128,4.128,0,0,1,29.633,50.248Zm19.79,0a4.123,4.123,0,1,1,4.123-4.123A4.128,4.128,0,0,1,49.423,50.248Zm3.083-29.686,4.3,7.421H48.6V20.562ZM23.861,12.316h6.6v3.3a.825.825,0,1,0,1.649,0v-3.3H42v5.772H31.282a.824.824,0,0,0-.825.825v5.431l-2.715-2.715a.823.823,0,0,0-1.166,0l-2.715,2.715Zm-11.544,0h9.9v5.772h-9.9Zm0,7.421h9.9v6.6a.824.824,0,0,0,1.408.583l3.54-3.54,3.54,3.54a.825.825,0,0,0,.583.242A.816.816,0,0,0,31.6,27.1a.825.825,0,0,0,.509-.762v-6.6H42V36.23H12.316Zm0,18.141h30.51a.824.824,0,0,0,.825-.825V17.264H50.6l.955,1.649H47.774a.824.824,0,0,0-.825.825v9.071a.824.824,0,0,0,.825.825h9.984l1.56,2.7V45.3H55.129a5.764,5.764,0,0,0-11.412,0H35.339a5.761,5.761,0,0,0-10.654-2.133A5.761,5.761,0,0,0,14.031,45.3H12.316Z" transform="translate(-10.667 -10.667)"/>
        <circle id="Elipse_6251" data-name="Elipse 6251" cx="0.825" cy="0.825" r="0.825" transform="translate(3.298 22.264)"/>
        <circle id="Elipse_6252" data-name="Elipse 6252" cx="0.825" cy="0.825" r="0.825" transform="translate(6.597 22.264)"/>
        <circle id="Elipse_6253" data-name="Elipse 6253" cx="0.825" cy="0.825" r="0.825" transform="translate(9.895 22.264)"/>
        <path id="Trazado_252911" data-name="Trazado 252911" d="M406.756,52.733a5.772,5.772,0,1,0-7.687,0,5.779,5.779,0,0,0-4.4,5.6v4.123a.824.824,0,0,0,.825.825h14.843a.824.824,0,0,0,.825-.825V58.334A5.779,5.779,0,0,0,406.756,52.733Zm-7.967-4.294a4.123,4.123,0,1,1,4.123,4.123A4.128,4.128,0,0,1,398.79,48.439Zm10.72,13.194H396.316v-3.3a4.128,4.128,0,0,1,4.123-4.123h4.948a4.128,4.128,0,0,1,4.123,4.123Z" transform="translate(-335.296 -37.719)"/>
        <path id="Trazado_252912" data-name="Trazado 252912" d="M119.807,224a2.474,2.474,0,1,0,2.474,2.474A2.477,2.477,0,0,0,119.807,224Zm0,3.3a.825.825,0,1,1,.825-.825A.825.825,0,0,1,119.807,227.3Z" transform="translate(-100.841 -191.016)"/>
        <path id="Trazado_252913" data-name="Trazado 252913" d="M247.807,224a2.474,2.474,0,1,0,2.474,2.474A2.477,2.477,0,0,0,247.807,224Zm0,3.3a.825.825,0,1,1,.825-.825A.825.825,0,0,1,247.807,227.3Z" transform="translate(-209.051 -191.016)"/>
        <path id="Trazado_252914" data-name="Trazado 252914" d="M55.807,224a2.474,2.474,0,1,0,2.474,2.474A2.477,2.477,0,0,0,55.807,224Zm0,3.3a.825.825,0,1,1,.825-.825A.825.825,0,0,1,55.807,227.3Z" transform="translate(-46.736 -191.016)"/>
        <path id="Trazado_252915" data-name="Trazado 252915" d="M235.492,150.982h3.3a.825.825,0,1,0,0-1.649h-3.3a.825.825,0,0,0,0,1.649Z" transform="translate(-200.034 -127.893)"/>
        <path id="Trazado_252916" data-name="Trazado 252916" d="M85.706,278.264H71.687a.824.824,0,0,0-.825.825v13.194H43.651V276.132l4.123-4.123v3.782a.824.824,0,0,0,1.408.583l4.365-4.365v3.782a.824.824,0,0,0,1.408.583l4.365-4.365v3.782a.824.824,0,0,0,1.408.583l4.365-4.365v3.782a.824.824,0,0,0,1.408.583l3.3-3.3,0,0,1.065-1.065v3.782a.825.825,0,0,0,1.649,0v-5.772a.824.824,0,0,0-1.408-.583L70.038,270.5V256.825a.824.824,0,0,0-.825-.825h-3.3a.824.824,0,0,0-.825.825v12.852L60.968,273.8v-3.781a.824.824,0,0,0-1.408-.583L55.2,273.8v-3.781a.824.824,0,0,0-1.408-.583L49.423,273.8v-3.781a.824.824,0,0,0-1.408-.583l-5.772,5.772a.825.825,0,0,0-.242.583v16.492H39.528v-4.123a.824.824,0,0,0-.825-.825H33.756a.824.824,0,0,0-.825.825v4.123H30.457V265.9H42v5.772a.825.825,0,1,0,1.649,0v-6.6a.824.824,0,0,0-.825-.825H29.633a.824.824,0,0,0-.825.825v7.421H20.562a.824.824,0,0,0-.825.825v18.966H15.615V289.7a3.3,3.3,0,0,0,2.36-4.112l-2.392-8.374a.824.824,0,0,0-1.585,0l-2.392,8.373a3.3,3.3,0,0,0,2.36,4.113v2.583H11.492a.825.825,0,0,0,0,1.649H85.706a.824.824,0,0,0,.825-.825V279.089A.824.824,0,0,0,85.706,278.264ZM66.74,257.649h1.649v14.5L66.74,273.8ZM13.462,287.5a1.65,1.65,0,0,1-.271-1.459l1.6-5.6,1.6,5.6a1.651,1.651,0,0,1-.271,1.459A1.713,1.713,0,0,1,13.462,287.5Zm15.346,4.785H21.387V274.141h7.421Zm9.071,0h-3.3v-3.3h3.3Zm42.055,0H77.46v-2.474h2.474Zm4.948,0h-3.3v-2.474h.825a.825.825,0,0,0,0-1.649H74.986a.825.825,0,1,0,0,1.649h.825v2.474h-3.3V279.914H84.881Z" transform="translate(-10.667 -218.068)"/>
        <path id="Trazado_252917" data-name="Trazado 252917" d="M236.316,410.667h-.825a.825.825,0,1,0,0,1.649h.825a.825.825,0,1,0,0-1.649Z" transform="translate(-200.034 -348.822)"/>
        <path id="Trazado_252918" data-name="Trazado 252918" d="M262.982,410.667h-.825a.825.825,0,1,0,0,1.649h.825a.825.825,0,1,0,0-1.649Z" transform="translate(-222.577 -348.822)"/>
        <path id="Trazado_252919" data-name="Trazado 252919" d="M289.649,410.667h-.825a.825.825,0,1,0,0,1.649h.825a.825.825,0,1,0,0-1.649Z" transform="translate(-245.121 -348.822)"/>
        <path id="Trazado_252920" data-name="Trazado 252920" d="M316.316,410.667h-.825a.825.825,0,1,0,0,1.649h.825a.825.825,0,1,0,0-1.649Z" transform="translate(-267.665 -348.822)"/>
        <path id="Trazado_252921" data-name="Trazado 252921" d="M342.982,410.667h-.824a.825.825,0,1,0,0,1.649h.824a.825.825,0,1,0,0-1.649Z" transform="translate(-290.208 -348.822)"/>
        <path id="Trazado_252922" data-name="Trazado 252922" d="M369.649,410.667h-.825a.825.825,0,1,0,0,1.649h.825a.825.825,0,1,0,0-1.649Z" transform="translate(-312.752 -348.822)"/>
        <path id="Trazado_252923" data-name="Trazado 252923" d="M236.316,432h-.825a.825.825,0,0,0,0,1.649h.825a.825.825,0,1,0,0-1.649Z" transform="translate(-200.034 -366.857)"/>
        <path id="Trazado_252924" data-name="Trazado 252924" d="M262.982,432h-.825a.825.825,0,1,0,0,1.649h.825a.825.825,0,0,0,0-1.649Z" transform="translate(-222.577 -366.857)"/>
        <path id="Trazado_252925" data-name="Trazado 252925" d="M289.649,432h-.825a.825.825,0,0,0,0,1.649h.825a.825.825,0,0,0,0-1.649Z" transform="translate(-245.121 -366.857)"/>
        <path id="Trazado_252926" data-name="Trazado 252926" d="M316.316,432h-.825a.825.825,0,0,0,0,1.649h.825a.825.825,0,1,0,0-1.649Z" transform="translate(-267.665 -366.857)"/>
        <path id="Trazado_252927" data-name="Trazado 252927" d="M342.982,432h-.824a.825.825,0,1,0,0,1.649h.824a.825.825,0,0,0,0-1.649Z" transform="translate(-290.208 -366.857)"/>
        <path id="Trazado_252928" data-name="Trazado 252928" d="M369.649,432h-.825a.825.825,0,0,0,0,1.649h.825a.825.825,0,0,0,0-1.649Z" transform="translate(-312.752 -366.857)"/>
        <path id="Trazado_252929" data-name="Trazado 252929" d="M236.316,453.333h-.825a.825.825,0,0,0,0,1.649h.825a.825.825,0,1,0,0-1.649Z" transform="translate(-200.034 -384.891)"/>
        <path id="Trazado_252930" data-name="Trazado 252930" d="M262.982,453.333h-.825a.825.825,0,1,0,0,1.649h.825a.825.825,0,0,0,0-1.649Z" transform="translate(-222.577 -384.891)"/>
        <path id="Trazado_252931" data-name="Trazado 252931" d="M289.649,453.333h-.825a.825.825,0,1,0,0,1.649h.825a.825.825,0,0,0,0-1.649Z" transform="translate(-245.121 -384.891)"/>
        <path id="Trazado_252932" data-name="Trazado 252932" d="M156.316,336h-.825a.825.825,0,0,0,0,1.649h.825a.825.825,0,1,0,0-1.649Z" transform="translate(-132.403 -285.699)"/>
        <path id="Trazado_252933" data-name="Trazado 252933" d="M182.982,336h-.825a.825.825,0,1,0,0,1.649h.825a.825.825,0,0,0,0-1.649Z" transform="translate(-154.946 -285.699)"/>
        <path id="Trazado_252934" data-name="Trazado 252934" d="M156.316,357.333h-.825a.825.825,0,0,0,0,1.649h.825a.825.825,0,1,0,0-1.649Z" transform="translate(-132.403 -303.734)"/>
        <path id="Trazado_252935" data-name="Trazado 252935" d="M182.982,357.333h-.825a.825.825,0,1,0,0,1.649h.825a.825.825,0,0,0,0-1.649Z" transform="translate(-154.946 -303.734)"/>
        <path id="Trazado_252936" data-name="Trazado 252936" d="M156.316,378.667h-.825a.825.825,0,1,0,0,1.649h.825a.825.825,0,1,0,0-1.649Z" transform="translate(-132.403 -321.769)"/>
        <path id="Trazado_252937" data-name="Trazado 252937" d="M91.492,385.649h2.474a.825.825,0,0,0,0-1.649H91.492a.825.825,0,0,0,0,1.649Z" transform="translate(-78.298 -326.278)"/>
        <path id="Trazado_252938" data-name="Trazado 252938" d="M91.492,406.982h2.474a.825.825,0,0,0,0-1.649H91.492a.825.825,0,0,0,0,1.649Z" transform="translate(-78.298 -344.313)"/>
        <path id="Trazado_252939" data-name="Trazado 252939" d="M91.492,428.316h2.474a.825.825,0,0,0,0-1.649H91.492a.825.825,0,1,0,0,1.649Z" transform="translate(-78.298 -362.348)"/>
        <path id="Trazado_252940" data-name="Trazado 252940" d="M91.492,449.649h2.474a.825.825,0,0,0,0-1.649H91.492a.825.825,0,0,0,0,1.649Z" transform="translate(-78.298 -380.383)"/>
        <path id="Trazado_252941" data-name="Trazado 252941" d="M91.492,470.982h2.474a.825.825,0,0,0,0-1.649H91.492a.825.825,0,0,0,0,1.649Z" transform="translate(-78.298 -398.417)"/>
        <path id="Trazado_252942" data-name="Trazado 252942" d="M182.982,378.667h-.825a.825.825,0,1,0,0,1.649h.825a.825.825,0,0,0,0-1.649Z" transform="translate(-154.946 -321.769)"/>
        <path id="Trazado_252943" data-name="Trazado 252943" d="M156.316,400h-.825a.825.825,0,0,0,0,1.649h.825a.825.825,0,1,0,0-1.649Z" transform="translate(-132.403 -339.804)"/>
        <path id="Trazado_252944" data-name="Trazado 252944" d="M182.982,400h-.825a.825.825,0,1,0,0,1.649h.825a.825.825,0,0,0,0-1.649Z" transform="translate(-154.946 -339.804)"/>
        <path id="Trazado_252945" data-name="Trazado 252945" d="M156.316,421.333h-.825a.825.825,0,0,0,0,1.649h.825a.825.825,0,1,0,0-1.649Z" transform="translate(-132.403 -357.839)"/>
        <path id="Trazado_252946" data-name="Trazado 252946" d="M182.982,421.333h-.825a.825.825,0,1,0,0,1.649h.825a.825.825,0,0,0,0-1.649Z" transform="translate(-154.946 -357.839)"/>
        <path id="Trazado_252947" data-name="Trazado 252947" d="M316.316,453.333h-.825a.825.825,0,0,0,0,1.649h.825a.825.825,0,1,0,0-1.649Z" transform="translate(-267.665 -384.891)"/>
        <path id="Trazado_252948" data-name="Trazado 252948" d="M342.982,453.333h-.824a.825.825,0,1,0,0,1.649h.824a.825.825,0,1,0,0-1.649Z" transform="translate(-290.208 -384.891)"/>
        <path id="Trazado_252949" data-name="Trazado 252949" d="M369.649,453.333h-.825a.825.825,0,0,0,0,1.649h.825a.825.825,0,0,0,0-1.649Z" transform="translate(-312.752 -384.891)"/>
        <path id="Trazado_252950" data-name="Trazado 252950" d="M422.158,422.982h7.421a.825.825,0,0,0,0-1.649h-7.421a.825.825,0,1,0,0,1.649Z" transform="translate(-357.839 -357.839)"/>
        <path id="Trazado_252951" data-name="Trazado 252951" d="M422.158,444.316h7.421a.825.825,0,1,0,0-1.649h-7.421a.825.825,0,1,0,0,1.649Z" transform="translate(-357.839 -375.874)"/>
        <path id="Trazado_252952" data-name="Trazado 252952" d="M86.158,336a.824.824,0,0,0-.825.824v.825a.825.825,0,0,0,1.649,0v-.825A.824.824,0,0,0,86.158,336Z" transform="translate(-73.789 -285.699)"/>
        <path id="Trazado_252953" data-name="Trazado 252953" d="M86.982,310.158a.825.825,0,1,0-1.649,0v.825a.825.825,0,0,0,1.649,0Z" transform="translate(-73.789 -263.155)"/>
        <path id="Trazado_252954" data-name="Trazado 252954" d="M86.982,283.492a.825.825,0,0,0-1.649,0v.825a.825.825,0,1,0,1.649,0Z" transform="translate(-73.789 -240.612)"/>
        <path id="Trazado_252955" data-name="Trazado 252955" d="M385.649,65.649a.825.825,0,0,0,0-1.649h-.825a.825.825,0,0,0,0,1.649Z" transform="translate(-326.278 -55.754)"/>
        <path id="Trazado_252956" data-name="Trazado 252956" d="M358.982,65.649a.825.825,0,0,0,0-1.649h-.825a.825.825,0,1,0,0,1.649Z" transform="translate(-303.734 -55.754)"/>
        <path id="Trazado_252957" data-name="Trazado 252957" d="M332.316,65.649a.825.825,0,1,0,0-1.649h-.825a.825.825,0,0,0,0,1.649Z" transform="translate(-281.191 -55.754)"/>
        <path id="Trazado_252958" data-name="Trazado 252958" d="M305.649,65.649a.825.825,0,0,0,0-1.649h-.825a.825.825,0,0,0,0,1.649Z" transform="translate(-258.647 -55.754)"/>
        <path id="Trazado_252959" data-name="Trazado 252959" d="M448,374.982a.825.825,0,0,0,1.649,0v-.825a.825.825,0,1,0-1.649,0Z" transform="translate(-380.383 -317.26)"/>
        <path id="Trazado_252960" data-name="Trazado 252960" d="M448,348.316a.825.825,0,1,0,1.649,0v-.825a.825.825,0,0,0-1.649,0Z" transform="translate(-380.383 -294.717)"/>
        <path id="Trazado_252961" data-name="Trazado 252961" d="M448,321.649a.825.825,0,0,0,1.649,0v-.825a.825.825,0,0,0-1.649,0Z" transform="translate(-380.383 -272.173)"/>
        <path id="Trazado_252962" data-name="Trazado 252962" d="M448,294.982a.825.825,0,0,0,1.649,0v-.825a.825.825,0,1,0-1.649,0Z" transform="translate(-380.383 -249.629)"/>
        <path id="Trazado_252963" data-name="Trazado 252963" d="M448,268.316a.825.825,0,1,0,1.649,0v-.825a.825.825,0,0,0-1.649,0Z" transform="translate(-380.383 -227.086)"/>
        <path id="Trazado_252964" data-name="Trazado 252964" d="M448,241.649a.825.825,0,0,0,1.649,0v-.825a.825.825,0,0,0-1.649,0Z" transform="translate(-380.383 -204.542)"/>
        <path id="Trazado_252965" data-name="Trazado 252965" d="M448,214.982a.825.825,0,0,0,1.649,0v-.825a.825.825,0,1,0-1.649,0Z" transform="translate(-380.383 -181.998)"/>
        <path id="Trazado_252966" data-name="Trazado 252966" d="M448.825,189.141a.825.825,0,0,0,.825-.825v-.825a.825.825,0,0,0-1.649,0v.825A.824.824,0,0,0,448.825,189.141Z" transform="translate(-380.383 -159.455)"/>
      </g>
    </g>
  </g>
</svg>
