<svg xmlns="http://www.w3.org/2000/svg" width="157" height="157" viewBox="0 0 157 157">
  <g id="Grupo_174000" data-name="Grupo 174000" transform="translate(-1069 -12151)">
    <circle id="Elipse_4732" data-name="Elipse 4732" cx="78.5" cy="78.5" r="78.5" transform="translate(1069 12151)" fill="#fff"/>
    <g id="Grupo_149413" data-name="Grupo 149413" transform="translate(547 -530)">
      <g id="Grupo_149412" data-name="Grupo 149412" transform="translate(558 12715)">
        <path id="Trazado_252868" data-name="Trazado 252868" d="M336.759,300.28,318.736,297.1a1.121,1.121,0,0,1-.768-1.677,12.548,12.548,0,0,0,1.57-4.229l2.55-14.463a12.545,12.545,0,0,0-.029-4.51,1.121,1.121,0,0,1,1.3-1.313l18.022,3.178a1.121,1.121,0,0,1,.769,1.677,12.532,12.532,0,0,0-1.57,4.228l-2.55,14.463a12.539,12.539,0,0,0,.029,4.51A1.121,1.121,0,0,1,336.759,300.28Z" transform="translate(-264.406 -223.275)" fill="#b4de87"/>
        <path id="Trazado_252869" data-name="Trazado 252869" d="M328.117,271.75l-4.763-.84a1.121,1.121,0,0,0-1.3,1.313,12.545,12.545,0,0,1,.029,4.51l-2.55,14.463a12.548,12.548,0,0,1-1.57,4.229,1.121,1.121,0,0,0,.768,1.677l14.712,2.594A61.2,61.2,0,0,1,328.117,271.75Z" transform="translate(-264.406 -223.275)" fill="#92d18a"/>
        <path id="Trazado_252870" data-name="Trazado 252870" d="M363.03,151.276,345.008,148.1a1.121,1.121,0,0,1-.769-1.677,12.535,12.535,0,0,0,1.57-4.228l2.55-14.463a12.5,12.5,0,0,0-.029-4.511,1.122,1.122,0,0,1,1.3-1.313l18.022,3.178a1.121,1.121,0,0,1,.769,1.677,12.534,12.534,0,0,0-1.57,4.229l-2.55,14.463a12.514,12.514,0,0,0,.029,4.511A1.121,1.121,0,0,1,363.03,151.276Z" transform="translate(-286.059 -100.463)" fill="#8ec15d"/>
        <path id="Trazado_252871" data-name="Trazado 252871" d="M354.554,122.776l-4.927-.869a1.121,1.121,0,0,0-1.3,1.313,12.537,12.537,0,0,1,.029,4.511l-2.55,14.463a12.531,12.531,0,0,1-1.57,4.229,1.121,1.121,0,0,0,.769,1.677l9.37,1.652C352.2,143.684,353.141,130.283,354.554,122.776Z" transform="translate(-286.059 -100.463)" fill="#57b33b"/>
        <path id="Trazado_252872" data-name="Trazado 252872" d="M390.6,35.814a12.51,12.51,0,0,1-.029-4.511l.974-5.527-17.194-10.6-2.269,12.871a12.528,12.528,0,0,1-1.57,4.228,1.121,1.121,0,0,0,.769,1.677l18.023,3.178A1.12,1.12,0,0,0,390.6,35.814Z" transform="translate(-307.715 -12.505)" fill="#b4de87"/>
        <path id="Trazado_252873" data-name="Trazado 252873" d="M379.406,18.289l-5.053-3.117-2.269,12.871a12.537,12.537,0,0,1-1.57,4.229,1.121,1.121,0,0,0,.769,1.676l7.7,1.358C376.669,30.2,378.038,23.39,379.406,18.289Z" transform="translate(-307.715 -12.505)" fill="#92d18a"/>
        <path id="Trazado_252874" data-name="Trazado 252874" d="M276.59,340.063l-18.022,3.178a1.121,1.121,0,0,1-1.3-1.313,12.546,12.546,0,0,0,.029-4.511l-2.55-14.463a12.533,12.533,0,0,0-1.57-4.229,1.121,1.121,0,0,1,.769-1.677l18.022-3.178a1.121,1.121,0,0,1,1.3,1.313,12.539,12.539,0,0,0-.029,4.51l2.55,14.463a12.536,12.536,0,0,0,1.57,4.228A1.121,1.121,0,0,1,276.59,340.063Z" transform="translate(-211.007 -258.685)" fill="#8ec15d"/>
        <path id="Trazado_252875" data-name="Trazado 252875" d="M260.343,325.617l-6.4,1.127a1.121,1.121,0,0,0-.769,1.677,12.535,12.535,0,0,1,1.57,4.229l2.55,14.463a12.542,12.542,0,0,1-.029,4.51,1.121,1.121,0,0,0,1.3,1.313l10.462-1.844C262.982,346.307,260.669,333.894,260.343,325.617Z" transform="translate(-211.006 -268.38)" fill="#57b33b"/>
        <path id="Trazado_252876" data-name="Trazado 252876" d="M250.317,191.062l-18.022,3.178a1.121,1.121,0,0,1-1.3-1.312,12.524,12.524,0,0,0,.029-4.51l-2.55-14.463a12.532,12.532,0,0,0-1.57-4.228,1.121,1.121,0,0,1,.769-1.677L245.7,164.87a1.12,1.12,0,0,1,1.3,1.312,12.543,12.543,0,0,0-.029,4.51l2.551,14.463a12.515,12.515,0,0,0,1.57,4.229A1.121,1.121,0,0,1,250.317,191.062Z" transform="translate(-189.352 -135.875)" fill="#b4de87"/>
        <path id="Trazado_252877" data-name="Trazado 252877" d="M234.071,176.617l-6.4,1.127a1.121,1.121,0,0,0-.769,1.677,12.532,12.532,0,0,1,1.57,4.228l2.55,14.463a12.524,12.524,0,0,1-.029,4.511,1.121,1.121,0,0,0,1.3,1.312l10.461-1.844C236.71,197.307,234.4,184.894,234.071,176.617Z" transform="translate(-189.352 -145.571)" fill="#92d18a"/>
        <path id="Trazado_252878" data-name="Trazado 252878" d="M240.573,76.762A12.519,12.519,0,0,1,239,72.533l-2.212-12.545L219.6,70.592l.917,5.2a12.544,12.544,0,0,1-.029,4.511,1.121,1.121,0,0,0,1.3,1.313L239.8,78.439A1.121,1.121,0,0,0,240.573,76.762Z" transform="translate(-183.458 -49.443)" fill="#8ec15d"/>
        <path id="Trazado_252879" data-name="Trazado 252879" d="M219.6,103.552l.917,5.2a12.544,12.544,0,0,1-.029,4.511,1.121,1.121,0,0,0,1.3,1.313l10.461-1.845c-3.3-2.614-5.489-7.5-6.849-12.754Z" transform="translate(-183.458 -82.403)" fill="#57b33b"/>
        <path id="Trazado_252880" data-name="Trazado 252880" d="M50.5,266.723a8.34,8.34,0,0,0-6.537,3.161l-5.7,7.2A113.117,113.117,0,0,0,24.27,299.822L21.7,305.365a2.222,2.222,0,0,0,2.016,3.154H77.282a2.222,2.222,0,0,0,2.017-3.154l-2.565-5.543a113.124,113.124,0,0,0-13.992-22.738l-5.7-7.2A8.341,8.341,0,0,0,50.5,266.723Z" transform="translate(-20.179 -219.838)" fill="#f8eed1"/>
        <path id="Trazado_252881" data-name="Trazado 252881" d="M46.068,273.984a8.338,8.338,0,0,0-2.1,1.885l-5.7,7.2A113.111,113.111,0,0,0,24.27,305.806L21.7,311.35a2.222,2.222,0,0,0,2.016,3.154H66.055C43.015,306.325,40.659,284.353,46.068,273.984Z" transform="translate(-20.179 -225.823)" fill="#edd8a4"/>
        <path id="Trazado_252882" data-name="Trazado 252882" d="M410.153,19.446c-.391,2.219-4.557,1.642-9.3-1.285s-8.28-7.1-7.889-9.318,4.557-1.642,9.3,1.285S410.543,17.228,410.153,19.446Z" transform="translate(-326.321 -6.175)" fill="#f8eed1"/>
        <path id="Trazado_252883" data-name="Trazado 252883" d="M219.459,64.265c.392,2.219,4.557,1.642,9.3-1.286s8.28-7.1,7.889-9.318-4.557-1.642-9.3,1.286S219.068,62.047,219.459,64.265Z" transform="translate(-183.319 -43.116)" fill="#f8eed1"/>
        <path id="Trazado_252884" data-name="Trazado 252884" d="M78.822,465.682a1.268,1.268,0,1,1-1.268-1.268A1.268,1.268,0,0,1,78.822,465.682Z" transform="translate(-65.337 -382.779)" fill="#f8eed1"/>
        <path id="Trazado_252885" data-name="Trazado 252885" d="M106,398.764a1.268,1.268,0,1,1-1.268-1.268A1.268,1.268,0,0,1,106,398.764Z" transform="translate(-87.739 -327.624)" fill="#f8eed1"/>
        <path id="Trazado_252886" data-name="Trazado 252886" d="M136.349,443.131a1.268,1.268,0,1,1-1.268-1.268A1.268,1.268,0,0,1,136.349,443.131Z" transform="translate(-112.752 -364.192)" fill="#f8eed1"/>
        <g id="Grupo_149411" data-name="Grupo 149411" transform="translate(27.786 2.667)">
          <path id="Trazado_252887" data-name="Trazado 252887" d="M246.009,450.342a1.268,1.268,0,1,1-1.268-1.268A1.268,1.268,0,0,1,246.009,450.342Z" transform="translate(-230.922 -372.803)" fill="#edd8a4"/>
          <path id="Trazado_252888" data-name="Trazado 252888" d="M174.607,318.108a1.268,1.268,0,1,1-1.268-1.268A1.268,1.268,0,0,1,174.607,318.108Z" transform="translate(-172.071 -263.813)" fill="#edd8a4"/>
          <path id="Trazado_252889" data-name="Trazado 252889" d="M211.716,361.871a1.268,1.268,0,1,1-1.268-1.269A1.268,1.268,0,0,1,211.716,361.871Z" transform="translate(-202.657 -299.882)" fill="#edd8a4"/>
          <path id="Trazado_252890" data-name="Trazado 252890" d="M273.414,67.588c-.2-.352-.86-.354-1.466,0s-.933.919-.73,1.272.86.354,1.467,0S273.617,67.94,273.414,67.588Z" transform="translate(-253.74 -58.155)" fill="#edd8a4"/>
          <path id="Trazado_252891" data-name="Trazado 252891" d="M238.287,103.609c-.2-.352-.86-.354-1.467,0s-.934.92-.73,1.272.86.354,1.466,0S238.491,103.961,238.287,103.609Z" transform="translate(-224.788 -87.845)" fill="#edd8a4"/>
          <path id="Trazado_252892" data-name="Trazado 252892" d="M413.827,15.437c-.2.352.124.921.731,1.272s1.263.349,1.467,0-.123-.922-.73-1.272S414.031,15.084,413.827,15.437Z" transform="translate(-371.281 -15.171)" fill="#edd8a4"/>
          <path id="Trazado_252893" data-name="Trazado 252893" d="M467.991,60.72c-.2.352.124.921.73,1.272s1.263.349,1.467,0-.124-.922-.73-1.272S468.194,60.368,467.991,60.72Z" transform="translate(-415.925 -52.495)" fill="#edd8a4"/>
          <path id="Trazado_252894" data-name="Trazado 252894" d="M431.186,46.778c-.2.352.124.922.73,1.272s1.263.348,1.467,0-.124-.922-.73-1.272S431.389,46.426,431.186,46.778Z" transform="translate(-385.589 -41.004)" fill="#edd8a4"/>
        </g>
        <path id="Trazado_252895" data-name="Trazado 252895" d="M96.821,8.026a26.533,26.533,0,0,0-6.186-5.2C86.63.36,83.023-.569,80.986.345A2.763,2.763,0,0,0,79.374,2.3c-.013.047-.025.094-.034.143L77.071,15.31a11.185,11.185,0,0,1-1.4,3.783,2.441,2.441,0,0,0-.231,1.975A2.437,2.437,0,0,0,74.976,23,11.172,11.172,0,0,1,75,27.038l-1.711,9.7-.379-2.151a11.171,11.171,0,0,1,.026-4.037,2.438,2.438,0,0,0-.459-1.934,2.438,2.438,0,0,0-.231-1.974,11.184,11.184,0,0,1-1.4-3.784L68.633,10.317a1.422,1.422,0,0,0-.034-.144,2.761,2.761,0,0,0-1.612-1.949c-2.037-.914-5.644.015-9.65,2.486a26.514,26.514,0,0,0-6.185,5.2c-1.237,1.461-2.64,3.6-2.309,5.474l.917,5.2a11.168,11.168,0,0,1-.025,4.036,2.441,2.441,0,0,0,.458,1.934,2.438,2.438,0,0,0,.232,1.974,11.174,11.174,0,0,1,1.4,3.784l2.458,13.939-2.392-3.02a9.657,9.657,0,0,0-15.14,0l-5.7,7.2a114.584,114.584,0,0,0-14.155,23L14.33,84.973A3.54,3.54,0,0,0,17.542,90h2.289a1.318,1.318,0,1,0,0-2.637H17.542a.9.9,0,0,1-.819-1.282l2.565-5.544A111.944,111.944,0,0,1,33.117,58.064l5.7-7.2a7.021,7.021,0,0,1,11.007,0l5.7,7.2c.272.344.541.691.809,1.038l.01.013a111.9,111.9,0,0,1,13.01,21.423l1.282,2.77,0,.009,1.279,2.764a.9.9,0,0,1-.82,1.282H25.866a1.318,1.318,0,1,0,0,2.637H71.1a3.54,3.54,0,0,0,3.213-5.026l-.567-1.227,6.064-1.069a2.439,2.439,0,0,0,1.673-3.649,11.177,11.177,0,0,1-.819-1.688l5.458.963a2.44,2.44,0,0,0,2.82-2.856,11.184,11.184,0,0,1-.026-4.036L91.47,56.948a11.16,11.16,0,0,1,1.4-3.784,2.441,2.441,0,0,0,.231-1.974,2.439,2.439,0,0,0,.458-1.934,11.168,11.168,0,0,1-.025-4.036l1.16-6.581a1.318,1.318,0,0,0-2.6-.458l-1.161,6.581a13.809,13.809,0,0,0-.018,4.7l-15.881-2.8L74.554,43.9a13.75,13.75,0,0,0,.494-1.941L77.6,27.5a13.792,13.792,0,0,0,.017-4.7l17.467,3.08A13.794,13.794,0,0,0,93.491,30.3l-.306,1.737a1.318,1.318,0,1,0,2.6.458l.306-1.737a11.156,11.156,0,0,1,1.4-3.784A2.438,2.438,0,0,0,97.723,25a2.442,2.442,0,0,0,.458-1.934,11.168,11.168,0,0,1-.025-4.036L99.13,13.5h0C99.461,11.621,98.057,9.487,96.821,8.026ZM51.567,21.066c-.112-.049-.116-.073-.128-.145-.225-1.278,2.5-5.017,7.282-7.967,3.794-2.34,6.421-2.669,7.186-2.325.112.05.116.074.128.145h0c.225,1.278-2.5,5.018-7.283,7.967C54.959,21.082,52.332,21.41,51.567,21.066Zm.788,5.056L51.947,23.8c.122.007.244.012.371.012,2.059,0,4.828-.985,7.819-2.83a26.529,26.529,0,0,0,6.186-5.2c.161-.192.327-.395.49-.607l1.435,8.136a13.8,13.8,0,0,0,1.592,4.428L52.374,30.826A13.792,13.792,0,0,0,52.356,26.122ZM57.6,56.427l-.461-.582a13.816,13.816,0,0,0-.161-3.532L54.424,37.85a13.787,13.787,0,0,0-1.592-4.427L70.3,30.343a13.793,13.793,0,0,0,.018,4.7l2.55,14.463a13.79,13.79,0,0,0,1.592,4.427l-16.53,2.915C57.817,56.711,57.707,56.569,57.6,56.427Zm32.868-4.365a13.809,13.809,0,0,0-1.592,4.427l-2.55,14.464a13.805,13.805,0,0,0-.018,4.7l-6.348-1.12L77.531,60.782a11.184,11.184,0,0,1,.025-4.036,2.437,2.437,0,0,0-.458-1.934,2.44,2.44,0,0,0-.231-1.975,11.17,11.17,0,0,1-1.329-3.406ZM74.916,56.535a13.775,13.775,0,0,0,.019,4.7L77.485,75.7a13.785,13.785,0,0,0,1.592,4.428L72.6,81.271l-.851-1.842A114.646,114.646,0,0,0,59.732,59.212ZM95.559,18.569a13.806,13.806,0,0,0-.019,4.7L78.075,20.194a13.8,13.8,0,0,0,1.592-4.428L81.16,7.3c.163.212.328.415.49.607a26.518,26.518,0,0,0,6.186,5.2c2.992,1.845,5.761,2.83,7.82,2.83.127,0,.25,0,.371-.012Zm.974-5.527v0c-.012.069-.019.093-.128.142-.765.343-3.392.016-7.186-2.325C84.436,7.914,81.712,4.174,81.937,2.9c.012-.071.017-.095.128-.145a1.842,1.842,0,0,1,.727-.115c1.2,0,3.466.594,6.459,2.44C94.033,8.024,96.758,11.764,96.534,13.042Z" transform="translate(-14.001 0)"/>
      </g>
    </g>
  </g>
</svg>
