<svg xmlns="http://www.w3.org/2000/svg" width="347" height="456.19" viewBox="0 0 347 456.19">
  <g id="Grupo_173993" data-name="Grupo 173993" transform="translate(-322 -3487)">
    <g id="Grupo_173909" data-name="Grupo 173909" transform="translate(14.999 -526.999)">
      <g id="Rectángulo_36808" data-name="Rectángulo 36808" transform="translate(424.533 4061.759)" fill="#fff" stroke="#e53935" stroke-width="1">
        <rect width="111.935" height="26.118" rx="13.059" stroke="none"/>
        <rect x="0.5" y="0.5" width="110.935" height="25.118" rx="12.559" fill="none"/>
      </g>
      <g id="Rectángulo_44466" data-name="Rectángulo 44466" transform="translate(424.533 4109.518)" fill="#fff" stroke="#e53935" stroke-width="1">
        <rect width="111.935" height="26.118" rx="13.059" stroke="none"/>
        <rect x="0.5" y="0.5" width="110.935" height="25.118" rx="12.559" fill="none"/>
      </g>
      <g id="Rectángulo_44467" data-name="Rectángulo 44467" transform="translate(424.533 4157.277)" fill="#fff" stroke="#e53935" stroke-width="1">
        <rect width="111.935" height="26.118" rx="13.059" stroke="none"/>
        <rect x="0.5" y="0.5" width="110.935" height="25.118" rx="12.559" fill="none"/>
      </g>
      <g id="Rectángulo_44471" data-name="Rectángulo 44471" transform="translate(424.533 4300.793)" fill="#fff" stroke="#e53935" stroke-width="1">
        <rect width="111.935" height="26.118" rx="13.059" stroke="none"/>
        <rect x="0.5" y="0.5" width="110.935" height="25.118" rx="12.559" fill="none"/>
      </g>
      <g id="Rectángulo_44472" data-name="Rectángulo 44472" transform="translate(424.533 4348.553)" fill="#fff" stroke="#e53935" stroke-width="1">
        <rect width="111.935" height="26.118" rx="13.059" stroke="none"/>
        <rect x="0.5" y="0.5" width="110.935" height="25.118" rx="12.559" fill="none"/>
      </g>
      <g id="Rectángulo_44473" data-name="Rectángulo 44473" transform="translate(424.533 4396.312)" fill="#fff" stroke="#e53935" stroke-width="1">
        <rect width="111.935" height="26.118" rx="13.059" stroke="none"/>
        <rect x="0.5" y="0.5" width="110.935" height="25.118" rx="12.559" fill="none"/>
      </g>
      <g id="Rectángulo_44474" data-name="Rectángulo 44474" transform="translate(405.876 4444.071)" fill="#fff" stroke="#e53935" stroke-width="1">
        <rect width="149.247" height="26.118" rx="13.059" stroke="none"/>
        <rect x="0.5" y="0.5" width="148.247" height="25.118" rx="12.559" fill="none"/>
      </g>
      <g id="Rectángulo_44468" data-name="Rectángulo 44468" transform="translate(387.221 4205.036)" fill="#fff" stroke="#e53935" stroke-width="1">
        <rect width="186.559" height="26.118" rx="13.059" stroke="none"/>
        <rect x="0.5" y="0.5" width="185.559" height="25.118" rx="12.559" fill="none"/>
      </g>
      <g id="Grupo_129720" data-name="Grupo 129720" transform="translate(478.262 4107.404) rotate(-90)">
        <path id="Trazado_183774" data-name="Trazado 183774" d="M0,0V14.925" transform="translate(17.289 2.364) rotate(90)" fill="none" stroke="#707070" stroke-width="1"/>
        <circle id="Elipse_4730" data-name="Elipse 4730" cx="2.364" cy="2.364" r="2.364" transform="translate(0 0)" fill="#707070"/>
      </g>
      <g id="Grupo_148965" data-name="Grupo 148965" transform="translate(478.262 4155.164) rotate(-90)">
        <path id="Trazado_183774-2" data-name="Trazado 183774" d="M0,0V14.925" transform="translate(17.289 2.364) rotate(90)" fill="none" stroke="#707070" stroke-width="1"/>
        <circle id="Elipse_4730-2" data-name="Elipse 4730" cx="2.364" cy="2.364" r="2.364" transform="translate(0 0)" fill="#707070"/>
      </g>
      <g id="Grupo_148966" data-name="Grupo 148966" transform="translate(478.262 4202.923) rotate(-90)">
        <path id="Trazado_183774-3" data-name="Trazado 183774" d="M0,0V14.925" transform="translate(17.289 2.364) rotate(90)" fill="none" stroke="#707070" stroke-width="1"/>
        <circle id="Elipse_4730-3" data-name="Elipse 4730" cx="2.364" cy="2.364" r="2.364" transform="translate(0 0)" fill="#707070"/>
      </g>
      <g id="Grupo_148967" data-name="Grupo 148967" transform="translate(478.262 4298.681) rotate(-90)">
        <path id="Trazado_183774-4" data-name="Trazado 183774" d="M0,0V14.925" transform="translate(17.289 2.364) rotate(90)" fill="none" stroke="#707070" stroke-width="1"/>
        <circle id="Elipse_4730-4" data-name="Elipse 4730" cx="2.364" cy="2.364" r="2.364" transform="translate(0 0)" fill="#707070"/>
      </g>
      <g id="Grupo_148968" data-name="Grupo 148968" transform="translate(478.262 4346.44) rotate(-90)">
        <path id="Trazado_183774-5" data-name="Trazado 183774" d="M0,0V14.925" transform="translate(17.289 2.364) rotate(90)" fill="none" stroke="#707070" stroke-width="1"/>
        <circle id="Elipse_4730-5" data-name="Elipse 4730" cx="2.364" cy="2.364" r="2.364" transform="translate(0 0)" fill="#707070"/>
      </g>
      <g id="Grupo_148969" data-name="Grupo 148969" transform="translate(478.262 4394.2) rotate(-90)">
        <path id="Trazado_183774-6" data-name="Trazado 183774" d="M0,0V14.925" transform="translate(17.289 2.364) rotate(90)" fill="none" stroke="#707070" stroke-width="1"/>
        <circle id="Elipse_4730-6" data-name="Elipse 4730" cx="2.364" cy="2.364" r="2.364" transform="translate(0 0)" fill="#707070"/>
      </g>
      <g id="Grupo_148970" data-name="Grupo 148970" transform="translate(478.262 4441.958) rotate(-90)">
        <path id="Trazado_183774-7" data-name="Trazado 183774" d="M0,0V14.925" transform="translate(17.289 2.364) rotate(90)" fill="none" stroke="#707070" stroke-width="1"/>
        <circle id="Elipse_4730-7" data-name="Elipse 4730" cx="2.364" cy="2.364" r="2.364" transform="translate(0 0)" fill="#707070"/>
      </g>
      <rect id="Rectángulo_36816" data-name="Rectángulo 36816" width="186.559" height="26.118" rx="13.059" transform="translate(387.221 4014)" fill="#e53935"/>
      <g id="Grupo_148956" data-name="Grupo 148956" transform="translate(429.01 4233.393)">
        <g id="Grupo_129729" data-name="Grupo 129729" transform="translate(0 0)">
          <g id="Grupo_129723" data-name="Grupo 129723" transform="translate(0 19.653) rotate(-90)">
            <path id="Trazado_183774-8" data-name="Trazado 183774" d="M0,0V18.656" transform="translate(19.653 2.364) rotate(90)" fill="none" stroke="#707070" stroke-width="1"/>
            <circle id="Elipse_4730-8" data-name="Elipse 4730" cx="2.364" cy="2.364" r="2.364" transform="translate(0)" fill="#707070"/>
          </g>
        </g>
        <g id="Grupo_129730" data-name="Grupo 129730" transform="translate(106.06 0)">
          <g id="Grupo_129723-2" data-name="Grupo 129723" transform="translate(0 19.768) rotate(-90)">
            <path id="Trazado_183774-9" data-name="Trazado 183774" d="M0,0V16.629" transform="translate(19.768 2.364) rotate(90)" fill="none" stroke="#707070" stroke-width="1"/>
            <circle id="Elipse_4730-9" data-name="Elipse 4730" cx="2.364" cy="2.364" r="2.364" transform="translate(0)" fill="#707070"/>
          </g>
        </g>
        <path id="Trazado_183774-10" data-name="Trazado 183774" d="M0,0V106.4" transform="translate(2.027 0.225) rotate(-90)" fill="none" stroke="#707070" stroke-width="1"/>
      </g>
      <text id="Producción_de_panela" data-name="Producción de panela" transform="translate(414.832 4031.477)" fill="#fff" font-size="12" font-family="Roboto-Black, Roboto" font-weight="800"><tspan x="0" y="0">Producción de panela</tspan></text>
      <text id="Apronte" transform="translate(456.621 4078.49)" fill="#e53935" font-size="12" font-family="Roboto-Black, Roboto" font-weight="800"><tspan x="0" y="0">Apronte</tspan></text>
      <text id="Extracción" transform="translate(448.412 4126.995)" fill="#e53935" font-size="12" font-family="Roboto-Black, Roboto" font-weight="800"><tspan x="0" y="0">Extracción</tspan></text>
      <text id="Prelimpieza" transform="translate(475.935 4174.754)" fill="#e53935" font-size="12" font-family="Roboto-Black, Roboto" font-weight="800"><tspan x="-32.479" y="0">Prelimpieza</tspan></text>
      <text id="Punteo_y_batido" data-name="Punteo y batido" transform="translate(474.741 4318.271)" fill="#e53935" font-size="12" font-family="Roboto-Black, Roboto" font-weight="800"><tspan x="-42.48" y="0">Punteo y batido</tspan></text>
      <text id="Moldeado" transform="translate(475.651 4365.03)" fill="#e53935" font-size="11" font-family="Roboto-Black, Roboto" font-weight="800"><tspan x="-24.61" y="0">Moldeado</tspan></text>
      <text id="Enfriamiento" transform="translate(473.696 4412.79)" fill="#e53935" font-size="11" font-family="Roboto-Black, Roboto" font-weight="800"><tspan x="-31.928" y="0">Enfriamiento</tspan></text>
      <text id="Empaque_y_embalaje" data-name="Empaque y embalaje" transform="translate(473.816 4461.548)" fill="#e53935" font-size="12" font-family="Roboto-Black, Roboto" font-weight="800"><tspan x="-55.925" y="0">Empaque y embalaje</tspan></text>
      <text id="Clarificación_y_encalado" data-name="Clarificación y encalado" transform="translate(473.115 4222.513)" fill="#e53935" font-size="12" font-family="Roboto-Black, Roboto" font-weight="800"><tspan x="-64.957" y="0">Clarificación y encalado</tspan></text>
      <g id="Rectángulo_44469" data-name="Rectángulo 44469" transform="translate(307 4255.273)" fill="#fff" stroke="#e53935" stroke-width="1">
        <rect width="167.903" height="26.118" rx="13.059" stroke="none"/>
        <rect x="0.5" y="0.5" width="166.903" height="25.118" rx="12.559" fill="none"/>
      </g>
      <g id="Rectángulo_44470" data-name="Rectángulo 44470" transform="translate(486.097 4255.273)" fill="#fff" stroke="#e53935" stroke-width="1">
        <rect width="167.903" height="26.118" rx="13.059" stroke="none"/>
        <rect x="0.5" y="0.5" width="166.903" height="25.118" rx="12.559" fill="none"/>
      </g>
      <text id="Evaporación_del_agua" data-name="Evaporación del agua" transform="translate(379.403 4271.751)" fill="#e53935" font-size="11" font-family="Roboto-Black, Roboto" font-weight="800"><tspan x="-52.838" y="0">Evaporación del agua</tspan></text>
      <text id="Concentración_de_mieles" data-name="Concentración de mieles" transform="translate(562.052 4272.751)" fill="#e53935" font-size="12" font-family="Roboto-Black, Roboto" font-weight="800"><tspan x="-67.11" y="0">Concentración de mieles</tspan></text>
      <g id="Grupo_148964" data-name="Grupo 148964" transform="translate(478.262 4059.646) rotate(-90)">
        <path id="Trazado_183774-11" data-name="Trazado 183774" d="M0,0V14.925" transform="translate(17.289 2.364) rotate(90)" fill="none" stroke="#707070" stroke-width="1"/>
        <circle id="Elipse_4730-10" data-name="Elipse 4730" cx="2.364" cy="2.364" r="2.364" transform="translate(0 0)" fill="#707070"/>
      </g>
    </g>
  </g>
</svg>
