<svg xmlns="http://www.w3.org/2000/svg" width="1292" height="1194" viewBox="0 0 1292 1194">
  <g id="Grupo_173990" data-name="Grupo 173990" transform="translate(-180 -538)">
    <g id="Grupo_173959" data-name="Grupo 173959" transform="translate(0 -169)">
      <path id="Trazado_183776" data-name="Trazado 183776" d="M30,0h78c16.569,0,30,16.342,30,36.5S124.569,73,108,73H30C13.431,73,0,56.658,0,36.5S13.431,0,30,0Z" transform="translate(732 900)" fill="#e2872c"/>
      <text id="Extracción_de_jugo" data-name="Extracción de jugo" transform="translate(803 917)" fill="#fff" font-size="16" font-family="Roboto-Bold, Roboto" font-weight="700"><tspan x="-37.832" y="17">Extracción </tspan><tspan x="-26.469" y="36">de jugo</tspan></text>
      <g id="Grupo_173948" data-name="Grupo 173948" transform="translate(1734 722) rotate(90)">
        <path id="Trazado_183774" data-name="Trazado 183774" d="M0,0V30.667" transform="translate(498.667 646.5) rotate(90)" fill="none" stroke="#707070" stroke-width="1"/>
        <circle id="Elipse_4730" data-name="Elipse 4730" cx="3.5" cy="3.5" r="3.5" transform="translate(465 643)" fill="#707070"/>
      </g>
      <g id="Grupo_173949" data-name="Grupo 173949" transform="translate(1447 722) rotate(90)">
        <path id="Trazado_183774-2" data-name="Trazado 183774" d="M0,0V30.667" transform="translate(498.667 646.5) rotate(90)" fill="none" stroke="#707070" stroke-width="1.5"/>
        <circle id="Elipse_4730-2" data-name="Elipse 4730" cx="3.5" cy="3.5" r="3.5" transform="translate(465 643)" fill="#707070"/>
      </g>
      <g id="Grupo_173950" data-name="Grupo 173950" transform="translate(1094 722) rotate(90)">
        <path id="Trazado_183774-3" data-name="Trazado 183774" d="M0,0V30.667" transform="translate(498.667 646.5) rotate(90)" fill="none" stroke="#707070" stroke-width="1"/>
        <circle id="Elipse_4730-3" data-name="Elipse 4730" cx="3.5" cy="3.5" r="3.5" transform="translate(465 643)" fill="#707070"/>
      </g>
      <path id="Trazado_183767" data-name="Trazado 183767" d="M30.141,0H206.859C223.505,0,237,16.342,237,36.5S223.505,73,206.859,73H30.141C13.495,73,0,56.658,0,36.5S13.495,0,30.141,0Z" transform="translate(682 1109)" fill="#b72d2a"/>
      <path id="Trazado_183767-2" data-name="Trazado 183767" d="M30.141,0H206.859C223.505,0,237,16.342,237,36.5S223.505,73,206.859,73H30.141C13.495,73,0,56.658,0,36.5S13.495,0,30.141,0Z" transform="translate(329 1109)" fill="#b72d2a"/>
      <path id="Trazado_183767-3" data-name="Trazado 183767" d="M30.141,0H206.859C223.505,0,237,16.342,237,36.5S223.505,73,206.859,73H30.141C13.495,73,0,56.658,0,36.5S13.495,0,30.141,0Z" transform="translate(969 1109)" fill="#b72d2a"/>
      <text id="Apronte" transform="translate(771 1136)" fill="#fff" font-size="16" font-family="Roboto-Bold, Roboto" font-weight="700"><tspan x="0" y="17">Apronte</tspan></text>
      <text id="Importancia_de_la_clarificación" data-name="Importancia de la clarificación" transform="translate(392 1123)" fill="#fff" font-size="16" font-family="Roboto-Bold, Roboto" font-weight="700"><tspan x="0" y="17">Importancia de </tspan><tspan x="0" y="41">la clarificación</tspan></text>
      <text id="Caña_de_azúcar" data-name="Caña de azúcar" transform="translate(1032 1135)" fill="#fff" font-size="16" font-family="Roboto-Bold, Roboto" font-weight="700"><tspan x="0" y="17">Caña de azúcar</tspan></text>
      <g id="Grupo_173945" data-name="Grupo 173945" transform="translate(1713 1795.5) rotate(180)">
        <path id="Trazado_183774-4" data-name="Trazado 183774" d="M0,0V38.954" transform="translate(506.954 646.5) rotate(90)" fill="none" stroke="#707070" stroke-width="1.5"/>
        <circle id="Elipse_4730-4" data-name="Elipse 4730" cx="3.5" cy="3.5" r="3.5" transform="translate(465 643)" fill="#707070"/>
      </g>
      <g id="Grupo_173946" data-name="Grupo 173946" transform="translate(1713 1704) rotate(180)">
        <path id="Trazado_183774-5" data-name="Trazado 183774" d="M0,0V30.667" transform="translate(498.667 646.5) rotate(90)" fill="none" stroke="#707070" stroke-width="1.5"/>
        <circle id="Elipse_4730-5" data-name="Elipse 4730" cx="3.5" cy="3.5" r="3.5" transform="translate(465 643)" fill="#707070"/>
      </g>
      <g id="Grupo_173947" data-name="Grupo 173947" transform="translate(1713 1884) rotate(180)">
        <path id="Trazado_183774-6" data-name="Trazado 183774" d="M0,0V30.667" transform="translate(498.667 646.5) rotate(90)" fill="none" stroke="#707070" stroke-width="1.5"/>
        <circle id="Elipse_4730-6" data-name="Elipse 4730" cx="3.5" cy="3.5" r="3.5" transform="translate(465 643)" fill="#707070"/>
      </g>
      <path id="Trazado_183776-2" data-name="Trazado 183776" d="M34.348,0h89.3C142.622,0,158,17.909,158,40s-15.378,40-34.348,40h-89.3C15.378,80,0,62.091,0,40S15.378,0,34.348,0Z" transform="translate(915 750)" fill="#81af1d"/>
      <path id="Trazado_183776-3" data-name="Trazado 183776" d="M34.348,0h89.3C142.622,0,158,17.909,158,40s-15.378,40-34.348,40h-89.3C15.378,80,0,62.091,0,40S15.378,0,34.348,0Z" transform="translate(527 750)" fill="#81af1d"/>
      <text id="Prelimpieza" transform="translate(994 779)" fill="#fff" font-size="16" font-family="Roboto-Bold, Roboto" font-weight="700"><tspan x="-42.879" y="17">Prelimpieza</tspan></text>
      <text id="Contenido" transform="translate(608 779)" fill="#fff" font-size="16" font-family="Roboto-Bold, Roboto" font-weight="700"><tspan x="-36.898" y="17">Contenido</tspan></text>
      <rect id="Rectángulo_44725" data-name="Rectángulo 44725" width="174" height="80" rx="30" transform="translate(196 1596)" fill="#e53935"/>
      <rect id="Rectángulo_44726" data-name="Rectángulo 44726" width="174" height="80" rx="30" transform="translate(196 1686)" fill="#e53935"/>
      <rect id="Rectángulo_44727" data-name="Rectángulo 44727" width="174" height="80" rx="30" transform="translate(196 1776)" fill="#e53935"/>
      <rect id="Rectángulo_44722" data-name="Rectángulo 44722" width="400" height="74" rx="30" transform="translate(600 1374)" fill="#b46c23"/>
      <text id="Producción_de_panela" data-name="Producción de panela" transform="translate(799 1395)" fill="#fff" font-size="24" font-family="Roboto-Black, Roboto" font-weight="800"><tspan x="-117.029" y="25">Producción de panela</tspan></text>
      <path id="Trazado_183774-7" data-name="Trazado 183774" d="M0,0V271.5" transform="translate(438 1816) rotate(180)" fill="none" stroke="#707070" stroke-width="1"/>
      <g id="Grupo_173935" data-name="Grupo 173935" transform="translate(-80 990)">
        <path id="Trazado_183774-8" data-name="Trazado 183774" d="M0,0V50" transform="translate(518 646.5) rotate(90)" fill="none" stroke="#707070" stroke-width="1"/>
        <circle id="Elipse_4730-7" data-name="Elipse 4730" cx="3.5" cy="3.5" r="3.5" transform="translate(465 643)" fill="#707070"/>
      </g>
      <g id="Grupo_173938" data-name="Grupo 173938" transform="translate(4 980)">
        <path id="Trazado_183774-9" data-name="Trazado 183774" d="M0,0V107.971" transform="translate(541.971 700.5) rotate(90)" fill="none" stroke="#707070" stroke-width="1"/>
      </g>
      <g id="Grupo_173936" data-name="Grupo 173936" transform="translate(-80 1080)">
        <path id="Trazado_183774-10" data-name="Trazado 183774" d="M0,0V50" transform="translate(518 646.5) rotate(90)" fill="none" stroke="#707070" stroke-width="1"/>
        <circle id="Elipse_4730-8" data-name="Elipse 4730" cx="3.5" cy="3.5" r="3.5" transform="translate(465 643)" fill="#707070"/>
      </g>
      <g id="Grupo_173937" data-name="Grupo 173937" transform="translate(-80 1170)">
        <path id="Trazado_183774-11" data-name="Trazado 183774" d="M0,0V50" transform="translate(518 646.5) rotate(90)" fill="none" stroke="#707070" stroke-width="1"/>
        <circle id="Elipse_4730-9" data-name="Elipse 4730" cx="3.5" cy="3.5" r="3.5" transform="translate(465 643)" fill="#707070"/>
      </g>
      <g id="Grupo_81820" data-name="Grupo 81820" transform="translate(-80 898)">
        <path id="Trazado_183774-12" data-name="Trazado 183774" d="M0,302.44V353" transform="translate(821 646.5) rotate(90)" fill="none" stroke="#707070" stroke-width="1"/>
        <circle id="Elipse_4730-10" data-name="Elipse 4730" cx="3.5" cy="3.5" r="3.5" transform="translate(465 643)" fill="#707070"/>
      </g>
      <path id="Trazado_183774-13" data-name="Trazado 183774" d="M0,0V195" transform="translate(664.5 1643) rotate(180)" fill="none" stroke="#707070" stroke-width="1.5"/>
      <path id="Trazado_183774-14" data-name="Trazado 183774" d="M0,0V153.333" transform="translate(800.5 1374) rotate(180)" fill="none" stroke="#707070" stroke-width="1.5"/>
      <path id="Trazado_183774-15" data-name="Trazado 183774" d="M0,0V196" transform="translate(914.5 1644) rotate(180)" fill="none" stroke="#707070" stroke-width="1.5"/>
      <text id="Uso_de_la_dotación" data-name="Uso de la dotación" transform="translate(284 1616)" fill="#fff" font-size="16" font-family="Roboto-Bold, Roboto" font-weight="700"><tspan x="-33.129" y="17">Uso de la </tspan><tspan x="-31.32" y="36">dotación</tspan></text>
      <text id="Conocimiento_de_la_normatividad" data-name="Conocimiento de la normatividad" transform="translate(281 1706)" fill="#fff" font-size="16" font-family="Roboto-Bold, Roboto" font-weight="700"><tspan x="-60.84" y="17">Conocimiento de </tspan><tspan x="-55.832" y="36">la normatividad</tspan></text>
      <text id="Buen_comportamiento_en_zona_de_trabajo" data-name="Buen comportamiento en zona de trabajo" transform="translate(282 1787)" fill="#fff" font-size="16" font-family="Roboto-Bold, Roboto" font-weight="700"><tspan x="-18.387" y="17">Buen </tspan><tspan x="-59.715" y="36">comportamiento </tspan><tspan x="-66.102" y="55">en zona de trabajo</tspan></text>
      <rect id="Rectángulo_44724" data-name="Rectángulo 44724" width="174" height="80" rx="30" transform="translate(196 1506)" fill="#e53935"/>
      <rect id="Rectángulo_44721" data-name="Rectángulo 44721" width="237" height="74" rx="30" transform="translate(546 1643)" fill="#5000c7"/>
      <rect id="Rectángulo_44733" data-name="Rectángulo 44733" width="237" height="74" rx="30" transform="translate(682 1249)" fill="#5000c7"/>
      <rect id="Rectángulo_44723" data-name="Rectángulo 44723" width="237" height="74" rx="30" transform="translate(796 1644)" fill="#5000c7"/>
      <text id="BPMs" transform="translate(657 1670)" fill="#fff" font-size="16" font-family="Roboto-Bold, Roboto" font-weight="700"><tspan x="-21.387" y="17">BPMs</tspan></text>
      <text id="Materia_Prima" data-name="Materia Prima" transform="translate(801 1276)" fill="#fff" font-size="16" font-family="Roboto-Bold, Roboto" font-weight="700"><tspan x="-51.059" y="17">Materia Prima</tspan></text>
      <text id="Producto_en_óptimas_condiciones" data-name="Producto en óptimas condiciones" transform="translate(907 1659)" fill="#fff" font-size="16" font-family="Roboto-Bold, Roboto" font-weight="700"><tspan x="-74.695" y="17">Producto en óptimas </tspan><tspan x="-43.539" y="41">condiciones</tspan></text>
      <text id="Lavado_de_manos" data-name="Lavado de manos" transform="translate(281 1526)" fill="#fff" font-size="16" font-family="Roboto-Bold, Roboto" font-weight="700"><tspan x="-36.691" y="17">Lavado de </tspan><tspan x="-24.332" y="36">manos</tspan></text>
      <rect id="Rectángulo_44728" data-name="Rectángulo 44728" width="174" height="80" rx="30" transform="translate(1213.971 1551)" fill="#e53935"/>
      <rect id="Rectángulo_44729" data-name="Rectángulo 44729" width="174" height="80" rx="30" transform="translate(1213.971 1641)" fill="#e53935"/>
      <rect id="Rectángulo_44731" data-name="Rectángulo 44731" width="174" height="80" rx="30" transform="translate(1213.971 1731)" fill="#e53935"/>
      <rect id="Rectángulo_44732" data-name="Rectángulo 44732" width="174" height="80" rx="30" transform="translate(1213.971 1821)" fill="#e53935"/>
      <path id="Trazado_183774-16" data-name="Trazado 183774" d="M0,361.5V0" transform="translate(1140.971 1499.5)" fill="none" stroke="#707070" stroke-width="1"/>
      <rect id="Rectángulo_44734" data-name="Rectángulo 44734" width="162" height="80" rx="40" transform="translate(1258 1017)" fill="#81af1d"/>
      <rect id="Rectángulo_44735" data-name="Rectángulo 44735" width="162" height="80" rx="40" transform="translate(1258 1107)" fill="#81af1d"/>
      <rect id="Rectángulo_44736" data-name="Rectángulo 44736" width="162" height="80" rx="40" transform="translate(1258 1197)" fill="#81af1d"/>
      <g id="Grupo_173939" data-name="Grupo 173939" transform="translate(1140.971 1588)">
        <path id="Trazado_183774-17" data-name="Trazado 183774" d="M0,50V0" transform="translate(50 3.5) rotate(90)" fill="none" stroke="#707070" stroke-width="1"/>
        <circle id="Elipse_4730-11" data-name="Elipse 4730" cx="3.5" cy="3.5" r="3.5" transform="translate(46)" fill="#707070"/>
      </g>
      <g id="Grupo_173943" data-name="Grupo 173943" transform="translate(1033 1681)">
        <path id="Trazado_183774-18" data-name="Trazado 183774" d="M0,107.971V0" transform="translate(107.971) rotate(90)" fill="none" stroke="#707070" stroke-width="1"/>
      </g>
      <g id="Grupo_173940" data-name="Grupo 173940" transform="translate(1140.971 1677.5)">
        <path id="Trazado_183774-19" data-name="Trazado 183774" d="M0,50V0" transform="translate(50 3.5) rotate(90)" fill="none" stroke="#707070" stroke-width="1"/>
        <circle id="Elipse_4730-12" data-name="Elipse 4730" cx="3.5" cy="3.5" r="3.5" transform="translate(46)" fill="#707070"/>
      </g>
      <g id="Grupo_173941" data-name="Grupo 173941" transform="translate(1140.971 1768)">
        <path id="Trazado_183774-20" data-name="Trazado 183774" d="M0,50V0" transform="translate(50 3.5) rotate(90)" fill="none" stroke="#707070" stroke-width="1"/>
        <circle id="Elipse_4730-13" data-name="Elipse 4730" cx="3.5" cy="3.5" r="3.5" transform="translate(46)" fill="#707070"/>
      </g>
      <g id="Grupo_173944" data-name="Grupo 173944" transform="translate(1140.971 1858)">
        <path id="Trazado_183774-21" data-name="Trazado 183774" d="M0,50V0" transform="translate(50 3.5) rotate(90)" fill="none" stroke="#707070" stroke-width="1"/>
        <circle id="Elipse_4730-14" data-name="Elipse 4730" cx="3.5" cy="3.5" r="3.5" transform="translate(46)" fill="#707070"/>
      </g>
      <g id="Grupo_173942" data-name="Grupo 173942" transform="translate(1140.411 1496)">
        <path id="Trazado_183774-22" data-name="Trazado 183774" d="M0,50.56V0" transform="translate(50.56 3.5) rotate(90)" fill="none" stroke="#707070" stroke-width="1"/>
        <circle id="Elipse_4730-15" data-name="Elipse 4730" cx="3.5" cy="3.5" r="3.5" transform="translate(46.56)" fill="#707070"/>
      </g>
      <text id="No_olores_extraños" data-name="No olores extraños" transform="translate(1297.971 1571)" fill="#fff" font-size="16" font-family="Roboto-Bold, Roboto" font-weight="700"><tspan x="-34.688" y="17">No olores </tspan><tspan x="-31.305" y="36">extraños</tspan></text>
      <text id="Sin_impurezas" data-name="Sin impurezas" transform="translate(1305.971 1671)" fill="#fff" font-size="16" font-family="Roboto-Bold, Roboto" font-weight="700"><tspan x="-51.254" y="17">Sin impurezas</tspan></text>
      <text id="No_sabores_extraños" data-name="No sabores extraños" transform="translate(1305.971 1751)" fill="#fff" font-size="16" font-family="Roboto-Bold, Roboto" font-weight="700"><tspan x="-40.949" y="17">No sabores </tspan><tspan x="-31.305" y="36">extraños</tspan></text>
      <text id="No_panelas_blandas" data-name="No panelas blandas" transform="translate(1305.971 1841)" fill="#fff" font-size="16" font-family="Roboto-Bold, Roboto" font-weight="700"><tspan x="-40.285" y="17">No panelas </tspan><tspan x="-28.305" y="36">blandas</tspan></text>
      <rect id="Rectángulo_44730" data-name="Rectángulo 44730" width="174" height="80" rx="30" transform="translate(1213.971 1461)" fill="#e53935"/>
      <text id="No_residuos" data-name="No residuos" transform="translate(1300.971 1491)" fill="#fff" font-size="16" font-family="Roboto-Bold, Roboto" font-weight="700"><tspan x="-43.262" y="17">No residuos</tspan></text>
      <text id="Inmadura" transform="translate(1331 1048)" fill="#fff" font-size="16" font-family="Roboto-Bold, Roboto" font-weight="700"><tspan x="-34.102" y="17">Inmadura</tspan></text>
      <text id="Madura" transform="translate(1338 1138)" fill="#fff" font-size="16" font-family="Roboto-Bold, Roboto" font-weight="700"><tspan x="-27.371" y="17">Madura</tspan></text>
      <text id="Sobremaduradas" transform="translate(1337 1228)" fill="#fff" font-size="16" font-family="Roboto-Bold, Roboto" font-weight="700"><tspan x="-61.387" y="17">Sobremaduradas</tspan></text>
      <text id="Clarificación" transform="translate(1145.667 842)" fill="#12263f" font-size="16" font-family="Roboto-Regular, Roboto"><tspan x="0" y="17">Clarificación</tspan></text>
      <text id="Sacarosa" transform="translate(332.668 842)" fill="#12263f" font-size="16" font-family="Roboto-Regular, Roboto"><tspan x="38.391" y="17">Sacarosa</tspan></text>
      <text id="Sustancia_panelera" data-name="Sustancia panelera" transform="translate(180 842)" fill="#12263f" font-size="16" font-family="Roboto-Regular, Roboto"><tspan x="9.943" y="17">Sustancia panelera</tspan></text>
      <text id="Fructosa" transform="translate(180 811.5)" fill="#12263f" font-size="16" font-family="Roboto-Regular, Roboto"><tspan x="42.602" y="17">Fructosa</tspan></text>
      <text id="Glucosa" transform="translate(180 740.5)" fill="#12263f" font-size="16" font-family="Roboto-Regular, Roboto"><tspan x="46.945" y="17">Glucosa</tspan></text>
      <text id="Encalado" transform="translate(1145.667 707)" fill="#12263f" font-size="16" font-family="Roboto-Regular, Roboto"><tspan x="0" y="17">Encalado</tspan></text>
      <text id="Agua" transform="translate(332.668 707)" fill="#12263f" font-size="16" font-family="Roboto-Regular, Roboto"><tspan x="68.063" y="17">Agua</tspan></text>
      <text id="Azúcares" transform="translate(332.668 775.25)" fill="#12263f" font-size="16" font-family="Roboto-Regular, Roboto"><tspan x="38.5" y="17">Azúcares</tspan></text>
      <g id="Grupo_81834" data-name="Grupo 81834" transform="translate(1603.667 1503) rotate(180)">
        <path id="Trazado_183774-23" data-name="Trazado 183774" d="M0,0V30.667" transform="translate(498.667 646.5) rotate(90)" fill="none" stroke="#707070" stroke-width="1.5"/>
        <circle id="Elipse_4730-16" data-name="Elipse 4730" cx="3.5" cy="3.5" r="3.5" transform="translate(465 643)" fill="#707070"/>
      </g>
      <g id="Grupo_173952" data-name="Grupo 173952" transform="translate(453.666 853)">
        <path id="Trazado_183774-24" data-name="Trazado 183774" d="M0,30.667V0" transform="translate(3 3.5) rotate(-90)" fill="none" stroke="#707070" stroke-width="1.5"/>
        <circle id="Elipse_4730-17" data-name="Elipse 4730" cx="3.5" cy="3.5" r="3.5" fill="#707070"/>
      </g>
      <g id="Grupo_173951" data-name="Grupo 173951" transform="translate(1603.667 1368) rotate(180)">
        <path id="Trazado_183774-25" data-name="Trazado 183774" d="M0,0V30.667" transform="translate(498.667 646.5) rotate(90)" fill="none" stroke="#707070" stroke-width="1.5"/>
        <circle id="Elipse_4730-18" data-name="Elipse 4730" cx="3.5" cy="3.5" r="3.5" transform="translate(465 643)" fill="#707070"/>
      </g>
      <g id="Grupo_173953" data-name="Grupo 173953" transform="translate(453.666 718)">
        <path id="Trazado_183774-26" data-name="Trazado 183774" d="M0,30.667V0" transform="translate(3 3.5) rotate(-90)" fill="none" stroke="#707070" stroke-width="1.5"/>
        <circle id="Elipse_4730-19" data-name="Elipse 4730" cx="3.5" cy="3.5" r="3.5" fill="#707070"/>
      </g>
      <g id="Grupo_173954" data-name="Grupo 173954" transform="translate(453.666 787)">
        <path id="Trazado_183774-27" data-name="Trazado 183774" d="M0,30.667V0" transform="translate(3 3.5) rotate(-90)" fill="none" stroke="#707070" stroke-width="1.5"/>
        <circle id="Elipse_4730-20" data-name="Elipse 4730" cx="3.5" cy="3.5" r="3.5" fill="#707070"/>
      </g>
      <g id="Grupo_173957" data-name="Grupo 173957" transform="translate(322.334 787)">
        <path id="Trazado_183774-28" data-name="Trazado 183774" d="M0,30.667V0" transform="translate(3 3.5) rotate(-90)" fill="none" stroke="#707070" stroke-width="1.5"/>
      </g>
      <g id="Grupo_173955" data-name="Grupo 173955" transform="translate(291.668 753)">
        <path id="Trazado_183774-29" data-name="Trazado 183774" d="M0,30.667V0" transform="translate(3 3.5) rotate(-90)" fill="none" stroke="#707070" stroke-width="1.5"/>
        <circle id="Elipse_4730-21" data-name="Elipse 4730" cx="3.5" cy="3.5" r="3.5" fill="#707070"/>
      </g>
      <g id="Grupo_173956" data-name="Grupo 173956" transform="translate(291.668 820)">
        <path id="Trazado_183774-30" data-name="Trazado 183774" d="M0,30.667V0" transform="translate(3 3.5) rotate(-90)" fill="none" stroke="#707070" stroke-width="1.5"/>
        <circle id="Elipse_4730-22" data-name="Elipse 4730" cx="3.5" cy="3.5" r="3.5" fill="#707070"/>
      </g>
      <g id="Grupo_173958" data-name="Grupo 173958" transform="translate(329 850.5)">
        <path id="Trazado_183774-31" data-name="Trazado 183774" d="M0,30.667V0" transform="translate(3 3.5) rotate(-90)" fill="none" stroke="#707070" stroke-width="1.5"/>
        <circle id="Elipse_4730-23" data-name="Elipse 4730" cx="3.5" cy="3.5" r="3.5" fill="#707070"/>
      </g>
      <line id="Línea_249" data-name="Línea 249" y2="136" transform="translate(1105 721.5)" fill="none" stroke="#707070" stroke-width="1"/>
      <line id="Línea_257" data-name="Línea 257" y2="136" transform="translate(487.334 721.5)" fill="none" stroke="#707070" stroke-width="1.5"/>
      <line id="Línea_258" data-name="Línea 258" y2="68" transform="translate(325.334 756.5)" fill="none" stroke="#707070" stroke-width="1.5"/>
      <line id="Línea_251" data-name="Línea 251" y2="181.5" transform="translate(1214.333 1057)" fill="none" stroke="#707070" stroke-width="1.5"/>
      <line id="Línea_250" data-name="Línea 250" x2="640" transform="translate(447.5 1220.5)" fill="none" stroke="#707070" stroke-width="1"/>
      <line id="Línea_252" data-name="Línea 252" x2="32" transform="translate(1073.5 790.5)" fill="none" stroke="#707070" stroke-width="1"/>
      <line id="Línea_256" data-name="Línea 256" x1="32" transform="translate(486.834 790.5)" fill="none" stroke="#707070" stroke-width="1.5"/>
      <line id="Línea_253" data-name="Línea 253" x1="230" transform="translate(685 790)" fill="none" stroke="#707070" stroke-width="1.5"/>
      <line id="Línea_254" data-name="Línea 254" y1="110" transform="translate(801.5 790)" fill="none" stroke="#707070" stroke-width="1.5"/>
      <line id="Línea_255" data-name="Línea 255" y1="130" transform="translate(800.5 979.5)" fill="none" stroke="#707070" stroke-width="1.5"/>
      <circle id="Elipse_6351" data-name="Elipse 6351" cx="3.5" cy="3.5" r="3.5" transform="translate(804 977) rotate(90)" fill="#707070"/>
    </g>
  </g>
</svg>
