<svg xmlns="http://www.w3.org/2000/svg" xmlns:xlink="http://www.w3.org/1999/xlink" width="418" height="364" viewBox="0 0 418 364">
  <defs>
    <filter id="Rect치ngulo_44609" x="0" y="0" width="418" height="364" filterUnits="userSpaceOnUse">
      <feOffset dy="3" input="SourceAlpha"/>
      <feGaussianBlur stdDeviation="3" result="blur"/>
      <feFlood flood-opacity="0.161"/>
      <feComposite operator="in" in2="blur"/>
      <feComposite in="SourceGraphic"/>
    </filter>
  </defs>
  <g id="Grupo_174003" data-name="Grupo 174003" transform="translate(-171 -5809.656)">
    <g transform="matrix(1, 0, 0, 1, 171, 5809.66)" filter="url(#Rect치ngulo_44609)">
      <rect id="Rect치ngulo_44609-2" data-name="Rect치ngulo 44609" width="400" height="346" rx="45" transform="translate(9 6)" fill="#fff"/>
    </g>
    <g id="Grupo_171725" data-name="Grupo 171725" transform="translate(252 5860.656)">
      <g id="Grupo_171723" data-name="Grupo 171723" transform="translate(4.129 4.129)">
        <g id="Grupo_171698" data-name="Grupo 171698">
          <path id="Trazado_259124" data-name="Trazado 259124" d="M107.355,55.742v4.129a8.605,8.605,0,0,1-5.9,8.134,8.447,8.447,0,0,0-5.2,4.872l-.619,1.486a8.08,8.08,0,0,0-.661,3.262,8.34,8.34,0,0,0,.908,3.84,8.527,8.527,0,0,1-1.569,9.91l-2.932,2.932a8.543,8.543,0,0,1-6.028,2.519,8.68,8.68,0,0,1-3.881-.95,8.389,8.389,0,0,0-7.1-.247l-1.486.619a8.447,8.447,0,0,0-4.872,5.2,8.605,8.605,0,0,1-8.134,5.9H55.742a8.606,8.606,0,0,1-8.135-5.9,8.447,8.447,0,0,0-4.872-5.2l-1.486-.619a8.082,8.082,0,0,0-3.262-.661,8.34,8.34,0,0,0-3.84.908,8.527,8.527,0,0,1-9.91-1.569l-2.931-2.932a8.541,8.541,0,0,1-2.519-6.028,8.686,8.686,0,0,1,.949-3.881,8.387,8.387,0,0,0,.248-7.1l-.619-1.486a8.447,8.447,0,0,0-5.2-4.872,8.605,8.605,0,0,1-5.9-8.134V55.742a8.606,8.606,0,0,1,5.9-8.135,8.448,8.448,0,0,0,5.2-4.872l.619-1.486a8.09,8.09,0,0,0,.661-3.262,8.34,8.34,0,0,0-.909-3.84,8.528,8.528,0,0,1,1.569-9.91l2.931-2.931a8.541,8.541,0,0,1,6.028-2.519,8.686,8.686,0,0,1,3.881.949,8.387,8.387,0,0,0,7.1.248l1.486-.619a8.448,8.448,0,0,0,4.872-5.2,8.606,8.606,0,0,1,8.135-5.9h4.129a8.605,8.605,0,0,1,8.134,5.9,8.447,8.447,0,0,0,4.872,5.2l1.486.619a8.088,8.088,0,0,0,3.262.661,8.34,8.34,0,0,0,3.84-.909,8.528,8.528,0,0,1,9.91,1.569l2.932,2.931a8.544,8.544,0,0,1,2.519,6.028,8.68,8.68,0,0,1-.95,3.881,8.389,8.389,0,0,0-.247,7.1l.619,1.486a8.449,8.449,0,0,0,5.2,4.872,8.606,8.606,0,0,1,5.9,8.135ZM82.581,57.806A24.774,24.774,0,1,0,57.806,82.581,24.794,24.794,0,0,0,82.581,57.806Z" transform="translate(-8.258 -8.258)" fill="#a0d468"/>
        </g>
        <g id="Grupo_171699" data-name="Grupo 171699" transform="translate(24.774 24.774)">
          <path id="Trazado_259125" data-name="Trazado 259125" d="M82.581,57.806A24.774,24.774,0,1,1,57.806,82.581,24.794,24.794,0,0,1,82.581,57.806Zm8.258,24.775a8.258,8.258,0,1,0-8.258,8.258A8.282,8.282,0,0,0,90.839,82.581Z" transform="translate(-57.806 -57.806)" fill="#b4dd7f"/>
        </g>
        <g id="Grupo_171700" data-name="Grupo 171700" transform="translate(202.323 16.722)">
          <path id="Trazado_259126" data-name="Trazado 259126" d="M412.9,41.7a41.285,41.285,0,0,1,37.161,41.084H412.9Z" transform="translate(-412.903 -41.703)" fill="#ffeaa7"/>
        </g>
        <g id="Grupo_171701" data-name="Grupo 171701" transform="translate(148.645 16.722)">
          <path id="Trazado_259127" data-name="Trazado 259127" d="M326.193,82.787H305.548A41.285,41.285,0,0,1,342.71,41.7V82.787Z" transform="translate(-305.548 -41.703)" fill="#ffeaa7"/>
        </g>
        <g id="Grupo_171702" data-name="Grupo 171702" transform="translate(185.806 8.258)">
          <path id="Trazado_259128" data-name="Trazado 259128" d="M396.387,33.238V74.323H379.871V28.9A4.141,4.141,0,0,1,384,24.774h8.258a4.141,4.141,0,0,1,4.129,4.129Z" transform="translate(-379.871 -24.774)" fill="#fcd770"/>
        </g>
        <g id="Grupo_171703" data-name="Grupo 171703" transform="translate(140.387 57.806)">
          <path id="Trazado_259129" data-name="Trazado 259129" d="M297.29,123.871h94.968A4.141,4.141,0,0,1,396.387,128v8.258a4.141,4.141,0,0,1-4.129,4.129h-99.1a4.141,4.141,0,0,1-4.129-4.129V128a4.141,4.141,0,0,1,4.129-4.129Z" transform="translate(-289.032 -123.871)" fill="#fcd770"/>
        </g>
        <g id="Grupo_171704" data-name="Grupo 171704" transform="translate(231.226 70.194)">
          <path id="Trazado_259130" data-name="Trazado 259130" d="M487.226,148.645V169.29A12.371,12.371,0,0,0,474.839,156.9H470.71v-4.129H483.1A4.141,4.141,0,0,0,487.226,148.645Z" transform="translate(-470.71 -148.645)" fill="#b27946"/>
        </g>
        <g id="Grupo_171705" data-name="Grupo 171705" transform="translate(140.387 70.194)">
          <path id="Trazado_259131" data-name="Trazado 259131" d="M289.032,148.645a4.141,4.141,0,0,0,4.129,4.129h12.388V156.9h-4.129a12.371,12.371,0,0,0-12.387,12.387Z" transform="translate(-289.032 -148.645)" fill="#b27946"/>
        </g>
        <g id="Grupo_171706" data-name="Grupo 171706" transform="translate(24.774 140.387)">
          <path id="Trazado_259132" data-name="Trazado 259132" d="M57.806,289.032h49.549v49.548H57.806Z" transform="translate(-57.806 -289.032)" fill="#d3a06c"/>
        </g>
        <g id="Grupo_171707" data-name="Grupo 171707" transform="translate(90.839 140.387)">
          <path id="Trazado_259133" data-name="Trazado 259133" d="M189.935,289.032h49.549v49.548H189.935Z" transform="translate(-189.935 -289.032)" fill="#d3a06c"/>
        </g>
        <g id="Grupo_171708" data-name="Grupo 171708" transform="translate(107.355 140.387)">
          <path id="Trazado_259134" data-name="Trazado 259134" d="M222.968,289.032h16.516v16.517H222.968Z" transform="translate(-222.968 -289.032)" fill="#b27946"/>
        </g>
        <g id="Grupo_171709" data-name="Grupo 171709" transform="translate(41.29 140.387)">
          <path id="Trazado_259135" data-name="Trazado 259135" d="M90.839,289.032h16.516v16.517H90.839Z" transform="translate(-90.839 -289.032)" fill="#b27946"/>
        </g>
        <g id="Grupo_171710" data-name="Grupo 171710" transform="translate(0 189.936)">
          <path id="Trazado_259136" data-name="Trazado 259136" d="M227.1,388.129H37.162a22.137,22.137,0,0,0-4.088.33A28.811,28.811,0,0,0,8.258,417.032a28.882,28.882,0,0,0,28.9,28.9H227.1a28.9,28.9,0,1,0,0-57.806Z" transform="translate(-8.258 -388.129)" fill="#ccd1d9"/>
        </g>
        <g id="Grupo_171711" data-name="Grupo 171711" transform="translate(173.419 194.064)">
          <path id="Trazado_259137" data-name="Trazado 259137" d="M379.871,396.387A24.774,24.774,0,1,1,355.1,421.161,24.794,24.794,0,0,1,379.871,396.387Z" transform="translate(-355.097 -396.387)" fill="#969faa"/>
        </g>
        <g id="Grupo_171712" data-name="Grupo 171712" transform="translate(99.097 194.064)">
          <path id="Trazado_259138" data-name="Trazado 259138" d="M231.226,396.387a24.774,24.774,0,1,1-24.774,24.774A24.794,24.794,0,0,1,231.226,396.387Z" transform="translate(-206.452 -396.387)" fill="#969faa"/>
        </g>
        <g id="Grupo_171713" data-name="Grupo 171713" transform="translate(24.774 194.064)">
          <path id="Trazado_259139" data-name="Trazado 259139" d="M82.581,396.387a24.774,24.774,0,1,1-24.775,24.774A24.794,24.794,0,0,1,82.581,396.387Z" transform="translate(-57.806 -396.387)" fill="#969faa"/>
        </g>
        <g id="Grupo_171714" data-name="Grupo 171714" transform="translate(189.936 210.581)">
          <circle id="Elipse_6291" data-name="Elipse 6291" cx="8.258" cy="8.258" r="8.258" fill="#ccd1d9"/>
        </g>
        <g id="Grupo_171715" data-name="Grupo 171715" transform="translate(115.613 210.581)">
          <circle id="Elipse_6292" data-name="Elipse 6292" cx="8.258" cy="8.258" r="8.258" fill="#ccd1d9"/>
        </g>
        <g id="Grupo_171716" data-name="Grupo 171716" transform="translate(41.29 210.581)">
          <circle id="Elipse_6293" data-name="Elipse 6293" cx="8.258" cy="8.258" r="8.258" fill="#ccd1d9"/>
        </g>
        <g id="Grupo_171717" data-name="Grupo 171717" transform="translate(156.904 132.129)">
          <path id="Trazado_259140" data-name="Trazado 259140" d="M355.1,305.549V284.9a12.411,12.411,0,0,1,12.139-12.387h.248A12.37,12.37,0,0,1,379.871,284.9v28.9a16.512,16.512,0,0,1-16.516,16.516H330.323a8.255,8.255,0,0,1-8.258-8.258v-8.258a8.206,8.206,0,0,1,2.394-5.822h.042a8,8,0,0,1,5.822-2.436Z" transform="translate(-322.065 -272.516)" fill="#ff826e"/>
        </g>
        <g id="Grupo_171718" data-name="Grupo 171718" transform="translate(165.161 132.129)">
          <path id="Trazado_259141" data-name="Trazado 259141" d="M375.495,272.516a12.411,12.411,0,0,0-12.14,12.387v20.645H338.581a31.758,31.758,0,0,1,24.031-30.8l5.2-1.28a32.341,32.341,0,0,1,7.68-.95Z" transform="translate(-338.581 -272.516)" fill="#ff826e"/>
        </g>
        <g id="Grupo_171719" data-name="Grupo 171719" transform="translate(128 161.033)">
          <path id="Trazado_259142" data-name="Trazado 259142" d="M301.419,359.226H276.645a12.406,12.406,0,0,1-12.387-12.387,8.282,8.282,0,0,1,8.258-8.258h4.129l1.9-3.84a8.02,8.02,0,0,1,12.841-2.064l4.17,4.211a8.206,8.206,0,0,0-2.395,5.822v8.258a8.256,8.256,0,0,0,8.258,8.258Z" transform="translate(-264.258 -330.323)" fill="#f0d0b4"/>
        </g>
        <g id="Grupo_171720" data-name="Grupo 171720" transform="translate(230.978 78.451)">
          <path id="Trazado_259143" data-name="Trazado 259143" d="M483.345,186.3a12.359,12.359,0,0,1-8.754,3.634h-4.377a34.142,34.142,0,0,0,.248-4.129V165.161h4.129a12.38,12.38,0,0,1,8.754,21.141Z" transform="translate(-470.214 -165.161)" fill="#f0d0b4"/>
        </g>
        <g id="Grupo_171721" data-name="Grupo 171721" transform="translate(156.904 74.323)">
          <path id="Trazado_259144" data-name="Trazado 259144" d="M322.065,156.9h74.322v24.775a34.148,34.148,0,0,1-.248,4.129,33.025,33.025,0,0,1-32.785,28.9H355.1a33.025,33.025,0,0,1-32.785-28.9,34.154,34.154,0,0,1-.247-4.129V156.9Z" transform="translate(-322.065 -156.903)" fill="#f0d0b4"/>
        </g>
        <g id="Grupo_171722" data-name="Grupo 171722" transform="translate(140.387 78.451)">
          <path id="Trazado_259145" data-name="Trazado 259145" d="M301.419,189.936a12.387,12.387,0,0,1,0-24.775h4.129v20.646a34.155,34.155,0,0,0,.247,4.129h-4.377Z" transform="translate(-289.032 -165.161)" fill="#f0d0b4"/>
        </g>
      </g>
      <g id="Grupo_171724" data-name="Grupo 171724">
        <path id="Trazado_259146" data-name="Trazado 259146" d="M388.567,220.144a9.233,9.233,0,0,1-16.516,0l-.433-.872-7.387,3.7.434.868a17.491,17.491,0,0,0,31.29,0l.434-.872-7.387-3.7Z" transform="translate(-182.115 -109.634)"/>
        <path id="Trazado_259147" data-name="Trazado 259147" d="M417.032,173.419a12.4,12.4,0,0,0-12.387,12.387H412.9a4.129,4.129,0,1,1,8.258,0h8.259A12.4,12.4,0,0,0,417.032,173.419Z" transform="translate(-202.322 -86.71)"/>
        <path id="Trazado_259148" data-name="Trazado 259148" d="M355.1,185.807h8.258a12.387,12.387,0,1,0-24.774,0h8.258a4.129,4.129,0,1,1,8.258,0Z" transform="translate(-169.29 -86.71)"/>
        <path id="Trazado_259149" data-name="Trazado 259149" d="M247.742,66.065h-.194a45.182,45.182,0,0,0-36.968-40.518v-.772a8.266,8.266,0,0,0-8.258-8.258h-8.258a8.266,8.266,0,0,0-8.258,8.258v.772a45.182,45.182,0,0,0-36.967,40.518h-.194a8.266,8.266,0,0,0-8.258,8.258v28.9A16.533,16.533,0,0,0,156.9,119.742h.958a37.272,37.272,0,0,0,24.729,27.07,35.765,35.765,0,0,0-17.259,27.313,12.619,12.619,0,0,0-1.35.533l-1.817-1.817a12.161,12.161,0,0,0-13.518-2.506v-21.69H90.839v49.548H82.58V148.645H24.774V199.28a33.011,33.011,0,0,0,8.259,64.978H222.967a33.032,33.032,0,1,0,0-66.064h-4.24a20.443,20.443,0,0,0,4.236-12.391V156.9A16.439,16.439,0,0,0,218,145.127a37.249,37.249,0,0,0,20.521-25.385h.958A16.533,16.533,0,0,0,256,103.226v-28.9a8.266,8.266,0,0,0-8.258-8.258Zm-8.506,0H227.1V49.549h-8.258V66.065h-8.258V33.982A36.94,36.94,0,0,1,239.236,66.065ZM202.322,24.774V66.065h-8.258V24.774Zm-16.516,9.208V66.065h-8.258V49.549H169.29V66.065H157.151A36.939,36.939,0,0,1,185.806,33.982Zm-37.161,69.244a8.267,8.267,0,0,1,8.258-8.258v16.517A8.267,8.267,0,0,1,148.645,103.226Zm53.677,148.646a20.645,20.645,0,1,1,20.645-20.646A20.669,20.669,0,0,1,202.322,251.871Zm-28.9-45.42h14.092a28.823,28.823,0,0,0,0,49.548h-44.7a28.823,28.823,0,0,0,0-49.548h30.608ZM53.678,210.581a20.645,20.645,0,1,1-20.645,20.645A20.669,20.669,0,0,1,53.678,210.581Zm28.9,20.645a28.891,28.891,0,0,0-14.092-24.774h44.7a28.821,28.821,0,0,0,0,49.548h-44.7A28.892,28.892,0,0,0,82.58,231.226Zm66.065,0A20.645,20.645,0,1,1,128,210.581,20.669,20.669,0,0,1,148.645,231.226Zm16.512-37.161v-8.258a4.13,4.13,0,0,1,4.129-4.129h22.57l7.027,10.549,6.871-4.579L198.193,176.3l0-19.4a8.27,8.27,0,0,1,8.175-8.254h.161a8.268,8.268,0,0,1,8.184,8.25V185.8a12.4,12.4,0,0,1-12.387,12.387l-33.032,0A4.132,4.132,0,0,1,165.157,194.065Zm25.6-42.075a16.275,16.275,0,0,0-.83,4.91l0,16.52H173.762A27.476,27.476,0,0,1,190.762,151.99Zm-34.437,26.69,1.817,1.817a12.263,12.263,0,0,0-1.243,5.31v8.258a12.246,12.246,0,0,0,.76,4.129H144.516a8.267,8.267,0,0,1-8.258-8.258,4.13,4.13,0,0,1,4.129-4.129h6.681l3.06-6.115A4.007,4.007,0,0,1,156.325,178.68ZM115.613,156.9h8.258v8.258h-8.258Zm-16.516,0h8.258V173.42h24.774V156.9h8.258v20.645A12.4,12.4,0,0,0,128,189.936a16.35,16.35,0,0,0,2.3,8.258H99.1Zm-49.549,0h8.258v8.258H49.549Zm-16.516,0H41.29V173.42H66.064V156.9h8.258v41.29H33.033ZM8.258,231.226a24.8,24.8,0,0,1,24.775-24.774h5.834a28.822,28.822,0,0,0,0,49.548H33.033A24.8,24.8,0,0,1,8.258,231.226Zm239.484,0A24.8,24.8,0,0,1,222.967,256h-5.834a28.822,28.822,0,0,0,0-49.548h5.834a24.8,24.8,0,0,1,24.775,24.774Zm-45.42-90.839h-8.258a28.937,28.937,0,0,1-28.9-28.9V90.839h66.065v20.646A28.938,28.938,0,0,1,202.322,140.387Zm37.161-28.9V94.967a8.258,8.258,0,0,1,0,16.517Zm8.258-28.9h-99.1V74.322h99.1v8.258Z" transform="translate(0 -8.258)"/>
        <path id="Trazado_259150" data-name="Trazado 259150" d="M94.968,445.936a12.387,12.387,0,1,0-12.387-12.387A12.4,12.4,0,0,0,94.968,445.936Zm0-16.516a4.129,4.129,0,1,1-4.129,4.129A4.131,4.131,0,0,1,94.968,429.419Z" transform="translate(-41.291 -210.58)"/>
        <path id="Trazado_259151" data-name="Trazado 259151" d="M243.613,445.936a12.387,12.387,0,1,0-12.387-12.387A12.4,12.4,0,0,0,243.613,445.936Zm0-16.516a4.129,4.129,0,1,1-4.129,4.129A4.131,4.131,0,0,1,243.613,429.419Z" transform="translate(-115.613 -210.58)"/>
        <path id="Trazado_259152" data-name="Trazado 259152" d="M392.258,421.161a12.387,12.387,0,1,0,12.387,12.387A12.4,12.4,0,0,0,392.258,421.161Zm0,16.517a4.129,4.129,0,1,1,4.129-4.129A4.131,4.131,0,0,1,392.258,437.678Z" transform="translate(-189.936 -210.58)"/>
        <path id="Trazado_259153" data-name="Trazado 259153" d="M78.451,107.354a28.9,28.9,0,1,0-28.9-28.9A28.937,28.937,0,0,0,78.451,107.354Zm0-49.548A20.645,20.645,0,1,1,57.807,78.451,20.668,20.668,0,0,1,78.451,57.807Z" transform="translate(-24.774 -24.774)"/>
        <path id="Trazado_259154" data-name="Trazado 259154" d="M94.968,107.355A12.387,12.387,0,1,0,82.581,94.968,12.4,12.4,0,0,0,94.968,107.355Zm0-16.516a4.129,4.129,0,1,1-4.129,4.129A4.133,4.133,0,0,1,94.968,90.839Z" transform="translate(-41.291 -41.291)"/>
        <path id="Trazado_259155" data-name="Trazado 259155" d="M8.737,67.795a4.241,4.241,0,0,1,2.671,2.469c.211.541.43,1.074.661,1.607a4.252,4.252,0,0,1-.157,3.6,12.671,12.671,0,0,0,2.349,14.7l2.911,2.907a12.669,12.669,0,0,0,14.7,2.354,4.261,4.261,0,0,1,3.609-.157c.533.231,1.073.454,1.614.665a4.251,4.251,0,0,1,2.461,2.672,12.665,12.665,0,0,0,12.06,8.737h4.113a12.67,12.67,0,0,0,12.061-8.737,4.244,4.244,0,0,1,2.452-2.667c.549-.211,1.09-.434,1.627-.669a4.221,4.221,0,0,1,3.6.157,12.672,12.672,0,0,0,14.7-2.354l2.911-2.911a12.666,12.666,0,0,0,2.349-14.7,4.239,4.239,0,0,1-.152-3.613c.227-.529.446-1.061.661-1.61a4.235,4.235,0,0,1,2.675-2.461,12.663,12.663,0,0,0,8.729-12.057V51.621a12.678,12.678,0,0,0-8.737-12.06,4.24,4.24,0,0,1-2.672-2.47c-.211-.541-.43-1.073-.661-1.606a4.254,4.254,0,0,1,.157-3.6,12.679,12.679,0,0,0-2.349-14.708l-2.915-2.9a12.67,12.67,0,0,0-14.7-2.353,4.216,4.216,0,0,1-3.609.157c-.533-.231-1.074-.454-1.614-.665A4.251,4.251,0,0,1,67.79,8.737,12.656,12.656,0,0,0,55.734,0H51.621A12.671,12.671,0,0,0,39.56,8.737,4.241,4.241,0,0,1,37.107,11.4c-.549.21-1.086.434-1.622.665a4.223,4.223,0,0,1-3.6-.157,12.675,12.675,0,0,0-14.7,2.353l-2.915,2.911a12.672,12.672,0,0,0-2.345,14.7,4.239,4.239,0,0,1,.153,3.613c-.227.529-.446,1.061-.661,1.611a4.237,4.237,0,0,1-2.675,2.461A12.67,12.67,0,0,0,0,51.621v4.113A12.678,12.678,0,0,0,8.737,67.795ZM8.258,51.621a4.438,4.438,0,0,1,3.052-4.215A12.45,12.45,0,0,0,19.1,40.1c.177-.446.359-.891.549-1.329a12.483,12.483,0,0,0-.359-10.62,4.429,4.429,0,0,1,.818-5.136l2.911-2.907a4.425,4.425,0,0,1,5.136-.826,12.439,12.439,0,0,0,10.62.364c.434-.186.872-.368,1.321-.545a12.467,12.467,0,0,0,7.313-7.792,4.425,4.425,0,0,1,4.215-3.052h4.113a4.426,4.426,0,0,1,4.216,3.059,12.482,12.482,0,0,0,7.321,7.788c.442.173.879.351,1.309.537a12.468,12.468,0,0,0,10.62-.36,4.426,4.426,0,0,1,5.137.826l2.907,2.9a4.438,4.438,0,0,1,.822,5.145A12.489,12.489,0,0,0,87.7,38.771c.194.438.376.883.549,1.326a12.476,12.476,0,0,0,7.792,7.313A4.419,4.419,0,0,1,99.1,51.621v4.113a4.439,4.439,0,0,1-3.051,4.216,12.449,12.449,0,0,0-7.788,7.3c-.178.446-.359.892-.549,1.329a12.483,12.483,0,0,0,.359,10.62,4.429,4.429,0,0,1-.817,5.136L84.34,87.251a4.412,4.412,0,0,1-5.136.822,12.484,12.484,0,0,0-10.615-.36c-.434.186-.872.368-1.322.545a12.467,12.467,0,0,0-7.312,7.791,4.436,4.436,0,0,1-4.22,3.048H51.621a4.426,4.426,0,0,1-4.215-3.06,12.481,12.481,0,0,0-7.321-7.787c-.441-.174-.879-.351-1.309-.537a12.23,12.23,0,0,0-4.9-1.02,12.724,12.724,0,0,0-5.723,1.375,4.418,4.418,0,0,1-5.136-.826L20.1,84.336a4.435,4.435,0,0,1-.818-5.141,12.488,12.488,0,0,0,.364-10.616c-.194-.437-.376-.883-.549-1.326a12.477,12.477,0,0,0-7.792-7.313,4.411,4.411,0,0,1-3.052-4.207Z"/>
        <path id="Trazado_259156" data-name="Trazado 259156" d="M49.548,231.226h8.259v8.258H49.548Z" transform="translate(-24.774 -115.613)"/>
        <path id="Trazado_259157" data-name="Trazado 259157" d="M148.645,231.226H156.9v8.258h-8.258Z" transform="translate(-74.323 -115.613)"/>
        <path id="Trazado_259158" data-name="Trazado 259158" d="M82.581,231.226h8.258v8.258H82.581Z" transform="translate(-41.291 -115.613)"/>
        <path id="Trazado_259159" data-name="Trazado 259159" d="M115.613,231.226h8.258v8.258h-8.258Z" transform="translate(-57.807 -115.613)"/>
      </g>
    </g>
  </g>
</svg>
