<svg xmlns="http://www.w3.org/2000/svg" width="300.974" height="319.812" viewBox="0 0 300.974 319.812">
  <g id="Grupo_171672" data-name="Grupo 171672" transform="translate(-15.078)">
    <g id="Grupo_171648" data-name="Grupo 171648" transform="translate(78.314 4.685)">
      <path id="Trazado_259050" data-name="Trazado 259050" d="M318.353,7.5H119.438a3.123,3.123,0,0,0-3.123,3.123V97.215H136.8a15.306,15.306,0,0,1,1.068,30.576V146.78h0a6.242,6.242,0,0,1,5.3,6.166v38.773a6.242,6.242,0,0,1-5.3,6.166h0v18.989A15.306,15.306,0,0,1,136.8,247.45H116.315v25.633h43.106a6.246,6.246,0,0,1,6.246,6.246v12.445h4.759a6.246,6.246,0,0,1,6.246,6.246v19.921h144.8V10.623A3.124,3.124,0,0,0,318.353,7.5Z" transform="translate(-116.315 -7.5)" fill="#fff3de"/>
    </g>
    <g id="Grupo_171649" data-name="Grupo 171649" transform="translate(78.314 4.685)">
      <path id="Trazado_259051" data-name="Trazado 259051" d="M136.8,97.215c.187,0,.372.007.557.014V10.623A3.123,3.123,0,0,1,140.479,7.5H119.438a3.123,3.123,0,0,0-3.123,3.123V97.215Z" transform="translate(-116.315 -7.5)" fill="#ffe5c2"/>
      <path id="Trazado_259052" data-name="Trazado 259052" d="M136.8,391.641H116.315v25.633h21.041V391.627C137.17,391.633,136.985,391.641,136.8,391.641Z" transform="translate(-116.315 -151.689)" fill="#ffe5c2"/>
    </g>
    <g id="Grupo_171667" data-name="Grupo 171667" transform="translate(19.763 94.399)">
      <g id="Grupo_171650" data-name="Grupo 171650" transform="translate(85.398 64.438)">
        <path id="Trazado_259053" data-name="Trazado 259053" d="M159.3,254.29H188.21v21.361H159.3Z" transform="translate(-159.296 -254.29)" fill="#883f2e"/>
        <path id="Trazado_259054" data-name="Trazado 259054" d="M237.5,254.29h41.3v21.361H237.5Z" transform="translate(-188.652 -254.29)" fill="#883f2e"/>
      </g>
      <g id="Grupo_171651" data-name="Grupo 171651" transform="translate(85.398 75.5)">
        <path id="Trazado_259055" data-name="Trazado 259055" d="M159.3,272H188.21v10.3H159.3Z" transform="translate(-159.296 -272)" fill="#6d3326"/>
        <path id="Trazado_259056" data-name="Trazado 259056" d="M237.5,272h41.3v10.3H237.5Z" transform="translate(-188.652 -272)" fill="#6d3326"/>
      </g>
      <g id="Grupo_171652" data-name="Grupo 171652" transform="translate(175.545 59.454)">
        <path id="Trazado_259057" data-name="Trazado 259057" d="M419.676,261.975a15.665,15.665,0,0,1-15.665,15.664H307.176a3.56,3.56,0,0,1-3.56-3.56V249.87a3.56,3.56,0,0,1,3.56-3.56h96.835A15.666,15.666,0,0,1,419.676,261.975Z" transform="translate(-303.616 -246.31)" fill="#ca6e59"/>
      </g>
      <g id="Grupo_171653" data-name="Grupo 171653" transform="translate(175.545 59.454)">
        <path id="Trazado_259058" data-name="Trazado 259058" d="M324.905,264.231a3.56,3.56,0,0,1-3.56-3.56V246.31H307.176a3.56,3.56,0,0,0-3.56,3.56v24.209a3.56,3.56,0,0,0,3.56,3.56h96.835a15.666,15.666,0,0,0,15.5-13.409Z" transform="translate(-303.616 -246.31)" fill="#bb5d4c"/>
      </g>
      <g id="Grupo_171654" data-name="Grupo 171654" transform="translate(114.312 59.454)">
        <path id="Trazado_259059" data-name="Trazado 259059" d="M225.521,249.434v25.083a3.124,3.124,0,0,1-3.123,3.123h-13.69a3.124,3.124,0,0,1-3.123-3.123V249.434a3.124,3.124,0,0,1,3.123-3.123H222.4a3.123,3.123,0,0,1,3.123,3.123Z" transform="translate(-205.585 -246.311)" fill="#ca6e59"/>
      </g>
      <g id="Grupo_171655" data-name="Grupo 171655" transform="translate(114.312 59.454)">
        <path id="Trazado_259060" data-name="Trazado 259060" d="M214.641,274.517V249.434a3.124,3.124,0,0,1,3.123-3.123h-9.056a3.124,3.124,0,0,0-3.123,3.123v25.083a3.124,3.124,0,0,0,3.123,3.123h9.056A3.123,3.123,0,0,1,214.641,274.517Z" transform="translate(-205.585 -246.311)" fill="#bb5d4c"/>
      </g>
      <g id="Grupo_171656" data-name="Grupo 171656" transform="translate(38.805 30.576)">
        <path id="Trazado_259061" data-name="Trazado 259061" d="M125.05,312.377h-39.4a6.275,6.275,0,0,1-.951-.08v18.989c.354-.024.708-.041,1.068-.041h39.161c.359,0,.715.017,1.068.041V312.3A6.2,6.2,0,0,1,125.05,312.377Z" transform="translate(-84.703 -242.201)" fill="#883f2e"/>
        <path id="Trazado_259062" data-name="Trazado 259062" d="M85.654,312.377a6.275,6.275,0,0,1-.951-.08v18.989c.354-.024.708-.041,1.068-.041h14.661V312.376H85.654Z" transform="translate(-84.703 -242.201)" fill="#6d3326"/>
        <path id="Trazado_259063" data-name="Trazado 259063" d="M85.654,218.988h39.4a6.277,6.277,0,0,1,.951.08V200.079c-.354.024-.709.041-1.068.041H85.771c-.359,0-.715-.017-1.068-.041v18.989A6.277,6.277,0,0,1,85.654,218.988Z" transform="translate(-84.703 -200.078)" fill="#883f2e"/>
        <path id="Trazado_259064" data-name="Trazado 259064" d="M85.654,218.988h14.779V200.119H85.771c-.359,0-.715-.017-1.068-.041v18.989a6.361,6.361,0,0,1,.951-.079Z" transform="translate(-84.703 -200.078)" fill="#6d3326"/>
      </g>
      <g id="Grupo_171657" data-name="Grupo 171657" transform="translate(33.51 49.486)">
        <path id="Trazado_259065" data-name="Trazado 259065" d="M128.114,236.6v38.773a6.246,6.246,0,0,1-6.246,6.246h-39.4a6.246,6.246,0,0,1-6.246-6.246V236.6a6.246,6.246,0,0,1,6.246-6.246h39.4a6.246,6.246,0,0,1,6.246,6.246Z" transform="translate(-76.225 -230.352)" fill="#ca6e59"/>
      </g>
      <g id="Grupo_171658" data-name="Grupo 171658" transform="translate(33.51 49.486)">
        <path id="Trazado_259066" data-name="Trazado 259066" d="M97.322,275.371V236.6a6.246,6.246,0,0,1,6.246-6.246h-21.1a6.246,6.246,0,0,0-6.246,6.246v38.773a6.246,6.246,0,0,0,6.246,6.246h21.1A6.246,6.246,0,0,1,97.322,275.371Z" transform="translate(-76.225 -230.352)" fill="#bb5d4c"/>
      </g>
      <g id="Grupo_171661" data-name="Grupo 171661" transform="translate(0 175.869)">
        <path id="Trazado_259067" data-name="Trazado 259067" d="M137.062,452a6.389,6.389,0,0,0,.032-.641V438.931a6.246,6.246,0,0,0-6.246-6.246H46.441a6.246,6.246,0,0,0-6.246,6.246V451.36a6.389,6.389,0,0,0,.032.641Z" transform="translate(-29.191 -432.685)" fill="#ca6e59"/>
        <path id="Trazado_259068" data-name="Trazado 259068" d="M61.343,452a6.388,6.388,0,0,1-.032-.641V438.931a6.246,6.246,0,0,1,6.246-6.246H46.441a6.246,6.246,0,0,0-6.246,6.246V451.36a6.389,6.389,0,0,0,.032.641Z" transform="translate(-29.191 -432.685)" fill="#bb5d4c"/>
        <g id="Grupo_171659" data-name="Grupo 171659" transform="translate(0 18.691)">
          <path id="Trazado_259069" data-name="Trazado 259069" d="M141.486,488.775H25.7a3.124,3.124,0,0,1-3.123-3.123v-16.8a6.246,6.246,0,0,1,6.246-6.246H135.24a6.246,6.246,0,0,1,6.246,6.246Z" transform="translate(-22.578 -462.608)" fill="#883f2e"/>
        </g>
        <g id="Grupo_171660" data-name="Grupo 171660" transform="translate(0 18.691)">
          <path id="Trazado_259070" data-name="Trazado 259070" d="M43.454,485.652v-16.8a6.246,6.246,0,0,1,6.246-6.246H28.824a6.246,6.246,0,0,0-6.246,6.246v16.8a3.124,3.124,0,0,0,3.123,3.123H46.578A3.124,3.124,0,0,1,43.454,485.652Z" transform="translate(-22.578 -462.608)" fill="#6d3326"/>
        </g>
      </g>
      <g id="Grupo_171666" data-name="Grupo 171666" transform="translate(24.565)">
        <g id="Grupo_171662" data-name="Grupo 171662" transform="translate(0 119.62)">
          <path id="Trazado_259071" data-name="Trazado 259071" d="M131.683,357.941a15.309,15.309,0,0,1-15.308,15.308H77.213a15.308,15.308,0,1,1,0-30.617h39.161A15.309,15.309,0,0,1,131.683,357.941Z" transform="translate(-61.905 -342.633)" fill="#ca6e59"/>
        </g>
        <g id="Grupo_171663" data-name="Grupo 171663" transform="translate(0 119.62)">
          <path id="Trazado_259072" data-name="Trazado 259072" d="M82.758,357.941a15.309,15.309,0,0,1,15.308-15.308H77.213a15.308,15.308,0,1,0,0,30.617H98.066A15.309,15.309,0,0,1,82.758,357.941Z" transform="translate(-61.905 -342.633)" fill="#bb5d4c"/>
        </g>
        <g id="Grupo_171664" data-name="Grupo 171664">
          <path id="Trazado_259073" data-name="Trazado 259073" d="M131.683,166.436a15.309,15.309,0,0,1-15.308,15.308H77.213a15.308,15.308,0,1,1,0-30.617h39.161A15.309,15.309,0,0,1,131.683,166.436Z" transform="translate(-61.905 -151.128)" fill="#ca6e59"/>
        </g>
        <g id="Grupo_171665" data-name="Grupo 171665">
          <path id="Trazado_259074" data-name="Trazado 259074" d="M82.758,166.436a15.309,15.309,0,0,1,15.308-15.308H77.213a15.308,15.308,0,1,0,0,30.617H98.066A15.308,15.308,0,0,1,82.758,166.436Z" transform="translate(-61.905 -151.128)" fill="#bb5d4c"/>
        </g>
      </g>
    </g>
    <g id="Grupo_171670" data-name="Grupo 171670" transform="translate(137.065 33.797)">
      <g id="Grupo_171668" data-name="Grupo 171668">
        <circle id="Elipse_6289" data-name="Elipse 6289" cx="43.83" cy="43.83" r="43.83" fill="#4fc123"/>
      </g>
      <g id="Grupo_171669" data-name="Grupo 171669" transform="translate(0 0)">
        <path id="Trazado_259075" data-name="Trazado 259075" d="M231.377,97.937A43.841,43.841,0,0,1,264.7,55.382a43.83,43.83,0,1,0,0,85.109,43.842,43.842,0,0,1-33.327-42.554Z" transform="translate(-210.372 -54.107)" fill="#47a920"/>
      </g>
    </g>
    <g id="Grupo_171671" data-name="Grupo 171671" transform="translate(15.078)">
      <path id="Trazado_259076" data-name="Trazado 259076" d="M295.7,149.169h-7.543V68.085a4.685,4.685,0,0,0-4.828-4.683,4.815,4.815,0,0,0-4.541,4.879v80.887h-31.4a4.685,4.685,0,0,0,0,9.369H295.7a10.98,10.98,0,1,1,0,21.96h-95.71v-21.96H225.53a4.685,4.685,0,0,0,0-9.369H198.868a8.255,8.255,0,0,0-7.569,4.984h-33.14a7.814,7.814,0,0,0-7.271-4.984H137.2a7.815,7.815,0,0,0-7.271,4.984H109.846v-4.021a10.924,10.924,0,0,0-5.3-9.349V128.853A19.992,19.992,0,0,0,98.8,89.714H83V9.369H278.791V46.223a4.685,4.685,0,0,0,4.828,4.683,4.815,4.815,0,0,0,4.541-4.879V7.808A7.808,7.808,0,0,0,280.352,0H81.436a7.808,7.808,0,0,0-7.808,7.808V89.715H59.636a19.992,19.992,0,0,0-5.753,39.139v11.929a10.924,10.924,0,0,0-5.3,9.349V188.9a10.924,10.924,0,0,0,5.3,9.349v11.929a19.992,19.992,0,0,0,5.753,39.139H73.628v16.264H37.013a10.944,10.944,0,0,0-10.931,10.931v7.76h-.073a10.944,10.944,0,0,0-10.931,10.931V312a7.816,7.816,0,0,0,7.808,7.808H280.352A7.808,7.808,0,0,0,288.16,312V189.867H295.7a20.349,20.349,0,0,0,0-40.7ZM158.7,163.522h31.928v11.991H158.7Zm-19.936-4.984h10.567V180.5H138.759Zm-28.914,4.984H129.39v11.991H109.846ZM49.012,109.708A10.636,10.636,0,0,1,59.636,99.084H98.8a10.624,10.624,0,1,1,0,21.247H59.636A10.635,10.635,0,0,1,49.012,109.708Zm10.506,80.758a1.563,1.563,0,0,1-1.562-1.562V150.132a1.563,1.563,0,0,1,1.562-1.562h39.4a1.563,1.563,0,0,1,1.562,1.562V188.9a1.563,1.563,0,0,1-1.562,1.562Zm35.661,9.369v9.5H63.253v-9.5ZM63.253,139.2v-9.5H95.18v9.5ZM59.636,239.952a10.624,10.624,0,1,1,0-21.247H98.8a10.624,10.624,0,1,1,0,21.247Zm74.35,70.49H24.447V295.206a1.563,1.563,0,0,1,1.562-1.562h29a4.685,4.685,0,0,0,0-9.37H35.452v-7.76a1.563,1.563,0,0,1,1.562-1.562H121.42a1.563,1.563,0,0,1,1.562,1.562v7.76H76.868a4.685,4.685,0,0,0,0,9.37h55.557a1.563,1.563,0,0,1,1.562,1.562Zm144.805,0H143.355V295.206a10.944,10.944,0,0,0-10.931-10.931h-.074v-7.76a10.944,10.944,0,0,0-10.931-10.931H83V249.321H98.8a19.992,19.992,0,0,0,5.752-39.139V198.252a10.924,10.924,0,0,0,5.3-9.349v-4.021h20.081a7.814,7.814,0,0,0,7.271,4.984h13.69a7.815,7.815,0,0,0,7.271-4.984H191.3a8.255,8.255,0,0,0,7.569,4.984h79.922V310.442Z" transform="translate(-15.078)"/>
      <path id="Trazado_259077" data-name="Trazado 259077" d="M202.872,95.122a48.515,48.515,0,1,0,48.515-48.515,48.569,48.569,0,0,0-48.515,48.515Zm87.66,0a39.145,39.145,0,1,1-39.145-39.145A39.189,39.189,0,0,1,290.532,95.122Z" transform="translate(-85.57 -17.495)"/>
      <path id="Trazado_259078" data-name="Trazado 259078" d="M254.341,110.457a4.685,4.685,0,0,0-6.625,6.625l14.41,14.41a4.685,4.685,0,0,0,6.626,0l22.336-22.336a4.685,4.685,0,1,0-6.625-6.625l-19.023,19.023Z" transform="translate(-101.888 -37.972)"/>
      <path id="Trazado_259079" data-name="Trazado 259079" d="M243.681,331.754a4.684,4.684,0,0,0,4.685,4.685h86.155a4.685,4.685,0,1,0,0-9.37H248.366A4.684,4.684,0,0,0,243.681,331.754Z" transform="translate(-100.888 -122.771)"/>
      <path id="Trazado_259080" data-name="Trazado 259080" d="M359.6,363.546H315.185a4.685,4.685,0,0,0,0,9.369H359.6a4.685,4.685,0,0,0,0-9.369Z" transform="translate(-125.97 -136.464)"/>
      <path id="Trazado_259081" data-name="Trazado 259081" d="M248.366,372.915h25.5a4.685,4.685,0,0,0,0-9.369h-25.5a4.685,4.685,0,1,0,0,9.369Z" transform="translate(-100.888 -136.464)"/>
      <path id="Trazado_259082" data-name="Trazado 259082" d="M334.52,400.023H248.365a4.685,4.685,0,1,0,0,9.369H334.52a4.685,4.685,0,1,0,0-9.369Z" transform="translate(-100.888 -150.156)"/>
      <path id="Trazado_259083" data-name="Trazado 259083" d="M372.74,436.5H350.185a4.685,4.685,0,1,0,0,9.369H372.74a4.685,4.685,0,1,0,0-9.369Z" transform="translate(-139.108 -163.848)"/>
      <path id="Trazado_259084" data-name="Trazado 259084" d="M297.6,436.5H248.366a4.685,4.685,0,1,0,0,9.369H297.6a4.685,4.685,0,0,0,0-9.369Z" transform="translate(-100.888 -163.848)"/>
    </g>
  </g>
</svg>
