<svg xmlns="http://www.w3.org/2000/svg" width="105" height="104.997" viewBox="0 0 105 104.997">
  <g id="Grupo_173342" data-name="Grupo 173342" transform="translate(0 -0.007)">
    <g id="Grupo_173340" data-name="Grupo 173340" transform="translate(1.539 1.543)">
      <g id="Grupo_173335" data-name="Grupo 173335">
        <path id="Trazado_259544" data-name="Trazado 259544" d="M42.189,36.457h-26.6A8.087,8.087,0,0,1,7.5,28.37V15.59A8.087,8.087,0,0,1,15.591,7.5h26.6a8.087,8.087,0,0,1,8.087,8.087V28.37A8.088,8.088,0,0,1,42.189,36.457Z" transform="translate(-7.504 -7.502)" fill="#81af1d"/>
        <path id="Trazado_259545" data-name="Trazado 259545" d="M21.529,36.453H15.592A8.089,8.089,0,0,1,7.5,28.365V15.587A8.089,8.089,0,0,1,15.592,7.5h5.937a8.089,8.089,0,0,0-8.088,8.088V28.365A8.089,8.089,0,0,0,21.529,36.453Z" transform="translate(-7.504 -7.499)" fill="#678c17"/>
      </g>
      <g id="Grupo_173336" data-name="Grupo 173336" transform="translate(59.15 72.968)">
        <path id="Trazado_259546" data-name="Trazado 259546" d="M330.617,392.263h-26.6a8.087,8.087,0,0,1-8.087-8.087V371.4a8.087,8.087,0,0,1,8.087-8.087h26.6A8.087,8.087,0,0,1,338.7,371.4v12.78A8.088,8.088,0,0,1,330.617,392.263Z" transform="translate(-295.932 -363.308)" fill="#5000c7"/>
        <path id="Trazado_259547" data-name="Trazado 259547" d="M309.957,392.26H304.02a8.089,8.089,0,0,1-8.088-8.088V371.394a8.089,8.089,0,0,1,8.088-8.088h5.937a8.089,8.089,0,0,0-8.088,8.088v12.778A8.089,8.089,0,0,0,309.957,392.26Z" transform="translate(-295.932 -363.306)" fill="#40009f"/>
      </g>
      <g id="Grupo_173337" data-name="Grupo 173337" transform="translate(29.575 36.484)">
        <path id="Trazado_259548" data-name="Trazado 259548" d="M186.4,214.36h-26.6a8.087,8.087,0,0,1-8.087-8.087v-12.78a8.087,8.087,0,0,1,8.087-8.087h26.6a8.087,8.087,0,0,1,8.087,8.087v12.78A8.088,8.088,0,0,1,186.4,214.36Z" transform="translate(-151.718 -185.405)" fill="#e2872c"/>
        <path id="Trazado_259549" data-name="Trazado 259549" d="M165.743,214.356h-5.937a8.089,8.089,0,0,1-8.088-8.088V193.49a8.089,8.089,0,0,1,8.088-8.088h5.937a8.089,8.089,0,0,0-8.088,8.088v12.778A8.089,8.089,0,0,0,165.743,214.356Z" transform="translate(-151.718 -185.402)" fill="#b46c23"/>
      </g>
      <g id="Grupo_173338" data-name="Grupo 173338" transform="translate(0 36.439)">
        <path id="Trazado_259550" data-name="Trazado 259550" d="M17.119,202.973l.158-1.512a21.638,21.638,0,0,1-9.529-11.189,3.761,3.761,0,1,1,7.038-2.658,14.2,14.2,0,0,0,3.4,5.185l.045-.427a2.554,2.554,0,0,1,4.04-1.8l8.625,6.258a2.554,2.554,0,0,1-.459,4.4L20.7,205.57A2.554,2.554,0,0,1,17.119,202.973Z" transform="translate(-7.505 -185.182)" fill="#e53935"/>
      </g>
      <g id="Grupo_173339" data-name="Grupo 173339" transform="translate(29.575 73.42)">
        <path id="Trazado_259551" data-name="Trazado 259551" d="M161.333,383.3l.158-1.512a21.638,21.638,0,0,1-9.529-11.189A3.761,3.761,0,1,1,159,367.943a14.2,14.2,0,0,0,3.4,5.185l.045-.427a2.554,2.554,0,0,1,4.04-1.8l8.625,6.258a2.554,2.554,0,0,1-.459,4.4l-9.732,4.342a2.554,2.554,0,0,1-3.58-2.6Z" transform="translate(-151.719 -365.509)" fill="#e53935"/>
      </g>
    </g>
    <g id="Grupo_173341" data-name="Grupo 173341" transform="translate(0 0.007)">
      <path id="Trazado_259552" data-name="Trazado 259552" d="M9.636,32.037h26.6a9.636,9.636,0,0,0,9.625-9.625V9.632A9.636,9.636,0,0,0,36.233.007H9.636A9.636,9.636,0,0,0,.011,9.632v12.78A9.636,9.636,0,0,0,9.636,32.037ZM3.087,9.632A6.556,6.556,0,0,1,9.636,3.083h26.6a6.556,6.556,0,0,1,6.549,6.549v12.78a6.556,6.556,0,0,1-6.549,6.549H9.636a6.556,6.556,0,0,1-6.549-6.549Z" transform="translate(-0.009 -0.007)"/>
      <path id="Trazado_259553" data-name="Trazado 259553" d="M324.655,355.8h-26.6a9.637,9.637,0,0,0-9.626,9.626v12.778a9.637,9.637,0,0,0,9.626,9.626h19.562a1.538,1.538,0,1,0,0-3.076H298.059a6.557,6.557,0,0,1-6.55-6.55V365.431a6.557,6.557,0,0,1,6.55-6.55h26.6a6.557,6.557,0,0,1,6.55,6.55v12.778a6.557,6.557,0,0,1-6.55,6.55h-.882a1.538,1.538,0,0,0,0,3.076h.882a9.637,9.637,0,0,0,9.626-9.626V365.431A9.637,9.637,0,0,0,324.655,355.8Z" transform="translate(-229.282 -282.839)"/>
      <path id="Trazado_259554" data-name="Trazado 259554" d="M144.223,187.533v12.78a9.636,9.636,0,0,0,9.625,9.625h26.6a9.636,9.636,0,0,0,9.625-9.625v-12.78a9.636,9.636,0,0,0-9.625-9.625h-26.6a9.636,9.636,0,0,0-9.625,9.625Zm42.772,0v12.78a6.556,6.556,0,0,1-6.549,6.549h-26.6a6.556,6.556,0,0,1-6.549-6.549v-12.78a6.556,6.556,0,0,1,6.549-6.549h26.6a6.556,6.556,0,0,1,6.549,6.549Z" transform="translate(-114.646 -141.424)"/>
      <path id="Trazado_259555" data-name="Trazado 259555" d="M25.83,189.625,17.2,183.368a4.051,4.051,0,0,0-4.069-.426,4.1,4.1,0,0,0-1.382,1,12.682,12.682,0,0,1-1.493-2.829,5.3,5.3,0,1,0-9.916,3.745,23.357,23.357,0,0,0,2.8,5.265,1.538,1.538,0,1,0,2.509-1.78,20.289,20.289,0,0,1-2.428-4.571,2.223,2.223,0,0,1,4.16-1.572,15.64,15.64,0,0,0,3.764,5.747,1.538,1.538,0,0,0,2.6-.95l.042-.422a1.016,1.016,0,0,1,1.607-.716l8.625,6.257a1.016,1.016,0,0,1-.183,1.75l-9.731,4.341a1.015,1.015,0,0,1-1.424-1.032l.158-1.511a1.538,1.538,0,0,0-.766-1.495,20.275,20.275,0,0,1-2.508-1.694,1.538,1.538,0,1,0-1.909,2.412,23.156,23.156,0,0,0,2.022,1.431l-.056.538a4.1,4.1,0,0,0,4.06,4.523,4.111,4.111,0,0,0,1.678-.362l9.731-4.341a4.091,4.091,0,0,0,.736-7.049Z" transform="translate(0 -141.247)"/>
      <path id="Trazado_259556" data-name="Trazado 259556" d="M170.044,369.954l-8.625-6.258a4.05,4.05,0,0,0-4.069-.425,4.1,4.1,0,0,0-1.382,1,12.691,12.691,0,0,1-1.493-2.828,5.3,5.3,0,1,0-9.915,3.744,23.331,23.331,0,0,0,9.336,11.458l-.056.539a4.1,4.1,0,0,0,4.06,4.523,4.109,4.109,0,0,0,1.677-.361L169.309,377a4.091,4.091,0,0,0,.735-7.048Zm-1.393,3.417a1,1,0,0,1-.6.822l-9.731,4.342A1.016,1.016,0,0,1,156.9,377.5l.158-1.512a1.538,1.538,0,0,0-.766-1.495,20.232,20.232,0,0,1-8.854-10.4,2.223,2.223,0,1,1,4.16-1.571,15.65,15.65,0,0,0,3.763,5.746,1.538,1.538,0,0,0,2.6-.944l.044-.427a1.016,1.016,0,0,1,1.607-.717l8.625,6.258a1,1,0,0,1,.413.927Z" transform="translate(-114.64 -284.595)"/>
      <path id="Trazado_259557" data-name="Trazado 259557" d="M97.365,34.067H99.3V48.773a1.538,1.538,0,1,0,3.076,0V32.529a1.538,1.538,0,0,0-1.538-1.538H97.365a1.538,1.538,0,0,0,0,3.076Z" transform="translate(-76.175 -24.637)"/>
      <path id="Trazado_259558" data-name="Trazado 259558" d="M227.988,214.515a1.538,1.538,0,0,0,1.806-1.213,2.619,2.619,0,0,1,5.186.422l-.056.438a9.252,9.252,0,0,1-1.472,2.922c-2.577,3.681-4.114,5.7-4.941,6.777-1.01,1.322-1.388,1.817-1.119,2.688a1.616,1.616,0,0,0,1.052,1.063c.208.07.436.146,3.544.146,1.234,0,2.921-.012,5.24-.041a1.538,1.538,0,0,0-.039-3.076c-1.884.024-3.9.035-5.435.037.916-1.215,2.278-3.058,4.219-5.831a12.045,12.045,0,0,0,1.965-4.061,9.615,9.615,0,0,0,.12-.976,5.7,5.7,0,0,0-11.282-1.1,1.538,1.538,0,0,0,1.213,1.806Z" transform="translate(-180.245 -165.438)"/>
      <path id="Trazado_259559" data-name="Trazado 259559" d="M383.837,391.556a5.7,5.7,0,0,0-11.282-1.1,1.538,1.538,0,1,0,3.019.593,2.619,2.619,0,1,1,2.569,3.128,1.538,1.538,0,0,0,0,3.076,2.618,2.618,0,1,1-2.593,2.986,2.655,2.655,0,0,1-.025-.367,1.538,1.538,0,0,0-3.076,0,5.695,5.695,0,1,0,9.583-4.156,5.68,5.68,0,0,0,1.806-4.157Z" transform="translate(-296.067 -306.731)" fill="#fff"/>
    </g>
  </g>
</svg>
