<svg xmlns="http://www.w3.org/2000/svg" width="294.999" height="204.921" viewBox="0 0 294.999 204.921">
  <g id="Grupo_173996" data-name="Grupo 173996" transform="translate(-390 -1929.631)">
    <g id="Grupo_81566" data-name="Grupo 81566" transform="translate(-4575.245 1491.496)">
      <g id="Grupo_81437" data-name="Grupo 81437" transform="translate(5056.033 438.135)">
        <g id="Grupo_81428" data-name="Grupo 81428" transform="translate(0 0)">
          <path id="Trazado_115901" data-name="Trazado 115901" d="M5430.482,469.5c.874-17.268,12.534-32.44,31.307-31.307,17.259,1.041,31.307,14.017,31.307,31.307s-12.562,31.307-31.307,31.307C5444.5,500.809,5429.519,488.536,5430.482,469.5Z" transform="translate(-5430.438 -438.135)" fill="#e2872c"/>
        </g>
        <g id="Grupo_81429" data-name="Grupo 81429" transform="translate(3.106 3.107)">
          <path id="Trazado_115902" data-name="Trazado 115902" d="M5474.6,510.516a29.3,29.3,0,0,1-21.276-8.677,25.72,25.72,0,0,1-6.927-19.529l.086,0-.086,0c.447-8.828,4.018-16.856,9.8-22.027a24.711,24.711,0,0,1,18.412-6.173c16.075.97,28.2,13.093,28.2,28.2a28.413,28.413,0,0,1-7.77,19.942A28.051,28.051,0,0,1,5474.6,510.516Zm-1.748-56.288a24.316,24.316,0,0,0-16.545,6.182c-5.745,5.14-9.294,13.125-9.738,21.907a25.55,25.55,0,0,0,6.88,19.4,29.128,29.128,0,0,0,21.151,8.624,27.873,27.873,0,0,0,20.31-8.209,28.235,28.235,0,0,0,7.721-19.822c0-15.017-12.052-27.068-28.036-28.031C5474.006,454.246,5473.424,454.229,5472.849,454.229Z" transform="translate(-5446.354 -454.056)" fill="#291b16"/>
        </g>
        <g id="Grupo_81430" data-name="Grupo 81430" transform="translate(22.155 22.189)">
          <path id="Trazado_115903" data-name="Trazado 115903" d="M5552.518,568.942a8.877,8.877,0,0,1-6.445-2.63,7.8,7.8,0,0,1-2.1-5.922,9.579,9.579,0,0,1,2.968-6.671,7.464,7.464,0,0,1,5.584-1.872,8.729,8.729,0,0,1,8.542,8.546A8.267,8.267,0,0,1,5552.518,568.942Zm-8.46-8.548.085,0a7.632,7.632,0,0,0,2.054,5.8,8.706,8.706,0,0,0,6.321,2.576,8.1,8.1,0,0,0,8.375-8.376,8.559,8.559,0,0,0-8.38-8.374,7.351,7.351,0,0,0-5.458,1.829,9.406,9.406,0,0,0-2.911,6.549Z" transform="translate(-5543.959 -551.829)" fill="#291b16"/>
        </g>
        <g id="Grupo_81431" data-name="Grupo 81431" transform="translate(25.223 6.636)">
          <path id="Trazado_115904" data-name="Trazado 115904" d="M5562.138,483.047l-2.435-9.41a.619.619,0,0,1,.419-.748c1.463-.446,5.5-1.433,8.981-.008a.624.624,0,0,1,.381.669l-1.407,9.336a.62.62,0,0,1-.706.52,11.463,11.463,0,0,0-4.466.082A.615.615,0,0,1,5562.138,483.047Z" transform="translate(-5559.683 -472.138)" fill="#fff"/>
        </g>
        <g id="Grupo_81432" data-name="Grupo 81432" transform="translate(26.939 43.551)">
          <path id="Trazado_115905" data-name="Trazado 115905" d="M5575.827,661.755l2.436,9.41a.62.62,0,0,1-.42.748c-1.463.447-5.5,1.433-8.981.008a.625.625,0,0,1-.381-.669l1.407-9.336a.62.62,0,0,1,.706-.521,11.458,11.458,0,0,0,4.467-.082A.615.615,0,0,1,5575.827,661.755Z" transform="translate(-5568.473 -661.288)" fill="#fff"/>
        </g>
        <g id="Grupo_81433" data-name="Grupo 81433" transform="translate(40.237 13.05)">
          <path id="Trazado_115906" data-name="Trazado 115906" d="M5636.766,512.535l6.4-7.32a.621.621,0,0,1,.855-.076c1.194.956,4.286,3.733,5.074,7.411a.624.624,0,0,1-.338.692l-8.5,4.106a.62.62,0,0,1-.828-.289,11.465,11.465,0,0,0-2.587-3.641A.615.615,0,0,1,5636.766,512.535Z" transform="translate(-5636.611 -505.003)" fill="#fff"/>
        </g>
        <g id="Grupo_81434" data-name="Grupo 81434" transform="translate(9.929 36.105)">
          <path id="Trazado_115907" data-name="Trazado 115907" d="M5493.651,628.011l-6.4,7.32a.619.619,0,0,1-.854.076c-1.193-.956-4.286-3.733-5.074-7.411a.624.624,0,0,1,.338-.692l8.5-4.106a.62.62,0,0,1,.828.289,11.467,11.467,0,0,0,2.588,3.641A.616.616,0,0,1,5493.651,628.011Z" transform="translate(-5481.313 -623.136)" fill="#fff"/>
        </g>
        <g id="Grupo_81435" data-name="Grupo 81435" transform="translate(41.551 34.25)">
          <path id="Trazado_115908" data-name="Trazado 115908" d="M5646.314,613.653l9.418,2.406a.62.62,0,0,1,.453.729c-.314,1.5-1.4,5.51-4.326,7.871a.623.623,0,0,1-.77.011l-7.5-5.736a.621.621,0,0,1-.115-.869,11.451,11.451,0,0,0,2.083-3.952A.616.616,0,0,1,5646.314,613.653Z" transform="translate(-5643.347 -613.633)" fill="#fff"/>
        </g>
        <g id="Grupo_81436" data-name="Grupo 81436" transform="translate(8.255 16.148)">
          <path id="Trazado_115909" data-name="Trazado 115909" d="M5482.62,532.021l-9.418-2.406a.62.62,0,0,1-.453-.729c.314-1.5,1.4-5.509,4.326-7.871a.623.623,0,0,1,.77-.011l7.5,5.736a.621.621,0,0,1,.115.869,11.455,11.455,0,0,0-2.083,3.952A.615.615,0,0,1,5482.62,532.021Z" transform="translate(-5472.736 -520.876)" fill="#fff"/>
        </g>
      </g>
      <g id="Grupo_81438" data-name="Grupo 81438" transform="translate(4982.698 608.782)">
        <ellipse id="Elipse_4726" data-name="Elipse 4726" cx="136.354" cy="17.137" rx="136.354" ry="17.137" transform="translate(0)" fill="#e7d4e1"/>
      </g>
      <g id="Grupo_81455" data-name="Grupo 81455" transform="matrix(0.998, -0.07, 0.07, 0.998, 5146.48, 515.648)">
        <g id="Grupo_81439" data-name="Grupo 81439" transform="translate(11.699 6.158)" opacity="0.6">
          <path id="Trazado_115910" data-name="Trazado 115910" d="M0,48.65S30.138-7.832,45.158.922,16.576,34.3,8.323,51.016Z" transform="translate(0 0)" fill="#d3e3b0"/>
        </g>
        <g id="Grupo_81443" data-name="Grupo 81443" transform="translate(0 11.461)">
          <g id="Grupo_81440" data-name="Grupo 81440" transform="translate(0 0)">
            <path id="Trazado_115911" data-name="Trazado 115911" d="M0,50.926S62.048-15.4,83.5,3.333,29.837,37.9,12.525,57.818Z" fill="#d3e3b0"/>
          </g>
          <g id="Grupo_81442" data-name="Grupo 81442" transform="translate(6.415 10.813)">
            <g id="Grupo_81441" data-name="Grupo 81441">
              <path id="Trazado_115912" data-name="Trazado 115912" d="M.558,44.03c11.706-13.975,29.13-25.017,41.686-31.818A218.476,218.476,0,0,1,66.941.682L66.686,0A219.268,219.268,0,0,0,41.9,11.571C29.286,18.4,11.779,29.5,0,43.562Z" fill="#fff"/>
            </g>
          </g>
        </g>
        <g id="Grupo_81453" data-name="Grupo 81453" transform="translate(16.253 33.695)">
          <g id="Grupo_81445" data-name="Grupo 81445" transform="translate(0 0)">
            <g id="Grupo_81444" data-name="Grupo 81444">
              <path id="Trazado_115913" data-name="Trazado 115913" d="M74.373,34.178C64.145,36.4,65.863,51.888,54.2,49.028,44.339,46.6,43.509,45.7,40.1,48.541a16.107,16.107,0,0,0-3.026,3.389A9.511,9.511,0,0,1,31.092,56.2C12.8,59.433-12.242,32.409,6.826,17.477c1.377-1.078,3.382-1.495,5.6-1.846,12.046-1.894,15.806,3.632,25.28-10.577s22.383,6.133,30.461,5.407,15.2-3.157,21.5,5.4S84.6,31.959,74.373,34.178Z" fill="#d3e3b0"/>
            </g>
          </g>
          <g id="Grupo_81452" data-name="Grupo 81452" transform="translate(12.292 1.585)" opacity="0.5">
            <g id="Grupo_81447" data-name="Grupo 81447" transform="translate(0 16.704)">
              <g id="Grupo_81446" data-name="Grupo 81446">
                <path id="Trazado_115914" data-name="Trazado 115914" d="M.385,18.865,0,18.294C.252,18.124,25.782,1.3,78.833,0l.017.688C26,1.981.636,18.7.385,18.865Z" fill="#fff"/>
              </g>
            </g>
            <g id="Grupo_81449" data-name="Grupo 81449" transform="translate(25.08 3.39)">
              <g id="Grupo_81448" data-name="Grupo 81448">
                <path id="Trazado_115915" data-name="Trazado 115915" d="M8.29,11.656C1.286,5.365.049.367,0,.158L.67,0C.681.049,1.925,5.014,8.751,11.144Z" fill="#fff"/>
              </g>
            </g>
            <g id="Grupo_81451" data-name="Grupo 81451" transform="translate(33.235 0)">
              <g id="Grupo_81450" data-name="Grupo 81450" transform="translate(0)">
                <path id="Trazado_115916" data-name="Trazado 115916" d="M1.355,22.472c-1.97-3.463-1.789-8.456.523-14.44A46,46,0,0,1,5.973,0l.571.383C6.453.52-2.575,14.169,1.954,22.132Z" fill="#fff"/>
              </g>
            </g>
          </g>
        </g>
        <g id="Grupo_81454" data-name="Grupo 81454" transform="translate(70.333 0)">
          <path id="Trazado_115917" data-name="Trazado 115917" d="M2.19,1.256C3.534-.308,4.584-.215,5.386.475S6.439,2.188,5.1,3.752A7.88,7.88,0,0,1,.012,6.729,7.725,7.725,0,0,1,2.19,1.256Z" transform="translate(0)" fill="#d3e3b0"/>
        </g>
      </g>
      <g id="Grupo_81511" data-name="Grupo 81511" transform="translate(4965.245 445.095)">
        <g id="Grupo_81473" data-name="Grupo 81473" transform="translate(25.957 46.199)">
          <g id="Grupo_81472" data-name="Grupo 81472">
            <g id="Grupo_81456" data-name="Grupo 81456" transform="translate(26.286 11.901)">
              <path id="Trazado_115918" data-name="Trazado 115918" d="M5236.584,777.265c-1.481,1.746-2.475,1.795-3.16,1.214s-.8-1.57.682-3.316c2.7-3.18,5.239-3.666,5.239-3.666S5239.32,774.039,5236.584,777.265Z" transform="translate(-5232.939 -771.498)" fill="#d3e3b0"/>
            </g>
            <g id="Grupo_81471" data-name="Grupo 81471">
              <g id="Grupo_81458" data-name="Grupo 81458" transform="translate(9.39 25.098)">
                <g id="Grupo_81457" data-name="Grupo 81457">
                  <path id="Trazado_115919" data-name="Trazado 115919" d="M5183.6,882.456l-.42.107a59.616,59.616,0,0,0-7.082-15.091,84,84,0,0,0-29.731-27.979l.214-.376a84.417,84.417,0,0,1,29.893,28.141A60.036,60.036,0,0,1,5183.6,882.456Z" transform="translate(-5146.364 -839.117)" fill="#d3e3b0"/>
                </g>
              </g>
              <g id="Grupo_81460" data-name="Grupo 81460" transform="translate(19.177 8.093)">
                <g id="Grupo_81459" data-name="Grupo 81459">
                  <path id="Trazado_115920" data-name="Trazado 115920" d="M5203.544,781.282l-.421-.1c3.632-15.307-6.506-28.8-6.609-28.936l.344-.263C5196.962,752.119,5207.225,765.772,5203.544,781.282Z" transform="translate(-5196.514 -751.983)" fill="#d3e3b0"/>
                </g>
              </g>
              <g id="Grupo_81462" data-name="Grupo 81462" transform="translate(9.664 31.698)">
                <g id="Grupo_81461" data-name="Grupo 81461">
                  <path id="Trazado_115921" data-name="Trazado 115921" d="M5155.833,874.15a15.34,15.34,0,0,1-8.064.46l.11-.419a14.544,14.544,0,0,0,9.631-1.256l.207.38A12.726,12.726,0,0,1,5155.833,874.15Z" transform="translate(-5147.769 -872.935)" fill="#d3e3b0"/>
                </g>
              </g>
              <g id="Grupo_81464" data-name="Grupo 81464" transform="translate(0 21.517)">
                <g id="Grupo_81463" data-name="Grupo 81463">
                  <path id="Trazado_115922" data-name="Trazado 115922" d="M5106.569,822.542c2.846,1.194,3.411,2.22,3.064,3.047s-1.476,1.143-4.322-.052c-5.185-2.176-7.062-4.725-7.062-4.725S5101.309,820.334,5106.569,822.542Z" transform="translate(-5098.25 -820.768)" fill="#d3e3b0"/>
                </g>
              </g>
              <g id="Grupo_81466" data-name="Grupo 81466" transform="translate(1.845 31.551)">
                <g id="Grupo_81465" data-name="Grupo 81465">
                  <path id="Trazado_115923" data-name="Trazado 115923" d="M5116.156,872.3c3.073.281,3.922,1.088,3.841,1.982s-1.062,1.534-4.136,1.254c-5.6-.512-8.158-2.376-8.158-2.376S5110.475,871.778,5116.156,872.3Z" transform="translate(-5107.703 -872.18)" fill="#d3e3b0"/>
                </g>
              </g>
              <g id="Grupo_81468" data-name="Grupo 81468" transform="translate(14.929 20.59)">
                <g id="Grupo_81467" data-name="Grupo 81467">
                  <path id="Trazado_115924" data-name="Trazado 115924" d="M5179.446,820.363c1.229,1.931.981,2.9.224,3.378s-1.736.3-2.965-1.634c-2.238-3.518-1.949-6.09-1.949-6.09S5177.175,816.794,5179.446,820.363Z" transform="translate(-5174.744 -816.017)" fill="#d3e3b0"/>
                </g>
              </g>
              <g id="Grupo_81470" data-name="Grupo 81470" transform="translate(13.925)">
                <g id="Grupo_81469" data-name="Grupo 81469">
                  <path id="Trazado_115925" data-name="Trazado 115925" d="M5175.479,716.651c1.671,2.6,1.556,3.761.8,4.247s-1.863.107-3.534-2.489c-3.043-4.728-3.147-7.893-3.147-7.893S5172.392,711.853,5175.479,716.651Z" transform="translate(-5169.599 -710.516)" fill="#d3e3b0"/>
                </g>
              </g>
            </g>
          </g>
        </g>
        <g id="Grupo_81491" data-name="Grupo 81491" transform="translate(160.558)">
          <g id="Grupo_81490" data-name="Grupo 81490">
            <g id="Grupo_81474" data-name="Grupo 81474" transform="translate(0.242 10.943)">
              <path id="Trazado_115926" data-name="Trazado 115926" d="M5791.95,533.271c1.268.928,1.939.8,2.3.3s.282-1.175-.985-2.1a7.064,7.064,0,0,0-4.082-1.607A6.914,6.914,0,0,0,5791.95,533.271Z" transform="translate(-5789.185 -529.866)" fill="#d3e3b0"/>
            </g>
            <g id="Grupo_81489" data-name="Grupo 81489">
              <g id="Grupo_81476" data-name="Grupo 81476" transform="translate(0 16.051)">
                <g id="Grupo_81475" data-name="Grupo 81475">
                  <path id="Trazado_115927" data-name="Trazado 115927" d="M5787.943,590.875l.3,0a40.889,40.889,0,0,1,2.309-11.2,57.625,57.625,0,0,1,15.354-23.424l-.2-.217a57.9,57.9,0,0,0-15.436,23.558A41.158,41.158,0,0,0,5787.943,590.875Z" transform="translate(-5787.943 -556.038)" fill="#d3e3b0"/>
                </g>
              </g>
              <g id="Grupo_81478" data-name="Grupo 81478" transform="translate(6.382 6.294)">
                <g id="Grupo_81477" data-name="Grupo 81477">
                  <path id="Trazado_115928" data-name="Trazado 115928" d="M5822.91,526.662l.265-.134c-4.875-9.63-.271-20.255-.224-20.361l-.271-.121C5822.632,506.154,5817.971,516.9,5822.91,526.662Z" transform="translate(-5820.642 -506.046)" fill="#d3e3b0"/>
                </g>
              </g>
              <g id="Grupo_81480" data-name="Grupo 81480" transform="translate(12.198 21.319)">
                <g id="Grupo_81479" data-name="Grupo 81479">
                  <path id="Trazado_115929" data-name="Trazado 115929" d="M5851.835,584.276a10.524,10.524,0,0,0,5.453-.984l-.14-.262a9.978,9.978,0,0,1-6.626.7l-.077.287A8.765,8.765,0,0,0,5851.835,584.276Z" transform="translate(-5850.445 -583.03)" fill="#d3e3b0"/>
                </g>
              </g>
              <g id="Grupo_81482" data-name="Grupo 81482" transform="translate(16.617 12.153)">
                <g id="Grupo_81481" data-name="Grupo 81481">
                  <path id="Trazado_115930" data-name="Trazado 115930" d="M5874.8,538.553c-1.708,1.253-1.92,2.027-1.556,2.524s1.167.526,2.874-.726a11.93,11.93,0,0,0,3.955-4.283S5877.953,536.239,5874.8,538.553Z" transform="translate(-5873.09 -536.068)" fill="#d3e3b0"/>
                </g>
              </g>
              <g id="Grupo_81484" data-name="Grupo 81484" transform="translate(16.058 19.676)">
                <g id="Grupo_81483" data-name="Grupo 81483">
                  <path id="Trazado_115931" data-name="Trazado 115931" d="M5872.51,575.48c-2.006.679-2.442,1.354-2.245,1.937s.954.853,2.96.174a11.937,11.937,0,0,0,5.062-2.891S5876.216,574.224,5872.51,575.48Z" transform="translate(-5870.222 -574.612)" fill="#d3e3b0"/>
                </g>
              </g>
              <g id="Grupo_81486" data-name="Grupo 81486" transform="translate(10.787 13.898)">
                <g id="Grupo_81485" data-name="Grupo 81485">
                  <path id="Trazado_115932" data-name="Trazado 115932" d="M5843.468,548.655c-.511,1.485-.19,2.089.392,2.289s1.206-.079,1.716-1.564a7.065,7.065,0,0,0,.326-4.375A6.916,6.916,0,0,0,5843.468,548.655Z" transform="translate(-5843.212 -545.005)" fill="#d3e3b0"/>
                </g>
              </g>
              <g id="Grupo_81488" data-name="Grupo 81488" transform="translate(7.497)">
                <g id="Grupo_81487" data-name="Grupo 81487">
                  <path id="Trazado_115933" data-name="Trazado 115933" d="M5826.779,478.828c-.7,2-.436,2.758.146,2.961s1.259-.227,1.958-2.226a11.942,11.942,0,0,0,.836-5.769S5828.07,475.133,5826.779,478.828Z" transform="translate(-5826.36 -473.794)" fill="#d3e3b0"/>
                </g>
              </g>
            </g>
          </g>
        </g>
        <g id="Grupo_81492" data-name="Grupo 81492" transform="translate(37.835 91.003)">
          <path id="Trazado_115934" data-name="Trazado 115934" d="M5221.3,1007.142s-37.293-76.9-57.779-65.994,36.407,45.991,46.553,68.72Z" transform="translate(-5159.109 -940.09)" fill="#d3e3b0"/>
        </g>
        <g id="Grupo_81496" data-name="Grupo 81496" transform="translate(12.465 96.104)">
          <g id="Grupo_81493" data-name="Grupo 81493">
            <path id="Trazado_115935" data-name="Trazado 115935" d="M5097.36,1013.27s-45.731-58.667-64.606-44.968,41.227,32.143,53.882,49.667Z" transform="translate(-5029.116 -966.229)" fill="#d3e3b0"/>
          </g>
          <g id="Grupo_81495" data-name="Grupo 81495" transform="translate(11.31 8.941)">
            <g id="Grupo_81494" data-name="Grupo 81494">
              <path id="Trazado_115936" data-name="Trazado 115936" d="M5138.027,1052.823c-8.52-12.261-21.92-22.55-31.661-29.023a178.926,178.926,0,0,0-19.3-11.222l.258-.538A179.4,179.4,0,0,1,5106.7,1023.3c9.785,6.5,23.248,16.84,31.821,29.179Z" transform="translate(-5087.069 -1012.041)" fill="#fff"/>
            </g>
          </g>
        </g>
        <g id="Grupo_81510" data-name="Grupo 81510" transform="translate(0 122.519)">
          <g id="Grupo_81498" data-name="Grupo 81498">
            <g id="Grupo_81497" data-name="Grupo 81497">
              <path id="Trazado_115937" data-name="Trazado 115937" d="M4983.274,1137.412c11.225,3.3,8.073,20.423,21.3,18.167s12.213-3.174,18.053,2.926c0,0,2.037,5.633,7.14,6.917,20.133,5.063,50.212-23.065,30.147-41.234-1.45-1.312-3.652-1.937-6.1-2.5-13.278-3.074-17.911,2.786-27.339-13.811s-25.443,5.049-34.393,3.595-16.689-4.734-24.4,4.3S4972.048,1134.121,4983.274,1137.412Z" transform="translate(-4965.244 -1101.577)" fill="#d3e3b0"/>
            </g>
          </g>
          <g id="Grupo_81509" data-name="Grupo 81509" transform="translate(0.549 1.325)">
            <g id="Grupo_81500" data-name="Grupo 81500" transform="translate(0 15.457)">
              <g id="Grupo_81499" data-name="Grupo 81499">
                <path id="Trazado_115938" data-name="Trazado 115938" d="M5054.086,1214.866l.475-.605c-.267-.209-27.386-21.009-86.427-26.693l-.074.766C5026.879,1194,5053.82,1214.658,5054.086,1214.866Z" transform="translate(-4968.06 -1187.568)" fill="#fff"/>
              </g>
            </g>
            <g id="Grupo_81502" data-name="Grupo 81502" transform="translate(50.418 4.854)">
              <g id="Grupo_81501" data-name="Grupo 81501">
                <path id="Trazado_115939" data-name="Trazado 115939" d="M5226.873,1145.624c8.312-6.453,10.089-11.927,10.161-12.157l-.734-.229c-.017.054-1.8,5.49-9.9,11.778Z" transform="translate(-5226.401 -1133.238)" fill="#fff"/>
              </g>
            </g>
            <g id="Grupo_81504" data-name="Grupo 81504" transform="translate(44.916)">
              <g id="Grupo_81503" data-name="Grupo 81503">
                <path id="Trazado_115940" data-name="Trazado 115940" d="M5202.229,1133.787c2.473-3.7,2.67-9.285.571-16.141a51.362,51.362,0,0,0-3.925-9.281l-.667.381c.091.16,9.066,16.1,3.381,24.613Z" transform="translate(-5198.208 -1108.366)" fill="#fff"/>
              </g>
            </g>
            <g id="Grupo_81506" data-name="Grupo 81506" transform="translate(7.384 21.179)">
              <g id="Grupo_81505" data-name="Grupo 81505">
                <path id="Trazado_115941" data-name="Trazado 115941" d="M5031.983,1218.664c.984-.709,1.523-1.178,1.547-1.2l-.51-.576c-.112.1-11.464,9.953-27.044,8.348l-.079.765C5018.452,1227.295,5028.313,1221.307,5031.983,1218.664Z" transform="translate(-5005.898 -1216.888)" fill="#fff"/>
              </g>
            </g>
            <g id="Grupo_81508" data-name="Grupo 81508" transform="translate(23.974 25.035)">
              <g id="Grupo_81507" data-name="Grupo 81507">
                <path id="Trazado_115942" data-name="Trazado 115942" d="M5091.438,1251.752a18.153,18.153,0,0,0,5.575-10.231,13.436,13.436,0,0,0-.026-4.878l-.748.182c.019.075,1.718,7.57-5.336,14.374Z" transform="translate(-5090.903 -1236.643)" fill="#fff"/>
              </g>
            </g>
          </g>
        </g>
      </g>
      <g id="Grupo_81517" data-name="Grupo 81517" transform="translate(5030.256 478.557)">
        <g id="Grupo_81514" data-name="Grupo 81514" transform="translate(52.238 104.836)">
          <g id="Grupo_81512" data-name="Grupo 81512" transform="translate(1.182)">
            <path id="Trazado_115943" data-name="Trazado 115943" d="M5633.175,1207.019v-24.587H5583.58v24.587c0,6.389-4.252,11.569-9.5,11.569h-2v3.174h72.585v-3.174h-2C5637.427,1218.588,5633.175,1213.409,5633.175,1207.019Z" transform="translate(-5572.085 -1182.433)" fill="#3e0099"/>
          </g>
          <g id="Grupo_81513" data-name="Grupo 81513" transform="translate(0 36.155)">
            <path id="Trazado_115944" data-name="Trazado 115944" d="M5639.39,1370.865h-71.775a1.588,1.588,0,0,1-1.587-1.587h0a1.588,1.588,0,0,1,1.587-1.587h71.775a1.587,1.587,0,0,1,1.587,1.587h0A1.588,1.588,0,0,1,5639.39,1370.865Z" transform="translate(-5566.027 -1367.691)" fill="#291b16"/>
          </g>
        </g>
        <g id="Grupo_81515" data-name="Grupo 81515" transform="translate(0 0)">
          <path id="Trazado_115945" data-name="Trazado 115945" d="M5472.555,765.185l-167.713-1.924a6.555,6.555,0,0,1-6.479-6.554V654.344a6.554,6.554,0,0,1,6.455-6.554l165.549-2.535a6.555,6.555,0,0,1,6.653,6.421l2.163,106.822A6.554,6.554,0,0,1,5472.555,765.185Z" transform="translate(-5298.362 -645.254)" fill="#5000c7"/>
        </g>
        <g id="Grupo_81516" data-name="Grupo 81516" transform="translate(6.499 10.312)">
          <rect id="Rectángulo_33989" data-name="Rectángulo 33989" width="165.527" height="89.318" rx="18.012" fill="#fff"/>
        </g>
      </g>
      <g id="Grupo_81526" data-name="Grupo 81526" transform="translate(5075.506 497.945)">
        <g id="Grupo_81518" data-name="Grupo 81518" transform="translate(0)">
          <path id="Trazado_115946" data-name="Trazado 115946" d="M5620.543,750.292v48.982a5.7,5.7,0,0,1-3.7,5.226,6.534,6.534,0,0,1-2.427.464h-78.059a6.6,6.6,0,0,1-2.081-.335,5.736,5.736,0,0,1-4.051-5.355V750.292a5.924,5.924,0,0,1,6.132-5.693h78.059A5.925,5.925,0,0,1,5620.543,750.292Z" transform="translate(-5530.222 -744.599)" fill="#7b48c7"/>
        </g>
        <g id="Grupo_81521" data-name="Grupo 81521" transform="translate(30.245 10.016)">
          <g id="Grupo_81519" data-name="Grupo 81519" transform="translate(0 0.728)">
            <path id="Trazado_115947" data-name="Trazado 115947" d="M5688.246,840.448a3.046,3.046,0,0,1-1.469-.381,3.013,3.013,0,0,1-1.581-2.679l.062-34.684a3.049,3.049,0,0,1,4.7-2.559l27.029,17.39a3.05,3.05,0,0,1-.008,5.135l-27.093,17.295A3.043,3.043,0,0,1,5688.246,840.448Zm-2.9-37.744h.091l-.062,34.684a2.865,2.865,0,0,0,4.408,2.421l27.092-17.295a2.865,2.865,0,0,0,.009-4.824l-27.029-17.39a2.865,2.865,0,0,0-4.418,2.4Z" transform="translate(-5685.196 -799.654)" fill="#291b16"/>
          </g>
          <g id="Grupo_81520" data-name="Grupo 81520" transform="translate(1.17)">
            <path id="Trazado_115948" data-name="Trazado 115948" d="M5691.193,798.788v33.556a2.86,2.86,0,0,0,4.4,2.408l26.179-16.778a2.861,2.861,0,0,0,0-4.817L5695.6,796.379A2.86,2.86,0,0,0,5691.193,798.788Z" transform="translate(-5691.193 -795.922)" fill="#fff"/>
          </g>
        </g>
        <g id="Grupo_81525" data-name="Grupo 81525" transform="translate(0 66.013)">
          <g id="Grupo_81522" data-name="Grupo 81522" transform="translate(0 1.502)">
            <path id="Trazado_115949" data-name="Trazado 115949" d="M5618.6,1091.911a1.364,1.364,0,0,1-1.359,1.367l-30.707.206-54.939.369a1.368,1.368,0,0,1-1.37-1.5l.057-.574a1.367,1.367,0,0,1,1.361-1.232h85.588A1.367,1.367,0,0,1,5618.6,1091.911Z" transform="translate(-5530.221 -1090.543)" fill="#d3e3b0"/>
          </g>
          <g id="Grupo_81523" data-name="Grupo 81523" transform="translate(0 1.502)">
            <path id="Trazado_115950" data-name="Trazado 115950" d="M5586.537,1093.483l-54.939.369a1.368,1.368,0,0,1-1.37-1.5l.057-.574a1.367,1.367,0,0,1,1.361-1.232H5585.7Z" transform="translate(-5530.221 -1090.543)" fill="#7b48c7"/>
          </g>
          <g id="Grupo_81524" data-name="Grupo 81524" transform="translate(53.146)">
            <path id="Trazado_115951" data-name="Trazado 115951" d="M5802.539,1085.514a2.666,2.666,0,1,1,2.667,2.666A2.667,2.667,0,0,1,5802.539,1085.514Z" transform="translate(-5802.539 -1082.847)" fill="#291b16"/>
          </g>
        </g>
      </g>
      <g id="Grupo_81551" data-name="Grupo 81551" transform="translate(5134.637 583.336)">
        <g id="Grupo_81547" data-name="Grupo 81547" transform="translate(0 6.996)">
          <g id="Grupo_81527" data-name="Grupo 81527">
            <path id="Trazado_115952" data-name="Trazado 115952" d="M5894.479,1218.075s-19.358-2.082-28.56,14.047c-7.779,13.635-22.835,8.607-27.3,6.726a1.152,1.152,0,0,0-1.576.824l-3.811,18.135a1.15,1.15,0,0,0,.789,1.338c3.955,1.21,18.867,5.17,31.313.461,14.488-5.482,14.44-19.1,29.147-16.892Z" transform="translate(-5833.205 -1217.987)" fill="#291b16"/>
          </g>
          <g id="Grupo_81528" data-name="Grupo 81528" transform="translate(5.327 22.938)">
            <rect id="Rectángulo_33990" data-name="Rectángulo 33990" width="3.465" height="3.464" rx="1.732" transform="matrix(0.946, 0.325, -0.325, 0.946, 1.127, 0)" fill="#fff"/>
          </g>
          <g id="Grupo_81529" data-name="Grupo 81529" transform="translate(3.43 36.423)">
            <path id="Trazado_115953" data-name="Trazado 115953" d="M5853.249,1408.465l-1.887-.457a.762.762,0,0,1-.562-.92l.458-1.886a.762.762,0,0,1,.92-.561l1.886.457a.762.762,0,0,1,.561.92l-.457,1.886A.763.763,0,0,1,5853.249,1408.465Z" transform="translate(-5850.779 -1404.619)" fill="#fff"/>
          </g>
          <g id="Grupo_81530" data-name="Grupo 81530" transform="translate(11.089 37.695)">
            <rect id="Rectángulo_33991" data-name="Rectángulo 33991" width="3.465" height="3.465" rx="1.732" transform="translate(0.289 0) rotate(4.788)" fill="#fff"/>
          </g>
          <g id="Grupo_81531" data-name="Grupo 81531" transform="translate(19.197 37.798)">
            <path id="Trazado_115954" data-name="Trazado 115954" d="M5934.374,1415.125l-1.94.073a.762.762,0,0,1-.79-.733l-.073-1.94a.762.762,0,0,1,.732-.79l1.94-.073a.762.762,0,0,1,.79.732l.072,1.94A.762.762,0,0,1,5934.374,1415.125Z" transform="translate(-5931.57 -1411.662)" fill="#fff"/>
          </g>
          <g id="Grupo_81532" data-name="Grupo 81532" transform="translate(26.57 36.379)">
            <path id="Trazado_115955" data-name="Trazado 115955" d="M5972.773,1407.731l-1.852.581a.763.763,0,0,1-.956-.5l-.581-1.852a.763.763,0,0,1,.5-.955l1.853-.581a.762.762,0,0,1,.955.5l.581,1.852A.762.762,0,0,1,5972.773,1407.731Z" transform="translate(-5969.351 -1404.39)" fill="#fff"/>
          </g>
          <g id="Grupo_81533" data-name="Grupo 81533" transform="translate(33.557 32.531)">
            <path id="Rectángulo_33992" data-name="Rectángulo 33992" d="M1.732,0h0A1.732,1.732,0,0,1,3.465,1.732v0A1.732,1.732,0,0,1,1.733,3.465h0A1.732,1.732,0,0,1,0,1.732v0A1.732,1.732,0,0,1,1.732,0Z" transform="translate(0 1.732) rotate(-29.999)" fill="#fff"/>
          </g>
          <g id="Grupo_81534" data-name="Grupo 81534" transform="translate(39.204 27.928)">
            <path id="Trazado_115956" data-name="Trazado 115956" d="M6038.159,1363.63l-1.276,1.462a.761.761,0,0,1-1.074.073l-1.463-1.276a.762.762,0,0,1-.073-1.075l1.276-1.462a.763.763,0,0,1,1.076-.073l1.462,1.276A.762.762,0,0,1,6038.159,1363.63Z" transform="translate(-6034.084 -1361.091)" fill="#fff"/>
          </g>
          <g id="Grupo_81535" data-name="Grupo 81535" transform="translate(43.782 22.72)">
            <path id="Rectángulo_33993" data-name="Rectángulo 33993" d="M1.733,0h0A1.732,1.732,0,0,1,3.465,1.732v0A1.732,1.732,0,0,1,1.733,3.465h0A1.732,1.732,0,0,1,0,1.733v0A1.733,1.733,0,0,1,1.733,0Z" transform="matrix(0.809, -0.588, 0.588, 0.809, 0, 2.036)" fill="#fff"/>
          </g>
          <g id="Grupo_81536" data-name="Grupo 81536" transform="translate(49.541 19.724)">
            <path id="Trazado_115957" data-name="Trazado 115957" d="M6090.615,1322.325l-1.8.716a.762.762,0,0,1-.989-.427l-.716-1.8a.761.761,0,0,1,.427-.989l1.8-.716a.762.762,0,0,1,.989.427l.717,1.8A.763.763,0,0,1,6090.615,1322.325Z" transform="translate(-6087.052 -1319.051)" fill="#fff"/>
          </g>
          <g id="Grupo_81537" data-name="Grupo 81537" transform="translate(56.191 18.609)">
            <path id="Trazado_115958" data-name="Trazado 115958" d="M6123.929,1316.8l-1.939.073a.761.761,0,0,1-.79-.733l-.073-1.94a.763.763,0,0,1,.733-.79l1.939-.073a.762.762,0,0,1,.79.733l.073,1.94A.762.762,0,0,1,6123.929,1316.8Z" transform="translate(-6121.126 -1313.337)" fill="#fff"/>
          </g>
          <g id="Grupo_81538" data-name="Grupo 81538" transform="translate(11.786 24.608)">
            <rect id="Rectángulo_33994" data-name="Rectángulo 33994" width="3.465" height="3.465" rx="1.732" transform="translate(0.289 0) rotate(4.788)" fill="#fff"/>
          </g>
          <g id="Grupo_81539" data-name="Grupo 81539" transform="translate(18.477 24.647)">
            <path id="Trazado_115959" data-name="Trazado 115959" d="M5930.862,1347.728l-1.93.21a.762.762,0,0,1-.84-.675l-.21-1.93a.763.763,0,0,1,.675-.84l1.93-.21a.762.762,0,0,1,.839.675l.21,1.93A.761.761,0,0,1,5930.862,1347.728Z" transform="translate(-5927.878 -1344.279)" fill="#fff"/>
          </g>
          <g id="Grupo_81540" data-name="Grupo 81540" transform="translate(24.562 22.566)">
            <path id="Rectángulo_33995" data-name="Rectángulo 33995" d="M1.732,0h0A1.732,1.732,0,0,1,3.465,1.732v0A1.732,1.732,0,0,1,1.732,3.465h0A1.732,1.732,0,0,1,0,1.732v0A1.732,1.732,0,0,1,1.732,0Z" transform="translate(0 1.278) rotate(-21.648)" fill="#fff"/>
          </g>
          <g id="Grupo_81541" data-name="Grupo 81541" transform="translate(30.235 18.703)">
            <path id="Trazado_115960" data-name="Trazado 115960" d="M5992.15,1316.565l-1.423,1.319a.762.762,0,0,1-1.077-.041l-1.319-1.424a.762.762,0,0,1,.042-1.076l1.423-1.319a.762.762,0,0,1,1.077.041l1.319,1.424A.762.762,0,0,1,5992.15,1316.565Z" transform="translate(-5988.127 -1313.82)" fill="#fff"/>
          </g>
          <g id="Grupo_81542" data-name="Grupo 81542" transform="translate(34.042 13.665)">
            <path id="Rectángulo_33996" data-name="Rectángulo 33996" d="M1.732,0h0A1.732,1.732,0,0,1,3.465,1.732v0A1.732,1.732,0,0,1,1.732,3.465h0A1.732,1.732,0,0,1,0,1.733v0A1.732,1.732,0,0,1,1.732,0Z" transform="translate(0 3.001) rotate(-60.001)" fill="#fff"/>
          </g>
          <g id="Grupo_81543" data-name="Grupo 81543" transform="translate(37.702 8.779)">
            <path id="Rectángulo_33997" data-name="Rectángulo 33997" d="M1.732,0h0A1.732,1.732,0,0,1,3.465,1.732v0A1.732,1.732,0,0,1,1.732,3.465h0A1.732,1.732,0,0,1,0,1.733v0A1.732,1.732,0,0,1,1.732,0Z" transform="matrix(0.734, -0.68, 0.68, 0.734, 0, 2.355)" fill="#fff"/>
          </g>
          <g id="Grupo_81544" data-name="Grupo 81544" transform="translate(43.872 4.696)">
            <path id="Trazado_115961" data-name="Trazado 115961" d="M6061.66,1245.264l-1.762.814a.762.762,0,0,1-1.011-.372l-.813-1.762a.762.762,0,0,1,.372-1.011l1.762-.814a.762.762,0,0,1,1.011.372l.813,1.762A.762.762,0,0,1,6061.66,1245.264Z" transform="translate(-6058.003 -1242.048)" fill="#fff"/>
          </g>
          <g id="Grupo_81545" data-name="Grupo 81545" transform="translate(49.629 2.253)">
            <path id="Rectángulo_33998" data-name="Rectángulo 33998" d="M1.732,0h0A1.732,1.732,0,0,1,3.465,1.732v0A1.732,1.732,0,0,1,1.733,3.465h0A1.732,1.732,0,0,1,0,1.732v0A1.732,1.732,0,0,1,1.732,0Z" transform="translate(0 0.727) rotate(-12.113)" fill="#fff"/>
          </g>
          <g id="Grupo_81546" data-name="Grupo 81546" transform="translate(55.969 1.759)">
            <path id="Trazado_115962" data-name="Trazado 115962" d="M6122.792,1230.462l-1.939.073a.761.761,0,0,1-.79-.733l-.073-1.94a.763.763,0,0,1,.733-.79l1.939-.073a.762.762,0,0,1,.79.733l.072,1.939A.761.761,0,0,1,6122.792,1230.462Z" transform="translate(-6119.989 -1226.999)" fill="#fff"/>
          </g>
        </g>
        <g id="Grupo_81548" data-name="Grupo 81548" transform="translate(60.627 0)">
          <path id="Rectángulo_33999" data-name="Rectángulo 33999" d="M11.522,0h0A11.523,11.523,0,0,1,23.045,11.523v15.51A11.523,11.523,0,0,1,11.522,38.556h0A11.522,11.522,0,0,1,0,27.034V11.522A11.522,11.522,0,0,1,11.522,0Z" fill="#e2872c"/>
        </g>
        <g id="Grupo_81549" data-name="Grupo 81549" transform="translate(60.627 0)">
          <path id="Trazado_115963" data-name="Trazado 115963" d="M6166.9,1185.276v1.174h-23.045v-1.174a3.138,3.138,0,0,1,3.138-3.136h16.771A3.138,3.138,0,0,1,6166.9,1185.276Z" transform="translate(-6143.855 -1182.14)" fill="#291b16"/>
        </g>
        <g id="Grupo_81550" data-name="Grupo 81550" transform="translate(60.627 33.455)">
          <path id="Trazado_115964" data-name="Trazado 115964" d="M6166.9,1353.562v1.964a3.137,3.137,0,0,1-3.136,3.137h-16.771a3.137,3.137,0,0,1-3.138-3.137v-1.964Z" transform="translate(-6143.855 -1353.562)" fill="#291b16"/>
        </g>
      </g>
      <g id="Grupo_81565" data-name="Grupo 81565" transform="translate(4997.483 593.994)">
        <g id="Grupo_81552" data-name="Grupo 81552" transform="translate(9.183 0.984)">
          <path id="Trazado_115965" data-name="Trazado 115965" d="M5183.043,1251.951l-5.559-.365,5.176-9.788,3.167,1.374Z" transform="translate(-5177.484 -1241.798)" fill="#291b16"/>
        </g>
        <g id="Grupo_81553" data-name="Grupo 81553" transform="translate(51.512 19.307)">
          <rect id="Rectángulo_34000" data-name="Rectángulo 34000" width="5.594" height="9.012" fill="#0f0a37"/>
        </g>
        <g id="Grupo_81554" data-name="Grupo 81554" transform="translate(48.427 11.753)">
          <path id="Trazado_115966" data-name="Trazado 115966" d="M5392.549,1297.046l-11.573,2.986a2.18,2.18,0,0,0-1.631,1.977l-.77,12.535c-.07,1.137.9.7,2.027.86l12.609,3.2a2.181,2.181,0,0,0,2.479-2.212l-.417-17.29A2.18,2.18,0,0,0,5392.549,1297.046Z" transform="translate(-5378.571 -1296.976)" fill="#291b16"/>
        </g>
        <g id="Grupo_81555" data-name="Grupo 81555" transform="translate(6.79)">
          <path id="Trazado_115967" data-name="Trazado 115967" d="M5179.7,1237l-14.075-.246-.4,4.851,15.092-.409c.1,0,1.441-.1,1.441-1.026v-2.053C5181.755,1237.135,5179.8,1237,5179.7,1237Z" transform="translate(-5165.222 -1236.754)" fill="#5000c7"/>
        </g>
        <g id="Grupo_81556" data-name="Grupo 81556" transform="translate(18.755 9.319)">
          <path id="Trazado_115968" data-name="Trazado 115968" d="M5257.291,1286.008l-30.759-1.5,1.52,27.093,26.818-2.227a6.342,6.342,0,0,0,5.817-6.32v-13.479A3.571,3.571,0,0,0,5257.291,1286.008Z" transform="translate(-5226.532 -1284.507)" fill="#7b48c7"/>
        </g>
        <g id="Grupo_81557" data-name="Grupo 81557" transform="translate(47.316 12.354)">
          <path id="Trazado_115969" data-name="Trazado 115969" d="M5374.86,1301.044a.991.991,0,1,0-.991.991A.991.991,0,0,0,5374.86,1301.044Z" transform="translate(-5372.878 -1300.054)" fill="#291b16"/>
        </g>
        <g id="Grupo_81558" data-name="Grupo 81558" transform="translate(42.888 12.354)">
          <path id="Trazado_115970" data-name="Trazado 115970" d="M5352.17,1301.044a.99.99,0,1,0-.99.991A.991.991,0,0,0,5352.17,1301.044Z" transform="translate(-5350.189 -1300.054)" fill="#291b16"/>
        </g>
        <g id="Grupo_81559" data-name="Grupo 81559" transform="translate(37.946 12.354)">
          <path id="Trazado_115971" data-name="Trazado 115971" d="M5326.848,1301.044a.99.99,0,1,0-.991.991A.991.991,0,0,0,5326.848,1301.044Z" transform="translate(-5324.867 -1300.054)" fill="#291b16"/>
        </g>
        <g id="Grupo_81560" data-name="Grupo 81560" transform="translate(0 9.319)">
          <path id="Trazado_115972" data-name="Trazado 115972" d="M5149.187,1284.507h-13.945a2.275,2.275,0,0,0-2.259,2.008l-2.535,21.46a2.275,2.275,0,0,0,2.1,2.536l17.245,1.211a2.275,2.275,0,0,0,2.433-2.347l-.766-22.671A2.275,2.275,0,0,0,5149.187,1284.507Z" transform="translate(-5130.432 -1284.507)" fill="#5000c7"/>
        </g>
        <g id="Grupo_81561" data-name="Grupo 81561" transform="translate(1.376)">
          <path id="Trazado_115973" data-name="Trazado 115973" d="M5142.9,1241.6l-3.293-.363a2.127,2.127,0,0,1-2.121-2.121h0a2.127,2.127,0,0,1,2.121-2.12l3.692-.246c1.166,0,1.844.895,1.671,2.344C5144.74,1241.005,5144.063,1241.6,5142.9,1241.6Z" transform="translate(-5137.483 -1236.754)" fill="#291b16"/>
        </g>
        <g id="Grupo_81562" data-name="Grupo 81562" transform="translate(2.255 0.653)">
          <path id="Trazado_115974" data-name="Trazado 115974" d="M5146.037,1243.711l-2.465-.27a1.587,1.587,0,0,1-1.586-1.578h0a1.587,1.587,0,0,1,1.586-1.578l2.764-.183c.873,0,1.38.666,1.251,1.744C5147.417,1243.265,5146.91,1243.711,5146.037,1243.711Z" transform="translate(-5141.986 -1240.101)" fill="#e2872c"/>
        </g>
        <g id="Grupo_81563" data-name="Grupo 81563" transform="translate(3.922 13.344)">
          <path id="Trazado_115975" data-name="Trazado 115975" d="M5151.179,1305.591l11.749-.46a1.282,1.282,0,0,1,1.331,1.214l.219,4.192a1.281,1.281,0,0,1-1.413,1.342l-11.388-1.187a1.281,1.281,0,0,1-1.146-1.35l.193-3.3A.475.475,0,0,1,5151.179,1305.591Z" transform="translate(-5150.528 -1305.13)" fill="#e2872c"/>
        </g>
        <g id="Grupo_81564" data-name="Grupo 81564" transform="translate(16.122 10.435)">
          <path id="Trazado_115976" data-name="Trazado 115976" d="M5214.444,1290.924a.7.7,0,1,0-.7.7A.7.7,0,0,0,5214.444,1290.924Z" transform="translate(-5213.039 -1290.222)" fill="#7b48c7"/>
        </g>
      </g>
    </g>
  </g>
</svg>
