<svg xmlns="http://www.w3.org/2000/svg" xmlns:xlink="http://www.w3.org/1999/xlink" width="418" height="364" viewBox="0 0 418 364">
  <defs>
    <filter id="Rect치ngulo_44644" x="0" y="0" width="418" height="364" filterUnits="userSpaceOnUse">
      <feOffset dy="3" input="SourceAlpha"/>
      <feGaussianBlur stdDeviation="3" result="blur"/>
      <feFlood flood-opacity="0.161"/>
      <feComposite operator="in" in2="blur"/>
      <feComposite in="SourceGraphic"/>
    </filter>
  </defs>
  <g id="Grupo_174008" data-name="Grupo 174008" transform="translate(-1011 -6578.656)">
    <g transform="matrix(1, 0, 0, 1, 1011, 6578.66)" filter="url(#Rect치ngulo_44644)">
      <rect id="Rect치ngulo_44644-2" data-name="Rect치ngulo 44644" width="400" height="346" rx="45" transform="translate(9 6)" fill="#fff"/>
    </g>
    <g id="Grupo_171751" data-name="Grupo 171751" transform="translate(1094 6631.654)">
      <g id="Grupo_171749" data-name="Grupo 171749" transform="translate(18.427 3.687)">
        <g id="Grupo_171747" data-name="Grupo 171747">
          <path id="Trazado_259228" data-name="Trazado 259228" d="M74.483,50.465C90.805,49.79,96.309,37.917,96.577,30.42H125.84a14.742,14.742,0,0,0,.235,29.481V74.818h14.741V50.464c5.477,2.2,10.9,1.767,16.3-.619a29.112,29.112,0,0,0,52.262,15.664,35,35,0,1,0-4.354-39.748,29.111,29.111,0,0,0-35.442-1.751A22.12,22.12,0,0,0,148.186,7.5H81.853A22.109,22.109,0,0,0,59.758,30.42,14.741,14.741,0,1,0,59.742,59.9V74.819H74.483Zm155.957,97a14.759,14.759,0,1,0-1-29.484A19.6,19.6,0,1,0,215.7,133.452a14.76,14.76,0,0,0,14.741,14.011Z" transform="translate(-41.316 -7.502)" fill="#ddddde" fill-rule="evenodd"/>
          <path id="Trazado_259229" data-name="Trazado 259229" d="M55.5,233.982h33.9L87.194,204.5H57.712Z" transform="translate(-46.656 -107.703)" fill="#717f98" fill-rule="evenodd"/>
          <path id="Trazado_259230" data-name="Trazado 259230" d="M37.5,321.39H89.094L80.249,203.463h-33.9ZM48.557,173.982H78.038V144.5H48.557Z" transform="translate(-37.501 -77.184)" fill="#717f98" fill-rule="evenodd"/>
          <path id="Trazado_259231" data-name="Trazado 259231" d="M136.779,428.2h14.74l5.528-73.7h-25.8Z" transform="translate(-85.186 -183.998)" fill="#b0c5e0" fill-rule="evenodd"/>
          <path id="Trazado_259232" data-name="Trazado 259232" d="M271.777,412.945h96.8V324.5L317.843,339V324.5l-51.594,14.741Z" transform="translate(-153.851 -168.739)" fill="#e5ecf5" fill-rule="evenodd"/>
          <path id="Trazado_259233" data-name="Trazado 259233" d="M55.5,233.982H66.557L68.768,204.5H57.712Z" transform="translate(-46.656 -107.703)" fill="#717f98" fill-rule="evenodd"/>
          <path id="Trazado_259234" data-name="Trazado 259234" d="M37.5,321.39H48.557L57.4,203.463H46.346ZM48.557,173.982H59.612V144.5H48.557Z" transform="translate(-37.501 -77.184)" fill="#717f98" fill-rule="evenodd"/>
          <path id="Trazado_259235" data-name="Trazado 259235" d="M37.5,321.39H89.094L80.249,203.463h-33.9Zm66.333,0h51.593l-8.845-117.927h-33.9ZM114.89,173.982h29.482V144.5H114.89Zm-66.333,0H78.038V144.5H48.557Z" transform="translate(-37.501 -77.184)" fill="#e08ea2" fill-rule="evenodd"/>
          <path id="Trazado_259236" data-name="Trazado 259236" d="M121.834,233.982h33.9L153.527,204.5H124.045Zm-66.333,0H89.4L87.193,204.5H57.712Z" transform="translate(-46.656 -107.703)" fill="#e5ecf5" fill-rule="evenodd"/>
          <path id="Trazado_259237" data-name="Trazado 259237" d="M55.5,233.982H66.557L68.768,204.5H57.712Zm66.333,0H132.89L135.1,204.5H124.046Z" transform="translate(-46.656 -107.703)" fill="#717f98" fill-rule="evenodd"/>
          <path id="Trazado_259238" data-name="Trazado 259238" d="M37.5,321.39H48.557L57.4,203.463H46.346Zm66.333,0H114.89l8.845-117.927H112.679ZM114.89,173.982h11.056V144.5H114.89Zm-66.333,0H59.612V144.5H48.557Z" transform="translate(-37.501 -77.184)" fill="#d15573" fill-rule="evenodd"/>
          <path id="Trazado_259239" data-name="Trazado 259239" d="M271.777,424.68h11.056L277,347.9l-10.75,3.072Zm46.066,0H328.9V347.571l-11.056,3.158Z" transform="translate(-153.851 -180.474)" fill="#b0c5e0" fill-rule="evenodd"/>
          <path id="Trazado_259240" data-name="Trazado 259240" d="M141.334,94.28v11.056h14.741V94.28Zm89.584,32.084a19.605,19.605,0,1,0,.005,37.615,19.6,19.6,0,0,1-.005-37.615Zm-58.545-46a29.112,29.112,0,0,0,52.262,15.664A35.011,35.011,0,0,0,285.6,67.5c-4.678,29.49-46.125,34.772-60.968,13.785C214.387,104.531,183.194,102.329,172.373,80.364ZM75,105.337H89.742V94.281H75Z" transform="translate(-56.575 -38.02)" fill="#9a999d" fill-rule="evenodd"/>
        </g>
        <g id="Grupo_171748" data-name="Grupo 171748" transform="translate(22.111 20.269)">
          <path id="Trazado_259241" data-name="Trazado 259241" d="M156.2,114.225h-7.37v-7.37h7.37Zm-66.334,0H82.5v-7.37h7.37Zm179.715-58.1h-7.37v-7.37h7.37Z" transform="translate(-82.501 -48.752)" fill="#fff"/>
        </g>
      </g>
      <g id="Grupo_171750" data-name="Grupo 171750" transform="translate(0 0.002)">
        <path id="Trazado_259242" data-name="Trazado 259242" d="M236.836,244.207V154.563l-50.733,14.5v-14.5L134.161,169.4l-5.179-69.056V74.688h7.37v-7.37h-14.74V51.477a23.356,23.356,0,0,0,9.585-.495,32.88,32.88,0,0,0,32.076,25.94,32.512,32.512,0,0,0,23.375-9.784,38.693,38.693,0,0,0,56.317-52.777L237.238,19a30.968,30.968,0,0,1,6.969,19.7,31.323,31.323,0,0,1-54.941,20.576l-2.977-3.414-2.737,3.61A25.427,25.427,0,0,1,137.9,45.792l-.341-5.265-4.827,2.133a17.031,17.031,0,0,1-11.122,1.307V37.836h-7.37V67.317h-7.372V45.031H99.5v6.736a11.044,11.044,0,0,1-4.063-18.3,10.8,10.8,0,0,1,7.53-3.181h.234l.031-7.37h-33.1L70,26.473c-.19,5.286-3.594,14-14.727,16.071V35.595h-7.37V67.318H40.538V45.031h-7.37v6.736a11.044,11.044,0,0,1-4.063-18.3,10.833,10.833,0,0,1,7.732-3.181l3.853.033-.138-3.85a18.423,18.423,0,0,1,18.412-19.1H125.3a18.426,18.426,0,0,1,17.829,13.754l1.334,5.1,4.334-3.009a25.427,25.427,0,0,1,30.952,1.531l3.451,2.938,2.172-3.978a31.338,31.338,0,0,1,27.514-16.34,30.963,30.963,0,0,1,19.7,6.969l4.639-5.727A38.7,38.7,0,0,0,181.112,16.6a32.823,32.823,0,0,0-32.486-1.829A25.809,25.809,0,0,0,125.3,0H58.963A25.8,25.8,0,0,0,33.291,23.248a18.5,18.5,0,0,0-14.864,18.1A18.457,18.457,0,0,0,33.167,59.4v7.917H18.427v7.37H25.8v25.659L19.45,184.979l7.35.551,3.891-51.879H57.756l8.292,110.556H22.4l3.849-51.327-7.35-.551-3.891,51.878H0v7.37H251.578v-7.37Zm-7.37-79.873v79.873H186.1V176.723Zm-50.732,0v79.873H139.772l-5.047-67.3ZM132.38,244.207H88.732l8.292-110.556h27.066ZM99.5,74.688h22.111V96.8H99.5Zm-.266,29.482h22.643l1.658,22.111H97.577ZM55.279,74.688V96.8H33.167V74.688ZM31.243,126.281,32.9,104.17H55.545L57.2,126.281ZM55.279,67.318V50c12.94-1.858,19.977-10.716,21.691-19.713H88.455A18.415,18.415,0,0,0,99.5,59.4v7.917H84.76v7.37h7.37v25.659L86.868,170.5H67.911l-5.262-70.156V74.689h7.37v-7.37H55.279ZM68.464,177.874H86.316l-4.975,66.333h-7.9Z" transform="translate(0 -0.002)"/>
        <path id="Trazado_259243" data-name="Trazado 259243" d="M380.228,201.324a23.262,23.262,0,1,0-20.7,23.3,18.452,18.452,0,1,0,20.7-23.3ZM377.261,230.6a11.06,11.06,0,0,1-11.06-10.51l-.234-4.681-4.494,1.331a15.912,15.912,0,1,1,11.156-12.559l-.786,4.608,4.663-.311a11.074,11.074,0,1,1,.755,22.122Z" transform="translate(-169.71 -90.636)"/>
        <path id="Trazado_259244" data-name="Trazado 259244" d="M407,384h7.37v48.153H407Z" transform="translate(-207.015 -195.317)"/>
        <path id="Trazado_259245" data-name="Trazado 259245" d="M437,384h7.37v48.153H437Z" transform="translate(-222.274 -195.317)"/>
        <path id="Trazado_259246" data-name="Trazado 259246" d="M303.75,384h7.37v48.153h-7.37Z" transform="translate(-154.499 -195.317)"/>
        <path id="Trazado_259247" data-name="Trazado 259247" d="M333.75,384h7.37v48.153h-7.37Z" transform="translate(-169.758 -195.317)"/>
      </g>
    </g>
  </g>
</svg>
