<svg xmlns="http://www.w3.org/2000/svg" xmlns:xlink="http://www.w3.org/1999/xlink" width="418" height="364" viewBox="0 0 418 364">
  <defs>
    <filter id="Rect치ngulo_44610" x="0" y="0" width="418" height="364" filterUnits="userSpaceOnUse">
      <feOffset dy="3" input="SourceAlpha"/>
      <feGaussianBlur stdDeviation="3" result="blur"/>
      <feFlood flood-opacity="0.161"/>
      <feComposite operator="in" in2="blur"/>
      <feComposite in="SourceGraphic"/>
    </filter>
  </defs>
  <g id="Grupo_174004" data-name="Grupo 174004" transform="translate(-591 -5809.656)">
    <g transform="matrix(1, 0, 0, 1, 591, 5809.66)" filter="url(#Rect치ngulo_44610)">
      <rect id="Rect치ngulo_44610-2" data-name="Rect치ngulo 44610" width="400" height="346" rx="45" transform="translate(9 6)" fill="#fff"/>
    </g>
    <g id="Grupo_171738" data-name="Grupo 171738" transform="translate(625.408 5852.081)">
      <path id="Trazado_259160" data-name="Trazado 259160" d="M144.831,175.827s17.936,1.586,29.977,13.626,13.626,29.977,13.626,29.977S170.5,217.844,158.457,205.8,144.831,175.827,144.831,175.827Z" transform="translate(-30.209 -81.749)" fill="#d7fc7e"/>
      <path id="Trazado_259161" data-name="Trazado 259161" d="M164.624,199.638c-7.016-7.016-10.482-16.033-12.153-22.338a50.407,50.407,0,0,0-7.639-1.473s1.586,17.936,13.626,29.977,29.977,13.626,29.977,13.626a50.393,50.393,0,0,0-1.473-7.639c-6.3-1.671-15.322-5.137-22.337-12.152Z" transform="translate(-30.209 -81.749)" fill="#55e072"/>
      <path id="Trazado_259162" data-name="Trazado 259162" d="M337.216,320.116h52.323a8.72,8.72,0,0,0-8.72,8.72v43.6a8.72,8.72,0,0,0,8.72,8.721H337.216a8.72,8.72,0,0,0,8.72-8.721v-43.6A8.72,8.72,0,0,0,337.216,320.116Z" transform="translate(-117.948 -147.554)" fill="#d7fc7e"/>
      <path id="Trazado_259163" data-name="Trazado 259163" d="M418.785,381.16H401.344V320.116h17.441a8.718,8.718,0,0,0-8.72,8.72v43.6A8.718,8.718,0,0,0,418.785,381.16Z" transform="translate(-147.194 -147.554)" fill="#55e072"/>
      <path id="Trazado_259164" data-name="Trazado 259164" d="M345.936,155.3V111.7h.126c.681,4.9,4.077,11.08,9.516,16.519,8.617,8.612,19.087,12.105,23.4,7.8a7,7,0,0,0,1.842-5.123V155.3a8.718,8.718,0,0,0,8.72,8.72H337.216a8.718,8.718,0,0,0,8.72-8.72Z" transform="translate(-117.948 -52.503)" fill="#d7fc7e"/>
      <path id="Trazado_259165" data-name="Trazado 259165" d="M418.785,180.116H401.344V153.824c2.867.4,5.293-.125,6.879-1.711a7,7,0,0,0,1.842-5.123V171.4A8.718,8.718,0,0,0,418.785,180.116Z" transform="translate(-147.194 -68.598)" fill="#55e072"/>
      <path id="Trazado_259166" data-name="Trazado 259166" d="M337.216,207.894h52.323a8.72,8.72,0,0,0-8.72,8.72v43.6a8.72,8.72,0,0,0,8.72,8.72H337.216a8.72,8.72,0,0,0,8.72-8.72v-43.6A8.72,8.72,0,0,0,337.216,207.894Z" transform="translate(-117.948 -96.374)" fill="#ffe477"/>
      <path id="Trazado_259167" data-name="Trazado 259167" d="M418.785,268.935H401.344V207.891h17.441a8.722,8.722,0,0,0-8.72,8.72v43.6A8.718,8.718,0,0,0,418.785,268.935Z" transform="translate(-147.194 -96.373)" fill="#ffb655"/>
      <ellipse id="Elipse_6294" data-name="Elipse 6294" cx="11.027" cy="22.053" rx="11.027" ry="22.053" transform="translate(222.009 60.134) rotate(-45)" fill="#55e072"/>
      <path id="Trazado_259168" data-name="Trazado 259168" d="M261.282,296.068H208.959a8.72,8.72,0,0,1,8.72,8.72v61.043a8.72,8.72,0,0,1-8.72,8.721h52.323a8.72,8.72,0,0,1-8.72-8.721V304.788A8.72,8.72,0,0,1,261.282,296.068Z" transform="translate(-59.455 -136.586)" fill="#d7fc7e"/>
      <path id="Trazado_259169" data-name="Trazado 259169" d="M290.529,374.553H273.088V296.068h17.441a8.718,8.718,0,0,0-8.72,8.72v61.043A8.718,8.718,0,0,0,290.529,374.553Z" transform="translate(-88.702 -136.586)" fill="#55e072"/>
      <path id="Trazado_259170" data-name="Trazado 259170" d="M252.562,84.566V23.522h-.126c-.681,4.9-4.077,11.081-9.516,16.52-8.617,8.612-19.087,12.1-23.4,7.8a7,7,0,0,1-1.842-5.123V84.566a8.718,8.718,0,0,1-8.72,8.72h52.323A8.718,8.718,0,0,1,252.562,84.566Z" transform="translate(-59.455 -12.289)" fill="#d7fc7e"/>
      <path id="Trazado_259171" data-name="Trazado 259171" d="M290.529,93.286H273.088V39.093c4.9-5.2,7.952-10.955,8.595-15.571h.126V84.566A8.718,8.718,0,0,0,290.529,93.286Z" transform="translate(-88.702 -12.289)" fill="#55e072"/>
      <path id="Trazado_259172" data-name="Trazado 259172" d="M261.282,151.779H208.959a8.72,8.72,0,0,1,8.72,8.72v61.044a8.72,8.72,0,0,1-8.72,8.72h52.323a8.72,8.72,0,0,1-8.72-8.72V160.5A8.72,8.72,0,0,1,261.282,151.779Z" transform="translate(-59.455 -70.782)" fill="#ffe477"/>
      <path id="Trazado_259173" data-name="Trazado 259173" d="M290.529,230.264H273.088V151.779h17.441a8.718,8.718,0,0,0-8.72,8.72v61.044A8.718,8.718,0,0,0,290.529,230.264Z" transform="translate(-88.702 -70.782)" fill="#ffb655"/>
      <ellipse id="Elipse_6295" data-name="Elipse 6295" cx="22.053" cy="11.027" rx="22.053" ry="11.027" transform="translate(152.258 27.763) rotate(-45)" fill="#55e072"/>
      <path id="Trazado_259174" data-name="Trazado 259174" d="M244.983,445.992,178.3,379.312a10.526,10.526,0,0,0-14.887,0L96.735,445.992Z" transform="translate(-8.274 -173.144)" fill="#fff5cc"/>
      <path id="Trazado_259175" data-name="Trazado 259175" d="M234.967,379.312a10.525,10.525,0,0,0-13.984-.8,10.335,10.335,0,0,1,.9.8l66.681,66.681h13.081Z" transform="translate(-64.939 -173.144)" fill="#ffdaaa"/>
      <g id="Grupo_171726" data-name="Grupo 171726" transform="translate(78.592 -1.562)">
        <path id="Trazado_259176" data-name="Trazado 259176" d="M151.793,128.507c9.62,9.62,22.544,13.087,28.779,14.253v9.563a4.638,4.638,0,0,1-4.633,4.633v8.175a4.637,4.637,0,0,1,4.633,4.633v21.8h8.175v-21.8a12.741,12.741,0,0,0-.87-4.633h28.448a12.741,12.741,0,0,0-.87,4.633v39.242h8.175V169.764a4.638,4.638,0,0,1,4.633-4.633v-8.175a4.638,4.638,0,0,1-4.633-4.633V91.279a4.638,4.638,0,0,1,4.633-4.633V78.471a4.638,4.638,0,0,1-4.633-4.633V12.795h-.114c.414-3.917-.512-7.35-2.928-9.766-6.094-6.093-18.637-2.741-29.175,7.8-6.36,6.36-10.1,13.447-10.727,19.409h-.114v43.6a4.638,4.638,0,0,1-4.633,4.633v8.175a4.638,4.638,0,0,1,4.633,4.633V114.9a45.466,45.466,0,0,0-6.647-8.528c-12.943-12.943-31.714-14.738-32.508-14.807l-4.861-.43.43,4.861c.069.793,1.864,19.565,14.806,32.508Zm45.4-111.9c5.877-5.877,11.98-8.483,15.372-8.483a3.135,3.135,0,0,1,2.241.684c1.954,1.954-.159,9.975-7.8,17.613s-15.66,9.752-17.613,7.8a2.652,2.652,0,0,1-.648-1.6V31.248c.334-3.493,2.969-9.165,8.446-14.641Zm-8.446,57.231V42.724a13.52,13.52,0,0,0,2.874.307c6.29,0,14.17-3.829,21.168-10.827q1.421-1.422,2.665-2.886v44.52a12.742,12.742,0,0,0,.87,4.633H187.877a12.728,12.728,0,0,0,.871-4.633Zm27.577,12.808a12.741,12.741,0,0,0-.87,4.633v61.044a12.744,12.744,0,0,0,.87,4.633H187.877a12.744,12.744,0,0,0,.87-4.633V91.279a12.741,12.741,0,0,0-.87-4.633Zm-48.181,25.51c6.973,6.973,10.117,16.22,11.484,22.054-5.834-1.366-15.081-4.51-22.054-11.484-6.946-6.946-10.1-16.244-11.468-22.038,5.8,1.37,15.093,4.522,22.038,11.467Z" transform="translate(-105.027 0)"/>
        <path id="Trazado_259177" data-name="Trazado 259177" d="M389.54,157.384v-8.175a4.638,4.638,0,0,1-4.633-4.633V118.413h-.114c-.629-5.962-4.367-13.049-10.727-19.409-10.539-10.539-23.082-13.891-29.175-7.8-2.416,2.416-3.342,5.848-2.928,9.766h-.114v43.6a4.638,4.638,0,0,1-4.633,4.633v8.175a4.638,4.638,0,0,1,4.633,4.633v17.44h8.175v-17.44a12.744,12.744,0,0,0-.87-4.633H377.6a12.744,12.744,0,0,0-.87,4.633v43.6a12.744,12.744,0,0,0,.87,4.633H349.155a12.744,12.744,0,0,0,.87-4.633V188.177H341.85v17.441a4.638,4.638,0,0,1-4.633,4.633v8.175a4.638,4.638,0,0,1,4.633,4.633v43.6a4.638,4.638,0,0,1-4.633,4.633v8.176H389.54v-8.176a4.637,4.637,0,0,1-4.633-4.633v-43.6a4.638,4.638,0,0,1,4.633-4.633V210.25a4.638,4.638,0,0,1-4.633-4.633v-43.6a4.637,4.637,0,0,1,4.632-4.632Zm-38.867-60.4a3.129,3.129,0,0,1,2.241-.685c3.393,0,9.5,2.607,15.372,8.483,5.476,5.476,8.111,11.148,8.446,14.641V120.8a2.649,2.649,0,0,1-.648,1.6c-1.953,1.954-9.975-.159-17.613-7.8S348.718,98.94,350.672,96.986Zm-.648,47.589V117.495q1.245,1.461,2.665,2.886c7,7,14.878,10.827,21.168,10.827a13.555,13.555,0,0,0,2.874-.307v13.675a12.742,12.742,0,0,0,.87,4.633H349.154A12.736,12.736,0,0,0,350.025,144.576ZM377.6,271.294H349.154a12.742,12.742,0,0,0,.87-4.633v-43.6a12.742,12.742,0,0,0-.87-4.633H377.6a12.742,12.742,0,0,0-.87,4.633v43.6A12.74,12.74,0,0,0,377.6,271.294Z" transform="translate(-196.54 -40.214)"/>
        <path id="Trazado_259178" data-name="Trazado 259178" d="M162.585,368.713a14.519,14.519,0,0,0-10.334,4.281L78.592,446.653H246.578l-73.659-73.659a14.522,14.522,0,0,0-10.334-4.281ZM98.329,438.477l59.7-59.7a6.439,6.439,0,0,1,9.106,0l59.7,59.7Z" transform="translate(-78.592 -168.155)"/>
      </g>
      <g id="Grupo_171730" data-name="Grupo 171730" transform="translate(132.063 233.879)">
        <g id="Grupo_171727" data-name="Grupo 171727" transform="translate(0 13.081)">
          <path id="Trazado_259179" data-name="Trazado 259179" d="M176.9,456.89h8.72v8.175H176.9Z" transform="translate(-176.895 -456.89)" fill="#fff"/>
        </g>
        <g id="Grupo_171728" data-name="Grupo 171728" transform="translate(13.081)">
          <path id="Trazado_259180" data-name="Trazado 259180" d="M200.943,432.842h8.72v8.175h-8.72Z" transform="translate(-200.943 -432.842)" fill="#fff"/>
        </g>
        <g id="Grupo_171729" data-name="Grupo 171729" transform="translate(47.963 13.081)">
          <path id="Trazado_259181" data-name="Trazado 259181" d="M265.072,456.89h8.72v8.175h-8.72Z" transform="translate(-265.072 -456.89)" fill="#fff"/>
        </g>
      </g>
      <g id="Grupo_171732" data-name="Grupo 171732" transform="translate(241.069 137.953)">
        <g id="Grupo_171731" data-name="Grupo 171731">
          <path id="Trazado_259182" data-name="Trazado 259182" d="M377.3,256.49h8.72v8.176H377.3Z" transform="translate(-377.296 -256.49)" fill="#fff"/>
        </g>
      </g>
      <g id="Grupo_171737" data-name="Grupo 171737" transform="translate(171.306 107.431)">
        <g id="Grupo_171734" data-name="Grupo 171734">
          <g id="Grupo_171733" data-name="Grupo 171733">
            <path id="Trazado_259183" data-name="Trazado 259183" d="M249.04,200.376h8.72v8.175h-8.72Z" transform="translate(-249.04 -200.376)" fill="#fff"/>
          </g>
        </g>
        <g id="Grupo_171736" data-name="Grupo 171736" transform="translate(0 17.441)">
          <g id="Grupo_171735" data-name="Grupo 171735">
            <path id="Trazado_259184" data-name="Trazado 259184" d="M249.04,232.44h8.72v8.175h-8.72Z" transform="translate(-249.04 -232.44)" fill="#fff"/>
          </g>
        </g>
      </g>
    </g>
  </g>
</svg>
