<svg id="Grupo_173345" data-name="Grupo 173345" xmlns="http://www.w3.org/2000/svg" width="105" height="105" viewBox="0 0 105 105">
  <path id="Trazado_259560" data-name="Trazado 259560" d="M216.936,103.887a6.772,6.772,0,0,1-6.774,6.774,6.2,6.2,0,0,1-1.694-.22l-.322.068a20.387,20.387,0,0,0-5.673-10.924L200,97.113h40.645V48H252.5v55.887Z" transform="translate(-157.661 -37.839)" fill="#81af1d"/>
  <path id="Trazado_259561" data-name="Trazado 259561" d="M70.016,97.113v6.774H48V48H59.855V97.113Z" transform="translate(-37.839 -37.839)" fill="#81af1d"/>
  <g id="Grupo_173344" data-name="Grupo 173344" transform="translate(22.016 1.694)">
    <path id="Trazado_259562" data-name="Trazado 259562" d="M134.484,160v25.4H124.323V175.242a8.442,8.442,0,0,0-8.468-8.468,1.7,1.7,0,0,0-1.694,1.694V185.4H104V160Z" transform="translate(-104 -127.823)" fill="#e6e9ed"/>
    <path id="Trazado_259563" data-name="Trazado 259563" d="M248,38.484V21.548A13.545,13.545,0,0,1,261.548,8h16.935V65.581H248Z" transform="translate(-217.516 -8)" fill="#e6e9ed"/>
    <path id="Trazado_259564" data-name="Trazado 259564" d="M120.935,8a13.545,13.545,0,0,1,13.548,13.548V40.177H104V8Z" transform="translate(-104 -8)" fill="#e6e9ed"/>
  </g>
  <path id="Trazado_259565" data-name="Trazado 259565" d="M192,424v13.548h25.4V424Z" transform="translate(-151.355 -334.242)" fill="#e53935"/>
  <path id="Trazado_259566" data-name="Trazado 259566" d="M170.307,224.025l.322-.068a6.2,6.2,0,0,0,1.694.22A6.772,6.772,0,0,0,179.1,217.4h13.548v5.334a7.078,7.078,0,0,1-.576,2.76l-5.623,12.6a7.078,7.078,0,0,0-.576,2.76v.254h-25.4a6.975,6.975,0,0,0-.847-3.235l-6.774-12.159a6.844,6.844,0,0,1-.847-3.3V193.694A1.7,1.7,0,0,1,153.694,192a8.442,8.442,0,0,1,8.468,8.468v10.161l2.473,2.473A20.387,20.387,0,0,1,170.307,224.025Z" transform="translate(-119.823 -151.355)" fill="#f0d0b4"/>
  <path id="Trazado_259567" data-name="Trazado 259567" d="M67.742,101.613V89.5a5.03,5.03,0,0,1,.438-2.063l5.606-12.613a8.443,8.443,0,0,0,.73-3.442V67.742H96.532V8.468H84.677V0H66.048A15.259,15.259,0,0,0,52.5,8.263,15.259,15.259,0,0,0,38.952,0H20.323V8.468H8.468V67.742H30.484v3.326a8.5,8.5,0,0,0,1.065,4.112l6.764,12.173a5.091,5.091,0,0,1,.638,2.466v11.794H0V105H105v-3.387Zm25.4-89.758v52.5H57.581v1.694A5.087,5.087,0,0,1,52.5,71.129a4.878,4.878,0,0,1-.627-.079A21.943,21.943,0,0,0,46.39,60.968H84.677V11.855ZM23.71,3.387H38.952A11.869,11.869,0,0,1,50.806,15.242V28.79h3.387V15.242A11.869,11.869,0,0,1,66.048,3.387H81.29V57.581h-27.1v-25.4H50.806v25.4H44.032V49.113A10.171,10.171,0,0,0,33.871,38.952a3.391,3.391,0,0,0-3.387,3.387V57.581H23.71ZM11.855,64.355v-52.5h8.468V60.968H30.484v3.387Zm22.655,9.181a5.1,5.1,0,0,1-.638-2.468V42.339a6.781,6.781,0,0,1,6.774,6.774V59.976l2.977,2.977A18.624,18.624,0,0,1,49.113,76.21H52.5c0-.571-.04-1.134-.083-1.7.028,0,.055,0,.083,0a8.481,8.481,0,0,0,8.3-6.774H71.129v3.643a5.03,5.03,0,0,1-.438,2.063L65.085,86.061a8.471,8.471,0,0,0-.581,2H42.139a8.5,8.5,0,0,0-.865-2.358Zm7.829,24.69H57.581V94.839H42.339V91.452H64.355v3.387H60.968v3.387h3.387v3.387H42.339Z"/>
  <path id="Trazado_259568" data-name="Trazado 259568" d="M312,208h3.387v3.387H312Z" transform="translate(-245.952 -163.968)"/>
  <path id="Trazado_259569" data-name="Trazado 259569" d="M344,208h3.387v3.387H344Z" transform="translate(-271.177 -163.968)"/>
  <path id="Trazado_259570" data-name="Trazado 259570" d="M280,208h3.387v3.387H280Z" transform="translate(-220.726 -163.968)"/>
  <path id="Trazado_259571" data-name="Trazado 259571" d="M272,240h20.323v3.387H272Z" transform="translate(-214.419 -189.194)"/>
  <path id="Trazado_259572" data-name="Trazado 259572" d="M272,176h20.323v3.387H272Z" transform="translate(-214.419 -138.742)"/>
  <path id="Trazado_259573" data-name="Trazado 259573" d="M272,120h20.323v3.387H272Z" transform="translate(-214.419 -94.597)"/>
  <path id="Trazado_259574" data-name="Trazado 259574" d="M272,88h20.323v3.387H272Z" transform="translate(-214.419 -69.371)"/>
  <path id="Trazado_259575" data-name="Trazado 259575" d="M272,56h20.323v3.387H272Z" transform="translate(-214.419 -44.145)"/>
  <path id="Trazado_259576" data-name="Trazado 259576" d="M168,88h3.387v3.387H168Z" transform="translate(-132.436 -69.371)"/>
  <path id="Trazado_259577" data-name="Trazado 259577" d="M200,88h3.387v3.387H200Z" transform="translate(-157.661 -69.371)"/>
  <path id="Trazado_259578" data-name="Trazado 259578" d="M136,88h3.387v3.387H136Z" transform="translate(-107.21 -69.371)"/>
  <path id="Trazado_259579" data-name="Trazado 259579" d="M128,56h20.323v3.387H128Z" transform="translate(-100.903 -44.145)"/>
  <path id="Trazado_259580" data-name="Trazado 259580" d="M128,120h20.323v3.387H128Z" transform="translate(-100.903 -94.597)"/>
  <path id="Trazado_259581" data-name="Trazado 259581" d="M128,152h20.323v3.387H128Z" transform="translate(-100.903 -119.823)"/>
</svg>
