<svg xmlns="http://www.w3.org/2000/svg" width="672" height="509" viewBox="0 0 672 509">
  <g id="Grupo_173991" data-name="Grupo 173991" transform="translate(-705 -3324)">
    <rect id="Rectángulo_44600" data-name="Rectángulo 44600" width="672" height="509" rx="20" transform="translate(705 3324)" fill="#fff"/>
    <g id="Grupo_173987" data-name="Grupo 173987" transform="translate(25 -84)">
      <text id="Plantas_utilizadas_en_la_clarificación" data-name="Plantas utilizadas
en la clarificación" transform="translate(793 3665)" fill="#12263f" font-size="22" font-family="Roboto-Black, Roboto" font-weight="800" style="isolation: isolate"><tspan x="-88.424" y="0">Plantas utilizadas</tspan><tspan x="-87.968" y="28">en la clarificación</tspan></text>
      <text id="Balso" transform="translate(969 3464)" fill="#12263f" font-size="16" font-family="Roboto-Regular, Roboto" style="isolation: isolate"><tspan x="0" y="0">Balso</tspan></text>
      <text id="Cadillo_negro" data-name="Cadillo negro" transform="translate(969 3535)" fill="#12263f" font-size="16" font-family="Roboto-Regular, Roboto" style="isolation: isolate"><tspan x="0" y="0">Cadillo negro</tspan></text>
      <text id="Cadillo_blanco" data-name="Cadillo blanco" transform="translate(969 3606)" fill="#12263f" font-size="16" font-family="Roboto-Regular, Roboto" style="isolation: isolate"><tspan x="0" y="0">Cadillo blanco</tspan></text>
      <text id="Guásimo" transform="translate(969 3677)" fill="#12263f" font-size="16" font-family="Roboto-Regular, Roboto" style="isolation: isolate"><tspan x="0" y="0">Guásimo</tspan></text>
      <text id="Cadillo_de_mula" data-name="Cadillo de mula" transform="translate(969 3748)" fill="#12263f" font-size="16" font-family="Roboto-Regular, Roboto" style="isolation: isolate"><tspan x="0" y="0">Cadillo de mula</tspan></text>
      <text id="Juan_blanco" data-name="Juan blanco" transform="translate(969 3819)" fill="#12263f" font-size="16" font-family="Roboto-Regular, Roboto" style="isolation: isolate"><tspan x="0" y="0">Juan blanco</tspan></text>
      <text id="San_joaquín" data-name="San joaquín" transform="translate(969 3890)" fill="#12263f" font-size="16" font-family="Roboto-Regular, Roboto" style="isolation: isolate"><tspan x="0" y="0">San joaquín</tspan></text>
      <text id="Heliocarpus_americanus_L." data-name="Heliocarpus americanus L." transform="translate(1125 3463)" fill="#12263f" font-size="15" font-family="Roboto-Italic, Roboto" font-style="italic" style="isolation: isolate"><tspan x="0" y="0">Heliocarpus americanus L.</tspan></text>
      <text id="Triumfetta_lappula_L" data-name="Triumfetta lappula L" transform="translate(1125 3535)" fill="#12263f" font-size="16" font-family="Roboto-Italic, Roboto" font-style="italic" style="isolation: isolate"><tspan x="0" y="0">Triumfetta lappula L</tspan></text>
      <text id="Triumfetta_mollisima_L" data-name="Triumfetta mollisima L" transform="translate(1125 3606)" fill="#12263f" font-size="16" font-family="Roboto-Italic, Roboto" font-style="italic" style="isolation: isolate"><tspan x="0" y="0">Triumfetta mollisima L</tspan></text>
      <text id="Guazuma_ulmifolia_Lam" data-name="Guazuma ulmifolia Lam" transform="translate(1125 3677)" fill="#12263f" font-size="16" font-family="Roboto-Italic, Roboto" font-style="italic" style="isolation: isolate"><tspan x="0" y="0">Guazuma ulmifolia Lam</tspan></text>
      <text id="Pavonia_spinifex_Cav" data-name="Pavonia spinifex Cav" transform="translate(1125 3748)" fill="#12263f" font-size="16" font-family="Roboto-Italic, Roboto" font-style="italic" style="isolation: isolate"><tspan x="0" y="0">Pavonia spinifex Cav</tspan></text>
      <text id="Hemistylis_macrostachis_Weed" data-name="Hemistylis macrostachis Weed" transform="translate(1125 3818)" fill="#12263f" font-size="15" font-family="Roboto-Italic, Roboto" font-style="italic" style="isolation: isolate"><tspan x="0" y="0">Hemistylis macrostachis Weed</tspan></text>
      <text id="Malvaviscus_penduliflorus_Oc" data-name="Malvaviscus penduliflorus Oc" transform="translate(1125 3889)" fill="#12263f" font-size="15" font-family="Roboto-Italic, Roboto" font-style="italic" style="isolation: isolate"><tspan x="0" y="0">Malvaviscus penduliflorus Oc</tspan></text>
      <path id="Trazado_258782" data-name="Trazado 258782" d="M27,4.289H-29.507" transform="translate(929.708 3666.711)" fill="none" stroke="#5d5d5d" stroke-width="2"/>
      <path id="Trazado_258774" data-name="Trazado 258774" d="M9.728,5.617,4.986,8.355,0,11.233V0Z" transform="translate(952.243 3665)" fill="#5d5d5d"/>
      <g id="Grupo_171571" data-name="Grupo 171571" transform="translate(19 -44)">
        <path id="Trazado_258798" data-name="Trazado 258798" d="M27,4.289H-15.708" transform="translate(910.708 3497.594)" fill="none" stroke="#5d5d5d" stroke-width="2"/>
        <path id="Trazado_258799" data-name="Trazado 258799" d="M9.728,5.617,4.986,8.355,0,11.233V0Z" transform="translate(933.243 3495.883)" fill="#5d5d5d"/>
      </g>
      <g id="Grupo_171574" data-name="Grupo 171574" transform="translate(19 27)">
        <path id="Trazado_258798-2" data-name="Trazado 258798" d="M27,4.289H-15.708" transform="translate(910.708 3497.594)" fill="none" stroke="#5d5d5d" stroke-width="2"/>
        <path id="Trazado_258799-2" data-name="Trazado 258799" d="M9.728,5.617,4.986,8.355,0,11.233V0Z" transform="translate(933.243 3495.883)" fill="#5d5d5d"/>
      </g>
      <g id="Grupo_171576" data-name="Grupo 171576" transform="translate(19 98.001)">
        <path id="Trazado_258798-3" data-name="Trazado 258798" d="M27,4.289H-15.708" transform="translate(910.708 3497.594)" fill="none" stroke="#5d5d5d" stroke-width="2"/>
        <path id="Trazado_258799-3" data-name="Trazado 258799" d="M9.728,5.617,4.986,8.355,0,11.233V0Z" transform="translate(933.243 3495.883)" fill="#5d5d5d"/>
      </g>
      <g id="Grupo_171578" data-name="Grupo 171578" transform="translate(19 240)">
        <path id="Trazado_258798-4" data-name="Trazado 258798" d="M27,4.289H-15.708" transform="translate(910.708 3497.594)" fill="none" stroke="#5d5d5d" stroke-width="2"/>
        <path id="Trazado_258799-4" data-name="Trazado 258799" d="M9.728,5.617,4.986,8.355,0,11.233V0Z" transform="translate(933.243 3495.883)" fill="#5d5d5d"/>
      </g>
      <g id="Grupo_171580" data-name="Grupo 171580" transform="translate(19 311.234)">
        <path id="Trazado_258798-5" data-name="Trazado 258798" d="M27,4.289H-15.708" transform="translate(910.708 3497.594)" fill="none" stroke="#5d5d5d" stroke-width="2"/>
        <path id="Trazado_258799-5" data-name="Trazado 258799" d="M9.728,5.617,4.986,8.355,0,11.233V0Z" transform="translate(933.243 3495.883)" fill="#5d5d5d"/>
      </g>
      <g id="Grupo_171582" data-name="Grupo 171582" transform="translate(19 382.467)">
        <path id="Trazado_258798-6" data-name="Trazado 258798" d="M27,4.289H-15.708" transform="translate(910.708 3497.594)" fill="none" stroke="#5d5d5d" stroke-width="2"/>
        <path id="Trazado_258799-6" data-name="Trazado 258799" d="M9.728,5.617,4.986,8.355,0,11.233V0Z" transform="translate(933.243 3495.883)" fill="#5d5d5d"/>
      </g>
      <g id="Grupo_171572" data-name="Grupo 171572" transform="translate(172 -44)">
        <path id="Trazado_258798-7" data-name="Trazado 258798" d="M27,4.289H-63.708" transform="translate(910.708 3497.594)" fill="none" stroke="#5d5d5d" stroke-width="2"/>
        <path id="Trazado_258799-7" data-name="Trazado 258799" d="M9.728,5.617,4.986,8.355,0,11.233V0Z" transform="translate(933.243 3495.883)" fill="#5d5d5d"/>
      </g>
      <g id="Grupo_171573" data-name="Grupo 171573" transform="translate(172 27)">
        <path id="Trazado_258798-8" data-name="Trazado 258798" d="M27,4.289H-15.708" transform="translate(910.708 3497.594)" fill="none" stroke="#5d5d5d" stroke-width="2"/>
        <path id="Trazado_258799-8" data-name="Trazado 258799" d="M9.728,5.617,4.986,8.355,0,11.233V0Z" transform="translate(933.243 3495.883)" fill="#5d5d5d"/>
      </g>
      <g id="Grupo_171575" data-name="Grupo 171575" transform="translate(172 98.001)">
        <path id="Trazado_258798-9" data-name="Trazado 258798" d="M27,4.289H-8.042" transform="translate(910.708 3497.594)" fill="none" stroke="#5d5d5d" stroke-width="2"/>
        <path id="Trazado_258799-9" data-name="Trazado 258799" d="M9.728,5.617,4.986,8.355,0,11.233V0Z" transform="translate(933.243 3495.883)" fill="#5d5d5d"/>
      </g>
      <g id="Grupo_171583" data-name="Grupo 171583" transform="translate(172 169.001)">
        <path id="Trazado_258798-10" data-name="Trazado 258798" d="M27,4.289H-43.708" transform="translate(910.708 3497.594)" fill="none" stroke="#5d5d5d" stroke-width="2"/>
        <path id="Trazado_258799-10" data-name="Trazado 258799" d="M9.728,5.617,4.986,8.355,0,11.233V0Z" transform="translate(933.243 3495.883)" fill="#5d5d5d"/>
      </g>
      <g id="Grupo_171577" data-name="Grupo 171577" transform="translate(172 240)">
        <path id="Trazado_258798-11" data-name="Trazado 258798" d="M27,4.289H2.625" transform="translate(910.708 3497.594)" fill="none" stroke="#5d5d5d" stroke-width="2"/>
        <path id="Trazado_258799-11" data-name="Trazado 258799" d="M9.728,5.617,4.986,8.355,0,11.233V0Z" transform="translate(933.243 3495.883)" fill="#5d5d5d"/>
      </g>
      <g id="Grupo_171579" data-name="Grupo 171579" transform="translate(172 311.234)">
        <path id="Trazado_258798-12" data-name="Trazado 258798" d="M27,4.289H-15.708" transform="translate(910.708 3497.594)" fill="none" stroke="#5d5d5d" stroke-width="2"/>
        <path id="Trazado_258799-12" data-name="Trazado 258799" d="M9.728,5.617,4.986,8.355,0,11.233V0Z" transform="translate(933.243 3495.883)" fill="#5d5d5d"/>
      </g>
      <g id="Grupo_171581" data-name="Grupo 171581" transform="translate(172 382.467)">
        <path id="Trazado_258798-13" data-name="Trazado 258798" d="M27,4.289H-15.708" transform="translate(910.708 3497.594)" fill="none" stroke="#5d5d5d" stroke-width="2"/>
        <path id="Trazado_258799-13" data-name="Trazado 258799" d="M9.728,5.617,4.986,8.355,0,11.233V0Z" transform="translate(933.243 3495.883)" fill="#5d5d5d"/>
      </g>
      <path id="Trazado_258800" data-name="Trazado 258800" d="M0,0V426" transform="translate(914 3458)" fill="none" stroke="#5d5d5d" stroke-width="2"/>
    </g>
  </g>
</svg>
