<svg xmlns="http://www.w3.org/2000/svg" width="672" height="471" viewBox="0 0 672 471">
  <g id="Grupo_173992" data-name="Grupo 173992" transform="translate(-705 -4107)">
    <rect id="Rectángulo_44603" data-name="Rectángulo 44603" width="672" height="471" rx="20" transform="translate(705 4107)" fill="#fff"/>
    <g id="Grupo_171601" data-name="Grupo 171601" transform="translate(74 -183.216)">
      <g id="Rectángulo_40446" data-name="Rectángulo 40446" transform="translate(882 4359.215)">
        <path id="Trazado_202130" data-name="Trazado 202130" d="M-4395.592-5982.72h168.014a9.345,9.345,0,0,1,9.6,9.06v28.687a9.344,9.344,0,0,1-9.6,9.059h-168.014a9.343,9.343,0,0,1-9.6-9.059v-28.687A9.344,9.344,0,0,1-4395.592-5982.72Z" transform="translate(4405.196 5982.72)" fill="#fff" stroke="#707070" stroke-width="5"/>
        <path id="Trazado_202131" data-name="Trazado 202131" d="M-4395.479-5982.22h167.757c5.092,0,9.22,3.873,9.22,8.648v28.48c0,4.777-4.127,8.648-9.22,8.648h-167.757c-5.093,0-9.221-3.872-9.221-8.648v-28.48C-4404.7-5978.347-4400.571-5982.22-4395.479-5982.22Z" transform="translate(4405.211 5982.734)" fill="#fff" stroke="#dc1f27" stroke-width="5"/>
      </g>
      <text id="Cachaza" transform="translate(978 4391)" fill="#12263f" font-size="22" font-family="Roboto-Black, Roboto" font-weight="800" style="isolation: isolate"><tspan x="-42.319" y="0">Cachaza</tspan></text>
      <g id="Rectángulo_44587" data-name="Rectángulo 44587" transform="translate(763 4443)" fill="#fff" stroke="#e2872c" stroke-width="3">
        <rect width="117" height="41" rx="10" stroke="none"/>
        <rect x="1.5" y="1.5" width="114" height="38" rx="8.5" fill="none"/>
      </g>
      <g id="Rectángulo_44605" data-name="Rectángulo 44605" transform="translate(1059 4443)" fill="#fff" stroke="#e2872c" stroke-width="3">
        <rect width="117" height="41" rx="10" stroke="none"/>
        <rect x="1.5" y="1.5" width="114" height="38" rx="8.5" fill="none"/>
      </g>
      <text id="Mantiene" transform="translate(821 4469)" fill="#12263f" font-size="14" font-family="Roboto-Bold, Roboto" font-weight="700" style="isolation: isolate"><tspan x="-29.514" y="0">Mantiene</tspan></text>
      <text id="Mantiene-2" data-name="Mantiene" transform="translate(1117 4469)" fill="#12263f" font-size="14" font-family="Roboto-Bold, Roboto" font-weight="700" style="isolation: isolate"><tspan x="-29.514" y="0">Mantiene</tspan></text>
      <g id="Rectángulo_44588" data-name="Rectángulo 44588" transform="translate(704 4523)" fill="#fff" stroke="#81af1d" stroke-width="2">
        <rect width="225" height="120" rx="10" stroke="none"/>
        <rect x="1" y="1" width="223" height="118" rx="9" fill="none"/>
      </g>
      <g id="Rectángulo_44589" data-name="Rectángulo 44589" transform="translate(1005 4523)" fill="#fff" stroke="#81af1d" stroke-width="2">
        <rect width="225" height="180" rx="10" stroke="none"/>
        <rect x="1" y="1" width="223" height="178" rx="9" fill="none"/>
      </g>
      <path id="Trazado_258787" data-name="Trazado 258787" d="M21.914,0H0" transform="translate(1117.5 4484) rotate(90)" fill="none" stroke="#5d5d5d" stroke-width="2"/>
      <path id="Trazado_258802" data-name="Trazado 258802" d="M21.914,0H0" transform="translate(821.5 4484) rotate(90)" fill="none" stroke="#5d5d5d" stroke-width="2"/>
      <path id="Trazado_258767" data-name="Trazado 258767" d="M9.728,5.617,4.986,2.878,0,0V11.233Z" transform="translate(1123.233 4501.973) rotate(90)" fill="#5d5d5d"/>
      <path id="Trazado_258801" data-name="Trazado 258801" d="M9.728,5.617,4.986,2.878,0,0V11.233Z" transform="translate(827.233 4501.973) rotate(90)" fill="#5d5d5d"/>
      <g id="Grupo_171600" data-name="Grupo 171600" transform="translate(-16 -233.772)">
        <path id="Trazado_258789" data-name="Trazado 258789" d="M24.626,0,0,58.834" transform="translate(1120.191 4645.241) rotate(90)" fill="none" stroke="#5d5d5d" stroke-width="2"/>
        <path id="Trazado_258791" data-name="Trazado 258791" d="M24.39,58.551,0,0" transform="translate(930.386 4645.477) rotate(90)" fill="none" stroke="#5d5d5d" stroke-width="2"/>
        <path id="Trazado_258788" data-name="Trazado 258788" d="M9.728,5.617,4.986,2.878,0,0V11.233Z" transform="matrix(0.891, 0.454, -0.454, 0.891, 1118.407, 4663.577)" fill="#5d5d5d"/>
        <path id="Trazado_258790" data-name="Trazado 258790" d="M9.728,5.617,4.986,2.878,0,0V11.233Z" transform="translate(878.668 4673.706) rotate(154)" fill="#5d5d5d"/>
      </g>
      <text id="Capa_inicial_de_impurezas_se_retira_a_la_cachacera_para_extraer_el_jugo_de_la_cachaza" data-name="Capa inicial de impurezas,
se retira a la cachacera para extraer el jugo de la cachaza" transform="translate(722 4537)" fill="#12263f" font-size="16" font-family="Roboto-Regular, Roboto"><tspan x="0" y="17">Capa inicial de impurezas,</tspan><tspan x="0" y="41">se retira a la cachacera </tspan><tspan x="0" y="65">para extraer el jugo de la </tspan><tspan x="0" y="89">cachaza</tspan></text>
      <text id="Segunda_capa_que_se_forma_es_más_liviana_y_se_debe_retirar_con_prontitud_antes_que_los_jugos_alcancen_la_temperatura_de_ebullición." data-name="Segunda capa que se forma, es más liviana y se debe retirar con prontitud, antes que los jugos alcancen la temperatura de ebullición." transform="translate(1023 4537)" fill="#12263f" font-size="16" font-family="Roboto-Regular, Roboto"><tspan x="0" y="17">Segunda capa que se </tspan><tspan x="0" y="41">forma, es más liviana y se </tspan><tspan x="0" y="65">debe retirar con prontitud, </tspan><tspan x="0" y="89">antes que los jugos </tspan><tspan x="0" y="113">alcancen la temperatura </tspan><tspan x="0" y="137">de ebullición.</tspan></text>
    </g>
  </g>
</svg>
