<svg xmlns="http://www.w3.org/2000/svg" width="1239.987" height="300.807" viewBox="0 0 1239.987 300.807">
  <g id="Grupo_173993" data-name="Grupo 173993" transform="translate(-180 -5119.081)">
    <path id="Trazado_258803" data-name="Trazado 258803" d="M470.4,855.436a120.988,120.988,0,0,1,0-241.975q.944,0,1.884.015l.052-3.41q-.967-.015-1.936-.015v0A124.4,124.4,0,1,0,584.309,784.518l-3.122-1.374A121.093,121.093,0,0,1,470.4,855.436Z" transform="translate(-161.176 4514.757)" fill="#4d4d4d"/>
    <path id="Trazado_258804" data-name="Trazado 258804" d="M1065.429,1085.243l-3.177,1.242c.781,2,1.627,4,2.512,5.961l3.107-1.406C1067.01,1089.136,1066.188,1087.187,1065.429,1085.243Z" transform="translate(-623.543 4208.002)" fill="#4d4d4d"/>
    <path id="Trazado_258805" data-name="Trazado 258805" d="M1077.3,1119.135c.985,1.906,2.036,3.814,3.122,5.67l2.944-1.723c-1.056-1.8-2.078-3.66-3.036-5.514Z" transform="translate(-633.256 4187.134)" fill="#4d4d4d"/>
    <path id="Trazado_258806" data-name="Trazado 258806" d="M1095.739,1150.092c1.181,1.8,2.425,3.587,3.7,5.317l2.749-2.018c-1.236-1.684-2.445-3.424-3.595-5.172Z" transform="translate(-645.16 4167.349)" fill="#4d4d4d"/>
    <path id="Trazado_258807" data-name="Trazado 258807" d="M1054.035,1051.5l-3.289.9c.569,2.075,1.2,4.161,1.878,6.2l3.237-1.073C1055.2,1055.549,1054.588,1053.52,1054.035,1051.5Z" transform="translate(-616.115 4229.782)" fill="#4d4d4d"/>
    <path id="Trazado_258808" data-name="Trazado 258808" d="M1046.3,1016.775l-3.366.553c.349,2.123.759,4.265,1.218,6.365l3.332-.728C1047.04,1020.922,1046.641,1018.84,1046.3,1016.775Z" transform="translate(-611.074 4252.201)" fill="#4d4d4d"/>
    <path id="Trazado_258809" data-name="Trazado 258809" d="M1298.825,1294.19c2.082.553,4.2,1.058,6.305,1.5l.7-3.337c-2.044-.43-4.107-.921-6.132-1.459Z" transform="translate(-776.26 4075.247)" fill="#4d4d4d"/>
    <path id="Trazado_258810" data-name="Trazado 258810" d="M1264,1283.143c2.013.769,4.074,1.5,6.127,2.158l1.048-3.246c-2-.644-4-1.35-5.958-2.1Z" transform="translate(-753.777 4082.307)" fill="#4d4d4d"/>
    <path id="Trazado_258811" data-name="Trazado 258811" d="M1230.521,1268.559c1.924.977,3.9,1.914,5.863,2.786l1.383-3.117c-1.912-.848-3.831-1.76-5.7-2.71Z" transform="translate(-732.167 4091.628)" fill="#4d4d4d"/>
    <path id="Trazado_258812" data-name="Trazado 258812" d="M1042.3,981.441l-3.4.2c.127,2.148.311,4.32.549,6.457l3.39-.377C1042.6,985.644,1042.423,983.53,1042.3,981.441Z" transform="translate(-608.465 4275.01)" fill="#4d4d4d"/>
    <path id="Trazado_258813" data-name="Trazado 258813" d="M1141.922,1205.6c1.525,1.515,3.111,3.011,4.716,4.447l2.275-2.541c-1.56-1.4-3.1-2.852-4.587-4.326Z" transform="translate(-674.973 4131.867)" fill="#4d4d4d"/>
    <path id="Trazado_258814" data-name="Trazado 258814" d="M1117.359,1179.016c1.361,1.665,2.783,3.316,4.229,4.909l2.526-2.292c-1.406-1.549-2.79-3.155-4.114-4.775Z" transform="translate(-659.117 4148.861)" fill="#4d4d4d"/>
    <path id="Trazado_258815" data-name="Trazado 258815" d="M1198.8,1250.628c1.811,1.171,3.674,2.309,5.537,3.381l1.7-2.956c-1.812-1.043-3.623-2.149-5.385-3.289Z" transform="translate(-711.689 4103.088)" fill="#4d4d4d"/>
    <path id="Trazado_258816" data-name="Trazado 258816" d="M1169.164,1229.56c1.675,1.35,3.409,2.674,5.153,3.937l2-2.763c-1.7-1.227-3.383-2.516-5.012-3.829Z" transform="translate(-692.559 4116.554)" fill="#4d4d4d"/>
    <path id="Trazado_258817" data-name="Trazado 258817" d="M762.272,616.432c-2.1-.475-4.234-.9-6.356-1.268l-.58,3.361c2.064.355,4.144.771,6.181,1.232Z" transform="translate(-425.418 4511.456)" fill="#4d4d4d"/>
    <path id="Trazado_258818" data-name="Trazado 258818" d="M921.914,695.137c-1.581-1.458-3.222-2.893-4.876-4.267l-2.178,2.623c1.609,1.336,3.2,2.733,4.743,4.151Z" transform="translate(-528.396 4462.584)" fill="#4d4d4d"/>
    <path id="Trazado_258819" data-name="Trazado 258819" d="M947.847,720.393c-1.421-1.612-2.9-3.21-4.41-4.75L941,718.027c1.465,1.5,2.908,3.053,4.29,4.621Z" transform="translate(-545.269 4446.592)" fill="#4d4d4d"/>
    <path id="Trazado_258820" data-name="Trazado 258820" d="M893.566,672.758c-1.724-1.287-3.5-2.544-5.289-3.737l-1.9,2.835c1.737,1.161,3.467,2.384,5.144,3.635Z" transform="translate(-510.012 4476.689)" fill="#4d4d4d"/>
    <path id="Trazado_258821" data-name="Trazado 258821" d="M971.085,748.257c-1.249-1.755-2.56-3.5-3.9-5.183l-2.672,2.12c1.3,1.638,2.575,3.334,3.79,5.041Z" transform="translate(-560.451 4428.885)" fill="#4d4d4d"/>
    <path id="Trazado_258822" data-name="Trazado 258822" d="M863.106,653.5c-1.846-1.1-3.745-2.165-5.645-3.166l-1.59,3.017c1.848.974,3.7,2.01,5.49,3.079Z" transform="translate(-490.316 4488.75)" fill="#4d4d4d"/>
    <path id="Trazado_258823" data-name="Trazado 258823" d="M1005.329,811.981l3.128-1.358c-.858-1.976-1.78-3.956-2.741-5.885l-3.053,1.521C1003.6,808.134,1004.494,810.06,1005.329,811.981Z" transform="translate(-585.076 4389.078)" fill="#4d4d4d"/>
    <path id="Trazado_258824" data-name="Trazado 258824" d="M991.366,778.438c-1.06-1.875-2.183-3.747-3.338-5.563l-2.878,1.831c1.124,1.766,2.216,3.586,3.247,5.41Z" transform="translate(-573.771 4409.647)" fill="#4d4d4d"/>
    <path id="Trazado_258825" data-name="Trazado 258825" d="M1041.474,950.969c0-1.829-.04-3.682-.12-5.508l-3.407.148c.077,1.777.117,3.58.117,5.36q0,.486,0,.971l3.411-.026Q1041.474,951.441,1041.474,950.969Z" transform="translate(-607.853 4298.236)" fill="#4d4d4d"/>
    <path id="Trazado_258826" data-name="Trazado 258826" d="M1030.821,873.247l-3.3.85c.521,2.024,1,4.091,1.411,6.143l3.343-.676C1031.844,877.454,1031.356,875.328,1030.821,873.247Z" transform="translate(-601.121 4344.853)" fill="#4d4d4d"/>
    <path id="Trazado_258827" data-name="Trazado 258827" d="M1020.041,838.331l-3.2,1.192c.733,1.966,1.424,3.976,2.052,5.974l3.254-1.023C1021.505,842.42,1020.8,840.353,1020.041,838.331Z" transform="translate(-594.231 4367.393)" fill="#4d4d4d"/>
    <path id="Trazado_258828" data-name="Trazado 258828" d="M1037.939,909.079l-3.373.5c.307,2.069.562,4.174.762,6.257l3.4-.324C1038.518,913.37,1038.255,911.206,1037.939,909.079Z" transform="translate(-605.67 4321.722)" fill="#4d4d4d"/>
    <path id="Trazado_258829" data-name="Trazado 258829" d="M797.121,625.177c-2.037-.693-4.119-1.341-6.189-1.927l-.928,3.282c2.012.569,4.037,1.2,6.017,1.873Z" transform="translate(-447.797 4506.235)" fill="#4d4d4d"/>
    <path id="Trazado_258830" data-name="Trazado 258830" d="M830.865,637.589c-1.948-.9-3.947-1.761-5.941-2.558l-1.267,3.166c1.939.776,3.883,1.613,5.777,2.488Z" transform="translate(-469.521 4498.631)" fill="#4d4d4d"/>
    <path id="Trazado_258831" data-name="Trazado 258831" d="M1334.6,1301.583c2.12.331,4.281.611,6.427.833l.351-3.392c-2.086-.216-4.189-.489-6.25-.811Z" transform="translate(-799.352 4070.522)" fill="#4d4d4d"/>
    <path id="Trazado_258832" data-name="Trazado 258832" d="M726.716,611.439c-2.132-.254-4.3-.455-6.452-.6l-.227,3.4c2.091.14,4.2.336,6.276.583Z" transform="translate(-402.63 4514.247)" fill="#4d4d4d"/>
    <path id="Trazado_258833" data-name="Trazado 258833" d="M1377.429,1171.411c-2.1,0-4.216-.054-6.3-.162l-.175,3.406c2.143.11,4.323.166,6.477.166a124.576,124.576,0,0,0,113.726-73.91l-3.117-1.386A121.162,121.162,0,0,1,1377.429,1171.411Z" transform="translate(-822.82 4198.782)" fill="#4d4d4d"/>
    <path id="Trazado_258834" data-name="Trazado 258834" d="M1181.593,613.461q.944,0,1.884.015l.053-3.41q-.966-.015-1.935-.015v0a124.467,124.467,0,0,0-114.01,74.553l3.124,1.368A121.057,121.057,0,0,1,1181.593,613.461Z" transform="translate(-626.985 4514.757)" fill="#4d4d4d"/>
    <path id="Trazado_258835" data-name="Trazado 258835" d="M1723.1,873.247l-3.3.85c.521,2.024,1,4.09,1.411,6.143l3.342-.676C1724.12,877.454,1723.632,875.328,1723.1,873.247Z" transform="translate(-1048.011 4344.853)" fill="#4d4d4d"/>
    <path id="Trazado_258836" data-name="Trazado 258836" d="M1712.318,838.332l-3.2,1.192c.733,1.966,1.424,3.976,2.052,5.975l3.254-1.023C1713.782,842.42,1713.073,840.353,1712.318,838.332Z" transform="translate(-1041.122 4367.392)" fill="#4d4d4d"/>
    <path id="Trazado_258837" data-name="Trazado 258837" d="M1418.991,611.439c-2.132-.254-4.3-.455-6.452-.6l-.227,3.4c2.09.14,4.2.336,6.276.583Z" transform="translate(-849.52 4514.247)" fill="#4d4d4d"/>
    <path id="Trazado_258838" data-name="Trazado 258838" d="M1730.214,909.079l-3.373.5c.307,2.069.563,4.174.762,6.257l3.395-.324C1730.793,913.37,1730.53,911.206,1730.214,909.079Z" transform="translate(-1052.56 4321.722)" fill="#4d4d4d"/>
    <path id="Trazado_258839" data-name="Trazado 258839" d="M1734.576,981.442l-3.4.2c.126,2.148.311,4.32.549,6.457l3.39-.377C1734.878,985.645,1734.7,983.531,1734.576,981.442Z" transform="translate(-1055.355 4275.009)" fill="#4d4d4d"/>
    <path id="Trazado_258840" data-name="Trazado 258840" d="M1733.75,950.97c0-1.829-.04-3.682-.12-5.507l-3.407.148c.077,1.776.117,3.579.117,5.359q0,.486,0,.971l3.411-.027Q1733.75,951.443,1733.75,950.97Z" transform="translate(-1054.743 4298.235)" fill="#4d4d4d"/>
    <path id="Trazado_258841" data-name="Trazado 258841" d="M1738.578,1016.776l-3.365.553c.349,2.123.758,4.265,1.218,6.365l3.332-.728C1739.316,1020.924,1738.917,1018.841,1738.578,1016.776Z" transform="translate(-1057.964 4252.2)" fill="#4d4d4d"/>
    <path id="Trazado_258842" data-name="Trazado 258842" d="M1697.6,811.982l3.128-1.359c-.858-1.976-1.78-3.956-2.741-5.884l-3.053,1.52C1695.873,808.135,1696.77,810.061,1697.6,811.982Z" transform="translate(-1031.966 4389.078)" fill="#4d4d4d"/>
    <path id="Trazado_258843" data-name="Trazado 258843" d="M1454.548,616.431c-2.1-.475-4.233-.9-6.356-1.268l-.579,3.361c2.064.356,4.143.771,6.18,1.233Z" transform="translate(-872.308 4511.456)" fill="#4d4d4d"/>
    <path id="Trazado_258844" data-name="Trazado 258844" d="M1663.361,748.257c-1.249-1.755-2.56-3.5-3.9-5.183l-2.672,2.119c1.3,1.639,2.575,3.336,3.79,5.042Z" transform="translate(-1007.34 4428.885)" fill="#4d4d4d"/>
    <path id="Trazado_258845" data-name="Trazado 258845" d="M1614.19,695.137c-1.581-1.458-3.221-2.893-4.876-4.267l-2.179,2.624c1.609,1.336,3.2,2.733,4.743,4.15Z" transform="translate(-975.285 4462.584)" fill="#4d4d4d"/>
    <path id="Trazado_258846" data-name="Trazado 258846" d="M1746.31,1051.5l-3.289.9c.57,2.076,1.2,4.163,1.878,6.2l3.237-1.073C1747.478,1055.55,1746.864,1053.521,1746.31,1051.5Z" transform="translate(-1063.004 4229.783)" fill="#4d4d4d"/>
    <path id="Trazado_258847" data-name="Trazado 258847" d="M1640.124,720.393c-1.421-1.612-2.9-3.21-4.41-4.75l-2.438,2.384c1.464,1.5,2.908,3.053,4.29,4.621Z" transform="translate(-992.159 4446.592)" fill="#4d4d4d"/>
    <path id="Trazado_258848" data-name="Trazado 258848" d="M1489.4,625.177c-2.037-.693-4.119-1.342-6.189-1.927l-.928,3.282c2.012.569,4.037,1.2,6.018,1.873Z" transform="translate(-894.686 4506.235)" fill="#4d4d4d"/>
    <path id="Trazado_258849" data-name="Trazado 258849" d="M1523.141,637.589c-1.948-.9-3.947-1.761-5.941-2.558l-1.267,3.166c1.939.776,3.883,1.613,5.777,2.488Z" transform="translate(-916.411 4498.631)" fill="#4d4d4d"/>
    <path id="Trazado_258850" data-name="Trazado 258850" d="M1585.842,672.758c-1.724-1.287-3.5-2.544-5.289-3.737l-1.895,2.835c1.737,1.161,3.467,2.384,5.144,3.635Z" transform="translate(-956.902 4476.689)" fill="#4d4d4d"/>
    <path id="Trazado_258851" data-name="Trazado 258851" d="M1555.382,653.5c-1.846-1.1-3.745-2.165-5.645-3.166l-1.591,3.017c1.848.974,3.7,2.01,5.491,3.079Z" transform="translate(-937.206 4488.75)" fill="#4d4d4d"/>
    <path id="Trazado_258852" data-name="Trazado 258852" d="M1683.642,778.438c-1.06-1.875-2.183-3.747-3.338-5.563l-2.878,1.831c1.124,1.766,2.216,3.586,3.247,5.41Z" transform="translate(-1020.661 4409.647)" fill="#4d4d4d"/>
    <path id="Trazado_258853" data-name="Trazado 258853" d="M1956.273,1283.143c2.013.769,4.075,1.5,6.127,2.158l1.048-3.246c-2-.644-4-1.35-5.958-2.1Z" transform="translate(-1200.667 4082.307)" fill="#4d4d4d"/>
    <path id="Trazado_258854" data-name="Trazado 258854" d="M1922.8,1268.561c1.923.976,3.895,1.914,5.862,2.786l1.383-3.117c-1.913-.849-3.831-1.761-5.7-2.71Z" transform="translate(-1179.058 4091.626)" fill="#4d4d4d"/>
    <path id="Trazado_258855" data-name="Trazado 258855" d="M2026.872,1301.583c2.121.331,4.283.612,6.427.833l.351-3.392c-2.086-.216-4.189-.489-6.25-.811Z" transform="translate(-1246.241 4070.522)" fill="#4d4d4d"/>
    <path id="Trazado_258856" data-name="Trazado 258856" d="M1757.705,1085.243l-3.176,1.242c.781,2,1.626,4,2.512,5.961l3.107-1.406C1759.287,1089.136,1758.465,1087.186,1757.705,1085.243Z" transform="translate(-1070.434 4208.002)" fill="#4d4d4d"/>
    <path id="Trazado_258857" data-name="Trazado 258857" d="M1891.075,1250.628c1.809,1.171,3.672,2.308,5.537,3.381l1.7-2.956c-1.814-1.043-3.626-2.15-5.385-3.289Z" transform="translate(-1158.579 4103.088)" fill="#4d4d4d"/>
    <path id="Trazado_258858" data-name="Trazado 258858" d="M1991.1,1294.19c2.081.553,4.2,1.058,6.3,1.5l.7-3.337c-2.045-.43-4.107-.921-6.132-1.459Z" transform="translate(-1223.15 4075.247)" fill="#4d4d4d"/>
    <path id="Trazado_258859" data-name="Trazado 258859" d="M1769.575,1119.136c.986,1.906,2.036,3.814,3.122,5.67l2.944-1.723c-1.056-1.8-2.078-3.66-3.036-5.514Z" transform="translate(-1080.146 4187.134)" fill="#4d4d4d"/>
    <path id="Trazado_258860" data-name="Trazado 258860" d="M1788.014,1150.092c1.182,1.8,2.425,3.587,3.7,5.317l2.749-2.018c-1.236-1.684-2.446-3.424-3.595-5.172Z" transform="translate(-1092.049 4167.349)" fill="#4d4d4d"/>
    <path id="Trazado_258861" data-name="Trazado 258861" d="M1834.2,1205.6c1.525,1.515,3.112,3.011,4.716,4.447l2.274-2.541c-1.56-1.4-3.1-2.852-4.587-4.326Z" transform="translate(-1121.863 4131.866)" fill="#4d4d4d"/>
    <path id="Trazado_258862" data-name="Trazado 258862" d="M1809.635,1179.017c1.361,1.665,2.784,3.316,4.229,4.909l2.525-2.292c-1.406-1.549-2.79-3.156-4.113-4.775Z" transform="translate(-1106.006 4148.86)" fill="#4d4d4d"/>
    <path id="Trazado_258863" data-name="Trazado 258863" d="M1861.441,1229.561c1.676,1.351,3.409,2.676,5.153,3.937l2-2.763c-1.7-1.228-3.382-2.516-5.012-3.83Z" transform="translate(-1139.449 4116.553)" fill="#4d4d4d"/>
    <path id="Trazado_258864" data-name="Trazado 258864" d="M2069.706,1171.41c-2.1,0-4.217-.054-6.3-.161l-.175,3.406c2.143.11,4.322.166,6.477.166a124.577,124.577,0,0,0,113.726-73.91l-3.116-1.386A121.162,121.162,0,0,1,2069.706,1171.41Z" transform="translate(-1269.71 4198.782)" fill="#4d4d4d"/>
    <path id="Trazado_258865" data-name="Trazado 258865" d="M1874.8,613.461q.944,0,1.884.015l.053-3.41q-.966-.015-1.935-.015v0a124.421,124.421,0,0,0-113.5,73.4l3.11,1.4A121.246,121.246,0,0,1,1874.8,613.461Z" transform="translate(-1074.81 4514.757)" fill="#4d4d4d"/>
    <path id="Trazado_258866" data-name="Trazado 258866" d="M2422.489,909.078l-3.374.5c.307,2.066.563,4.171.763,6.256l3.395-.324C2423.068,913.367,2422.8,911.2,2422.489,909.078Z" transform="translate(-1499.448 4321.723)" fill="#4d4d4d"/>
    <path id="Trazado_258867" data-name="Trazado 258867" d="M2278.116,672.756c-1.724-1.287-3.5-2.544-5.289-3.737l-1.9,2.836c1.736,1.161,3.467,2.383,5.144,3.635Z" transform="translate(-1403.791 4476.69)" fill="#4d4d4d"/>
    <path id="Trazado_258868" data-name="Trazado 258868" d="M2426.025,950.968c0-1.834-.04-3.687-.12-5.508l-3.407.149c.077,1.771.116,3.574.116,5.359q0,.486,0,.971l3.41-.026Q2426.025,951.441,2426.025,950.968Z" transform="translate(-1501.632 4298.237)" fill="#4d4d4d"/>
    <path id="Trazado_258869" data-name="Trazado 258869" d="M2415.373,873.247l-3.3.85c.522,2.029,1,4.1,1.411,6.143l3.343-.676C2416.4,877.459,2415.909,875.333,2415.373,873.247Z" transform="translate(-1494.9 4344.853)" fill="#4d4d4d"/>
    <path id="Trazado_258870" data-name="Trazado 258870" d="M2404.594,838.331l-3.2,1.192c.733,1.963,1.423,3.973,2.052,5.974l3.254-1.022C2406.057,842.418,2405.347,840.35,2404.594,838.331Z" transform="translate(-1488.011 4367.393)" fill="#4d4d4d"/>
    <path id="Trazado_258871" data-name="Trazado 258871" d="M2181.672,625.177c-2.036-.693-4.119-1.341-6.189-1.927l-.927,3.282c2.013.569,4.037,1.2,6.017,1.873Z" transform="translate(-1341.576 4506.235)" fill="#4d4d4d"/>
    <path id="Trazado_258872" data-name="Trazado 258872" d="M2146.825,616.432c-2.1-.475-4.234-.9-6.355-1.268l-.58,3.361c2.063.355,4.142.77,6.18,1.232Z" transform="translate(-1319.198 4511.456)" fill="#4d4d4d"/>
    <path id="Trazado_258873" data-name="Trazado 258873" d="M2215.416,637.589c-1.949-.9-3.948-1.762-5.941-2.559l-1.266,3.166c1.938.775,3.881,1.612,5.777,2.488Z" transform="translate(-1363.301 4498.631)" fill="#4d4d4d"/>
    <path id="Trazado_258874" data-name="Trazado 258874" d="M2247.656,653.5c-1.848-1.1-3.747-2.166-5.645-3.166l-1.591,3.017c1.846.973,3.694,2.009,5.49,3.079Z" transform="translate(-1384.095 4488.751)" fill="#4d4d4d"/>
    <path id="Trazado_258875" data-name="Trazado 258875" d="M2426.851,981.442l-3.4.2c.126,2.148.311,4.32.549,6.457l3.39-.377C2427.154,985.645,2426.974,983.531,2426.851,981.442Z" transform="translate(-1502.244 4275.009)" fill="#4d4d4d"/>
    <path id="Trazado_258876" data-name="Trazado 258876" d="M2111.267,611.439c-2.133-.254-4.3-.455-6.452-.6l-.227,3.4c2.09.14,4.2.336,6.277.583Z" transform="translate(-1296.409 4514.247)" fill="#4d4d4d"/>
    <path id="Trazado_258877" data-name="Trazado 258877" d="M2449.981,1085.244l-3.177,1.242c.78,2,1.626,4,2.512,5.96l3.107-1.406C2451.561,1089.136,2450.74,1087.186,2449.981,1085.244Z" transform="translate(-1517.322 4208.001)" fill="#4d4d4d"/>
    <path id="Trazado_258878" data-name="Trazado 258878" d="M2438.586,1051.5l-3.289.9c.569,2.075,1.2,4.162,1.878,6.2l3.237-1.073C2439.754,1055.549,2439.139,1053.52,2438.586,1051.5Z" transform="translate(-1509.895 4229.783)" fill="#4d4d4d"/>
    <path id="Trazado_258879" data-name="Trazado 258879" d="M2430.855,1016.776l-3.365.552c.348,2.121.758,4.263,1.217,6.365l3.331-.728C2431.592,1020.921,2431.194,1018.838,2430.855,1016.776Z" transform="translate(-1504.854 4252.2)" fill="#4d4d4d"/>
    <path id="Trazado_258880" data-name="Trazado 258880" d="M2306.465,695.137c-1.58-1.457-3.22-2.892-4.875-4.267l-2.179,2.624c1.61,1.337,3.206,2.734,4.743,4.15Z" transform="translate(-1422.175 4462.584)" fill="#4d4d4d"/>
    <path id="Trazado_258881" data-name="Trazado 258881" d="M2719.147,1301.583c2.12.331,4.282.612,6.427.833l.351-3.392c-2.086-.216-4.189-.489-6.251-.811Z" transform="translate(-1693.13 4070.522)" fill="#4d4d4d"/>
    <path id="Trazado_258882" data-name="Trazado 258882" d="M2683.379,1294.19c2.081.553,4.2,1.057,6.3,1.5l.7-3.337c-2.045-.43-4.108-.921-6.131-1.459Z" transform="translate(-1670.041 4075.247)" fill="#4d4d4d"/>
    <path id="Trazado_258883" data-name="Trazado 258883" d="M2355.636,748.257c-1.246-1.751-2.557-3.495-3.9-5.183l-2.672,2.119c1.3,1.643,2.578,3.339,3.79,5.042Z" transform="translate(-1454.23 4428.885)" fill="#4d4d4d"/>
    <path id="Trazado_258884" data-name="Trazado 258884" d="M2648.549,1283.143c2.013.769,4.074,1.5,6.126,2.158l1.048-3.246c-2-.644-4-1.35-5.958-2.1Z" transform="translate(-1647.557 4082.307)" fill="#4d4d4d"/>
    <path id="Trazado_258885" data-name="Trazado 258885" d="M2332.4,720.392c-1.424-1.616-2.908-3.214-4.411-4.75l-2.438,2.384c1.462,1.494,2.9,3.049,4.291,4.621Z" transform="translate(-1439.048 4446.593)" fill="#4d4d4d"/>
    <path id="Trazado_258886" data-name="Trazado 258886" d="M2583.352,1250.628c1.809,1.171,3.672,2.308,5.536,3.381l1.7-2.956c-1.814-1.043-3.625-2.15-5.385-3.289Z" transform="translate(-1605.469 4103.088)" fill="#4d4d4d"/>
    <path id="Trazado_258887" data-name="Trazado 258887" d="M2615.075,1268.559c1.923.976,3.9,1.914,5.862,2.786l1.383-3.117c-1.913-.849-3.831-1.761-5.7-2.71Z" transform="translate(-1625.947 4091.628)" fill="#4d4d4d"/>
    <path id="Trazado_258888" data-name="Trazado 258888" d="M2526.475,1205.6c1.526,1.516,3.113,3.013,4.715,4.447l2.275-2.541c-1.559-1.4-3.1-2.851-4.587-4.326Z" transform="translate(-1568.753 4131.867)" fill="#4d4d4d"/>
    <path id="Trazado_258889" data-name="Trazado 258889" d="M2480.29,1150.092c1.182,1.8,2.426,3.587,3.7,5.317l2.748-2.018c-1.235-1.683-2.445-3.423-3.595-5.172Z" transform="translate(-1538.939 4167.349)" fill="#4d4d4d"/>
    <path id="Trazado_258890" data-name="Trazado 258890" d="M2501.912,1179.016c1.361,1.665,2.783,3.316,4.229,4.909l2.525-2.292c-1.406-1.549-2.79-3.155-4.114-4.775Z" transform="translate(-1552.897 4148.861)" fill="#4d4d4d"/>
    <path id="Trazado_258891" data-name="Trazado 258891" d="M2375.916,778.438c-1.059-1.874-2.183-3.746-3.339-5.563l-2.878,1.831c1.125,1.767,2.217,3.587,3.247,5.41Z" transform="translate(-1467.548 4409.647)" fill="#4d4d4d"/>
    <path id="Trazado_258892" data-name="Trazado 258892" d="M2553.716,1229.56c1.673,1.349,3.406,2.673,5.152,3.937l2-2.763c-1.7-1.229-3.385-2.517-5.012-3.829Z" transform="translate(-1586.338 4116.554)" fill="#4d4d4d"/>
    <path id="Trazado_258893" data-name="Trazado 258893" d="M2461.85,1119.135c.984,1.9,2.035,3.811,3.122,5.67l2.943-1.723c-1.058-1.808-2.079-3.663-3.036-5.514Z" transform="translate(-1527.035 4187.134)" fill="#4d4d4d"/>
    <path id="Trazado_258894" data-name="Trazado 258894" d="M2389.88,811.981l3.128-1.358c-.856-1.973-1.778-3.953-2.741-5.885l-3.052,1.521C2388.15,808.138,2389.047,810.063,2389.88,811.981Z" transform="translate(-1478.855 4389.078)" fill="#4d4d4d"/>
    <path id="Trazado_258895" data-name="Trazado 258895" d="M2761.98,1171.411c-2.1,0-4.217-.054-6.3-.162l-.175,3.406c2.143.11,4.322.166,6.477.166a124.576,124.576,0,0,0,113.726-73.91l-3.117-1.386A121.161,121.161,0,0,1,2761.98,1171.411Z" transform="translate(-1716.6 4198.782)" fill="#4d4d4d"/>
    <path id="Trazado_258896" data-name="Trazado 258896" d="M2567.08,613.461q.944,0,1.884.015l.052-3.41q-.966-.015-1.936-.015v0a124.422,124.422,0,0,0-113.5,73.4l3.11,1.4A121.246,121.246,0,0,1,2567.08,613.461Z" transform="translate(-1521.699 4514.757)" fill="#4d4d4d"/>
    <path id="Trazado_258897" data-name="Trazado 258897" d="M3347.318,646.486a124.427,124.427,0,0,0-201.459,36.962l3.11,1.4a121,121,0,1,1,110.386,170.589c-2.1,0-4.216-.054-6.3-.162l-.175,3.406c2.143.11,4.322.166,6.477.166a124.4,124.4,0,0,0,87.963-212.361Z" transform="translate(-1968.588 4514.757)" fill="#4d4d4d"/>
    <path id="Trazado_258898" data-name="Trazado 258898" d="M2803.542,611.439c-2.133-.254-4.3-.455-6.452-.6l-.227,3.4c2.09.14,4.2.336,6.277.583Z" transform="translate(-1743.298 4514.247)" fill="#4d4d4d"/>
    <path id="Trazado_258899" data-name="Trazado 258899" d="M2970.393,672.756c-1.724-1.287-3.5-2.544-5.289-3.737l-1.9,2.836c1.737,1.161,3.467,2.383,5.144,3.635Z" transform="translate(-1850.681 4476.69)" fill="#4d4d4d"/>
    <path id="Trazado_258900" data-name="Trazado 258900" d="M2907.692,637.588c-1.949-.9-3.948-1.762-5.941-2.559l-1.266,3.167c1.937.775,3.881,1.612,5.777,2.488Z" transform="translate(-1810.19 4498.632)" fill="#4d4d4d"/>
    <path id="Trazado_258901" data-name="Trazado 258901" d="M2873.948,625.177c-2.037-.693-4.118-1.341-6.189-1.927l-.927,3.282c2.013.569,4.037,1.2,6.017,1.873Z" transform="translate(-1788.465 4506.235)" fill="#4d4d4d"/>
    <path id="Trazado_258902" data-name="Trazado 258902" d="M2839.1,616.431c-2.095-.475-4.233-.9-6.355-1.268l-.58,3.361c2.064.356,4.144.771,6.181,1.233Z" transform="translate(-1766.087 4511.456)" fill="#4d4d4d"/>
    <path id="Trazado_258903" data-name="Trazado 258903" d="M2939.933,653.5c-1.848-1.1-3.747-2.166-5.645-3.166l-1.591,3.017c1.846.973,3.694,2.009,5.49,3.079Z" transform="translate(-1830.984 4488.75)" fill="#4d4d4d"/>
    <path id="Trazado_258904" data-name="Trazado 258904" d="M2998.74,695.137c-1.58-1.457-3.22-2.892-4.875-4.267l-2.179,2.623c1.61,1.337,3.206,2.734,4.743,4.151Z" transform="translate(-1869.064 4462.584)" fill="#4d4d4d"/>
    <path id="Trazado_258905" data-name="Trazado 258905" d="M3068.192,778.438c-1.06-1.874-2.183-3.746-3.339-5.563l-2.878,1.831c1.125,1.767,2.217,3.587,3.248,5.41Z" transform="translate(-1914.438 4409.647)" fill="#4d4d4d"/>
    <path id="Trazado_258906" data-name="Trazado 258906" d="M3082.156,811.982l3.128-1.358c-.856-1.973-1.778-3.953-2.741-5.884l-3.052,1.52C3080.426,808.138,3081.323,810.063,3082.156,811.982Z" transform="translate(-1925.746 4389.078)" fill="#4d4d4d"/>
    <path id="Trazado_258907" data-name="Trazado 258907" d="M3047.912,748.257c-1.246-1.751-2.557-3.495-3.9-5.183l-2.672,2.119c1.3,1.643,2.578,3.339,3.79,5.042Z" transform="translate(-1901.12 4428.885)" fill="#4d4d4d"/>
    <path id="Trazado_258908" data-name="Trazado 258908" d="M3024.675,720.392c-1.424-1.616-2.909-3.214-4.411-4.75l-2.437,2.384c1.461,1.494,2.9,3.049,4.29,4.621Z" transform="translate(-1885.938 4446.593)" fill="#4d4d4d"/>
    <path id="Trazado_258909" data-name="Trazado 258909" d="M3096.87,838.33l-3.2,1.192c.733,1.963,1.423,3.974,2.052,5.974l3.254-1.022C3098.333,842.417,3097.624,840.349,3096.87,838.33Z" transform="translate(-1934.901 4367.394)" fill="#4d4d4d"/>
    <path id="Trazado_258910" data-name="Trazado 258910" d="M3275.627,1250.628c1.809,1.171,3.672,2.308,5.537,3.381l1.7-2.956c-1.814-1.043-3.626-2.15-5.385-3.289Z" transform="translate(-2052.358 4103.088)" fill="#4d4d4d"/>
    <path id="Trazado_258911" data-name="Trazado 258911" d="M3245.992,1229.56c1.673,1.349,3.407,2.673,5.152,3.937l2-2.763c-1.7-1.229-3.384-2.517-5.012-3.829Z" transform="translate(-2033.228 4116.554)" fill="#4d4d4d"/>
    <path id="Trazado_258912" data-name="Trazado 258912" d="M3307.35,1268.559c1.923.976,3.9,1.914,5.863,2.786l1.383-3.117c-1.913-.849-3.832-1.761-5.7-2.71Z" transform="translate(-2072.837 4091.628)" fill="#4d4d4d"/>
    <path id="Trazado_258913" data-name="Trazado 258913" d="M3218.75,1205.6c1.526,1.516,3.113,3.013,4.716,4.447l2.274-2.541c-1.559-1.4-3.1-2.851-4.586-4.326Z" transform="translate(-2015.642 4131.867)" fill="#4d4d4d"/>
    <path id="Trazado_258914" data-name="Trazado 258914" d="M3340.824,1283.143c2.013.769,4.075,1.5,6.127,2.158l1.048-3.246c-2-.644-4-1.35-5.958-2.1Z" transform="translate(-2094.446 4082.307)" fill="#4d4d4d"/>
    <path id="Trazado_258915" data-name="Trazado 258915" d="M3194.188,1179.017c1.361,1.665,2.783,3.316,4.228,4.909l2.526-2.292c-1.406-1.549-2.79-3.156-4.114-4.775Z" transform="translate(-1999.787 4148.86)" fill="#4d4d4d"/>
    <path id="Trazado_258916" data-name="Trazado 258916" d="M3411.422,1301.583c2.12.331,4.283.612,6.427.833l.351-3.392c-2.085-.216-4.189-.489-6.25-.811Z" transform="translate(-2140.02 4070.522)" fill="#4d4d4d"/>
    <path id="Trazado_258917" data-name="Trazado 258917" d="M3375.653,1294.19c2.081.553,4.2,1.058,6.3,1.5l.7-3.337c-2.045-.43-4.107-.921-6.132-1.459Z" transform="translate(-2116.929 4075.247)" fill="#4d4d4d"/>
    <path id="Trazado_258918" data-name="Trazado 258918" d="M3172.565,1150.091c1.182,1.8,2.426,3.588,3.7,5.318l2.749-2.019c-1.236-1.682-2.445-3.423-3.595-5.172Z" transform="translate(-1985.828 4167.349)" fill="#4d4d4d"/>
    <path id="Trazado_258919" data-name="Trazado 258919" d="M3123.132,1016.776l-3.366.552c.348,2.121.758,4.263,1.217,6.365l3.332-.728C3123.868,1020.921,3123.47,1018.838,3123.132,1016.776Z" transform="translate(-1951.745 4252.2)" fill="#4d4d4d"/>
    <path id="Trazado_258920" data-name="Trazado 258920" d="M3118.3,950.968c0-1.834-.04-3.687-.12-5.508l-3.408.149c.078,1.771.117,3.574.117,5.359,0,.324,0,.647,0,.971l3.41-.027Q3118.3,951.44,3118.3,950.968Z" transform="translate(-1948.521 4298.237)" fill="#4d4d4d"/>
    <path id="Trazado_258921" data-name="Trazado 258921" d="M3119.127,981.441l-3.4.2c.127,2.148.312,4.32.549,6.457l3.39-.377C3119.43,985.644,3119.25,983.53,3119.127,981.441Z" transform="translate(-1949.134 4275.01)" fill="#4d4d4d"/>
    <path id="Trazado_258922" data-name="Trazado 258922" d="M3114.766,909.077l-3.374.5c.307,2.066.563,4.171.763,6.256l3.395-.324C3115.345,913.366,3115.081,911.2,3114.766,909.077Z" transform="translate(-1946.339 4321.724)" fill="#4d4d4d"/>
    <path id="Trazado_258923" data-name="Trazado 258923" d="M3130.861,1051.5l-3.289.9c.569,2.075,1.2,4.161,1.877,6.2l3.238-1.073C3132.029,1055.548,3131.415,1053.519,3130.861,1051.5Z" transform="translate(-1956.783 4229.784)" fill="#4d4d4d"/>
    <path id="Trazado_258924" data-name="Trazado 258924" d="M3107.649,873.247l-3.3.85c.522,2.029,1,4.1,1.41,6.143l3.343-.676C3108.674,877.459,3108.186,875.333,3107.649,873.247Z" transform="translate(-1941.79 4344.853)" fill="#4d4d4d"/>
    <path id="Trazado_258925" data-name="Trazado 258925" d="M3154.125,1119.135c.984,1.9,2.035,3.811,3.123,5.67l2.944-1.723c-1.058-1.808-2.08-3.663-3.036-5.514Z" transform="translate(-1973.924 4187.134)" fill="#4d4d4d"/>
    <path id="Trazado_258926" data-name="Trazado 258926" d="M3142.257,1085.242l-3.176,1.241c.78,2,1.625,4,2.512,5.961l3.107-1.407C3143.838,1089.133,3143.016,1087.183,3142.257,1085.242Z" transform="translate(-1964.213 4208.002)" fill="#4d4d4d"/>
    <g id="Grupo_171603" data-name="Grupo 171603" transform="translate(180 5119.081)" opacity="0.35" style="mix-blend-mode: multiply;isolation: isolate">
      <circle id="Elipse_6275" data-name="Elipse 6275" cx="91.457" cy="91.457" r="91.457" transform="translate(0 129.34) rotate(-45)" fill="#333"/>
    </g>
    <circle id="Elipse_6276" data-name="Elipse 6276" cx="91.457" cy="91.457" r="91.457" transform="translate(217.883 5340.147) rotate(-90)" fill="#d2e1f1"/>
    <path id="Trazado_258927" data-name="Trazado 258927" d="M619.442,1361.155a121.592,121.592,0,0,1-41.854-7.38l41.854,31.422,41.854-31.422A121.592,121.592,0,0,1,619.442,1361.155Z" transform="translate(-310.674 4034.655)" fill="#d2e1f1"/>
    <g id="Grupo_171604" data-name="Grupo 171604" transform="translate(669.643 5120.092)" opacity="0.35" style="mix-blend-mode: multiply;isolation: isolate">
      <circle id="Elipse_6277" data-name="Elipse 6277" cx="91.457" cy="91.457" r="91.457" transform="translate(0 129.34) rotate(-45)" fill="#333"/>
    </g>
    <circle id="Elipse_6278" data-name="Elipse 6278" cx="91.457" cy="91.457" r="91.457" transform="translate(670 5249.69) rotate(-45)" fill="#e2872c"/>
    <path id="Trazado_258928" data-name="Trazado 258928" d="M2002.852,1361.155a121.6,121.6,0,0,1-41.854-7.38l41.854,31.422,41.854-31.422A121.6,121.6,0,0,1,2002.852,1361.155Z" transform="translate(-1203.717 4034.655)" fill="#e2872c"/>
    <g id="Grupo_171605" data-name="Grupo 171605" transform="translate(1161.307 5121.103)" opacity="0.35" style="mix-blend-mode: multiply;isolation: isolate">
      <circle id="Elipse_6279" data-name="Elipse 6279" cx="91.457" cy="91.457" r="91.457" transform="translate(0 129.34) rotate(-45)" fill="#333"/>
    </g>
    <circle id="Elipse_6280" data-name="Elipse 6280" cx="91.457" cy="91.457" r="91.457" transform="translate(1161 5250.69) rotate(-45)" fill="#5000c7"/>
    <path id="Trazado_258929" data-name="Trazado 258929" d="M3386.263,1361.155a121.589,121.589,0,0,1-41.854-7.38l41.854,31.422,41.854-31.422A121.591,121.591,0,0,1,3386.263,1361.155Z" transform="translate(-2096.76 4034.655)" fill="#5000c7"/>
    <g id="Grupo_171607" data-name="Grupo 171607" transform="translate(425 5120.35)">
      <g id="Grupo_171606" data-name="Grupo 171606" transform="translate(0 0.081)" opacity="0.35" style="mix-blend-mode: multiply;isolation: isolate">
        <circle id="Elipse_6281" data-name="Elipse 6281" cx="91.457" cy="91.457" r="91.457" transform="translate(0 129.34) rotate(-45)" fill="#333"/>
      </g>
      <circle id="Elipse_6282" data-name="Elipse 6282" cx="91.457" cy="91.457" r="91.457" transform="translate(0.013 129.34) rotate(-45)" fill="#e53935"/>
    </g>
    <path id="Trazado_258930" data-name="Trazado 258930" d="M1314,1361.257a121.6,121.6,0,0,1-41.854-7.38L1314,1385.3l41.854-31.422A121.6,121.6,0,0,1,1314,1361.257Z" transform="translate(-759.037 4034.589)" fill="#e53935"/>
    <path id="Trazado_258931" data-name="Trazado 258931" d="M2697.1,1361.257a121.6,121.6,0,0,1-41.854-7.38L2697.1,1385.3l41.854-31.422A121.6,121.6,0,0,1,2697.1,1361.257Z" transform="translate(-1651.88 4034.589)" fill="#81af1d"/>
    <g id="Grupo_171609" data-name="Grupo 171609" transform="translate(916.324 5120.092)" opacity="0.35" style="mix-blend-mode: multiply;isolation: isolate">
      <circle id="Elipse_6283" data-name="Elipse 6283" cx="91.457" cy="91.457" r="91.457" transform="translate(0 129.34) rotate(-45)" fill="#333"/>
    </g>
    <circle id="Elipse_6284" data-name="Elipse 6284" cx="91.457" cy="91.457" r="91.457" transform="translate(916 5249.69) rotate(-45)" fill="#81af1d"/>
    <g id="Grupo_171614" data-name="Grupo 171614" transform="translate(0 -153.461)">
      <g id="Grupo_171612" data-name="Grupo 171612" transform="translate(986.742 5344.851)">
        <g id="Grupo_171611" data-name="Grupo 171611">
          <path id="Trazado_258932" data-name="Trazado 258932" d="M190.136,278.762c-10.827,2.673-21.9-7.962-19.114-18.3C181.832,257.788,192.932,268.415,190.136,278.762Z" transform="translate(-132.347 -201.16)" fill="#feef8f"/>
          <path id="Trazado_258933" data-name="Trazado 258933" d="M189.114,279.027c-10.623,1.768-20.763-8.574-18.09-18.506a14.493,14.493,0,0,1,5.76-.21q-.522.085-1.029.21C173.565,268.657,180.093,277.6,189.114,279.027Z" transform="translate(-132.35 -201.216)" fill="#fde31d"/>
          <path id="Trazado_258934" data-name="Trazado 258934" d="M202.04,188.865c-8.809,2.175-17.817-6.478-15.551-14.886C195.284,171.8,204.316,180.446,202.04,188.865Z" transform="translate(-144.251 -135.003)" fill="#feef8f"/>
          <path id="Trazado_258935" data-name="Trazado 258935" d="M201.64,189c-8.732,1.806-17.372-6.724-15.148-14.978a11.926,11.926,0,0,1,5.137-.093c-.137.03-.272.059-.407.093C189.476,180.5,194.522,187.606,201.64,189Z" transform="translate(-144.254 -135.046)" fill="#fde31d"/>
          <path id="Trazado_258936" data-name="Trazado 258936" d="M215.466,114.633c-6.533,1.613-13.214-4.8-11.533-11.04C210.456,101.978,217.153,108.39,215.466,114.633Z" transform="translate(-157.677 -81.182)" fill="#feef8f"/>
          <path id="Trazado_258937" data-name="Trazado 258937" d="M215.5,114.513c-.012.052-.024.1-.038.152-6.523,1.609-13.217-4.8-11.531-11.04a8.981,8.981,0,0,1,4.693.147C207.517,108.255,210.745,113.113,215.5,114.513Z" transform="translate(-157.676 -81.212)" fill="#fde31d"/>
          <path id="Trazado_258938" data-name="Trazado 258938" d="M256.419,278.762c10.827,2.673,21.9-7.962,19.114-18.3C264.723,257.788,253.622,268.415,256.419,278.762Z" transform="translate(-197.728 -201.16)" fill="#feef8f"/>
          <path id="Trazado_258939" data-name="Trazado 258939" d="M261.157,278.793c.338.084.679.154,1.024.208a14.518,14.518,0,0,1-5.755-.208c-2.681-9.91,7.452-20.283,18.086-18.508C265.56,261.7,258.939,270.6,261.157,278.793Z" transform="translate(-197.734 -201.19)" fill="#fde31d"/>
          <path id="Trazado_258940" data-name="Trazado 258940" d="M256.685,188.865c8.809,2.175,17.817-6.478,15.551-14.886C263.441,171.8,254.41,180.446,256.685,188.865Z" transform="translate(-197.994 -135.003)" fill="#feef8f"/>
          <path id="Trazado_258941" data-name="Trazado 258941" d="M261.422,188.875c.132.032.267.063.4.09a11.942,11.942,0,0,1-5.133-.09c-2.228-8.247,6.413-16.791,15.143-14.98C264.718,175.294,259.671,182.4,261.422,188.875Z" transform="translate(-197.999 -135.012)" fill="#fde31d"/>
          <path id="Trazado_258942" data-name="Trazado 258942" d="M256.984,114.633c6.533,1.613,13.214-4.8,11.533-11.04C262,101.978,255.3,108.39,256.984,114.633Z" transform="translate(-198.293 -81.182)" fill="#feef8f"/>
          <path id="Trazado_258943" data-name="Trazado 258943" d="M261.68,114.479a8.98,8.98,0,0,1-4.693.152c-1.686-6.221,4.988-12.666,11.534-11.04.014.05.026.1.038.147C263.826,105.13,260.561,109.975,261.68,114.479Z" transform="translate(-198.296 -81.178)" fill="#fde31d"/>
          <path id="Trazado_258944" data-name="Trazado 258944" d="M238.815,27.581c-6.982-3.942-6.982-14.841,0-18.784C245.8,12.733,245.8,23.642,238.815,27.581Z" transform="translate(-180.575 -8.797)" fill="#feef8f"/>
          <path id="Trazado_258945" data-name="Trazado 258945" d="M240.592,26.294a9.675,9.675,0,0,1-1.774,1.288c-6.975-3.939-6.988-14.843,0-18.784a9.577,9.577,0,0,1,1.774,1.288A11.2,11.2,0,0,0,240.592,26.294Z" transform="translate(-180.578 -8.798)" fill="#fde31d"/>
          <path id="Trazado_258946" data-name="Trazado 258946" d="M26.146,278.763c-10.349,2.67-20.967-7.946-18.3-18.3C18.192,257.79,28.823,268.412,26.146,278.763Z" transform="translate(-7.431 -201.16)" fill="#feef8f"/>
          <path id="Trazado_258947" data-name="Trazado 258947" d="M25.169,279.027C15,280.8,5.293,270.455,7.852,260.522a13.294,13.294,0,0,1,5.513-.21q-.5.085-.985.21C10.266,268.728,16.6,277.611,25.169,279.027Z" transform="translate(-7.436 -201.216)" fill="#fde31d"/>
          <path id="Trazado_258948" data-name="Trazado 258948" d="M37.541,188.865c-8.42,2.172-17.059-6.465-14.886-14.886C31.07,171.8,39.72,180.444,37.541,188.865Z" transform="translate(-18.827 -135.004)" fill="#feef8f"/>
          <path id="Trazado_258949" data-name="Trazado 258949" d="M37.16,189c-8.373,1.809-16.627-6.736-14.5-14.978a10.94,10.94,0,0,1,4.918-.093c-.131.03-.26.059-.39.093C25.511,180.52,30.367,187.61,37.16,189Z" transform="translate(-18.831 -135.046)" fill="#fde31d"/>
          <path id="Trazado_258950" data-name="Trazado 258950" d="M47.824,106.195a8.991,8.991,0,0,1,2.57,8.47c-6.245,1.611-12.651-4.795-11.04-11.04A8.991,8.991,0,0,1,47.824,106.195Z" transform="translate(-31.679 -81.213)" fill="#feef8f"/>
          <path id="Trazado_258951" data-name="Trazado 258951" d="M50.429,114.513c-.011.052-.023.1-.036.152-6.24,1.608-12.653-4.795-11.038-11.04a8.243,8.243,0,0,1,4.492.147C42.782,108.268,45.887,113.117,50.429,114.513Z" transform="translate(-31.679 -81.212)" fill="#fde31d"/>
          <path id="Trazado_258952" data-name="Trazado 258952" d="M89.6,278.763c10.349,2.67,20.967-7.946,18.3-18.3C97.549,257.79,86.918,268.412,89.6,278.763Z" transform="translate(-70.018 -201.16)" fill="#feef8f"/>
          <path id="Trazado_258953" data-name="Trazado 258953" d="M94.134,278.792c.324.084.65.154.98.208a13.316,13.316,0,0,1-5.509-.208c-2.562-9.892,7.111-20.287,17.312-18.508C98.271,261.714,92.032,270.676,94.134,278.792Z" transform="translate(-70.027 -201.188)" fill="#fde31d"/>
          <path id="Trazado_258954" data-name="Trazado 258954" d="M89.85,188.865c8.42,2.172,17.059-6.465,14.886-14.886C96.321,171.8,87.672,180.444,89.85,188.865Z" transform="translate(-70.272 -135.004)" fill="#feef8f"/>
          <path id="Trazado_258955" data-name="Trazado 258955" d="M94.384,188.876c.127.032.256.063.385.09a10.955,10.955,0,0,1-4.913-.09c-2.135-8.256,6.149-16.789,14.5-14.98C102.026,174.373,92.7,182.368,94.384,188.876Z" transform="translate(-70.277 -135.013)" fill="#fde31d"/>
          <path id="Trazado_258956" data-name="Trazado 258956" d="M90.138,114.634c6.245,1.611,12.651-4.795,11.04-11.04C94.937,101.979,88.522,108.388,90.138,114.634Z" transform="translate(-70.56 -81.182)" fill="#feef8f"/>
          <path id="Trazado_258957" data-name="Trazado 258957" d="M94.631,114.482a8.243,8.243,0,0,1-4.492.152c-1.618-6.238,4.8-12.66,11.04-11.04.014.05.025.1.036.147C96.676,105.136,93.562,109.988,94.631,114.482Z" transform="translate(-70.56 -81.181)" fill="#fde31d"/>
          <path id="Trazado_258958" data-name="Trazado 258958" d="M72.745,27.581c-6.683-3.942-6.684-14.841,0-18.784C79.428,12.733,79.433,23.642,72.745,27.581Z" transform="translate(-53.6 -8.797)" fill="#feef8f"/>
          <path id="Trazado_258959" data-name="Trazado 258959" d="M74.446,26.294a9.29,9.29,0,0,1-1.7,1.288c-6.677-3.939-6.689-14.843,0-18.784a9.2,9.2,0,0,1,1.7,1.288A11.552,11.552,0,0,0,74.446,26.294Z" transform="translate(-53.602 -8.798)" fill="#fde31d"/>
          <path id="Trazado_258960" data-name="Trazado 258960" d="M359.84,278.763c-10.349,2.67-20.967-7.946-18.3-18.3C351.886,257.79,362.517,268.412,359.84,278.763Z" transform="translate(-262.916 -201.16)" fill="#feef8f"/>
          <path id="Trazado_258961" data-name="Trazado 258961" d="M358.864,279.027c-10.167,1.768-19.876-8.572-17.317-18.506a13.3,13.3,0,0,1,5.513-.21q-.5.085-.985.21c-2.114,8.207,4.222,17.089,12.789,18.506Z" transform="translate(-262.921 -201.216)" fill="#fde31d"/>
          <path id="Trazado_258962" data-name="Trazado 258962" d="M371.236,188.865c-8.42,2.172-17.059-6.465-14.886-14.886C364.765,171.8,373.415,180.444,371.236,188.865Z" transform="translate(-274.313 -135.004)" fill="#feef8f"/>
          <path id="Trazado_258963" data-name="Trazado 258963" d="M370.855,189c-8.373,1.809-16.627-6.736-14.5-14.978a10.94,10.94,0,0,1,4.918-.093c-.131.03-.26.059-.39.093C359.206,180.52,364.062,187.61,370.855,189Z" transform="translate(-274.317 -135.046)" fill="#fde31d"/>
          <path id="Trazado_258964" data-name="Trazado 258964" d="M384.089,115.252c-6.245,1.611-12.651-4.795-11.04-11.04C375.833,103.491,385.7,109.006,384.089,115.252Z" transform="translate(-287.165 -81.8)" fill="#feef8f"/>
          <path id="Trazado_258965" data-name="Trazado 258965" d="M384.123,114.513c-.011.052-.023.1-.036.152-6.24,1.608-12.653-4.8-11.038-11.04a8.244,8.244,0,0,1,4.492.147C376.476,108.268,379.581,113.117,384.123,114.513Z" transform="translate(-287.164 -81.212)" fill="#fde31d"/>
          <path id="Trazado_258966" data-name="Trazado 258966" d="M423.291,278.763a15.565,15.565,0,0,0,18.3-18.3C431.244,257.79,420.613,268.412,423.291,278.763Z" transform="translate(-325.504 -201.16)" fill="#feef8f"/>
          <path id="Trazado_258967" data-name="Trazado 258967" d="M427.828,278.792c.324.084.65.154.98.208a13.316,13.316,0,0,1-5.509-.208c-2.562-9.892,7.111-20.287,17.312-18.508-8.647,1.43-14.886,10.392-12.784,18.508Z" transform="translate(-325.512 -201.188)" fill="#fde31d"/>
          <path id="Trazado_258968" data-name="Trazado 258968" d="M427.054,177.486a12.123,12.123,0,0,0-3.465,11.421c8.42,2.172,17.059-6.465,14.886-14.886a12.123,12.123,0,0,0-11.421,3.465Z" transform="translate(-325.801 -135.046)" fill="#feef8f"/>
          <path id="Trazado_258969" data-name="Trazado 258969" d="M431.583,177.485a12.121,12.121,0,0,0-3.464,11.421c.127.032.256.063.385.09a10.955,10.955,0,0,1-4.913-.09,12.686,12.686,0,0,1,14.5-14.98A12.926,12.926,0,0,0,431.583,177.485Z" transform="translate(-325.803 -135.044)" fill="#fde31d"/>
          <path id="Trazado_258970" data-name="Trazado 258970" d="M423.832,114.634c6.245,1.611,12.651-4.795,11.04-11.04C428.631,101.979,422.217,108.388,423.832,114.634Z" transform="translate(-326.045 -81.182)" fill="#feef8f"/>
          <path id="Trazado_258971" data-name="Trazado 258971" d="M428.326,114.482a8.243,8.243,0,0,1-4.492.152c-1.618-6.238,4.8-12.66,11.04-11.04.014.05.025.1.036.147C430.371,105.136,427.257,109.988,428.326,114.482Z" transform="translate(-326.046 -81.181)" fill="#fde31d"/>
          <path id="Trazado_258972" data-name="Trazado 258972" d="M406.439,27.581c-6.683-3.942-6.684-14.841,0-18.784C413.122,12.733,413.127,23.642,406.439,27.581Z" transform="translate(-309.085 -8.797)" fill="#feef8f"/>
          <path id="Trazado_258973" data-name="Trazado 258973" d="M408.14,26.294a9.291,9.291,0,0,1-1.7,1.288c-6.677-3.939-6.689-14.843,0-18.784a9.2,9.2,0,0,1,1.7,1.288A11.552,11.552,0,0,0,408.14,26.294Z" transform="translate(-309.087 -8.798)" fill="#fde31d"/>
          <path id="Trazado_258974" data-name="Trazado 258974" d="M100.188,392.292a18.093,18.093,0,0,0-21.433-3.629,20.135,20.135,0,0,0-26.066,0,18.094,18.094,0,0,0-21.433,3.629A20.158,20.158,0,0,0,7.5,412.125H123.947a20.158,20.158,0,0,0-23.758-19.834Z" transform="translate(-7.482 -295.967)" fill="#a6696a"/>
          <path id="Trazado_258975" data-name="Trazado 258975" d="M123.947,450.028H7.5a20.139,20.139,0,0,1,8.784-16.647,20.07,20.07,0,0,0-3.512,11.375H123.249a20.062,20.062,0,0,1,.7,5.272Z" transform="translate(-7.482 -333.87)" fill="#783d3e"/>
        </g>
      </g>
      <g id="Grupo_171613" data-name="Grupo 171613" transform="translate(985 5342.811)">
        <path id="Trazado_258976" data-name="Trazado 258976" d="M100.854,96.556V81.775c11.223,1.446,21.492-9.853,18.673-20.776l-.259-1-1-.259c-6.565-1.7-13.289,1.249-17.412,6.666V58.014c9.082,1,17.627-8.177,15.263-17.345l-.259-1a13.729,13.729,0,0,0-14.106,3.665h0q-.474.474-.9.98v-6.74c6.863.476,13.222-6.464,11.416-13.465l-.259-1-1-.259a10.592,10.592,0,0,0-10.15,3.032l0,0V21.859c6.974-5.016,6.681-16.795-.866-21.241L99.1.093a12.31,12.31,0,0,0-6.769,11.432A12.526,12.526,0,0,0,97.34,21.86v5.5c-2.744-2.743-7.479-5.216-10.154-4.522l-1,.259a10.616,10.616,0,0,0,2.774,11.151,10.834,10.834,0,0,0,8.383,3.318v6.745a13.794,13.794,0,0,0-15-4.65,13.652,13.652,0,0,0,3.671,14.1A13.914,13.914,0,0,0,97.34,58.015V66.4c-4.1-5.383-10.8-8.362-17.382-6.673-6.67-1.646-13.883,1.216-18.219,6.857V58a13.487,13.487,0,0,0,1.465.083,15.157,15.157,0,0,0,10.732-4.652,13.335,13.335,0,0,0,3.744-12.783l-.27-1-1-.249a14.751,14.751,0,0,0-13.931,4.269c-.257.263-.5.532-.736.807V37.56c.249.018.5.03.748.03A11.7,11.7,0,0,0,70.772,34a10.338,10.338,0,0,0,2.891-9.916l-.27-1-1-.249a11.379,11.379,0,0,0-10.649,3.177V21.887a12.361,12.361,0,0,0,5.237-10.362A12.283,12.283,0,0,0,60.844.6L59.98.115,59.117.6a12.289,12.289,0,0,0-6.13,10.922,12.367,12.367,0,0,0,5.237,10.363v4.128A11.583,11.583,0,0,0,46.57,23.087,10.323,10.323,0,0,0,49.191,34a11.7,11.7,0,0,0,8.285,3.586c.25,0,.5-.012.748-.03v6.918q-.352-.412-.736-.807a14.845,14.845,0,0,0-14.936-4.02,13.253,13.253,0,0,0,3.475,13.783,15.157,15.157,0,0,0,10.732,4.652A13.494,13.494,0,0,0,58.224,58v8.584c-4.328-5.631-11.533-8.5-18.208-6.86-6.59-1.685-13.284,1.306-17.371,6.676V58.014c9.059,1,17.632-8.159,15.263-17.345l-.259-1a13.772,13.772,0,0,0-15,4.65V37.571a10.834,10.834,0,0,0,8.383-3.318A10.667,10.667,0,0,0,33.8,23.1,10.61,10.61,0,0,0,22.65,25.875l0,0V21.859a12.52,12.52,0,0,0,5.013-10.333A12.434,12.434,0,0,0,20.886.093a12.31,12.31,0,0,0-6.769,11.432A12.526,12.526,0,0,0,19.131,21.86v4.014l0,0A10.915,10.915,0,0,0,7.973,23.1a10.616,10.616,0,0,0,2.774,11.151,10.834,10.834,0,0,0,8.383,3.318v6.745a13.767,13.767,0,0,0-15-4.65A13.652,13.652,0,0,0,7.8,53.766a13.914,13.914,0,0,0,11.333,4.248V66.4c-4.123-5.416-10.848-8.365-17.412-6.666L.716,60A16.328,16.328,0,0,0,5.182,76.711a16.675,16.675,0,0,0,13.949,5.068V96.553A21.917,21.917,0,0,0,0,118.292v1.757H15.244v-3.514H3.6A18.4,18.4,0,0,1,25.2,100.187l.933.168.653-.687A16.43,16.43,0,0,1,46.142,96.39l1.046.54.9-.761a18.325,18.325,0,0,1,23.792,0l.9.761,1.046-.54a16.432,16.432,0,0,1,19.352,3.279l.653.687.933-.168a18.4,18.4,0,0,1,21.606,16.347H105.7v3.514h14.26v-1.757a21.913,21.913,0,0,0-19.109-21.735ZM116.34,62.92c1.316,8.4-6.92,16.646-15.329,15.328C99.665,69.877,107.959,61.572,116.34,62.92Zm-3.42-20.315c.854,6.432-5.454,12.749-11.893,11.893C100.192,48.038,106.46,41.77,112.92,42.606Zm-3.874-16.54a7.827,7.827,0,0,1-8,8A7.828,7.828,0,0,1,109.046,26.066Zm-19.914.319c3.225.9,7.829,4.316,7.949,7.681A7.862,7.862,0,0,1,89.132,26.385ZM97.171,54.5c-6.431.86-12.753-5.455-11.9-11.9C91.706,41.742,98.031,48.061,97.171,54.5ZM64.987,46.13A11.411,11.411,0,0,1,74.5,42.614a10.107,10.107,0,0,1-3.074,8.362,11.414,11.414,0,0,1-9.509,3.514,10.1,10.1,0,0,1,3.07-8.359Zm-.852-17.544a8.076,8.076,0,0,1,6.318-2.512,7.141,7.141,0,0,1-2.191,5.471,8.073,8.073,0,0,1-6.315,2.511,7.134,7.134,0,0,1,2.189-5.469Zm-6.116,5.469A8.069,8.069,0,0,1,51.7,31.544a7.141,7.141,0,0,1-2.191-5.471,8.082,8.082,0,0,1,6.318,2.512,7.134,7.134,0,0,1,2.189,5.469Zm.029,20.434c-6.8.891-13.466-5.414-12.583-11.875C52.262,41.718,58.934,48.03,58.047,54.489ZM34.71,42.6c.857,6.434-5.458,12.755-11.9,11.9C21.955,48.065,28.274,41.742,34.71,42.6ZM30.837,26.066a7.827,7.827,0,0,1-8,8A7.828,7.828,0,0,1,30.837,26.066Zm-11.906,8a7.828,7.828,0,0,1-7.992-7.992A7.815,7.815,0,0,1,18.931,34.062Zm.03,20.437c-6.431.86-12.753-5.455-11.9-11.9C13.5,41.743,19.822,48.06,18.961,54.5Zm.012,23.753C10.6,79.594,2.3,71.308,3.643,62.921c8.375-1.345,16.68,6.946,15.331,15.331ZM99.1,4.26c4.336,3.445,4.362,11.066,0,14.53C94.758,15.34,94.738,7.726,99.1,4.26ZM97.182,78.251C88.77,79.6,80.513,71.264,81.852,62.921c8.376-1.345,16.681,6.947,15.331,15.331ZM78.075,62.932C79.462,71.3,70.765,79.622,61.9,78.24c-1.4-8.41,7.357-16.686,16.172-15.307ZM56.5,11.525a8.941,8.941,0,0,1,3.48-7.3,8.937,8.937,0,0,1,3.48,7.3,8.934,8.934,0,0,1-3.48,7.3,8.941,8.941,0,0,1-3.48-7.3ZM58.06,78.24c-8.891,1.389-17.554-6.968-16.172-15.307,8.824-1.382,17.57,6.907,16.172,15.307ZM38.133,62.921c.055.345.089.693.113,1.04a14.654,14.654,0,0,0,0,1.556C37.771,72.8,30.41,79.47,22.8,78.251c-1.348-8.372,6.946-16.681,15.331-15.331ZM20.888,4.26a9.132,9.132,0,0,1,3.256,7.266,9.129,9.129,0,0,1-3.256,7.264C16.549,15.34,16.529,7.726,20.888,4.26ZM46.709,92.766A19.849,19.849,0,0,0,24.9,96.582a22.133,22.133,0,0,0-2.258-.192V81.779c7.3.974,14.258-3.556,17.4-9.82C43.4,78.4,50.765,82.743,58.225,81.764v6.57a21.839,21.839,0,0,0-11.515,4.431Zm26.545,0a21.841,21.841,0,0,0-11.515-4.431v-6.57c7.44.976,14.827-3.349,18.188-9.826,3.147,6.29,10.107,10.815,17.413,9.841V96.389a22.092,22.092,0,0,0-2.28.193,19.848,19.848,0,0,0-21.805-3.816Z" transform="translate(0 -0.093)"/>
        <path id="Trazado_258977" data-name="Trazado 258977" d="M76.8,496.912h84.439v3.514H76.8Z" transform="translate(-58.802 -380.471)"/>
        <path id="Trazado_258978" data-name="Trazado 258978" d="M130.391,442.359h3.459v3.514h-3.459Z" transform="translate(-99.831 -338.704)"/>
        <path id="Trazado_258979" data-name="Trazado 258979" d="M248.544,425.884H252V429.4h-3.459Z" transform="translate(-190.292 -326.09)"/>
        <path id="Trazado_258980" data-name="Trazado 258980" d="M403.9,457.483h3.459V461H403.9Z" transform="translate(-309.239 -350.283)"/>
        <path id="Trazado_258981" data-name="Trazado 258981" d="M184.408,448.417h3.459v3.514h-3.459Z" transform="translate(-141.188 -343.342)"/>
        <path id="Trazado_258982" data-name="Trazado 258982" d="M341.192,432.03h3.459v3.514h-3.459Z" transform="translate(-261.226 -330.795)"/>
        <path id="Trazado_258983" data-name="Trazado 258983" d="M292.945,457.483H296.4V461h-3.459Z" transform="translate(-224.286 -350.283)"/>
        <path id="Trazado_258984" data-name="Trazado 258984" d="M70.923,448.417h3.632v3.514H70.923Z" transform="translate(-54.301 -343.342)"/>
      </g>
    </g>
    <g id="Grupo_171616" data-name="Grupo 171616" transform="translate(-3 -152.65)">
      <g id="Grupo_171615" data-name="Grupo 171615" transform="translate(1222.012 5314.012)">
        <path id="Trazado_258985" data-name="Trazado 258985" d="M138.114,136.9h0a13,13,0,0,1-13,13H29a13,13,0,0,1-13-13h0a12.982,12.982,0,0,1,1.555-6.165L65.281,47.29A13.162,13.162,0,0,1,77.057,40h0a13.162,13.162,0,0,1,11.776,7.284l47.726,83.445A12.984,12.984,0,0,1,138.114,136.9Z" transform="translate(-5.974 -5.974)" fill="#474747"/>
        <path id="Trazado_258986" data-name="Trazado 258986" d="M48,160.812h0a4.807,4.807,0,0,1,.651-2.418L97.863,73.76A3.539,3.539,0,0,1,100.916,72h0a3.539,3.539,0,0,1,3.053,1.76l49.212,84.633a4.807,4.807,0,0,1,.651,2.418h0a4.809,4.809,0,0,1-4.809,4.809H52.809A4.809,4.809,0,0,1,48,160.812Z" transform="translate(-29.833 -29.833)" fill="#f4a93c"/>
        <path id="Trazado_258987" data-name="Trazado 258987" d="M145.687,171.071a4.807,4.807,0,0,0-.651-2.418L96.841,85.76,48.647,168.653A4.809,4.809,0,0,0,52.8,175.88h88.073A4.809,4.809,0,0,0,145.687,171.071Z" transform="translate(-29.829 -40.092)" fill="#f6b940"/>
        <path id="Trazado_258988" data-name="Trazado 258988" d="M240.282,168.282v-8.141a8.141,8.141,0,0,0-16.282,0v8.141Z" transform="translate(-161.058 -89.481)" fill="#f2f2f2"/>
        <path id="Trazado_258989" data-name="Trazado 258989" d="M216.415,216H200.133v18.478a16.282,16.282,0,1,0,16.282,0Z" transform="translate(-137.191 -137.199)" fill="#474747"/>
        <path id="Trazado_258990" data-name="Trazado 258990" d="M234.17,216.851V184H230.1v32.851a8.141,8.141,0,1,0,4.07,0Z" transform="translate(-161.052 -113.34)" fill="#e73b1e"/>
        <path id="Trazado_258991" data-name="Trazado 258991" d="M132.344,123.752,84.681,40.4a15.193,15.193,0,0,0-27.14-.1L9.788,123.8a15.038,15.038,0,0,0,13.243,22.168h96.1a15.036,15.036,0,0,0,13.209-22.213Zm-13.209,18.142h-96.1a10.97,10.97,0,0,1-9.684-16.123L61.127,42.218a11.131,11.131,0,0,1,19.966.1l47.7,83.406a10.966,10.966,0,0,1-9.657,16.168Z" transform="translate(0)"/>
        <path id="Trazado_258992" data-name="Trazado 258992" d="M99.766,66.768a5.575,5.575,0,0,0-9.635,0L40.925,151.4a6.847,6.847,0,0,0,5.916,10.288h96.214a6.844,6.844,0,0,0,5.916-10.286Zm43.29,90.851H46.842a2.776,2.776,0,0,1-2.774-2.774,2.746,2.746,0,0,1,.377-1.394l49.2-84.636a1.506,1.506,0,0,1,2.6,0l49.2,84.638a2.735,2.735,0,0,1,.377,1.392A2.776,2.776,0,0,1,143.056,157.62Z" transform="translate(-23.866 -23.867)"/>
        <path id="Trazado_258993" data-name="Trazado 258993" d="M212.488,179.668V154.176a10.176,10.176,0,0,0-20.352,0v25.491a18.317,18.317,0,1,0,20.352,0Zm-10.176-31.6a6.106,6.106,0,0,1,6.106,6.106v6.106h-4.07v-6.106h-4.07v6.106h-4.07v-6.106A6.106,6.106,0,0,1,202.311,148.07Zm0,61.057a14.247,14.247,0,0,1-7.123-26.572,2.035,2.035,0,0,0,1.018-1.761V164.352h4.07v20.556a10.176,10.176,0,1,0,4.07,0V164.352h4.07V180.8a2.035,2.035,0,0,0,1.018,1.761,14.247,14.247,0,0,1-7.123,26.572Zm0-20.352a6.106,6.106,0,1,1-6.106,6.106A6.106,6.106,0,0,1,202.311,188.775Z" transform="translate(-131.228 -83.516)"/>
      </g>
    </g>
    <g id="Grupo_171618" data-name="Grupo 171618" transform="translate(731 5167.349)">
      <g id="Grupo_171617" data-name="Grupo 171617" transform="translate(2.003 20.006)">
        <path id="Trazado_258994" data-name="Trazado 258994" d="M232.671,252.767a17.733,17.733,0,0,0-17.737-17.731l-.447.007a20.226,20.226,0,0,0-13.569-8.1,20.789,20.789,0,0,0-2.766-.189,21.048,21.048,0,0,0-2.311.129,20.244,20.244,0,0,0-14.131,8.294,17.1,17.1,0,0,0-2.257-.144,17.737,17.737,0,0,0-17.381,14.194c-9.447,6.15,24.283,45.262,85.3,19.192A15.658,15.658,0,0,0,232.671,252.8Z" transform="translate(-119.608 -172.968)" fill="#a66d30" fill-rule="evenodd"/>
        <path id="Trazado_258995" data-name="Trazado 258995" d="M108.363,334.411V303.865a8.1,8.1,0,0,0-.121-1.364l22.631-3.719c11.88-1.954,17.319-3.7,24.979-2.295l11.812,2.167c11.107,3.537,9.107,15.95-2.493,14.776-4.409-.447-9.614-1.151-13.486-1.643-5.607-.848-8.107,7.749-1.682,9.8l18.517,3.37c4.788.749,5.447.363,10.205-.561l22.813-4.461c14.735-4.734,16.244,9.12,6.174,12.345l-35.078,11.24c-9.577,3.067-14.161,4.923-24.571,1.689Z" transform="translate(-81.316 -223.687)" fill="#f5df87" fill-rule="evenodd"/>
        <path id="Trazado_258996" data-name="Trazado 258996" d="M7.5,334.783V303.873a7.914,7.914,0,0,1,7.888-7.884H26.65a7.92,7.92,0,0,1,7.773,6.521,8.1,8.1,0,0,1,.122,1.364v30.909a7.918,7.918,0,0,1-7.895,7.892H15.384A7.911,7.911,0,0,1,7.5,334.783Z" transform="translate(-7.496 -223.696)" fill="#349ecf" fill-rule="evenodd"/>
        <path id="Trazado_258997" data-name="Trazado 258997" d="M7.5,334.783V303.873a7.914,7.914,0,0,1,7.888-7.884h7.463A7.9,7.9,0,0,0,15,303.873v30.909a7.91,7.91,0,0,0,7.886,7.892h-7.5A7.911,7.911,0,0,1,7.5,334.783Z" transform="translate(-7.496 -223.696)" fill="#4275ab" fill-rule="evenodd"/>
        <path id="Trazado_258998" data-name="Trazado 258998" d="M124.069,25.5c-5.818.045-7.9,3.514-7.811,8.952.553,34.9,24.153,48.457,39.466,35.036.045-.038.1-.083.144-.129l.083-.075C173.415,53.577,151.868,26.682,124.069,25.5Z" transform="translate(-87.187 -25.501)" fill="#8fde56" fill-rule="evenodd"/>
        <path id="Trazado_258999" data-name="Trazado 258999" d="M123.41,25.555c-5.319.3-7.243,3.712-7.152,8.938.537,34.007,22.957,47.746,38.268,36.022-14.562,4.787-31.806-9.453-32.283-39.226A11.151,11.151,0,0,1,123.41,25.555Z" transform="translate(-87.187 -25.541)" fill="#47a831" fill-rule="evenodd"/>
        <path id="Trazado_259000" data-name="Trazado 259000" d="M173.478,248.063c4.6-.757,8.235-1.477,11.4-2.007a32.2,32.2,0,0,1,24.13-18.215,20.226,20.226,0,0,0-3.78-.894,20.776,20.776,0,0,0-2.766-.189c-.431,0-.849.016-1.273.038-.349.023-.689.053-1.038.091a20.241,20.241,0,0,0-14.13,8.294,17.118,17.118,0,0,0-2.258-.144,17.735,17.735,0,0,0-17.38,14.194Z" transform="translate(-123.92 -172.968)" fill="#6e3e0b" fill-rule="evenodd"/>
        <path id="Trazado_259001" data-name="Trazado 259001" d="M108.363,303.867v4.68l14.517-2.386,7.675-1.266c11.887-1.953,17.328-3.7,24.988-2.294l11.811,2.166c3.515,1.121,5.713,3.129,6.713,5.31,2.318-3.658.463-9.232-6.4-11.422l-11.812-2.167c-4.7-.863-8.554-.537-13.578.288-3.167.531-6.8,1.25-11.4,2.007l-7.092,1.166L108.242,302.5A8.1,8.1,0,0,1,108.363,303.867Z" transform="translate(-81.316 -223.689)" fill="#d9a13f" fill-rule="evenodd"/>
        <path id="Trazado_259002" data-name="Trazado 259002" d="M383.4,87.639c4.811,1.008,5.969,4.219,4.985,8.71-6.243,28.8-28.033,36.113-38.473,22.464-.039-.045-.068-.091-.107-.136l-.052-.069C337.9,102.712,360.2,84.011,383.4,87.639Z" transform="translate(-255.868 -70.697)" fill="#8fde56" fill-rule="evenodd"/>
        <path id="Trazado_259003" data-name="Trazado 259003" d="M395.644,89.376c4.357,1.127,5.387,4.264,4.44,8.581-6.085,28.054-26.919,35.719-37.648,23.472,11.259,6.377,27.9-2.552,33.223-27.114A9.337,9.337,0,0,0,395.644,89.376Z" transform="translate(-267.572 -72.304)" fill="#47a831" fill-rule="evenodd"/>
      </g>
      <path id="Trazado_259004" data-name="Trazado 259004" d="M134.446,115.544a8.244,8.244,0,0,0-2.737-1.619,17.686,17.686,0,0,0-14.717-15.889A19.767,19.767,0,0,0,97.868,80.077a22.3,22.3,0,0,0-6.849-5.652l4.712-3.559A17.539,17.539,0,0,0,108.8,76.778a18.984,18.984,0,0,0,4.063-.449c5.192-1.139,10.09-4.37,14.168-9.346,4.363-5.326,7.627-12.553,9.436-20.9.686-3.125.4-5.681-.836-7.6a8.5,8.5,0,0,0-5.695-3.5l-.1-.018a41.106,41.106,0,0,0-21.749,2.584c-6.541,2.7-11.793,6.926-14.79,11.895-3.643,6.04-3.625,12.455,0,18.234l-6.6,4.985a22.119,22.119,0,0,0-6.15-.875c-.136,0-.27,0-.406.006L73.32,64.114c5.646-5.8,7.213-13.215,4.4-21.046C75.42,36.674,70.353,30.613,63.447,26a48.363,48.363,0,0,0-24.476-8l-.1,0a9.7,9.7,0,0,0-7.154,2.62c-1.843,1.889-2.708,4.626-2.645,8.368.158,10.059,2.252,19.155,6.053,26.3,3.538,6.653,8.414,11.49,14.1,13.986a20.427,20.427,0,0,0,21.082-2.52l5.026,5.66a22.356,22.356,0,0,0-12.141,7.7c-.438-.029-.887-.044-1.342-.044A19.791,19.791,0,0,0,42.837,94.5l-12.476,2.05a9.912,9.912,0,0,0-9.2-6.26H9.891A9.9,9.9,0,0,0,0,100.183v11.043a2,2,0,1,0,4.007,0V100.183A5.889,5.889,0,0,1,9.89,94.3H21.156a5.9,5.9,0,0,1,5.8,4.828.065.065,0,0,1,0,.014.193.193,0,0,1,.005.024,5.8,5.8,0,0,1,.09,1.015v30.908a5.9,5.9,0,0,1-5.891,5.888H9.891a5.893,5.893,0,0,1-5.884-5.888V120.474a2,2,0,1,0-4.007,0v10.619a9.9,9.9,0,0,0,9.891,9.9H21.157a9.912,9.912,0,0,0,9.65-7.7l17.622,4.8a2.037,2.037,0,0,0,.527.07,2,2,0,0,0,.524-3.937L31.054,129.2V100.5l13.808-2.269h.006l7.018-1.152c2.552-.421,4.832-.835,6.843-1.2,7.348-1.336,11.785-2.142,17.449-1.1L87.862,96.92c4.64,1.521,6.237,4.71,5.752,7.046-.562,2.709-3.527,4.2-7.551,3.79-3.481-.353-7.426-.864-10.908-1.313l-2.506-.322a6.718,6.718,0,0,0-7.571,5.309,6.986,6.986,0,0,0,5.005,8.386,1.858,1.858,0,0,0,.25.061l18.517,3.371.049.008a20.1,20.1,0,0,0,9.265-.249c.489-.1,1.027-.208,1.635-.326l22.813-4.461a1.937,1.937,0,0,0,.229-.059c4-1.285,7.252-1.159,8.914.35a3.488,3.488,0,0,1,.984,3.425c-.463,2.133-2.312,3.911-4.947,4.755l-35.079,11.24-1.516.488c-8.395,2.708-12.608,4.066-21.848,1.2l-.069-.021-10.047-2.734a2,2,0,0,0-1.051,3.867l10.012,2.725a34.249,34.249,0,0,0,10.271,1.769c4.7,0,8.693-1.287,13.963-2.988l1.509-.485,35.078-11.239c4.016-1.287,6.873-4.174,7.641-7.724A7.5,7.5,0,0,0,134.446,115.544ZM96.733,51.517c4.715-7.819,17.68-14.885,32.436-12.6a4.62,4.62,0,0,1,3.1,1.748c.638.985.734,2.52.285,4.566-3.808,17.554-13.111,25.552-20.547,27.181a13.648,13.648,0,0,1-13.06-3.981L103.1,65.3l7.314,1.724a2,2,0,0,0,.919-3.9l-4.079-.962L112.769,58l5.679,1.338a2,2,0,0,0,.919-3.9l-2.443-.575,3.624-2.737a2,2,0,1,0-2.416-3.2l-3.5,2.644.139-1.941a2,2,0,0,0-4-.286l-.389,5.435-5.419,4.095.253-3.525a2,2,0,0,0-4-.287l-.5,7.02-4.205,3.176A12.721,12.721,0,0,1,96.733,51.517Zm-45.9,14.091c-8.363-3.67-17.42-15.233-17.758-36.684-.043-2.584.463-4.435,1.506-5.5a5.8,5.8,0,0,1,4.268-1.411c17.842.78,31.4,12.124,35.095,22.415,1.6,4.456,2.233,10.844-3.3,16.686l-4.524-5.094,1.068-8.44a2,2,0,0,0-3.976-.5l-.628,4.961-6-6.751.833-6.576a2,2,0,1,0-3.975-.5l-.393,3.1-3.993-4.5a2,2,0,1,0-3,2.661l4.091,4.605L46.41,44.2a2,2,0,0,0,.067,4.007h.069l7.072-.241L59.69,54.8l-5.748.191A2,2,0,0,0,54.007,59h.068l9.074-.3,4.484,5.05A16.555,16.555,0,0,1,50.836,65.608Zm70.893,48.7-22.7,4.438c-.616.12-1.164.231-1.662.331a16.347,16.347,0,0,1-7.827.22l-18.355-3.341a2.942,2.942,0,0,1-2.208-3.618,2.744,2.744,0,0,1,3.094-2.255l.047.006c.79.1,1.636.21,2.519.324,3.507.453,7.482.967,11.017,1.326,7.063.714,11.053-2.983,11.879-6.963.843-4.06-1.482-9.459-8.576-11.717A1.815,1.815,0,0,0,88.714,93L76.9,90.835c-6.384-1.173-11.36-.269-18.889,1.1-2,.362-4.259.775-6.778,1.188l-3.912.643A15.784,15.784,0,0,1,61.85,84.078a15.088,15.088,0,0,1,1.991.125,2,2,0,0,0,1.892-.814A18.323,18.323,0,0,1,78.9,75.874a6.158,6.158,0,0,1,1.138-.067c.17-.005.34-.008.512-.008a18.32,18.32,0,0,1,14.719,7.467,2,2,0,0,0,1.717.817c.118-.005.23-.005.346-.005A15.749,15.749,0,0,1,113.063,99.8v.017a1.99,1.99,0,0,0,.228.943h0v0a2.005,2.005,0,0,0,.3.426h0a2,2,0,0,0,1.317.639h.036a13.662,13.662,0,0,1,12.644,11.441A20.21,20.21,0,0,0,121.729,114.311Z"/>
    </g>
    <g id="Grupo_171622" data-name="Grupo 171622" transform="translate(496 5190.35)">
      <g id="Grupo_171620" data-name="Grupo 171620" transform="translate(1.729 1.729)">
        <circle id="Elipse_6285" data-name="Elipse 6285" cx="57.271" cy="57.271" r="57.271" fill="#ffe077"/>
        <g id="Grupo_171619" data-name="Grupo 171619" transform="translate(7.427 7.388)">
          <circle id="Elipse_6286" data-name="Elipse 6286" cx="9.237" cy="9.237" r="9.237" transform="translate(40.607 40.646)" fill="#615260"/>
          <path id="Trazado_259005" data-name="Trazado 259005" d="M335.634,256.005H307.622a3.626,3.626,0,0,0-3.608,2.918,16.519,16.519,0,0,1-5.653,9.791,3.626,3.626,0,0,0-.723,4.584l14.006,24.258a1.85,1.85,0,0,0,2.568.664A49.846,49.846,0,0,0,337.493,257.9a1.85,1.85,0,0,0-1.859-1.892Z" transform="translate(-237.807 -206.12)" fill="#615260"/>
          <path id="Trazado_259006" data-name="Trazado 259006" d="M198.348,45.325a49.838,49.838,0,0,0-46.561,0,1.851,1.851,0,0,0-.714,2.56l14.007,24.26a3.626,3.626,0,0,0,4.324,1.67,16.594,16.594,0,0,1,11.236-.046,3.788,3.788,0,0,0,4.486-1.764l13.933-24.132a1.846,1.846,0,0,0-.711-2.552Z" transform="translate(-125.218 -39.555)" fill="#615260"/>
          <path id="Trazado_259007" data-name="Trazado 259007" d="M41.585,256.005H69.6a3.626,3.626,0,0,1,3.608,2.918,16.519,16.519,0,0,0,5.653,9.791,3.626,3.626,0,0,1,.723,4.584L65.576,297.558a1.85,1.85,0,0,1-2.568.664A49.846,49.846,0,0,1,39.726,257.9a1.85,1.85,0,0,1,1.859-1.892Z" transform="translate(-39.725 -206.12)" fill="#615260"/>
        </g>
        <path id="Trazado_259008" data-name="Trazado 259008" d="M152.483,71.6A57.268,57.268,0,0,1,71.6,152.482,57.269,57.269,0,1,0,152.483,71.6Z" transform="translate(-56.825 -56.825)" fill="#ffd05b"/>
        <path id="Trazado_259009" data-name="Trazado 259009" d="M373.215,280.945a49.62,49.62,0,0,0,6.643-23.048A1.85,1.85,0,0,0,378,256.005h-3.643A44.5,44.5,0,0,1,352.184,294.4l1.824,3.16a1.85,1.85,0,0,0,2.569.664,49.626,49.626,0,0,0,16.638-17.277Z" transform="translate(-272.745 -198.732)" fill="#4e3d4d"/>
        <path id="Trazado_259010" data-name="Trazado 259010" d="M144.6,302.838l-16.947,29.351c.986.725,1.988,1.424,3.019,2.072a1.85,1.85,0,0,0,2.568-.664l14.006-24.258a3.626,3.626,0,0,0-.723-4.584,16.424,16.424,0,0,1-1.923-1.916Z" transform="translate(-99.96 -234.772)" fill="#4e3d4d"/>
        <path id="Trazado_259011" data-name="Trazado 259011" d="M289.405,59.311c-1.089-.575-2.192-1.094-3.3-1.581L269.151,87.085a16.436,16.436,0,0,1,2.546.674,3.788,3.788,0,0,0,4.486-1.764l13.933-24.132A1.847,1.847,0,0,0,289.405,59.311Z" transform="translate(-208.849 -46.154)" fill="#4e3d4d"/>
        <path id="Trazado_259012" data-name="Trazado 259012" d="M234.1,219.952a9.1,9.1,0,0,0-.889-.4,9.175,9.175,0,0,1-11.672,13.039,9.139,9.139,0,0,0,3.324,3.361,9.237,9.237,0,1,0,9.237-16Z" transform="translate(-172.208 -170.68)" fill="#4e3d4d"/>
      </g>
      <g id="Grupo_171621" data-name="Grupo 171621">
        <path id="Trazado_259013" data-name="Trazado 259013" d="M100.719,17.281a59,59,0,0,0-83.439,83.439,59,59,0,0,0,83.439-83.439ZM98.275,98.275a55.543,55.543,0,0,1-78.55-78.55,55.543,55.543,0,0,1,78.55,78.55Z"/>
        <path id="Trazado_259014" data-name="Trazado 259014" d="M228.889,224.853a11,11,0,1,0-6.658,5.109,10.978,10.978,0,0,0,6.658-5.109Zm-2.994-1.729a7.509,7.509,0,1,1-8.446-11.007,7.553,7.553,0,0,1,1.956-.259,7.514,7.514,0,0,1,6.49,11.266Z" transform="translate(-160.392 -160.37)"/>
        <path id="Trazado_259015" data-name="Trazado 259015" d="M74.168,261.579a14.9,14.9,0,0,1-5.006-8.749,5.331,5.331,0,0,0-5.31-4.336H35.839a3.622,3.622,0,0,0-2.6,1.107,3.5,3.5,0,0,0-.989,2.587A51.592,51.592,0,0,0,56.336,293.91a3.491,3.491,0,0,0,1.864.54,3.609,3.609,0,0,0,3.117-1.8l7.369-12.764a1.728,1.728,0,0,0-2.994-1.729l-7.369,12.764a.142.142,0,0,1-.089.066.07.07,0,0,1-.06,0,48.137,48.137,0,0,1-22.469-38.929.073.073,0,0,1,.027-.056.147.147,0,0,1,.106-.046H63.852a1.9,1.9,0,0,1,1.906,1.483,18.366,18.366,0,0,0,6.174,10.781,1.931,1.931,0,0,1,.4,2.443l-2.813,4.872a1.728,1.728,0,1,0,2.994,1.729l2.813-4.872a5.387,5.387,0,0,0-1.158-6.807Z" transform="translate(-24.817 -191.224)"/>
        <path id="Trazado_259016" data-name="Trazado 259016" d="M332.434,249.608a3.623,3.623,0,0,0-2.6-1.1H301.827a5.329,5.329,0,0,0-5.311,4.348,14.792,14.792,0,0,1-5.061,8.766,5.33,5.33,0,0,0-1.11,6.773l14.006,24.258a3.611,3.611,0,0,0,3.121,1.8,3.492,3.492,0,0,0,1.863-.539,51.574,51.574,0,0,0,24.09-41.725,3.5,3.5,0,0,0-.991-2.581Zm-8.876,24.7A48.213,48.213,0,0,1,307.5,290.985a.07.07,0,0,1-.06,0,.148.148,0,0,1-.093-.069l-14.006-24.258a1.905,1.905,0,0,1,.336-2.4,18.249,18.249,0,0,0,6.245-10.817,1.9,1.9,0,0,1,1.906-1.489h28.012a.147.147,0,0,1,.106.046.069.069,0,0,1,.026.054,48.216,48.216,0,0,1-6.412,22.247Z" transform="translate(-222.856 -191.232)"/>
        <path id="Trazado_259017" data-name="Trazado 259017" d="M157.816,67.255a5.405,5.405,0,0,0,4.658,2.739,5.131,5.131,0,0,0,1.752-.308,14.9,14.9,0,0,1,10.066-.043,5.492,5.492,0,0,0,6.563-2.528l8.412-14.57a1.728,1.728,0,0,0-2.994-1.729l-8.412,14.57a2.067,2.067,0,0,1-2.408,1,18.368,18.368,0,0,0-12.406.05,1.9,1.9,0,0,1-2.237-.909L146.8,41.266a.148.148,0,0,1-.013-.115c.011-.038.029-.048.035-.051a48.136,48.136,0,0,1,44.948-.006.07.07,0,0,1,.034.049.141.141,0,0,1-.013.11l-1.6,2.766a1.728,1.728,0,0,0,2.994,1.729l1.6-2.766a3.616,3.616,0,0,0,.341-2.8,3.5,3.5,0,0,0-1.74-2.149,51.592,51.592,0,0,0-48.174,0,3.506,3.506,0,0,0-1.746,2.15,3.624,3.624,0,0,0,.34,2.8Z" transform="translate(-110.295 -24.681)"/>
      </g>
    </g>
    <g id="Grupo_171625" data-name="Grupo 171625" transform="translate(-264 -183.649)">
      <g id="Grupo_171624" data-name="Grupo 171624" transform="translate(508 5375)">
        <path id="Trazado_259018" data-name="Trazado 259018" d="M102.433,346.185V372.5H91.392V346.181" transform="translate(-68.2 -265.812)" fill="#c97523"/>
        <path id="Trazado_259019" data-name="Trazado 259019" d="M96.317,346.185V372.5H91.392V346.181" transform="translate(-68.2 -265.812)" fill="#a85613"/>
        <ellipse id="Elipse_6287" data-name="Elipse 6287" cx="26.787" cy="42.112" rx="26.787" ry="42.112" transform="translate(1.926 1.925)" fill="#8cc928"/>
        <path id="Trazado_259020" data-name="Trazado 259020" d="M34.376,121.29c-14.8,0-26.787-18.855-26.787-42.112S19.581,37.067,34.376,37.067c-6.551,0-11.858,18.855-11.858,42.112S27.826,121.29,34.376,121.29Z" transform="translate(-5.663 -35.141)" fill="#82b20b"/>
        <path id="Trazado_259021" data-name="Trazado 259021" d="M255.544,162.753V216.37H185.2V162.753l35.369-34.31Z" transform="translate(-138.204 -103.329)" fill="#e9eaef"/>
        <path id="Trazado_259022" data-name="Trazado 259022" d="M394.569,159.925v-9.9h17.586v26.651" transform="translate(-294.44 -119.431)" fill="#9eb1b7"/>
        <g id="Grupo_171623" data-name="Grupo 171623" transform="translate(1.926 101.806)">
          <rect id="Rectngulo_44606" data-name="Rectngulo 44606" width="42.466" height="11.235" transform="translate(83.612)" fill="#85c10d"/>
          <rect id="Rectngulo_44607" data-name="Rectngulo 44607" width="48.102" height="11.235" fill="#85c10d"/>
        </g>
        <path id="Trazado_259023" data-name="Trazado 259023" d="M255.544,173.632v10.022l-35.171-33.581L185.2,183.654V173.632L217.58,142.8l2.793-2.595,2.791,2.595Z" transform="translate(-138.204 -112.103)" fill="#d2d4d8"/>
        <path id="Trazado_259024" data-name="Trazado 259024" d="M189.575,128.1,149.53,166.327l-5.6-4.7,42.851-40.81,2.792-2.594,2.792,2.594,42.852,40.81-5.6,4.7Z" transform="translate(-107.406 -95.703)" fill="#ea4756"/>
        <rect id="Rectngulo_44608" data-name="Rectngulo 44608" width="23.197" height="40.17" transform="translate(55.603 72.87)" fill="#c97523"/>
        <rect id="Rectngulo_44609" data-name="Rectngulo 44609" width="26.417" height="23.197" transform="translate(85.538 72.87)" fill="#a0d9f2"/>
        <rect id="Rectngulo_44610" data-name="Rectngulo 44610" width="26.417" height="7.049" transform="translate(85.538 72.87)" fill="#c97523"/>
        <circle id="Elipse_6288" data-name="Elipse 6288" cx="6.453" cy="6.453" r="6.453" transform="translate(75.716 48.492)" fill="#413740"/>
        <path id="Trazado_259025" data-name="Trazado 259025" d="M331.4,336.091h26.417a1.926,1.926,0,0,0,1.926-1.926v-23.2a1.926,1.926,0,0,0-1.926-1.926H331.4a1.926,1.926,0,0,0-1.926,1.926v23.2A1.926,1.926,0,0,0,331.4,336.091Zm1.926-3.852v-12.3h22.565v12.3Zm22.565-19.346v3.2H333.33v-3.2Z" transform="translate(-245.867 -238.097)"/>
        <path id="Trazado_259026" data-name="Trazado 259026" d="M128,129.359h-8.737V112.884a1.926,1.926,0,0,0-1.926-1.926h0a1.926,1.926,0,0,0-1.926,1.926v16.475H85.537a1.926,1.926,0,0,0-1.926,1.926v9.309H80.728V102.349a1.926,1.926,0,0,0-1.926-1.926H55.6a1.926,1.926,0,0,0-1.926,1.926v38.246H51.954v-9.309a1.926,1.926,0,0,0-1.926-1.926h-1.1V96.274L82.168,64.535l33.246,31.741V103.9a1.926,1.926,0,0,0,1.926,1.926h0a1.926,1.926,0,0,0,1.926-1.926V99.953l1.617,1.544a1.926,1.926,0,0,0,2.568.082l5.557-4.665a2.016,2.016,0,0,0,.595-.8,1.928,1.928,0,0,0-.463-2.106l-9.5-9.048V60.069a1.926,1.926,0,0,0-1.926-1.926H100.129A1.926,1.926,0,0,0,98.2,60.069v4.476L86.272,53.182,83.48,50.589a1.926,1.926,0,0,0-2.621,0L78.049,53.2,57.419,72.846C57.274,58.2,52.4,44.616,44.5,36.666a1.922,1.922,0,0,0-2.806.1h0a1.926,1.926,0,0,0,.088,2.63c7.31,7.354,11.79,20.214,11.79,34.122,0,1.026-.031,2.052-.079,3.066L35.2,94.009a1.929,1.929,0,0,0-.462,2.106,2.018,2.018,0,0,0,.595.8l5.557,4.665a1.925,1.925,0,0,0,2.568-.082l1.619-1.545v3.735C40.516,110.15,34.725,113.7,28.713,113.7c-6.473,0-12.622-4.064-17.316-11.443C6.532,94.611,3.852,84.4,3.852,73.517S6.532,52.423,11.4,44.774c4.693-7.379,10.843-11.443,17.316-11.443a15.977,15.977,0,0,1,6.613,1.459,1.916,1.916,0,0,0,2.445-.813h0a1.928,1.928,0,0,0-.884-2.709,19.77,19.77,0,0,0-8.174-1.789c-7.837,0-15.141,4.7-20.566,13.227C2.893,50.965,0,61.907,0,73.516s2.893,22.551,8.147,30.811c3.657,5.749,8.168,9.754,13.119,11.756v13.276h-5.86v-2.866a1.98,1.98,0,0,0-1.867-2.006,1.926,1.926,0,0,0-1.985,1.925v2.947H9.221v-2.866a1.98,1.98,0,0,0-1.867-2.006,1.926,1.926,0,0,0-1.985,1.925v2.946H1.926A1.926,1.926,0,0,0,0,131.285v11.235a1.926,1.926,0,0,0,1.926,1.926H128a1.926,1.926,0,0,0,1.926-1.926V131.285A1.925,1.925,0,0,0,128,129.359ZM102.055,61.994h13.734v19.3L102.055,68.214ZM42.042,97.52l-2.629-2.207L80.687,56l1.481-1.376,1.464,1.36,41.293,39.325L122.3,97.52,83.5,60.479a1.925,1.925,0,0,0-2.659,0Zm3.031,12.257v19.583H42.542v-2.947a1.926,1.926,0,0,0-3.852,0v2.947H36.16V116.076A25.564,25.564,0,0,0,45.072,109.777Zm-19.954,7.442a19.343,19.343,0,0,0,7.19,0v12.145h-7.19ZM3.852,133.211H48.1v7.383H3.852Zm53.678,7.383v-36.32H76.876v36.32Zm68.547,0H87.462v-7.383h38.615v7.384Z" transform="translate(0 -29.479)"/>
        <path id="Trazado_259027" data-name="Trazado 259027" d="M276.95,387.684h-3.367a1.926,1.926,0,1,0,0,3.852h3.367a1.926,1.926,0,0,0,0-3.852Z" transform="translate(-202.719 -296.783)"/>
        <path id="Trazado_259028" data-name="Trazado 259028" d="M307.537,221.355a8.38,8.38,0,1,0-8.38,8.38A8.389,8.389,0,0,0,307.537,221.355Zm-8.38,4.528a4.528,4.528,0,1,1,4.528-4.528A4.533,4.533,0,0,1,299.156,225.883Z" transform="translate(-216.987 -166.41)"/>
      </g>
    </g>
  </g>
</svg>
