<svg xmlns="http://www.w3.org/2000/svg" width="672" height="516" viewBox="0 0 672 516">
  <g id="Grupo_173990" data-name="Grupo 173990" transform="translate(-705 -2547)">
    <rect id="Rectángulo_33784" data-name="Rectángulo 33784" width="672" height="516" rx="20" transform="translate(705 2547)" fill="#fff"/>
    <g id="Grupo_171565" data-name="Grupo 171565" transform="translate(248 1921)">
      <g id="Rectángulo_40446" data-name="Rectángulo 40446" transform="translate(674.582 941.215)">
        <path id="Trazado_202130" data-name="Trazado 202130" d="M-4395.592-5982.72h168.014a9.345,9.345,0,0,1,9.6,9.06v28.687a9.344,9.344,0,0,1-9.6,9.059h-168.014a9.343,9.343,0,0,1-9.6-9.059v-28.687A9.344,9.344,0,0,1-4395.592-5982.72Z" transform="translate(4405.196 5982.72)" fill="#fff" stroke="#707070" stroke-width="5"/>
        <path id="Trazado_202131" data-name="Trazado 202131" d="M-4395.479-5982.22h167.757c5.092,0,9.22,3.873,9.22,8.648v28.48c0,4.777-4.127,8.648-9.22,8.648h-167.757c-5.093,0-9.221-3.872-9.221-8.648v-28.48C-4404.7-5978.347-4400.571-5982.22-4395.479-5982.22Z" transform="translate(4405.211 5982.734)" fill="#fff" stroke="#dc1f27" stroke-width="5"/>
      </g>
      <text id="Prelimpieza" transform="translate(771 973)" fill="#12263f" font-size="22" font-family="Roboto-Black, Roboto" font-weight="800" style="isolation: isolate"><tspan x="-59.544" y="0">Prelimpieza</tspan></text>
      <g id="Rectángulo_44570" data-name="Rectángulo 44570" transform="translate(694 738)" fill="#fff" stroke="#e2872c" stroke-width="3">
        <rect width="141" height="40" rx="10" stroke="none"/>
        <rect x="1.5" y="1.5" width="138" height="37" rx="8.5" fill="none"/>
      </g>
      <g id="Rectángulo_44595" data-name="Rectángulo 44595" transform="translate(694 863)" fill="#fff" stroke="#e2872c" stroke-width="3">
        <rect width="141" height="42" rx="10" stroke="none"/>
        <rect x="1.5" y="1.5" width="138" height="39" rx="8.5" fill="none"/>
      </g>
      <g id="Rectángulo_44585" data-name="Rectángulo 44585" transform="translate(492 944)" fill="#fff" stroke="#e2872c" stroke-width="3">
        <rect width="112" height="41" rx="10" stroke="none"/>
        <rect x="1.5" y="1.5" width="109" height="38" rx="8.5" fill="none"/>
      </g>
      <g id="Rectángulo_44587" data-name="Rectángulo 44587" transform="translate(922 944)" fill="#fff" stroke="#e2872c" stroke-width="3">
        <rect width="117" height="41" rx="10" stroke="none"/>
        <rect x="1.5" y="1.5" width="114" height="38" rx="8.5" fill="none"/>
      </g>
      <g id="Rectángulo_44577" data-name="Rectángulo 44577" transform="translate(893 863)" fill="#fff" stroke="#e2872c" stroke-width="3">
        <rect width="116" height="42" rx="10" stroke="none"/>
        <rect x="1.5" y="1.5" width="113" height="39" rx="8.5" fill="none"/>
      </g>
      <g id="Rectángulo_44593" data-name="Rectángulo 44593" transform="translate(580 838)" fill="#fff" stroke="#81af1d" stroke-width="2">
        <rect width="85" height="42" rx="10" stroke="none"/>
        <rect x="1" y="1" width="83" height="40" rx="9" fill="none"/>
      </g>
      <g id="Rectángulo_44596" data-name="Rectángulo 44596" transform="translate(580 889)" fill="#fff" stroke="#81af1d" stroke-width="2">
        <rect width="85" height="41" rx="10" stroke="none"/>
        <rect x="1" y="1" width="83" height="39" rx="9" fill="none"/>
      </g>
      <g id="Rectángulo_44572" data-name="Rectángulo 44572" transform="translate(684 666)" fill="#fff" stroke="#81af1d" stroke-width="2">
        <rect width="159" height="42" rx="10" stroke="none"/>
        <rect x="1" y="1" width="157" height="40" rx="9" fill="none"/>
      </g>
      <g id="Rectángulo_44592" data-name="Rectángulo 44592" transform="translate(478 1067)" fill="#fff" stroke="#81af1d" stroke-width="2">
        <rect width="156" height="41" rx="10" stroke="none"/>
        <rect x="1" y="1" width="154" height="39" rx="9" fill="none"/>
      </g>
      <text id="Que_dañan" data-name="Que dañan" transform="translate(763 763)" fill="#12263f" font-size="14" font-family="Roboto-Bold, Roboto" font-weight="700" style="isolation: isolate"><tspan x="-33.568" y="0">Que dañan</tspan></text>
      <text id="Elimina" transform="translate(762 890)" fill="#12263f" font-size="14" font-family="Roboto-Bold, Roboto" font-weight="700" style="isolation: isolate"><tspan x="-23.239" y="0">Elimina</tspan></text>
      <text id="Precursores" transform="translate(761 823)" fill="#12263f" font-size="14" font-family="Roboto-Bold, Roboto" font-weight="700" style="isolation: isolate"><tspan x="-38.466" y="0">Precursores</tspan></text>
      <text id="Reduce" transform="translate(546 970)" fill="#12263f" font-size="14" font-family="Roboto-Bold, Roboto" font-weight="700" style="isolation: isolate"><tspan x="-23.546" y="0">Reduce</tspan></text>
      <text id="Calidad_del_jugo" data-name="Calidad del jugo" transform="translate(977 1032)" fill="#12263f" font-size="14" font-family="Roboto-Bold, Roboto" font-weight="700" style="isolation: isolate"><tspan x="-50.446" y="0">Calidad del jugo</tspan></text>
      <text id="Consumo" transform="translate(546 1032)" fill="#12263f" font-size="14" font-family="Roboto-Bold, Roboto" font-weight="700" style="isolation: isolate"><tspan x="-29.993" y="0">Consumo</tspan></text>
      <text id="Mantiene" transform="translate(980 970)" fill="#12263f" font-size="14" font-family="Roboto-Bold, Roboto" font-weight="700" style="isolation: isolate"><tspan x="-29.514" y="0">Mantiene</tspan></text>
      <text id="Impurezas" transform="translate(949 890)" fill="#12263f" font-size="14" font-family="Roboto-Bold, Roboto" font-weight="700" style="isolation: isolate"><tspan x="-33.209" y="0">Impurezas</tspan></text>
      <text id="Bagacillos" transform="translate(621 865)" fill="#12263f" font-size="14" font-family="Roboto-Bold, Roboto" font-weight="700" style="isolation: isolate"><tspan x="-32.744" y="0">Bagacillos</tspan></text>
      <text id="Tierra" transform="translate(623 915)" fill="#12263f" font-size="14" font-family="Roboto-Bold, Roboto" font-weight="700" style="isolation: isolate"><tspan x="-18.727" y="0">Tierra</tspan></text>
      <text id="El_color_de_la_panela" data-name="El color de la panela" transform="translate(760 693)" fill="#12263f" font-size="14" font-family="Roboto-Bold, Roboto" font-weight="700" style="isolation: isolate"><tspan x="-63.085" y="0">El color de la panela</tspan></text>
      <g id="Grupo_171566" data-name="Grupo 171566" transform="translate(855.807 1066.997)">
        <g id="Rectángulo_44588" data-name="Rectángulo 44588" transform="translate(0.193 0.003)" fill="#fff" stroke="#81af1d" stroke-width="2">
          <rect width="113" height="41" rx="10" stroke="none"/>
          <rect x="1" y="1" width="111" height="39" rx="9" fill="none"/>
        </g>
        <g id="Rectángulo_44589" data-name="Rectángulo 44589" transform="translate(140.193 0.003)" fill="#fff" stroke="#81af1d" stroke-width="2">
          <rect width="112" height="41" rx="10" stroke="none"/>
          <rect x="1" y="1" width="110" height="39" rx="9" fill="none"/>
        </g>
        <text id="Clarificación" transform="translate(54.193 26.002)" fill="#12263f" font-size="14" font-family="Roboto-Bold, Roboto" font-weight="700" style="isolation: isolate"><tspan x="-39.645" y="0">Clarificación</tspan></text>
        <text id="Limpieza" transform="translate(194.193 26.002)" fill="#12263f" font-size="14" font-family="Roboto-Bold, Roboto" font-weight="700" style="isolation: isolate"><tspan x="-28.602" y="0">Limpieza</tspan></text>
      </g>
      <text id="Microorganismos" transform="translate(548 1093)" fill="#12263f" font-size="14" font-family="Roboto-Bold, Roboto" font-weight="700" style="isolation: isolate"><tspan x="-55.279" y="0">Microorganismos</tspan></text>
      <line id="Línea_224" data-name="Línea 224" y2="29" transform="translate(763 709)" fill="none" stroke="#5d5d5d" stroke-width="2"/>
      <path id="Trazado_258781" data-name="Trazado 258781" d="M0,0V28.083" transform="translate(763.513 781.141)" fill="none" stroke="#5d5d5d" stroke-width="2"/>
      <line id="Línea_244" data-name="Línea 244" y2="28" transform="translate(763 834)" fill="none" stroke="#5d5d5d" stroke-width="2"/>
      <line id="Línea_246" data-name="Línea 246" y2="28" transform="translate(763 911)" fill="none" stroke="#5d5d5d" stroke-width="2"/>
      <path id="Trazado_258787" data-name="Trazado 258787" d="M21.914,0H0" transform="translate(981.158 987.935) rotate(90)" fill="none" stroke="#5d5d5d" stroke-width="2"/>
      <path id="Trazado_258795" data-name="Trazado 258795" d="M21.914,0H0" transform="translate(547.74 987.935) rotate(90)" fill="none" stroke="#5d5d5d" stroke-width="2"/>
      <path id="Trazado_258797" data-name="Trazado 258797" d="M21.914,0H0" transform="translate(547.74 1038.103) rotate(90)" fill="none" stroke="#5d5d5d" stroke-width="2"/>
      <path id="Trazado_258789" data-name="Trazado 258789" d="M24.626,0,0,58.834" transform="translate(1050.429 1036.241) rotate(90)" fill="none" stroke="#5d5d5d" stroke-width="2"/>
      <path id="Trazado_258791" data-name="Trazado 258791" d="M24.39,58.551,0,0" transform="translate(970.624 1036.477) rotate(90)" fill="none" stroke="#5d5d5d" stroke-width="2"/>
      <path id="Trazado_258782" data-name="Trazado 258782" d="M36.292,4.289h-52" transform="translate(881.998 960.797)" fill="none" stroke="#5d5d5d" stroke-width="2"/>
      <path id="Trazado_258793" data-name="Trazado 258793" d="M-15.708,4.289h52" transform="translate(634.595 960.797)" fill="none" stroke="#5d5d5d" stroke-width="2"/>
      <line id="Línea_228" data-name="Línea 228" x1="44.933" transform="translate(835.125 884.581)" fill="none" stroke="#5d5d5d" stroke-width="2"/>
      <line id="Línea_245" data-name="Línea 245" x2="28.551" y2="29.019" transform="translate(665.689 855.562)" fill="none" stroke="#5d5d5d" stroke-width="2"/>
      <path id="Trazado_258767" data-name="Trazado 258767" d="M9.728,5.617,4.986,2.878,0,0V11.233Z" transform="translate(986.774 1005.908) rotate(90)" fill="#5d5d5d"/>
      <path id="Trazado_258794" data-name="Trazado 258794" d="M9.728,5.617,4.986,2.878,0,0V11.233Z" transform="translate(552.888 1005.908) rotate(90)" fill="#5d5d5d"/>
      <path id="Trazado_258796" data-name="Trazado 258796" d="M9.728,5.617,4.986,2.878,0,0V11.233Z" transform="translate(552.888 1056.076) rotate(90)" fill="#5d5d5d"/>
      <path id="Trazado_258788" data-name="Trazado 258788" d="M9.728,5.617,4.986,2.878,0,0V11.233Z" transform="matrix(0.891, 0.454, -0.454, 0.891, 1048.645, 1054.577)" fill="#5d5d5d"/>
      <path id="Trazado_258790" data-name="Trazado 258790" d="M9.728,5.617,4.986,2.878,0,0V11.233Z" transform="translate(918.906 1064.706) rotate(154)" fill="#5d5d5d"/>
      <path id="Trazado_258774" data-name="Trazado 258774" d="M9.728,5.617,4.986,8.355,0,11.233V0Z" transform="translate(912.825 959.937)" fill="#5d5d5d"/>
      <path id="Trazado_258792" data-name="Trazado 258792" d="M9.728,5.617,4.986,2.878,0,0V11.233Z" transform="translate(624.351 971.17) rotate(180)" fill="#5d5d5d"/>
      <path id="Trazado_258761" data-name="Trazado 258761" d="M9.728,5.617,4.986,2.878,0,0V11.233Z" transform="translate(874.91 879.05) rotate(-1)" fill="#5d5d5d"/>
      <path id="Trazado_258784" data-name="Trazado 258784" d="M9.728,5.617,4.986,2.878,0,0V11.233Z" transform="translate(666.771 864.547) rotate(-133)" fill="#5d5d5d"/>
      <path id="Trazado_258786" data-name="Trazado 258786" d="M9.728,5.617,4.986,8.355,0,11.233V0Z" transform="translate(674.987 912.661) rotate(133)" fill="#5d5d5d"/>
      <path id="Trazado_258764" data-name="Trazado 258764" d="M9.728,5.617,4.985,2.879,0,0V11.233Z" transform="translate(757.895 716.917) rotate(-90)" fill="#5d5d5d"/>
      <path id="Trazado_258779" data-name="Trazado 258779" d="M9.728,5.617,4.985,2.879,0,0V11.233Z" transform="translate(757.895 788.061) rotate(-90)" fill="#5d5d5d"/>
      <path id="Trazado_258780" data-name="Trazado 258780" d="M9.728,5.617,4.985,2.879,0,0V11.233Z" transform="translate(757.895 836.739) rotate(-90)" fill="#5d5d5d"/>
      <path id="Trazado_258785" data-name="Trazado 258785" d="M9.728,5.617,4.985,2.879,0,0V11.233Z" transform="translate(757.895 913.5) rotate(-90)" fill="#5d5d5d"/>
      <line id="Línea_247" data-name="Línea 247" y1="29.019" x2="28.551" transform="translate(665.689 884.581)" fill="none" stroke="#5d5d5d" stroke-width="2"/>
    </g>
  </g>
</svg>
