<svg id="Grupo_173973" data-name="Grupo 173973" xmlns="http://www.w3.org/2000/svg" width="29.023" height="29.023" viewBox="0 0 29.023 29.023">
  <path id="Trazado_252774" data-name="Trazado 252774" d="M119.669,549.2a14.511,14.511,0,1,1,14.523-14.5A14.513,14.513,0,0,1,119.669,549.2Zm11.11-14.487a11.1,11.1,0,1,0-11.141,11.073A11.136,11.136,0,0,0,130.779,534.709Z" transform="translate(-105.169 -520.173)" fill="#7aa017"/>
  <path id="Trazado_252775" data-name="Trazado 252775" d="M130,533.93a11.1,11.1,0,1,1-11.055-11.123A11.136,11.136,0,0,1,130,533.93Zm-12.722.209c-.494-.5-.951-.966-1.416-1.427a1.707,1.707,0,1,0-2.4,2.432c.783.8,1.581,1.587,2.375,2.379a1.682,1.682,0,0,0,2.545.137q2.881-2.443,5.732-4.919a1.694,1.694,0,1,0-2.248-2.534q-.789.674-1.577,1.352Z" transform="translate(-104.39 -519.394)" fill="#fff"/>
  <path id="Trazado_252776" data-name="Trazado 252776" d="M116.109,532.552l3.014-2.579q.789-.676,1.577-1.352a1.694,1.694,0,1,1,2.248,2.534q-2.856,2.472-5.732,4.919a1.682,1.682,0,0,1-2.545-.137c-.794-.792-1.593-1.577-2.375-2.379a1.708,1.708,0,1,1,2.4-2.432C115.157,531.587,115.615,532.055,116.109,532.552Z" transform="translate(-103.221 -517.808)" fill="#282e7f"/>
</svg>
