<svg xmlns="http://www.w3.org/2000/svg" width="150" height="150" viewBox="0 0 150 150">
  <g id="Grupo_224036" data-name="Grupo 224036" transform="translate(-726.761 -11828)">
    <g id="Grupo_223937" data-name="Grupo 223937" transform="translate(-406.239 -353)">
      <circle id="Elipse_6362" data-name="Elipse 6362" cx="75" cy="75" r="75" transform="translate(1133 12181)" fill="#e2872c"/>
      <circle id="Elipse_6363" data-name="Elipse 6363" cx="63" cy="63" r="63" transform="translate(1145 12193)" fill="#fff"/>
    </g>
    <g id="Page-1" transform="translate(763.473 11865.473)">
      <g id="_046---Give-Crops" data-name="046---Give-Crops">
        <g id="Grupo_149404" data-name="Grupo 149404" transform="translate(1.284 3.852)">
          <path id="Shape" d="M12.557,36.568V63.535A2.568,2.568,0,0,1,9.989,66.1H3.568A2.576,2.576,0,0,1,1,63.535V36.568A2.576,2.576,0,0,1,3.568,34H9.989A2.576,2.576,0,0,1,12.557,36.568Z" transform="translate(-1 5.808)" fill="#02a9f4"/>
          <path id="Shape-2" data-name="Shape" d="M8.852,34H5a2.576,2.576,0,0,1,2.568,2.568V63.535A2.568,2.568,0,0,1,5,66.1H8.852a2.568,2.568,0,0,0,2.568-2.568V36.568A2.576,2.576,0,0,0,8.852,34Z" transform="translate(0.137 5.808)" fill="#0377bc"/>
          <path id="Shape-3" data-name="Shape" d="M71.3,48.289,47.239,62.941a9,9,0,0,1-4.674,1.31H9.73c.5-.846.347,1.113.347-28.251h3.6a11.789,11.789,0,0,1,7.32,2.568,11.764,11.764,0,0,0,7.32,2.568h6.716c4.921,0,8.307,5.6,4.918,8.989h3.018c1.2,0-.223.348,25.4-8.193a3.537,3.537,0,0,1,3.929,1.233v.013a3.505,3.505,0,0,1-.989,5.111Z" transform="translate(1.48 6.376)" fill="#ffe0b2"/>
          <path id="Shape-4" data-name="Shape" d="M31.348,48.989a23.056,23.056,0,0,0,3.927-.089C38.5,45.522,35.2,40,30.282,40H26.43C31.423,40,34.681,45.657,31.348,48.989Z" transform="translate(6.225 7.513)" fill="#dfc49c"/>
          <path id="Shape-5" data-name="Shape" d="M65.88,41.9v-.013a3.537,3.537,0,0,0-3.929-1.233l-.962.321a3.516,3.516,0,0,1,1.039.912V41.9a3.505,3.505,0,0,1-.989,5.111L36.974,61.667a9,9,0,0,1-4.674,1.31c3.841,0,5.889.3,8.527-1.31L64.891,47.016A3.505,3.505,0,0,0,65.88,41.9Z" transform="translate(7.893 7.65)" fill="#dfc49c"/>
          <path id="Shape-6" data-name="Shape" d="M63.97,43.62c-23.13,7.71-21.731,7.358-22.9,7.358H38.056c3.4-3.4-.012-8.989-4.918-8.989H26.422a11.764,11.764,0,0,1-7.32-2.568A11.46,11.46,0,0,0,16.38,37.8a8.986,8.986,0,0,1,9.31-1.579A8.973,8.973,0,0,1,40.2,37.238a.012.012,0,0,1,.013.013,8.962,8.962,0,0,1,12.109,1.541A8.973,8.973,0,0,1,63.97,43.62Z" transform="translate(3.37 5.524)" fill="sienna"/>
          <path id="Shape-7" data-name="Shape" d="M50.9,37a8.937,8.937,0,0,0-1.954.225,8.941,8.941,0,0,1,6.372,5.265L34.056,49.572a4.986,4.986,0,0,1-.722.181c-.027.028-.046.06-.074.089h3.018a5.068,5.068,0,0,0,1.631-.27l21.265-7.088A8.955,8.955,0,0,0,50.9,37Z" transform="translate(8.166 6.66)" fill="#783e22"/>
          <path id="Shape-8" data-name="Shape" d="M45.273,4.284A6.4,6.4,0,0,1,38.852,10.7H35V9.421A6.421,6.421,0,0,1,41.421,3h2.568A1.285,1.285,0,0,1,45.273,4.284Z" transform="translate(8.66 -3)" fill="#60a917"/>
          <path id="Shape-9" data-name="Shape" d="M43.989,3H41.421a6.624,6.624,0,0,0-.858.086,1.283,1.283,0,0,1,.858,1.2A6.4,6.4,0,0,1,35,10.7h3.852a6.4,6.4,0,0,0,6.421-6.421A1.285,1.285,0,0,0,43.989,3Z" transform="translate(8.66 -3)" fill="#549414"/>
          <path id="Shape-10" data-name="Shape" d="M37.273,9.421V10.7H33.421A6.4,6.4,0,0,1,27,4.284,1.285,1.285,0,0,1,28.284,3h2.568a6.419,6.419,0,0,1,6.421,6.421Z" transform="translate(6.387 -3)" fill="#60a917"/>
          <path id="Shape-11" data-name="Shape" d="M30.663,3H28.094a1.274,1.274,0,0,0-.426.086,6.4,6.4,0,0,1,5.563,6.335V10.7h3.852V9.421A6.421,6.421,0,0,0,30.663,3Z" transform="translate(6.577 -3)" fill="#549414"/>
          <path id="Shape-12" data-name="Shape" d="M46.557,14.284A6.4,6.4,0,0,1,40.137,20.7H35V19.421A6.421,6.421,0,0,1,41.421,13h3.852A1.285,1.285,0,0,1,46.557,14.284Z" transform="translate(8.66 -0.159)" fill="#60a917"/>
          <path id="Shape-13" data-name="Shape" d="M44.989,13H41.137a1.285,1.285,0,0,1,1.284,1.284A6.4,6.4,0,0,1,36,20.7h3.852a6.4,6.4,0,0,0,6.421-6.421A1.285,1.285,0,0,0,44.989,13Z" transform="translate(8.945 -0.159)" fill="#549414"/>
          <path id="Shape-14" data-name="Shape" d="M37.557,19.421V20.7H32.421A6.4,6.4,0,0,1,26,14.284,1.285,1.285,0,0,1,27.284,13h3.852A6.421,6.421,0,0,1,37.557,19.421Z" transform="translate(6.103 -0.159)" fill="#60a917"/>
          <path id="Shape-15" data-name="Shape" d="M30.852,13H27a6.421,6.421,0,0,1,6.421,6.421V20.7h3.852V19.421A6.421,6.421,0,0,0,30.852,13Z" transform="translate(6.387 -0.159)" fill="#549414"/>
          <path id="Shape-16" data-name="Shape" d="M47.841,24.284A6.4,6.4,0,0,1,41.421,30.7H35V29.421A6.421,6.421,0,0,1,41.421,23h5.137A1.285,1.285,0,0,1,47.841,24.284Z" transform="translate(8.66 2.683)" fill="#60a917"/>
          <path id="Shape-17" data-name="Shape" d="M45.989,23H42.137a1.285,1.285,0,0,1,1.284,1.284A6.4,6.4,0,0,1,37,30.7h3.852a6.4,6.4,0,0,0,6.421-6.421A1.285,1.285,0,0,0,45.989,23Z" transform="translate(9.229 2.683)" fill="#549414"/>
          <path id="Shape-18" data-name="Shape" d="M37.841,29.421V30.7H31.421A6.4,6.4,0,0,1,25,24.284,1.285,1.285,0,0,1,26.284,23h5.137A6.421,6.421,0,0,1,37.841,29.421Z" transform="translate(5.819 2.683)" fill="#60a917"/>
          <path id="Shape-19" data-name="Shape" d="M30.852,23H27a6.421,6.421,0,0,1,6.421,6.421V30.7h3.852V29.421A6.421,6.421,0,0,0,30.852,23Z" transform="translate(6.387 2.683)" fill="#549414"/>
        </g>
        <path id="Shape-20" data-name="Shape" d="M34.1,37.2a9.175,9.175,0,0,1,1.07-.9" transform="translate(9.689 10.314)" fill="none" stroke="#000" stroke-linecap="round" stroke-linejoin="round" stroke-width="2"/>
        <path id="Shape-21" data-name="Shape" d="M44.37,37.51A8.943,8.943,0,0,1,45.6,39.423" transform="translate(12.607 10.658)" fill="none" stroke="#000" stroke-linecap="round" stroke-linejoin="round" stroke-width="2"/>
        <path id="Shape-22" data-name="Shape" d="M23.63,35.511a9,9,0,0,1,1.255.627" transform="translate(6.714 10.09)" fill="none" stroke="#000" stroke-linecap="round" stroke-linejoin="round" stroke-width="2"/>
        <path id="Shape-23" data-name="Shape" d="M3.852,77.048h6.421a3.834,3.834,0,0,0,2.851-1.284H45.33a10.275,10.275,0,0,0,5.342-1.5L74.736,59.617a4.808,4.808,0,0,0-4.012-8.673l-1.457.485a10.222,10.222,0,0,0-11.912-4.751,10.229,10.229,0,0,0-11.127-2.256v-5.9h5.137a7.713,7.713,0,0,0,7.7-7.7A2.568,2.568,0,0,0,56.5,28.251H51.365a7.662,7.662,0,0,0-5.137,1.978V25.683h3.852a7.713,7.713,0,0,0,7.7-7.7,2.568,2.568,0,0,0-2.568-2.568H51.365a7.662,7.662,0,0,0-5.137,1.978V12.841H48.8a7.713,7.713,0,0,0,7.7-7.7,2.568,2.568,0,0,0-2.568-2.568c-2.906,0-5.2-.274-7.7,1.978V1.284a1.284,1.284,0,0,0-2.568,0V4.546c-2.568-2.309-5.126-1.978-7.7-1.978a2.568,2.568,0,0,0-2.568,2.568,7.713,7.713,0,0,0,7.7,7.7H43.66v4.546a7.662,7.662,0,0,0-5.137-1.978H34.672A2.568,2.568,0,0,0,32.1,17.978a7.713,7.713,0,0,0,7.7,7.7H43.66v4.546a7.662,7.662,0,0,0-5.137-1.978H33.387a2.568,2.568,0,0,0-2.568,2.568,7.713,7.713,0,0,0,7.7,7.7H43.66v4.831a10.261,10.261,0,0,0-13.693.755,10.318,10.318,0,0,0-9.138,1.605,17.763,17.763,0,0,0-6.934-.77,3.852,3.852,0,0,0-3.623-2.568H3.852A3.852,3.852,0,0,0,0,46.229V73.2A3.852,3.852,0,0,0,3.852,77.048ZM51.365,30.819H56.5a5.137,5.137,0,0,1-5.137,5.137H46.229A5.137,5.137,0,0,1,51.365,30.819Zm0-12.841h3.852a5.137,5.137,0,0,1-5.137,5.137H46.229A5.137,5.137,0,0,1,51.365,17.978Zm0-12.841h2.568A5.137,5.137,0,0,1,48.8,10.273H46.229A5.137,5.137,0,0,1,51.365,5.137Zm-15.41,0h2.568a5.137,5.137,0,0,1,5.137,5.137H41.092A5.137,5.137,0,0,1,35.956,5.137ZM34.672,17.978h3.852a5.137,5.137,0,0,1,5.137,5.137H39.808A5.137,5.137,0,0,1,34.672,17.978ZM33.387,30.819h5.137a5.137,5.137,0,0,1,5.137,5.137H38.524A5.137,5.137,0,0,1,33.387,30.819ZM29.862,46.791c1.052.428,1.156.72,1.734.72a1.265,1.265,0,0,0,.874-2.192,7.67,7.67,0,0,1,10.647,1.088c-.072.065-.155.121-.226.189a1.284,1.284,0,0,0,1.8,1.834,7.725,7.725,0,0,1,12.355,2.2,1.284,1.284,0,1,0,2.319-1.1c-.1-.208-.222-.4-.335-.6a7.621,7.621,0,0,1,7.747,3.339C44.739,59.6,46.841,59.07,44.995,59.07c1.605-4.456-2.5-8.989-7.2-8.989H31.076c-4.1,0-6.292-2.213-7.558-3.031A7.823,7.823,0,0,1,29.862,46.791ZM22.954,49.8a13.047,13.047,0,0,0,8.122,2.849h6.717c3.415,0,6.359,3.692,4.328,6.421H34.313a13.492,13.492,0,0,0-8.063,2.787,1.284,1.284,0,0,0,1.433,2.132,10.992,10.992,0,0,1,6.63-2.35c12.487,0,12.14.112,13.451-.336L71.526,53.38a2.242,2.242,0,0,1,1.87,4.041L49.336,72.074A7.7,7.7,0,0,1,45.33,73.2h-31.2V47.513C17.043,47.513,19.815,47.288,22.954,49.8ZM2.568,46.229a1.285,1.285,0,0,1,1.284-1.284h6.421a1.285,1.285,0,0,1,1.284,1.284V73.2a1.285,1.285,0,0,1-1.284,1.284H3.852A1.285,1.285,0,0,1,2.568,73.2Z"/>
        <path id="Shape-24" data-name="Shape" d="M37.851,42.78a1.284,1.284,0,0,0,1.641-.77.881.881,0,0,1,.514-.514,1.284,1.284,0,1,0-.871-2.414,3.437,3.437,0,0,0-2.055,2.055A1.284,1.284,0,0,0,37.851,42.78Z" transform="translate(10.514 11.078)"/>
      </g>
    </g>
  </g>
</svg>
