<svg xmlns="http://www.w3.org/2000/svg" width="1030" height="688" viewBox="0 0 1030 688">
  <g id="Grupo_174005" data-name="Grupo 174005" transform="translate(-285 -544)">
    <rect id="Rectángulo_44719" data-name="Rectángulo 44719" width="1030" height="688" rx="20" transform="translate(285 544)" fill="#f6f6f6"/>
    <g id="Grupo_171562" data-name="Grupo 171562" transform="translate(304.619 563.619)">
      <g id="Rectángulo_40446" data-name="Rectángulo 40446" transform="translate(348.381 263.381)">
        <path id="Trazado_202130" data-name="Trazado 202130" d="M-4391.775-5982.72h234.791a13.455,13.455,0,0,1,13.421,13.486v42.7a13.453,13.453,0,0,1-13.421,13.485h-234.791a13.453,13.453,0,0,1-13.421-13.485v-42.7A13.455,13.455,0,0,1-4391.775-5982.72Z" transform="translate(4405.196 5982.72)" fill="#fff" stroke="#707070" stroke-width="5"/>
        <path id="Trazado_202131" data-name="Trazado 202131" d="M-4391.794-5982.22H-4157a12.936,12.936,0,0,1,12.9,12.966v42.7a12.935,12.935,0,0,1-12.9,12.966h-234.791a12.935,12.935,0,0,1-12.9-12.966v-42.7A12.936,12.936,0,0,1-4391.794-5982.22Z" transform="translate(4405.214 5982.738)" fill="#e53935" stroke="#dc1f27" stroke-width="5"/>
      </g>
      <text id="Defectos_en_la_panela" data-name="Defectos en la panela" transform="translate(479.381 306.381)" fill="#fff" font-size="21" font-family="Roboto-Black, Roboto" font-weight="800" style="isolation: isolate"><tspan x="-101.729" y="0">Defectos en la panela</tspan></text>
      <g id="Rectángulo_44570" data-name="Rectángulo 44570" transform="translate(461.381 110.381)" fill="#fff" stroke="#e2872c" stroke-width="3">
        <rect width="231" height="43" rx="10" stroke="none"/>
        <rect x="1.5" y="1.5" width="228" height="40" rx="8.5" fill="none"/>
      </g>
      <g id="Rectángulo_44582" data-name="Rectángulo 44582" transform="translate(163.381 110.381)" fill="#fff" stroke="#e2872c" stroke-width="3">
        <rect width="233" height="43" rx="10" stroke="none"/>
        <rect x="1.5" y="1.5" width="230" height="40" rx="8.5" fill="none"/>
      </g>
      <g id="Rectángulo_44583" data-name="Rectángulo 44583" transform="translate(79.381 195.381)" fill="#fff" stroke="#e2872c" stroke-width="3">
        <rect width="218" height="41" rx="10" stroke="none"/>
        <rect x="1.5" y="1.5" width="215" height="38" rx="8.5" fill="none"/>
      </g>
      <g id="Rectángulo_44584" data-name="Rectángulo 44584" transform="translate(46.381 289.381)" fill="#fff" stroke="#e2872c" stroke-width="3">
        <rect width="231" height="41" rx="10" stroke="none"/>
        <rect x="1.5" y="1.5" width="228" height="38" rx="8.5" fill="none"/>
      </g>
      <g id="Rectángulo_44585" data-name="Rectángulo 44585" transform="translate(79.381 399.381)" fill="#fff" stroke="#e2872c" stroke-width="3">
        <rect width="234" height="41" rx="10" stroke="none"/>
        <rect x="1.5" y="1.5" width="231" height="38" rx="8.5" fill="none"/>
      </g>
      <g id="Rectángulo_44586" data-name="Rectángulo 44586" transform="translate(343.381 461.381)" fill="#fff" stroke="#e2872c" stroke-width="3">
        <rect width="231" height="41" rx="10" stroke="none"/>
        <rect x="1.5" y="1.5" width="228" height="38" rx="8.5" fill="none"/>
      </g>
      <g id="Rectángulo_44587" data-name="Rectángulo 44587" transform="translate(616.381 451.381)" fill="#fff" stroke="#e2872c" stroke-width="3">
        <rect width="231" height="41" rx="10" stroke="none"/>
        <rect x="1.5" y="1.5" width="228" height="38" rx="8.5" fill="none"/>
      </g>
      <g id="Rectángulo_44576" data-name="Rectángulo 44576" transform="translate(675.381 195.381)" fill="#fff" stroke="#e2872c" stroke-width="3">
        <rect width="232" height="41" rx="10" stroke="none"/>
        <rect x="1.5" y="1.5" width="229" height="38" rx="8.5" fill="none"/>
      </g>
      <g id="Rectángulo_44577" data-name="Rectángulo 44577" transform="translate(652.381 318.381)" fill="#fff" stroke="#e2872c" stroke-width="3">
        <rect width="131" height="43" rx="10" stroke="none"/>
        <rect x="1.5" y="1.5" width="128" height="40" rx="8.5" fill="none"/>
      </g>
      <g id="Rectángulo_44571" data-name="Rectángulo 44571" transform="translate(376.381 0.381)" fill="#fff" stroke="#81af1d" stroke-width="2">
        <rect width="119" height="41" rx="10" stroke="none"/>
        <rect x="1" y="1" width="117" height="39" rx="9" fill="none"/>
      </g>
      <g id="Rectángulo_44593" data-name="Rectángulo 44593" transform="translate(0.381 122.381)" fill="#fff" stroke="#81af1d" stroke-width="2">
        <rect width="85" height="41" rx="10" stroke="none"/>
        <rect x="1" y="1" width="83" height="39" rx="9" fill="none"/>
      </g>
      <g id="Rectángulo_44581" data-name="Rectángulo 44581" transform="translate(35.381 20.381)" fill="#fff" stroke="#81af1d" stroke-width="2">
        <rect width="242" height="41" rx="10" stroke="none"/>
        <rect x="1" y="1" width="240" height="39" rx="9" fill="none"/>
      </g>
      <g id="Rectángulo_44572" data-name="Rectángulo 44572" transform="translate(518.381 0.381)" fill="#fff" stroke="#81af1d" stroke-width="2">
        <rect width="116" height="41" rx="10" stroke="none"/>
        <rect x="1" y="1" width="114" height="39" rx="9" fill="none"/>
      </g>
      <g id="Rectángulo_44573" data-name="Rectángulo 44573" transform="translate(675.381 0.381)" fill="#fff" stroke="#81af1d" stroke-width="2">
        <rect width="117" height="41" rx="10" stroke="none"/>
        <rect x="1" y="1" width="115" height="39" rx="9" fill="none"/>
      </g>
      <g id="Rectángulo_44574" data-name="Rectángulo 44574" transform="translate(728.381 80.381)" fill="#fff" stroke="#81af1d" stroke-width="2">
        <rect width="119" height="42" rx="10" stroke="none"/>
        <rect x="1" y="1" width="117" height="40" rx="9" fill="none"/>
      </g>
      <g id="Rectángulo_44578" data-name="Rectángulo 44578" transform="translate(814.381 267.381)" fill="#fff" stroke="#81af1d" stroke-width="2">
        <rect width="118" height="43" rx="10" stroke="none"/>
        <rect x="1" y="1" width="116" height="41" rx="9" fill="none"/>
      </g>
      <g id="Rectángulo_44588" data-name="Rectángulo 44588" transform="translate(726.381 507.381)" fill="#fff" stroke="#81af1d" stroke-width="2">
        <rect width="155" height="41" rx="10" stroke="none"/>
        <rect x="1" y="1" width="153" height="39" rx="9" fill="none"/>
      </g>
      <g id="Rectángulo_44579" data-name="Rectángulo 44579" transform="translate(814.381 318.381)" fill="#fff" stroke="#81af1d" stroke-width="2">
        <rect width="118" height="43" rx="10" stroke="none"/>
        <rect x="1" y="1" width="116" height="41" rx="9" fill="none"/>
      </g>
      <g id="Rectángulo_44589" data-name="Rectángulo 44589" transform="translate(726.381 558.381)" fill="#fff" stroke="#81af1d" stroke-width="2">
        <rect width="155" height="41" rx="10" stroke="none"/>
        <rect x="1" y="1" width="153" height="39" rx="9" fill="none"/>
      </g>
      <g id="Rectángulo_44580" data-name="Rectángulo 44580" transform="translate(814.381 367.381)" fill="#fff" stroke="#81af1d" stroke-width="2">
        <rect width="118" height="43" rx="10" stroke="none"/>
        <rect x="1" y="1" width="116" height="41" rx="9" fill="none"/>
      </g>
      <g id="Rectángulo_44590" data-name="Rectángulo 44590" transform="translate(726.381 607.381)" fill="#fff" stroke="#81af1d" stroke-width="2">
        <rect width="155" height="41" rx="10" stroke="none"/>
        <rect x="1" y="1" width="153" height="39" rx="9" fill="none"/>
      </g>
      <g id="Rectángulo_44592" data-name="Rectángulo 44592" transform="translate(79.381 520.381)" fill="#fff" stroke="#81af1d" stroke-width="2">
        <rect width="157" height="41" rx="10" stroke="none"/>
        <rect x="1" y="1" width="155" height="39" rx="9" fill="none"/>
      </g>
      <g id="Rectángulo_44591" data-name="Rectángulo 44591" transform="translate(338.381 571.381)" fill="#fff" stroke="#81af1d" stroke-width="2">
        <rect width="236" height="42" rx="10" stroke="none"/>
        <rect x="1" y="1" width="234" height="40" rx="9" fill="none"/>
      </g>
      <g id="Rectángulo_44575" data-name="Rectángulo 44575" transform="translate(873.381 80.381)" fill="#fff" stroke="#81af1d" stroke-width="2">
        <rect width="117" height="42" rx="10" stroke="none"/>
        <rect x="1" y="1" width="115" height="40" rx="9" fill="none"/>
      </g>
      <text id="Panelas_mal_formadas" data-name="Panelas mal formadas" transform="translate(566.381 136.381)" fill="#12263f" font-size="13" font-family="Roboto-Bold, Roboto" font-weight="700" style="isolation: isolate"><tspan x="-65.397" y="0">Panelas mal formadas</tspan></text>
      <text id="Residuos_en_la_panela" data-name="Residuos en la panela" transform="translate(271.381 136.381)" fill="#12263f" font-size="13" font-family="Roboto-Bold, Roboto" font-weight="700" style="isolation: isolate"><tspan x="-63.769" y="0">Residuos en la panela</tspan></text>
      <text id="Panela_blanquecina" data-name="Panela blanquecina" transform="translate(186.381 221.381)" fill="#12263f" font-size="13" font-family="Roboto-Bold, Roboto" font-weight="700" style="isolation: isolate"><tspan x="-57.192" y="0">Panela blanquecina</tspan></text>
      <text id="Olores_y_sabores_extraños" data-name="Olores y sabores extraños" transform="translate(149.381 315.381)" fill="#12263f" font-size="13" font-family="Roboto-Bold, Roboto" font-weight="700" style="isolation: isolate"><tspan x="-76.054" y="0">Olores y sabores extraños</tspan></text>
      <text id="Manchas_en_la_superficie" data-name="Manchas en la superficie" transform="translate(183.381 425.381)" fill="#12263f" font-size="13" font-family="Roboto-Bold, Roboto" font-weight="700" style="isolation: isolate"><tspan x="-72.995" y="0">Manchas en la superficie</tspan></text>
      <text id="Panelas_blandas" data-name="Panelas blandas" transform="translate(452.381 484.381)" fill="#12263f" font-size="13" font-family="Roboto-Bold, Roboto" font-weight="700" style="isolation: isolate"><tspan x="-47.963" y="0">Panelas blandas</tspan></text>
      <text id="Panelas_muy_oscuras" data-name="Panelas muy oscuras" transform="translate(721.381 477.381)" fill="#12263f" font-size="13" font-family="Roboto-Bold, Roboto" font-weight="700" style="isolation: isolate"><tspan x="-62.258" y="0">Panelas muy oscuras</tspan></text>
      <text id="Franjas_blanquecinas" data-name="Franjas blanquecinas" transform="translate(781.381 221.381)" fill="#12263f" font-size="13" font-family="Roboto-Bold, Roboto" font-weight="700" style="isolation: isolate"><tspan x="-61.925" y="0">Franjas blanquecinas</tspan></text>
      <text id="Impurezas" transform="translate(712.381 343.381)" fill="#12263f" font-size="13" font-family="Roboto-Bold, Roboto" font-weight="700" style="isolation: isolate"><tspan x="-30.837" y="0">Impurezas</tspan></text>
      <text id="Moldeado" transform="translate(432.381 24.381)" fill="#12263f" font-size="13" font-family="Roboto-Bold, Roboto" font-weight="700" style="isolation: isolate"><tspan x="-29.091" y="0">Moldeado</tspan></text>
      <text id="Hongos" transform="translate(39.381 147.381)" fill="#12263f" font-size="13" font-family="Roboto-Bold, Roboto" font-weight="700" style="isolation: isolate"><tspan x="-22.636" y="0">Hongos</tspan></text>
      <text id="Polvillo_en_la_superficie" data-name="Polvillo en la superficie" transform="translate(145.381 45.381)" fill="#12263f" font-size="13" font-family="Roboto-Bold, Roboto" font-weight="700" style="isolation: isolate"><tspan x="-68.002" y="0">Polvillo en la superficie</tspan></text>
      <text id="Desmolde" transform="translate(571.381 24.381)" fill="#12263f" font-size="13" font-family="Roboto-Bold, Roboto" font-weight="700" style="isolation: isolate"><tspan x="-29.282" y="0">Desmolde</tspan></text>
      <text id="Empaque" transform="translate(729.381 24.381)" fill="#12263f" font-size="13" font-family="Roboto-Bold, Roboto" font-weight="700" style="isolation: isolate"><tspan x="-27.25" y="0">Empaque</tspan></text>
      <text id="Cementinas" transform="translate(783.381 106.381)" fill="#12263f" font-size="13" font-family="Roboto-Bold, Roboto" font-weight="700" style="isolation: isolate"><tspan x="-34.934" y="0">Cementinas</tspan></text>
      <text id="Tierra" transform="translate(870.381 292.381)" fill="#12263f" font-size="13" font-family="Roboto-Bold, Roboto" font-weight="700" style="isolation: isolate"><tspan x="-17.389" y="0">Tierra</tspan></text>
      <text id="Clarificación" transform="translate(796.381 533.381)" fill="#12263f" font-size="13" font-family="Roboto-Bold, Roboto" font-weight="700" style="isolation: isolate"><tspan x="-36.813" y="0">Clarificación</tspan></text>
      <text id="Insectos" transform="translate(868.381 343.381)" fill="#12263f" font-size="13" font-family="Roboto-Bold, Roboto" font-weight="700" style="isolation: isolate"><tspan x="-24.899" y="0">Insectos</tspan></text>
      <text id="Limpieza" transform="translate(797.381 584.381)" fill="#12263f" font-size="13" font-family="Roboto-Bold, Roboto" font-weight="700" style="isolation: isolate"><tspan x="-26.559" y="0">Limpieza</tspan></text>
      <text id="Bagazo" transform="translate(869.381 392.381)" fill="#12263f" font-size="13" font-family="Roboto-Bold, Roboto" font-weight="700" style="isolation: isolate"><tspan x="-21.76" y="0">Bagazo</tspan></text>
      <text id="Alta_concentración" data-name="Alta concentración" transform="translate(791.381 633.381)" fill="#12263f" font-size="13" font-family="Roboto-Bold, Roboto" font-weight="700" style="isolation: isolate"><tspan x="-55.031" y="0">Alta concentración</tspan></text>
      <text id="Microorganismos" transform="translate(147.381 543.381)" fill="#12263f" font-size="13" font-family="Roboto-Bold, Roboto" font-weight="700" style="isolation: isolate"><tspan x="-51.33" y="0">Microorganismos</tspan></text>
      <text id="Punteo_a_bajas_temperaturas" data-name="Punteo a bajas temperaturas" transform="translate(445.381 595.381)" fill="#12263f" font-size="13" font-family="Roboto-Bold, Roboto" font-weight="700" style="isolation: isolate"><tspan x="-84.062" y="0">Punteo a bajas temperaturas</tspan></text>
      <text id="Calizas" transform="translate(929.381 106.381)" fill="#12263f" font-size="13" font-family="Roboto-Bold, Roboto" font-weight="700" style="isolation: isolate"><tspan x="-21.319" y="0">Calizas</tspan></text>
      <g id="Grupo_141990" data-name="Grupo 141990" transform="translate(464.85 260.57) rotate(-49)">
        <path id="Trazado_183774-10" data-name="Trazado 183774-10" d="M0,0,138.1,5.757" transform="translate(0 0)" fill="none" stroke="#5d5d5d" stroke-width="2"/>
        <path id="Trazado_202136" data-name="Trazado 202136" d="M9.813,5.666,0,0V11.331Z" transform="translate(137.033 0.727)" fill="#5d5d5d"/>
      </g>
      <g id="Grupo_171559" data-name="Grupo 171559" transform="translate(419.429 296.892) rotate(-131)">
        <path id="Trazado_183774-10-2" data-name="Trazado 183774-10" d="M0,48.162,178.246,0" transform="translate(0 5.764)" fill="none" stroke="#5d5d5d" stroke-width="2"/>
        <path id="Trazado_202136-2" data-name="Trazado 202136" d="M9.813,5.666,0,11.331V0Z" transform="translate(176.676 0)" fill="#5d5d5d"/>
      </g>
      <g id="Grupo_171560" data-name="Grupo 171560" transform="translate(219.277 160.887) rotate(-131)">
        <path id="Trazado_183774-10-3" data-name="Trazado 183774-10" d="M0,69.547,115.5,0" transform="translate(0 8.521)" fill="none" stroke="#5d5d5d" stroke-width="2"/>
        <path id="Trazado_202136-3" data-name="Trazado 202136" d="M9.813,5.666,0,11.331V0Z" transform="translate(112.074 3.676) rotate(-22)" fill="#5d5d5d"/>
      </g>
      <g id="Grupo_171561" data-name="Grupo 171561" transform="translate(144.079 223.412) rotate(-131)">
        <path id="Trazado_183774-10-4" data-name="Trazado 183774-10" d="M0,37.811,87.915,0" transform="translate(0 8.521)" fill="none" stroke="#5d5d5d" stroke-width="2"/>
        <path id="Trazado_202136-4" data-name="Trazado 202136" d="M9.813,5.666,0,11.331V0Z" transform="translate(84.486 3.676) rotate(-22)" fill="#5d5d5d"/>
      </g>
      <path id="Trazado_183774-10-5" data-name="Trazado 183774-10" d="M0,0,140,63.14" transform="translate(575.644 109.646) rotate(-49)" fill="none" stroke="#5d5d5d" stroke-width="2"/>
      <g id="Grupo_171558" data-name="Grupo 171558" transform="translate(527.993 151.07) rotate(-131)">
        <path id="Trazado_183774-10-6" data-name="Trazado 183774-10" d="M0,63.14,140,0" transform="translate(0 0)" fill="none" stroke="#5d5d5d" stroke-width="2"/>
      </g>
      <line id="Línea_224" data-name="Línea 224" y2="69" transform="translate(574.381 41.381)" fill="none" stroke="#5d5d5d" stroke-width="2"/>
      <line id="Línea_227" data-name="Línea 227" x1="28.043" transform="translate(784.803 340.047)" fill="none" stroke="#5d5d5d" stroke-width="2"/>
      <line id="Línea_230" data-name="Línea 230" x1="46.929" transform="translate(674.795 530.32)" fill="none" stroke="#5d5d5d" stroke-width="2"/>
      <line id="Línea_234" data-name="Línea 234" y1="115.202" transform="translate(470.358 335.325)" fill="none" stroke="#5d5d5d" stroke-width="2"/>
      <line id="Línea_235" data-name="Línea 235" y1="62.795" transform="translate(470.358 502.935)" fill="none" stroke="#5d5d5d" stroke-width="2"/>
      <line id="Línea_236" data-name="Línea 236" y1="71.765" x2="68.933" transform="translate(125.695 441.085)" fill="none" stroke="#5d5d5d" stroke-width="2"/>
      <line id="Línea_237" data-name="Línea 237" y1="84.985" x2="142.675" transform="translate(205.87 310.774)" fill="none" stroke="#5d5d5d" stroke-width="2"/>
      <line id="Línea_241" data-name="Línea 241" y1="11.129" x2="60.17" transform="translate(285.278 297.757)" fill="none" stroke="#5d5d5d" stroke-width="2"/>
      <line id="Línea_242" data-name="Línea 242" x2="44.853" y2="51.996" transform="translate(303.22 218.234)" fill="none" stroke="#5d5d5d" stroke-width="2"/>
      <line id="Línea_238" data-name="Línea 238" x1="118.979" y1="116.147" transform="translate(607.278 331.548)" fill="none" stroke="#5d5d5d" stroke-width="2"/>
      <line id="Línea_239" data-name="Línea 239" x1="35.883" y1="18.886" transform="translate(612 317.384)" fill="none" stroke="#5d5d5d" stroke-width="2"/>
      <line id="Línea_240" data-name="Línea 240" x1="63.898" y2="48.837" transform="translate(608.223 217.556)" fill="none" stroke="#5d5d5d" stroke-width="2"/>
      <line id="Línea_231" data-name="Línea 231" x1="46.929" transform="translate(674.795 578.95)" fill="none" stroke="#5d5d5d" stroke-width="2"/>
      <line id="Línea_232" data-name="Línea 232" x1="46.929" transform="translate(674.795 627.58)" fill="none" stroke="#5d5d5d" stroke-width="2"/>
      <line id="Línea_228" data-name="Línea 228" x1="25.496" y1="24.079" transform="translate(784.803 352.794)" fill="none" stroke="#5d5d5d" stroke-width="2"/>
      <line id="Línea_229" data-name="Línea 229" x1="25.496" y2="28.328" transform="translate(784.803 299.443)" fill="none" stroke="#5d5d5d" stroke-width="2"/>
      <line id="Línea_225" data-name="Línea 225" y2="67.516" transform="translate(784.144 128.056)" fill="none" stroke="#5d5d5d" stroke-width="2"/>
      <line id="Línea_226" data-name="Línea 226" x1="142.586" y2="72.71" transform="translate(783.859 122.862)" fill="none" stroke="#5d5d5d" stroke-width="2"/>
      <path id="Trazado_258760" data-name="Trazado 258760" d="M9.813,5.666,5.029,2.9,0,0V11.331Z" transform="translate(803.791 334.381)" fill="#5d5d5d"/>
      <path id="Trazado_258767" data-name="Trazado 258767" d="M9.813,5.666,5.029,2.9,0,0V11.331Z" transform="translate(712.668 524.654)" fill="#5d5d5d"/>
      <path id="Trazado_258770" data-name="Trazado 258770" d="M9.813,5.666,5.029,2.9,0,0V11.331Z" transform="translate(476.496 450.629) rotate(90)" fill="#5d5d5d"/>
      <path id="Trazado_258771" data-name="Trazado 258771" d="M9.813,5.666,5.029,2.9,0,0V11.331Z" transform="translate(476.496 560.537) rotate(90)" fill="#5d5d5d"/>
      <path id="Trazado_258772" data-name="Trazado 258772" d="M9.813,5.666,5.029,2.9,0,0V11.331Z" transform="matrix(-0.719, 0.695, -0.695, -0.719, 132.688, 514.749)" fill="#5d5d5d"/>
      <path id="Trazado_258773" data-name="Trazado 258773" d="M9.813,5.666,5.029,2.9,0,0V11.331Z" transform="matrix(-0.839, 0.545, -0.545, -0.839, 213.542, 398.126)" fill="#5d5d5d"/>
      <path id="Trazado_258777" data-name="Trazado 258777" d="M9.813,5.666,5.029,2.9,0,0V11.331Z" transform="matrix(-0.966, 0.259, -0.259, -0.966, 289.123, 313.088)" fill="#5d5d5d"/>
      <path id="Trazado_258778" data-name="Trazado 258778" d="M9.813,5.666,5.029,2.9,0,0V11.331Z" transform="translate(299.887 223.253) rotate(-129)" fill="#5d5d5d"/>
      <path id="Trazado_258774" data-name="Trazado 258774" d="M9.813,5.666,5.029,8.428,0,11.331V0Z" transform="matrix(0.719, 0.695, -0.695, 0.719, 726.103, 439.266)" fill="#5d5d5d"/>
      <path id="Trazado_258775" data-name="Trazado 258775" d="M9.813,5.666,5.029,8.428,0,11.331V0Z" transform="matrix(0.906, 0.423, -0.423, 0.906, 644.886, 329.061)" fill="#5d5d5d"/>
      <path id="Trazado_258776" data-name="Trazado 258776" d="M9.813,5.666,5.029,8.428,0,11.331V0Z" transform="translate(664.349 216.818) rotate(-37)" fill="#5d5d5d"/>
      <path id="Trazado_258768" data-name="Trazado 258768" d="M9.813,5.666,5.029,2.9,0,0V11.331Z" transform="translate(712.668 573.284)" fill="#5d5d5d"/>
      <path id="Trazado_258769" data-name="Trazado 258769" d="M9.813,5.666,5.029,2.9,0,0V11.331Z" transform="translate(712.668 621.915)" fill="#5d5d5d"/>
      <path id="Trazado_258761" data-name="Trazado 258761" d="M9.813,5.666,5.029,2.9,0,0V11.331Z" transform="matrix(0.755, 0.656, -0.656, 0.755, 809.589, 369.379)" fill="#5d5d5d"/>
      <path id="Trazado_258762" data-name="Trazado 258762" d="M9.813,5.666,5.029,2.9,0,0V11.331Z" transform="translate(802.156 299.349) rotate(-52)" fill="#5d5d5d"/>
      <path id="Trazado_258758" data-name="Trazado 258758" d="M9.813,5.666,5.029,2.9,0,0V11.331Z" transform="translate(778.193 132.963) rotate(-90)" fill="#5d5d5d"/>
      <path id="Trazado_258764" data-name="Trazado 258764" d="M9.813,5.666,5.029,2.9,0,0V11.331Z" transform="translate(569.979 50.995) rotate(-90)" fill="#5d5d5d"/>
      <path id="Trazado_258765" data-name="Trazado 258765" d="M9.813,5.666,5.029,2.9,0,0V11.331Z" transform="translate(710.163 41.87) rotate(-31)" fill="#5d5d5d"/>
      <path id="Trazado_258766" data-name="Trazado 258766" d="M9.813,5.666,5.029,2.9,0,0V11.331Z" transform="translate(437.817 52.278) rotate(-152)" fill="#5d5d5d"/>
      <path id="Trazado_258763" data-name="Trazado 258763" d="M9.813,5.666,5.029,2.9,0,0V11.331Z" transform="matrix(0.866, -0.5, 0.5, 0.866, 916.483, 121.826)" fill="#5d5d5d"/>
      <line id="Línea_233" data-name="Línea 233" y2="135" transform="translate(675.381 492.381)" fill="none" stroke="#5d5d5d" stroke-width="2"/>
    </g>
  </g>
</svg>
