<svg xmlns="http://www.w3.org/2000/svg" width="103.167" height="117.12" viewBox="0 0 103.167 117.12">
  <g id="Grupo_173350" data-name="Grupo 173350" transform="translate(-30.5)">
    <g id="Grupo_173348" data-name="Grupo 173348" transform="translate(32.216 1.716)">
      <path id="Trazado_259582" data-name="Trazado 259582" d="M164.144,92.5H233a1.144,1.144,0,0,1,1.144,1.144V185.6A1.144,1.144,0,0,1,233,186.745H164.144A1.144,1.144,0,0,1,163,185.6V93.644A1.144,1.144,0,0,1,164.144,92.5Z" transform="translate(-134.406 -73.056)" fill="#f5f5f5"/>
      <path id="Trazado_259583" data-name="Trazado 259583" d="M228.995,92.5v87.955a1.144,1.144,0,0,1-1.144,1.144H163V93.644a1.144,1.144,0,0,1,1.144-1.144Z" transform="translate(-134.406 -73.056)" fill="#e6e6e6"/>
      <path id="Trazado_259584" data-name="Trazado 259584" d="M190.5,50H121.644a1.144,1.144,0,0,0-1.144,1.144V143.1a1.144,1.144,0,0,0,1.144,1.144H190.5a1.144,1.144,0,0,0,1.144-1.144V51.144A1.144,1.144,0,0,0,190.5,50Z" transform="translate(-101.628 -40.278)" fill="#f5f5f5"/>
      <path id="Trazado_259585" data-name="Trazado 259585" d="M186.495,50v87.955a1.144,1.144,0,0,1-1.144,1.144H120.5V51.144A1.144,1.144,0,0,1,121.644,50Z" transform="translate(-101.628 -40.278)" fill="#e6e6e6"/>
      <path id="Trazado_259586" data-name="Trazado 259586" d="M118.292,8.644V100.6a1.144,1.144,0,0,1-1.144,1.144H49.438A11.439,11.439,0,0,1,38,90.308V87.334a1.144,1.144,0,0,1,1.144-1.144h6.863a.221.221,0,0,0,.039,0,1.142,1.142,0,0,0,1.1-1.141V8.644A1.144,1.144,0,0,1,48.294,7.5h68.854A1.144,1.144,0,0,1,118.292,8.644Z" transform="translate(-38 -7.5)" fill="#f5f5f5"/>
      <path id="Trazado_259587" data-name="Trazado 259587" d="M133.816,78.46H114.144A1.144,1.144,0,0,1,113,77.316V57.644a1.144,1.144,0,0,1,1.144-1.144h19.673a1.144,1.144,0,0,1,1.144,1.144V77.316A1.144,1.144,0,0,1,133.816,78.46Z" transform="translate(-95.844 -45.291)" fill="#f6bab8"/>
      <g id="Grupo_173347" data-name="Grupo 173347" transform="translate(0 12.467)">
        <path id="Trazado_259588" data-name="Trazado 259588" d="M263.378,135.431H238.216a1.716,1.716,0,1,1,0-3.431h25.163a1.716,1.716,0,1,1,0,3.431Z" transform="translate(-191.093 -115.987)" fill="#5000c7"/>
        <path id="Trazado_259589" data-name="Trazado 259589" d="M197.607,203.431H172.216a1.716,1.716,0,1,1,0-3.431h25.391a1.716,1.716,0,1,1,0,3.431Z" transform="translate(-140.19 -168.432)" fill="#5000c7"/>
        <path id="Trazado_259590" data-name="Trazado 259590" d="M263.378,100.431H238.216a1.716,1.716,0,1,1,0-3.431h25.163a1.716,1.716,0,1,1,0,3.431Z" transform="translate(-191.093 -88.994)" fill="#5000c7"/>
        <path id="Trazado_259591" data-name="Trazado 259591" d="M263.378,65.431H238.216a1.716,1.716,0,1,1,0-3.431h25.163a1.716,1.716,0,1,1,0,3.431Z" transform="translate(-191.093 -62)" fill="#5000c7"/>
        <path id="Trazado_259592" data-name="Trazado 259592" d="M162.345,292.431H107.216a1.716,1.716,0,0,1,0-3.431h55.129a1.716,1.716,0,0,1,0,3.431Z" transform="translate(-90.059 -237.074)" fill="#5000c7"/>
        <path id="Trazado_259593" data-name="Trazado 259593" d="M247.182,247.431H217.216a1.716,1.716,0,0,1,0-3.431h29.966a1.716,1.716,0,1,1,0,3.431Z" transform="translate(-174.897 -202.367)" fill="#5000c7"/>
        <path id="Trazado_259594" data-name="Trazado 259594" d="M123.986,247.431H106.716a1.716,1.716,0,1,1,0-3.431h17.271a1.716,1.716,0,1,1,0,3.431Z" transform="translate(-89.674 -202.367)" fill="#5000c7"/>
        <path id="Trazado_259595" data-name="Trazado 259595" d="M107.033,367.047H49.438A11.438,11.438,0,0,1,38,355.61v-2.974a1.144,1.144,0,0,1,1.144-1.144h6.863a.222.222,0,0,0,.039,0h48.52a1.144,1.144,0,0,1,1.144,1.144v2.976A11.438,11.438,0,0,0,107.033,367.047Z" transform="translate(-38 -285.269)" fill="#5000c7"/>
      </g>
    </g>
    <g id="Grupo_173349" data-name="Grupo 173349" transform="translate(30.5)">
      <path id="Trazado_259596" data-name="Trazado 259596" d="M131.951,19.444h-8.006V11.438a1.716,1.716,0,0,0-1.716-1.716h-8.006V1.716A1.716,1.716,0,0,0,112.507,0H41.366A1.716,1.716,0,0,0,39.65,1.716V78.69H32.216A1.716,1.716,0,0,0,30.5,80.406v4.118A13.168,13.168,0,0,0,43.653,97.677h5.719v8.006a1.716,1.716,0,0,0,1.716,1.716h8.006V115.4a1.716,1.716,0,0,0,1.716,1.716H95.237a1.716,1.716,0,0,0,0-3.431H62.525V107.4h59.7a1.716,1.716,0,0,0,1.716-1.716V78.69a1.716,1.716,0,1,0-3.431,0v25.277H52.8V97.677h59.7a1.716,1.716,0,0,0,1.716-1.716V13.153h6.291v57.76a1.716,1.716,0,0,0,3.431,0V22.875h6.291v90.814H103.014a1.716,1.716,0,0,0,0,3.431h28.937a1.716,1.716,0,0,0,1.716-1.716V21.159A1.716,1.716,0,0,0,131.951,19.444Zm-21.159,74.8H101.3a9.733,9.733,0,0,1-9.722-9.722V80.406a1.716,1.716,0,0,0-1.716-1.716h-11.9a1.716,1.716,0,1,0,0,3.431H88.145v2.4a13.122,13.122,0,0,0,4.3,9.722h-48.8a9.733,9.733,0,0,1-9.722-9.722v-2.4H69.96a1.716,1.716,0,1,0,0-3.431H43.081V3.431h67.71Z" transform="translate(-30.5)"/>
      <path id="Trazado_259597" data-name="Trazado 259597" d="M107.216,74.391h21.96a1.716,1.716,0,0,0,1.716-1.716V50.716A1.716,1.716,0,0,0,129.176,49h-21.96a1.716,1.716,0,0,0-1.716,1.716v21.96A1.716,1.716,0,0,0,107.216,74.391Zm1.716-21.96H127.46V70.96H108.931Z" transform="translate(-88.344 -37.791)"/>
      <path id="Trazado_259598" data-name="Trazado 259598" d="M263.378,132H238.216a1.716,1.716,0,1,0,0,3.431h25.163a1.716,1.716,0,1,0,0-3.431Z" transform="translate(-189.377 -101.805)"/>
      <path id="Trazado_259599" data-name="Trazado 259599" d="M170.5,201.716a1.716,1.716,0,0,0,1.716,1.716h25.391a1.716,1.716,0,1,0,0-3.431H172.216A1.716,1.716,0,0,0,170.5,201.716Z" transform="translate(-138.475 -154.25)"/>
      <path id="Trazado_259600" data-name="Trazado 259600" d="M263.378,97H238.216a1.716,1.716,0,1,0,0,3.431h25.163a1.716,1.716,0,1,0,0-3.431Z" transform="translate(-189.377 -74.811)"/>
      <path id="Trazado_259601" data-name="Trazado 259601" d="M263.378,62H238.216a1.716,1.716,0,1,0,0,3.431h25.163a1.716,1.716,0,1,0,0-3.431Z" transform="translate(-189.377 -47.817)"/>
      <path id="Trazado_259602" data-name="Trazado 259602" d="M162.345,289H107.216a1.716,1.716,0,0,0,0,3.431h55.129a1.716,1.716,0,0,0,0-3.431Z" transform="translate(-88.344 -222.891)"/>
      <path id="Trazado_259603" data-name="Trazado 259603" d="M247.182,244H217.216a1.716,1.716,0,0,0,0,3.431h29.966a1.716,1.716,0,1,0,0-3.431Z" transform="translate(-173.181 -188.185)"/>
      <path id="Trazado_259604" data-name="Trazado 259604" d="M106.716,247.431h17.271a1.716,1.716,0,1,0,0-3.431H106.716a1.716,1.716,0,1,0,0,3.431Z" transform="translate(-87.958 -188.185)"/>
    </g>
  </g>
</svg>
