<svg xmlns="http://www.w3.org/2000/svg" width="251.51" height="307.709" viewBox="0 0 251.51 307.709">
  <g id="Grupo_171647" data-name="Grupo 171647" transform="translate(-46.755)">
    <g id="Grupo_171645" data-name="Grupo 171645" transform="translate(51.262 4.507)">
      <path id="Trazado_259030" data-name="Trazado 259030" d="M342.966,48.987l-10.5-4.42-27.8-27.646L301.479,7.5H178.532l-1.876.594-3.08,1.915-2.329,3.268-1.165,4.507V261.678H203.6l7.461,6.611v20.134h12.471l-2.9,17.771H331.916a11.05,11.05,0,0,0,11.05-11.049Z" transform="translate(-100.47 -7.5)" fill="#fef0db"/>
      <g id="Grupo_171644" data-name="Grupo 171644" transform="translate(39.136)">
        <path id="Trazado_259031" data-name="Trazado 259031" d="M150.277,18.549A11.049,11.049,0,0,1,161.326,7.5h-30.9a11.049,11.049,0,0,0-11.049,11.049V257.99l4.747,3.688h30.9l-4.747-3.688Z" transform="translate(-119.372 -7.5)" fill="#fee6c1"/>
      </g>
      <path id="Trazado_259032" data-name="Trazado 259032" d="M344.522,423.576,266.5,368.946l-2.789.515-10.067,15.31.1,2.39,78.019,54.63a11.118,11.118,0,1,0,12.754-18.214Z" transform="translate(-133.813 -151.719)" fill="#bd7b62"/>
      <path id="Trazado_259033" data-name="Trazado 259033" d="M255.414,361.135l-16.8-11.766-10.551,5.2-2.2,13.013,16.8,11.766Z" transform="translate(-122.725 -143.908)" fill="#ad6a50"/>
      <path id="Trazado_259034" data-name="Trazado 259034" d="M399.762,48.987H430.2L388.713,7.5V37.938A11.049,11.049,0,0,0,399.762,48.987Z" transform="translate(-187.705 -7.5)" fill="#fcd79b"/>
      <path id="Trazado_259035" data-name="Trazado 259035" d="M186.217,424.292H141.926l-2.646,1.584-4.883,5.108-1.127,5.559v16.468h66.511V437.858A13.564,13.564,0,0,0,186.217,424.292Z" transform="translate(-85.782 -173.802)" fill="#bd7b62"/>
      <path id="Trazado_259036" data-name="Trazado 259036" d="M124.569,424.292H89.25a13.565,13.565,0,0,0-13.565,13.566v15.155H111V437.858A13.566,13.566,0,0,1,124.569,424.292Z" transform="translate(-62.805 -173.802)" fill="#ad6a50"/>
      <path id="Trazado_259037" data-name="Trazado 259037" d="M168.11,366.43l-13.839,19.883.438,1.973L171.294,399.9a6.667,6.667,0,0,0,9.285-1.637l8.366-11.949L172.3,368.131Z" transform="translate(-94.161 -150.715)" fill="#fbc700"/>
      <path id="Trazado_259038" data-name="Trazado 259038" d="M140.986,354.262l-8.366,11.949a6.667,6.667,0,0,0,1.637,9.285l11.332,7.935,14.882-21.254Z" transform="translate(-85.041 -145.86)" fill="#eab900"/>
      <path id="Trazado_259039" data-name="Trazado 259039" d="M250.783,286.49,234.2,274.878h-2.132l-13.489,19.379L221,296.744l23.055,10.981,8.366-11.95A6.667,6.667,0,0,0,250.783,286.49Z" transform="translate(-119.82 -114.185)" fill="#fbc700"/>
      <path id="Trazado_259040" data-name="Trazado 259040" d="M213.994,260.874a6.667,6.667,0,0,0-9.285,1.637l-8.366,11.949L210.9,289.414l14.428-20.605Z" transform="translate(-110.948 -108.117)" fill="#eab900"/>
      <path id="Trazado_259041" data-name="Trazado 259041" d="M202.508,302.233l-29.332,42.141L196.489,360.7l29.449-42.058Z" transform="translate(-101.705 -125.1)" fill="#ffe559"/>
      <path id="Trazado_259042" data-name="Trazado 259042" d="M147.355,326.5l29.471-42.05,16.791,11.768-29.471,42.05Z" transform="translate(-91.402 -118.004)" fill="#fbc700"/>
      <path id="Trazado_259043" data-name="Trazado 259043" d="M197.667,467.5H117.509l-2.685,1.084-2.3,2.554v13.973l2.379,3.456,2.738,1.169h80.03a6.712,6.712,0,0,0,6.711-6.711v-8.814a6.71,6.71,0,0,0-6.711-6.711Z" transform="translate(-77.502 -191.044)" fill="#ffe559"/>
      <path id="Trazado_259044" data-name="Trazado 259044" d="M89.574,483.026v-8.814a6.712,6.712,0,0,1,6.711-6.711H60.966a6.712,6.712,0,0,0-6.712,6.711v8.814a6.712,6.712,0,0,0,6.712,6.711H96.285A6.711,6.711,0,0,1,89.574,483.026Z" transform="translate(-54.254 -191.043)" fill="#fbc700"/>
    </g>
    <g id="Grupo_171646" data-name="Grupo 171646" transform="translate(46.755)">
      <path id="Trazado_259045" data-name="Trazado 259045" d="M294.438,98.028a4.507,4.507,0,0,0,0-9.015h-52.8a4.507,4.507,0,0,0,0,9.015Z" transform="translate(-122.717 -35.517)"/>
      <path id="Trazado_259046" data-name="Trazado 259046" d="M308.869,135.587H170.19a4.507,4.507,0,1,0,0,9.015H308.869a4.507,4.507,0,0,0,0-9.015Z" transform="translate(-94.208 -54.1)"/>
      <path id="Trazado_259047" data-name="Trazado 259047" d="M308.869,169.705H170.19a4.507,4.507,0,1,0,0,9.015H308.869a4.507,4.507,0,0,0,0-9.015Z" transform="translate(-94.208 -67.713)"/>
      <path id="Trazado_259048" data-name="Trazado 259048" d="M308.869,203.823H170.19a4.507,4.507,0,1,0,0,9.015H308.869a4.507,4.507,0,0,0,0-9.015Z" transform="translate(-94.208 -81.327)"/>
      <path id="Trazado_259049" data-name="Trazado 259049" d="M293.758,148.708a4.507,4.507,0,0,0,4.507-4.507V45.995a4.526,4.526,0,0,0-1.32-3.187L255.458,1.32l-.007-.005A4.548,4.548,0,0,0,252.27,0H101.447A15.575,15.575,0,0,0,85.89,15.557V250.49H77.707a18.093,18.093,0,0,0-18.072,18.073v7.9H57.974a11.232,11.232,0,0,0-11.219,11.219v8.814A11.232,11.232,0,0,0,57.974,307.71h46.21a4.507,4.507,0,1,0,0-9.015H57.974a2.206,2.206,0,0,1-2.2-2.2v-8.814a2.207,2.207,0,0,1,2.2-2.2H171.426a2.206,2.206,0,0,1,2.2,2.2v8.814a2.207,2.207,0,0,1-2.2,2.2H125.219a4.507,4.507,0,1,0,0,9.015H282.708a15.575,15.575,0,0,0,15.557-15.557V165.235a4.507,4.507,0,1,0-9.015,0V292.152a6.549,6.549,0,0,1-6.542,6.542h-18.8a15.609,15.609,0,0,0,.65-26.021l-91.13-63.811,14.129-20.178a11.175,11.175,0,0,0-2.744-15.564l-27.917-19.547a11.175,11.175,0,0,0-15.563,2.744L95.148,222.272c-.088.126-.161.258-.243.386V15.557a6.549,6.549,0,0,1,6.542-6.542H247.763v25.93A15.575,15.575,0,0,0,263.32,50.5h25.931v93.7a4.506,4.506,0,0,0,4.507,4.507Zm-133,127.749H68.649v-7.893a9.068,9.068,0,0,1,9.058-9.058H151.7a9.068,9.068,0,0,1,9.058,9.058v7.893Zm21.674,22.238a11.371,11.371,0,0,0,.217-2.2v-8.814a11.231,11.231,0,0,0-11.217-11.219h-1.659v-7.895A18.093,18.093,0,0,0,151.7,250.49h-7.419L155.5,234.461l91.13,63.81c.215.151.437.284.657.423Zm76.957-18.637a6.61,6.61,0,0,1-7.583,10.83l-91.13-63.81,7.583-10.83ZM148.715,161.488a2.152,2.152,0,0,1,1.394-.888,2.21,2.21,0,0,1,.379-.032,2.133,2.133,0,0,1,1.236.39L179.64,180.5a2.159,2.159,0,0,1,.53,3.008l-5.781,8.257-31.455-22.026Zm-10.952,15.641,31.455,22.025-24.278,34.673L113.484,211.8Zm-35.231,50.315,5.781-8.256,31.455,22.025-5.782,8.256a2.159,2.159,0,0,1-3.007.53L103.062,230.45a2.157,2.157,0,0,1-.529-3.007Zm-4.64,10.392,18.073,12.655H94.905V234.736A11.144,11.144,0,0,0,97.892,237.835ZM263.319,41.487a6.549,6.549,0,0,1-6.542-6.542V15.389l26.1,26.1Z" transform="translate(-46.755)"/>
    </g>
  </g>
</svg>
