<svg xmlns="http://www.w3.org/2000/svg" xmlns:xlink="http://www.w3.org/1999/xlink" width="418" height="364" viewBox="0 0 418 364">
  <defs>
    <filter id="Rect치ngulo_44642" x="0" y="0" width="418" height="364" filterUnits="userSpaceOnUse">
      <feOffset dy="3" input="SourceAlpha"/>
      <feGaussianBlur stdDeviation="3" result="blur"/>
      <feFlood flood-opacity="0.161"/>
      <feComposite operator="in" in2="blur"/>
      <feComposite in="SourceGraphic"/>
    </filter>
  </defs>
  <g id="Grupo_174006" data-name="Grupo 174006" transform="translate(-171 -6578.656)">
    <g transform="matrix(1, 0, 0, 1, 171, 6578.66)" filter="url(#Rect치ngulo_44642)">
      <rect id="Rect치ngulo_44642-2" data-name="Rect치ngulo 44642" width="400" height="346" rx="45" transform="translate(9 6)" fill="#fff"/>
    </g>
    <g id="Grupo_171744" data-name="Grupo 171744" transform="translate(225.29 6623.658)">
      <path id="Trazado_259198" data-name="Trazado 259198" d="M51.21,479.74c0-.174,32.063-27.39,107.671-27.39,73.442,0,107.671,27.216,107.671,27.39Z" transform="translate(-3.561 -214.765)" fill="#f6cc90"/>
      <path id="Trazado_259199" data-name="Trazado 259199" d="M243.943,452.351q-7.035,0-13.571.3c64.34,2.971,94.455,26.925,94.455,27.089h26.786c0-.175-34.229-27.39-107.671-27.39Z" transform="translate(-88.622 -214.766)" fill="#f0c17f"/>
      <path id="Trazado_259200" data-name="Trazado 259200" d="M311.315,51.64a45.563,45.563,0,0,1-32.367,29.784S263.3,62.7,271.838,37.945C280.825,11.873,304.433,7.5,304.433,7.5A46.976,46.976,0,0,1,311.315,51.64Z" transform="translate(-107.1 -3.562)" fill="#c5e866"/>
      <path id="Trazado_259201" data-name="Trazado 259201" d="M309.774,7.5a42.1,42.1,0,0,0-13.523,5.822,47.029,47.029,0,0,1,3.074,38.318,45.281,45.281,0,0,1-18.783,23.994,38.346,38.346,0,0,0,3.748,5.79,45.561,45.561,0,0,0,32.368-29.784A46.975,46.975,0,0,0,309.774,7.5Z" transform="translate(-112.441 -3.562)" fill="#b2d94b"/>
      <path id="Trazado_259202" data-name="Trazado 259202" d="M280.641,239.216a67.126,67.126,0,0,1-24.987-.894s-9.163-36.768,19.472-65.494c30.162-30.258,66.051-20.3,66.051-20.3s7.873,30.011-12.989,57.9" transform="translate(-99.963 -71.673)" fill="#9cc042"/>
      <path id="Trazado_259203" data-name="Trazado 259203" d="M347.946,152.53a65.362,65.362,0,0,0-23.09-1.043,44.7,44.7,0,0,1,5.758,1.043s7.873,30.011-12.989,57.9l-47.547,28.788c-.526.075-1.046.141-1.562.2a72.515,72.515,0,0,0,18.894-.2l47.547-28.788C355.818,182.541,347.946,152.53,347.946,152.53Z" transform="translate(-106.732 -71.674)" fill="#85aa18"/>
      <path id="Trazado_259204" data-name="Trazado 259204" d="M143.3,271.034a55.456,55.456,0,0,1,21.186,48.991S136.9,330.58,112.022,310.97c-26.208-20.656-21.849-49.513-21.849-49.513a56.47,56.47,0,0,1,53.126,9.577Z" transform="translate(-21.93 -122.773)" fill="#c5e866"/>
      <path id="Trazado_259205" data-name="Trazado 259205" d="M121.4,141.258c25.719,32.769,62.53,27.134,62.53,27.134s13.429-35.425-11.622-67.343c-26.387-33.62-63.2-27.986-63.2-27.986S95.349,108.063,121.4,141.258Z" transform="translate(-29.327 -34.521)" fill="#9cc042"/>
      <path id="Trazado_259206" data-name="Trazado 259206" d="M342.857,308.322a45.407,45.407,0,0,1-43.667,4.745s-1.534-24.386,19.962-39.248c22.643-15.655,44.24-5.141,44.24-5.141a46.927,46.927,0,0,1-20.535,39.644Z" transform="translate(-121.284 -125.922)" fill="#c5e866"/>
      <path id="Trazado_259207" data-name="Trazado 259207" d="M371.467,268.68a44.992,44.992,0,0,0-26.039-2.634,37.836,37.836,0,0,1,8.706,2.634A46.928,46.928,0,0,1,333.6,308.324a45.881,45.881,0,0,1-17.425,7.448,45.209,45.209,0,0,0,34.757-7.448A46.926,46.926,0,0,0,371.467,268.68Z" transform="translate(-129.359 -125.924)" fill="#b2d94b"/>
      <path id="Trazado_259208" data-name="Trazado 259208" d="M263.647,260.529c-7.79-5.491-16.672-9.58-25.535-12.99-15.993-6.154-42.606-13.454-79.465-13.872a80.048,80.048,0,0,1,18.7-42.467,49.162,49.162,0,0,0,46.468-5.559,50.554,50.554,0,0,0,22.223-43.18,3.939,3.939,0,0,0-2.2-3.246,41.046,41.046,0,0,0-9.149-2.88,75.407,75.407,0,0,0,9.594-22.306c1.232-4.93-6.41-6.839-7.644-1.911a67.7,67.7,0,0,1-10.793,23.221,50.269,50.269,0,0,0-30.214,9.317,48.96,48.96,0,0,0-16.471,19.111,68.723,68.723,0,0,1-16.88.062c8-10.8,28.864-36.96,52.351-50.625,4.392-2.555.43-9.366-3.962-6.81-22.855,13.3-42.749,36.97-52.337,49.538-.553-12.262,1.573-33.889,19.624-52,11.764-11.8,25.768-18.64,41.618-20.324a66.053,66.053,0,0,1,18.3.554,64.312,64.312,0,0,1,.853,9.542c.089,5.033,7.967,4.972,7.877-.138a63.229,63.229,0,0,0-1.573-13.714,3.94,3.94,0,0,0-2.757-2.8,68.32,68.32,0,0,0-23.165-1.32,76.25,76.25,0,0,0-46.728,22.634c-1.368,1.373-2.649,2.764-3.855,4.167,2.212-6.812,4.628-14.179,7.1-21.588a49.373,49.373,0,0,0,32.325-31.59,50.6,50.6,0,0,0-7.615-47.987,3.938,3.938,0,0,0-3.71-1.311c-1.056.2-25.976,5.112-35.6,33.034-7.992,23.182,3.4,41.3,6.878,46.076-2.3,6.9-4.54,13.739-6.612,20.116a74.275,74.275,0,0,0-15.2-35.195,76.31,76.31,0,0,0-43.734-28.013,68.268,68.268,0,0,0-23.159-1.434A3.939,3.939,0,0,0,76.12,37.1a67.129,67.129,0,0,0-3.612,17.333c-.436,5.063,7.412,5.739,7.849.678A66.643,66.643,0,0,1,82.72,42.226a66.084,66.084,0,0,1,18.23,1.618c15.542,3.551,28.642,12,38.935,25.116a66.27,66.27,0,0,1,14.37,42.843,74,74,0,0,1-1.386,13.255c-15.583-29.022-37.647-51.319-38.615-52.289-3.586-3.6-9.165,1.962-5.58,5.561.233.234,22.978,23.234,38.045,51.946a68.79,68.79,0,0,1-13.21-1.6A65.769,65.769,0,0,1,95.174,104.3,69.455,69.455,0,0,1,81.453,75c-1.005-4.98-8.729-3.421-7.722,1.559a77.251,77.251,0,0,0,15.246,32.608,74.92,74.92,0,0,0,61.379,28.977v66.333c-1.189-2.563-2.472-4.989-3.824-7.286a59.085,59.085,0,0,0-22.725-52.026c-27.345-21.552-55.819-10.621-57.018-10.145a3.939,3.939,0,0,0-2.441,3.073c-.192,1.271-4.383,31.373,23.306,53.2a58.531,58.531,0,0,0,36.827,12.782,62.9,62.9,0,0,0,15.858-2.019,75.831,75.831,0,0,1,9.7,31.642,251.842,251.842,0,0,0-56.6,6.981c-4.93,1.232-3.02,8.874,1.91,7.644a244.121,244.121,0,0,1,55.007-6.751v9.054c0,5.081,7.878,5.081,7.878,0v-9.077c46.459.462,76.151,11.836,90.916,19.49H61.062a129.512,129.512,0,0,1,14.774-6.642c4.749-1.806,1.948-9.172-2.8-7.364A127.843,127.843,0,0,0,52.1,257.067c-8.393,5.114-8.393,6.347-8.393,7.908a3.939,3.939,0,0,0,3.939,3.939H262.991c5.988,0,3.631-6.288.656-8.386ZM200.108,151.137c16.621-11.491,32.406-7.7,38.083-5.714a42.9,42.9,0,0,1-18.859,33.737,41.328,41.328,0,0,1-36.008,5.815,96.706,96.706,0,0,1,28.293-18.049c4.67-2,1.569-9.242-3.1-7.242a107,107,0,0,0-25.048,14.851A41.614,41.614,0,0,1,200.108,151.137Zm-29.715,21.071c1.764,0,3.645-.064,5.616-.207a53.426,53.426,0,0,0-1.978,11.241,87.363,87.363,0,0,0-15.8,23.326v-35.36A72.246,72.246,0,0,0,170.394,172.208ZM168.461,35.667c6.6-19.133,21.539-25.474,27.3-27.253A42.975,42.975,0,0,1,200.491,46.8a41.425,41.425,0,0,1-21.622,24.462c5.115-15.118,10.169-29.44,13.836-38.432,1.919-4.7-5.377-7.68-7.295-2.975-3.826,9.381-9.038,24.159-14.268,39.629a42.313,42.313,0,0,1-2.681-33.813ZM92.53,185.1a52.343,52.343,0,0,1-19.275-29.952,51.764,51.764,0,0,1-1.3-13.527,52.915,52.915,0,0,1,46.977,9.731,50.762,50.762,0,0,1,18.693,29.479c.383,1.725.656,3.366.849,4.9a92.211,92.211,0,0,0-7.864-8.36,95.238,95.238,0,0,0-27.648-18.312c-4.735-1.845-7.594,5.5-2.859,7.342a88.293,88.293,0,0,1,25.116,16.716,84.715,84.715,0,0,1,10.551,11.9c-8.728,1.779-26.675,3.145-43.239-9.909Z" transform="translate(0 0)" fill="#060606"/>
    </g>
  </g>
</svg>
