<svg xmlns="http://www.w3.org/2000/svg" xmlns:xlink="http://www.w3.org/1999/xlink" width="294" height="296.852" viewBox="0 0 294 296.852">
  <defs>
    <linearGradient id="linear-gradient" x1="0.5" y1="0.941" x2="0.429" y2="-0.71" gradientUnits="objectBoundingBox">
      <stop offset="0" stop-color="#09005d"/>
      <stop offset="1" stop-color="#1a0f91"/>
    </linearGradient>
    <linearGradient id="linear-gradient-2" x1="-30.68" y1="-2.445" x2="159.69" y2="15.534" gradientUnits="objectBoundingBox">
      <stop offset="0" stop-color="#a737d5"/>
      <stop offset="1" stop-color="#ef497a"/>
    </linearGradient>
    <linearGradient id="linear-gradient-3" x1="-0.897" y1="-0.736" x2="7.16" y2="6.41" xlink:href="#linear-gradient-2"/>
    <linearGradient id="linear-gradient-4" x1="1.519" y1="-0.775" x2="-1.484" y2="2.907" xlink:href="#linear-gradient"/>
    <linearGradient id="linear-gradient-5" x1="1.004" y1="-2.464" x2="-0.074" y2="4.125" xlink:href="#linear-gradient"/>
    <linearGradient id="linear-gradient-6" x1="0.727" y1="-2.869" x2="0.282" y2="3.71" gradientUnits="objectBoundingBox">
      <stop offset="0" stop-color="#ff928e"/>
      <stop offset="1" stop-color="#fe7062"/>
    </linearGradient>
  </defs>
  <g id="Grupo_174002" data-name="Grupo 174002" transform="translate(-180 -5163.377)">
    <g id="Grupo_171695" data-name="Grupo 171695" transform="translate(-281.552 4708.377)">
      <path id="Trazado_259085" data-name="Trazado 259085" d="M720.335,707.714a105.822,105.822,0,0,1-16.191,13.632c-52.818,37.9-115.316,26.851-128.6,24.153-19.614-3.984-57.528-11.684-84.939-43.919-41.471-48.768-35.013-125.6-2.846-176.321,5.884-9.277,36.965-60.769,100.136-69.026,38.23-5,82.795,5.082,115.067,32.12C770.705,545.108,765.883,659.763,720.335,707.714Z" fill="#5000c7" opacity="0.1"/>
      <g id="Grupo_171677" data-name="Grupo 171677" transform="translate(651.839 455.729)">
        <g id="Grupo_171675" data-name="Grupo 171675" transform="translate(3.031 0)">
          <path id="Trazado_259086" data-name="Trazado 259086" d="M2288.275,628.477s-.86-36.151,15.791-45.827,48.31-15.725,49.5-67.635c.695-30.39,1.447-43.677,1.951-49.471a3.422,3.422,0,0,0-4.041-3.664c-15.77,2.971-67,15.2-77.739,50.165C2261,553.5,2288.275,628.477,2288.275,628.477Z" transform="translate(-2270.347 -461.82)" fill="#93af58"/>
          <path id="Trazado_259087" data-name="Trazado 259087" d="M2447.817,596.138c-17.31,15.438-37.327,42.761-48,70.084-1.37,4.5-5.375,14.079-7.115,31.093-1.553,14.19-.781,29.185,1.1,39.11a1.157,1.157,0,0,0,1.352.921,1.173,1.173,0,0,0,.926-1.329,158.588,158.588,0,0,1,3.672-57.111c6.3-23.385,20.347-46.058,34.879-65.288l1.5-1.894c11.258-14.458,13.628-14.564,12.575-15.572A.659.659,0,0,0,2447.817,596.138Z" transform="translate(-2378.887 -581.635)" fill="#fff"/>
        </g>
        <g id="Grupo_171676" data-name="Grupo 171676" transform="translate(0 92.991)">
          <path id="Trazado_259088" data-name="Trazado 259088" d="M2242.138,1471.875c-2.252,1.1,21.328-28.547,28.714-75.118,3.481-21.946,3.526-49.441,16.027-60.037,10.4-8.819,45.808-3.251,57.392-1.135a1.737,1.737,0,0,1,.808,3.039c-5.555,4.666-17.439,15.67-20.535,26.761-4.081,14.618-17.979,23.916-30.422,26.433s-19.364,4.958-25.425,24.856S2248.539,1468.736,2242.138,1471.875Z" transform="translate(-2241.987 -1331.898)" fill="#78af00"/>
          <path id="Trazado_259089" data-name="Trazado 259089" d="M2572.748,1424.177c-14.78.619-30.645,7.361-38.7,20.008l-.76,1.207c-1.755,2.83-11.7,22.945-17.226,39.62a.4.4,0,0,0,.252.5.4.4,0,0,0,.5-.237c3.849-9.42,9.377-21.363,13.78-30.294,4.721-9.746,8.025-16.346,18.8-22.667a59.965,59.965,0,0,1,23.4-7.5.318.318,0,0,0-.045-.634Z" transform="translate(-2486.756 -1414.314)" fill="#fff"/>
        </g>
      </g>
      <g id="Grupo_171691" data-name="Grupo 171691" transform="translate(518.226 476.693)">
        <path id="Trazado_259090" data-name="Trazado 259090" d="M991.82,970.274a16.907,16.907,0,0,1,16.907-16.907H1152.5a14.9,14.9,0,0,1,14.876,14.138l10.613,208.449a10.984,10.984,0,0,1-10.77,11.541l-164.786,2.995a10.426,10.426,0,0,1-10.616-10.425Z" transform="translate(-991.82 -921.797)" fill="url(#linear-gradient)"/>
        <path id="Trazado_259091" data-name="Trazado 259091" d="M1068.925,2806.3h-.005l-18.439-.238a11.372,11.372,0,0,1-11.181-11.327v-27.839a.394.394,0,0,1,.787,0v27.839a10.581,10.581,0,0,0,10.4,10.539l18.439.239a.394.394,0,0,1,0,.787Z" transform="translate(-1034.226 -2541.15)" fill="#91b3fa"/>
        <path id="Trazado_259092" data-name="Trazado 259092" d="M1039.694,2648.928a.394.394,0,0,1-.394-.394v-4.508a.394.394,0,1,1,.787,0v4.508A.393.393,0,0,1,1039.694,2648.928Z" transform="translate(-1034.226 -2431.412)" fill="url(#linear-gradient-2)"/>
        <g id="Grupo_171690" data-name="Grupo 171690" transform="translate(11.779 29.835)">
          <path id="Trazado_259093" data-name="Trazado 259093" d="M1102.03,942.076a4.911,4.911,0,0,1,5.57-4.9c19.634,2.662,87.15,10.9,142.972,6.612a4.541,4.541,0,0,1,4.89,4.283l11.128,209.378a5.226,5.226,0,0,1-4.91,5.5c-23.478,1.389-120.165,6.76-154.652,3.148a4.14,4.14,0,0,1-3.7-4.1Z" transform="translate(-1102.03 -937.132)" fill="#e53935"/>
          <path id="Trazado_259094" data-name="Trazado 259094" d="M1123.669,992.724a4.726,4.726,0,0,1,5.36-4.714c18.895,2.562,83.868,10.487,137.588,6.363a4.37,4.37,0,0,1,4.706,4.122l10.709,201.494a5.029,5.029,0,0,1-4.725,5.289c-22.593,1.337-115.64,6.506-148.829,3.03a3.984,3.984,0,0,1-3.565-3.943Z" transform="translate(-1121.357 -982.534)" fill="#f6bab8"/>
          <path id="Trazado_259095" data-name="Trazado 259095" d="M1287.3,1152.3l2.007,43.2a2.746,2.746,0,0,0,2.665,2.62c8,.226,32.93.834,47.006.1a3.067,3.067,0,0,0,2.9-2.965c.268-8.1.856-31.681-.99-41.538a3.461,3.461,0,0,0-3.286-2.815l-47.288-1.654A2.92,2.92,0,0,0,1287.3,1152.3Z" transform="translate(-1267.497 -1126.574)" fill="#fff" opacity="0.78"/>
          <g id="Grupo_171678" data-name="Grupo 171678" transform="translate(84.935 25.632)" opacity="0.6">
            <path id="Trazado_259096" data-name="Trazado 259096" d="M1949.989,1180.811a1.486,1.486,0,0,0,1.565-1.449,1.629,1.629,0,0,0-1.65-1.478l-52.009-.927a1.045,1.045,0,0,0-1.073,1.488l.3.85a2.438,2.438,0,0,0,2.142,1.516Z" transform="translate(-1896.736 -1176.956)" fill="#fff"/>
          </g>
          <g id="Grupo_171679" data-name="Grupo 171679" transform="translate(84.935 33.685)" opacity="0.6">
            <path id="Trazado_259097" data-name="Trazado 259097" d="M1897.9,1252.307a1.045,1.045,0,0,0-1.073,1.488l.3.85a2.438,2.438,0,0,0,2.142,1.516h50.725a1.486,1.486,0,0,0,1.565-1.449,1.629,1.629,0,0,0-1.65-1.478Z" transform="translate(-1896.736 -1252.306)" fill="#fff"/>
          </g>
          <g id="Grupo_171680" data-name="Grupo 171680" transform="translate(84.935 41.855)" opacity="0.6">
            <path id="Trazado_259098" data-name="Trazado 259098" d="M1897.9,1328.753a1.045,1.045,0,0,0-1.073,1.488l.3.85a2.438,2.438,0,0,0,2.142,1.516h50.725a1.486,1.486,0,0,0,1.565-1.449,1.629,1.629,0,0,0-1.65-1.478Z" transform="translate(-1896.736 -1328.753)" fill="#fff"/>
          </g>
          <g id="Grupo_171681" data-name="Grupo 171681" transform="translate(20.507 81.24)" opacity="0.6">
            <path id="Trazado_259099" data-name="Trazado 259099" d="M1416.62,1701.135a1.423,1.423,0,0,0,1.512-1.449,1.684,1.684,0,0,0-1.7-1.462l-121.636-.959c-.884-.007-1.157.553-.606,1.245l1.089,1.367a3.785,3.785,0,0,0,2.609,1.258Z" transform="translate(-1293.902 -1697.265)" fill="#fff"/>
          </g>
          <g id="Grupo_171682" data-name="Grupo 171682" transform="translate(20.507 89.294)" opacity="0.6">
            <path id="Trazado_259100" data-name="Trazado 259100" d="M1294.793,1772.616c-.884-.007-1.157.553-.606,1.245l1.089,1.367a3.785,3.785,0,0,0,2.609,1.257H1416.62a1.422,1.422,0,0,0,1.512-1.449,1.684,1.684,0,0,0-1.7-1.462Z" transform="translate(-1293.902 -1772.616)" fill="#fff"/>
          </g>
          <path id="Trazado_259101" data-name="Trazado 259101" d="M1282.852,1895.339c2.921-.224,8.391-.328,11.4-.37a2.729,2.729,0,0,1,2.694,2.087,44.484,44.484,0,0,1,1.282,11.024,2.423,2.423,0,0,1-2.445,2.372l-11.111-.12a2.668,2.668,0,0,1-2.628-2.42l-.977-10.453A1.944,1.944,0,0,1,1282.852,1895.339Z" transform="translate(-1261.926 -1792.599)" fill="url(#linear-gradient-3)"/>
          <g id="Grupo_171683" data-name="Grupo 171683" transform="translate(40.012 107.028)" opacity="0.6">
            <path id="Trazado_259102" data-name="Trazado 259102" d="M1477.789,1938.549a1.279,1.279,0,0,0-1.367,1.523l.292,1.944a1.931,1.931,0,0,0,1.846,1.59H1505.7a1.588,1.588,0,0,0,1.588-1.607l-.008-.61a1.722,1.722,0,0,0-1.626-1.675Z" transform="translate(-1476.404 -1938.548)" fill="#fff"/>
          </g>
          <path id="Trazado_259103" data-name="Trazado 259103" d="M1849.226,1895.339c2.921-.224,8.391-.328,11.4-.37a2.729,2.729,0,0,1,2.694,2.087,44.478,44.478,0,0,1,1.282,11.024,2.423,2.423,0,0,1-2.445,2.372l-11.111-.12a2.668,2.668,0,0,1-2.628-2.42l-.977-10.453A1.944,1.944,0,0,1,1849.226,1895.339Z" transform="translate(-1767.768 -1792.599)" fill="#e53935"/>
          <g id="Grupo_171684" data-name="Grupo 171684" transform="translate(100.544 107.028)" opacity="0.6">
            <path id="Trazado_259104" data-name="Trazado 259104" d="M2044.162,1938.549a1.279,1.279,0,0,0-1.367,1.523l.292,1.944a1.931,1.931,0,0,0,1.846,1.59h27.139a1.588,1.588,0,0,0,1.587-1.607l-.008-.61a1.721,1.721,0,0,0-1.626-1.675Z" transform="translate(-2042.776 -1938.548)" fill="#fff"/>
          </g>
          <g id="Grupo_171689" data-name="Grupo 171689" transform="translate(17.411 135.305)">
            <g id="Grupo_171685" data-name="Grupo 171685" opacity="0.6">
              <path id="Trazado_259105" data-name="Trazado 259105" d="M1265.048,2206.32a3.242,3.242,0,0,0,3.186,1.9l121.709-.809a2.229,2.229,0,0,0,2.448-1.967,2.262,2.262,0,0,0-2.458-1.883l-121.713-.433C1266.073,2203.117,1264.5,2204.7,1265.048,2206.32Z" transform="translate(-1264.939 -2203.125)" fill="#fff"/>
            </g>
            <g id="Grupo_171686" data-name="Grupo 171686" transform="translate(0 21.975)" opacity="0.6">
              <path id="Trazado_259106" data-name="Trazado 259106" d="M1265.048,2411.927a3.242,3.242,0,0,0,3.186,1.9l121.709-.809a2.228,2.228,0,0,0,2.448-1.967,2.262,2.262,0,0,0-2.458-1.883l-121.713-.433C1266.073,2408.724,1264.5,2410.308,1265.048,2411.927Z" transform="translate(-1264.939 -2408.732)" fill="#fff"/>
            </g>
            <g id="Grupo_171687" data-name="Grupo 171687" transform="translate(0 43.949)" opacity="0.6">
              <path id="Trazado_259107" data-name="Trazado 259107" d="M1265.048,2617.533a3.242,3.242,0,0,0,3.186,1.9l121.709-.809a2.228,2.228,0,0,0,2.448-1.967,2.262,2.262,0,0,0-2.458-1.883l-121.713-.433C1266.073,2614.33,1264.5,2615.914,1265.048,2617.533Z" transform="translate(-1264.939 -2614.338)" fill="#fff"/>
            </g>
            <g id="Grupo_171688" data-name="Grupo 171688" transform="translate(0 65.924)" opacity="0.6">
              <path id="Trazado_259108" data-name="Trazado 259108" d="M1265.048,2823.14h0a3.242,3.242,0,0,0,3.186,1.9l121.709-.809a2.228,2.228,0,0,0,2.448-1.967,2.262,2.262,0,0,0-2.458-1.883l-121.713-.433C1266.073,2819.937,1264.5,2821.521,1265.048,2823.14Z" transform="translate(-1264.939 -2819.945)" fill="#fff"/>
            </g>
          </g>
        </g>
        <path id="Trazado_259109" data-name="Trazado 259109" d="M1760.517,661.127c-5.193-3.613-9.709-3.541-12.888-2.6a6.34,6.34,0,0,0-4.5,6.666l1.371,14.963,16.313,1.448S1770.7,668.212,1760.517,661.127Zm-7.174,12.072a4.068,4.068,0,1,1,4.068-4.068A4.068,4.068,0,0,1,1753.343,673.2Z" transform="translate(-1662.805 -657.977)" fill="url(#linear-gradient-4)"/>
        <path id="Trazado_259110" data-name="Trazado 259110" d="M1762.978,692.168a.393.393,0,0,1-.391-.358l-.218-2.383a.394.394,0,1,1,.784-.072l.218,2.383a.394.394,0,0,1-.356.428Zm-.428-4.67a.394.394,0,0,1-.391-.358l-.166-1.809a6.052,6.052,0,0,1,4.291-6.35,12.192,12.192,0,0,1,5.962-.245.394.394,0,1,1-.158.771,11.426,11.426,0,0,0-5.581.229,5.263,5.263,0,0,0-3.73,5.524l.166,1.809a.393.393,0,0,1-.356.428Z" transform="translate(-1679.657 -676.288)" fill="#91b3fa"/>
        <path id="Trazado_259111" data-name="Trazado 259111" d="M1547.856,854.711v-7.523a4.591,4.591,0,0,1,4.748-4.588l51.869,1.777a4.465,4.465,0,0,1,4.3,4.195l.434,7.229Z" transform="translate(-1488.429 -822.866)" fill="url(#linear-gradient-5)"/>
        <path id="Trazado_259112" data-name="Trazado 259112" d="M1706.887,862.567h-2.23a.394.394,0,1,1,0-.787h2.23a.394.394,0,1,1,0,.787Z" transform="translate(-1628.12 -839.998)" fill="#91b3fa"/>
        <path id="Trazado_259113" data-name="Trazado 259113" d="M1570.835,869.481a.394.394,0,0,1-.394-.394v-3.043a4.269,4.269,0,0,1,4.265-4.264h8.2a.394.394,0,1,1,0,.787h-8.2a3.481,3.481,0,0,0-3.477,3.477v3.043A.393.393,0,0,1,1570.835,869.481Z" transform="translate(-1508.6 -839.998)" fill="#91b3fa"/>
        <path id="Trazado_259114" data-name="Trazado 259114" d="M1348.4,934.813a4.888,4.888,0,0,1,4.882-4.653l90.7,0a6.7,6.7,0,0,1,6.606,5.56l.077.444a5.758,5.758,0,0,1-5.673,6.739h-93.055a3.743,3.743,0,0,1-3.739-3.923Z" transform="translate(-1310.108 -901.067)" fill="url(#linear-gradient-6)"/>
      </g>
      <g id="Grupo_171694" data-name="Grupo 171694" transform="translate(462.781 602.718)">
        <g id="Grupo_171692" data-name="Grupo 171692" transform="translate(0 112.347)">
          <rect id="Rectángulo_44632" data-name="Rectángulo 44632" width="130.394" height="30.389" transform="translate(2.715 0.851)" fill="#300077"/>
          <path id="Rectángulo_44633" data-name="Rectángulo 44633" d="M0,0H135.405a0,0,0,0,1,0,0V6.5a5.167,5.167,0,0,1-5.167,5.167H7.733A7.733,7.733,0,0,1,0,3.936V0A0,0,0,0,1,0,0Z" transform="translate(0 17.626)" fill="#5000c7"/>
          <path id="Trazado_259935" data-name="Trazado 259935" d="M0,0H135.405V4a7.667,7.667,0,0,1-7.667,7.667H9.566A9.566,9.566,0,0,1,0,2.1Z" transform="translate(0 4.376)" fill="#c2a6eb"/>
          <path id="Rectángulo_44635" data-name="Rectángulo 44635" d="M4.321,0H131.029a4.376,4.376,0,0,1,4.376,4.376v0a0,0,0,0,1,0,0H0a0,0,0,0,1,0,0V4.321A4.321,4.321,0,0,1,4.321,0Z" fill="#300077"/>
        </g>
        <g id="Grupo_171693" data-name="Grupo 171693" transform="translate(37.454 0)">
          <ellipse id="Elipse_6290" data-name="Elipse 6290" cx="10.263" cy="8.834" rx="10.263" ry="8.834" transform="translate(200.042 141.408) rotate(-64.067)" fill="#5000c7"/>
          <rect id="Rectángulo_44636" data-name="Rectángulo 44636" width="11.611" height="7.589" rx="3.795" transform="matrix(0.437, -0.899, 0.899, 0.437, 198.251, 135.58)" fill="#c2a6eb"/>
          <path id="Trazado_259115" data-name="Trazado 259115" d="M1612.25,2482.5a24.058,24.058,0,0,1-5.435,11.118,6.569,6.569,0,0,1-6.337,2.087c-23.018-4.622-71.258-34.437-118.107-60.484-3.1-1.726-5.25-3.685-3.787-6.693l3.231-6.644c1.454-2.99,4.934-1.307,8.2.035,49.556,20.36,102.116,38.107,120.16,54.527A6.523,6.523,0,0,1,1612.25,2482.5Z" transform="translate(-1408.149 -2357.899)" fill="#5000c7"/>
          <path id="Trazado_259116" data-name="Trazado 259116" d="M1432.851,2341.054l-10.969,22.557a.641.641,0,0,1-.857.3l-5.786-2.814a.642.642,0,0,1-.3-.857l10.969-22.557a.641.641,0,0,1,.857-.3l5.786,2.814A.641.641,0,0,1,1432.851,2341.054Z" transform="translate(-1351.672 -2283.861)" fill="#300077"/>
          <path id="Trazado_259117" data-name="Trazado 259117" d="M976.658,2130.367l-10.969,22.557a.641.641,0,0,1-.857.3l-5.786-2.814a.641.641,0,0,1-.3-.857l10.969-22.557a.641.641,0,0,1,.857-.3l5.786,2.814A.641.641,0,0,1,976.658,2130.367Z" transform="translate(-944.235 -2095.691)" fill="#300077"/>
          <rect id="Rectángulo_44637" data-name="Rectángulo 44637" width="79.255" height="53.694" transform="translate(3.045 82.958) rotate(-64.067)" fill="#5000c7"/>
          <rect id="Rectángulo_44638" data-name="Rectángulo 44638" width="9.967" height="53.694" transform="translate(0.514 88.163) rotate(-64.067)" fill="#300077"/>
          <path id="Trazado_259118" data-name="Trazado 259118" d="M874.255,2647.646l-2.166,4.455a3.1,3.1,0,0,1-3.666,1.614,150.387,150.387,0,0,1-43.637-21.245,3.05,3.05,0,0,1-.994-3.832l2.175-4.473Z" transform="translate(-823.485 -2540.049)" fill="#5000c7"/>
          <path id="Trazado_259119" data-name="Trazado 259119" d="M895.969,2567.544l-1.806,3.714a.668.668,0,0,1-.893.309l-50.556-24.584a.668.668,0,0,1-.309-.893l1.806-3.714a.668.668,0,0,1,.893-.309l50.556,24.584A.668.668,0,0,1,895.969,2567.544Z" transform="translate(-840.323 -2466.666)" fill="#300077"/>
          <path id="Trazado_259120" data-name="Trazado 259120" d="M898.147,2573.4l-1.228,2.526a.6.6,0,0,1-.809.28l-50.669-24.639a.6.6,0,0,1-.279-.809l1.228-2.526a.6.6,0,0,1,.809-.279l50.669,24.639A.605.605,0,0,1,898.147,2573.4Z" transform="translate(-842.79 -2471.926)" fill="#5000c7"/>
          <rect id="Rectángulo_44639" data-name="Rectángulo 44639" width="9.967" height="53.694" transform="translate(90.632 25.623) rotate(115.933)" fill="#300077"/>
          <path id="Trazado_259121" data-name="Trazado 259121" d="M1249.555,1866.806l2.166-4.455a3.1,3.1,0,0,0-.994-3.88,150.379,150.379,0,0,0-43.657-21.2,3.051,3.051,0,0,0-3.627,1.585l-2.175,4.473Z" transform="translate(-1160.891 -1837.135)" fill="#5000c7"/>
          <path id="Trazado_259122" data-name="Trazado 259122" d="M1198.724,1944.951l1.806-3.714a.668.668,0,0,0-.309-.893l-50.556-24.584a.668.668,0,0,0-.893.309l-1.806,3.714a.668.668,0,0,0,.309.893l50.556,24.584A.668.668,0,0,0,1198.724,1944.951Z" transform="translate(-1112.334 -1907.296)" fill="#300077"/>
          <path id="Trazado_259123" data-name="Trazado 259123" d="M1201.48,1949.616l1.228-2.526a.605.605,0,0,0-.28-.809l-50.669-24.639a.605.605,0,0,0-.809.28l-1.228,2.526a.605.605,0,0,0,.28.809l50.669,24.639A.605.605,0,0,0,1201.48,1949.616Z" transform="translate(-1114.801 -1912.556)" fill="#5000c7"/>
        </g>
      </g>
    </g>
  </g>
</svg>
