<svg xmlns="http://www.w3.org/2000/svg" xmlns:xlink="http://www.w3.org/1999/xlink" width="418" height="364" viewBox="0 0 418 364">
  <defs>
    <filter id="Rect치ngulo_44611" x="0" y="0" width="418" height="364" filterUnits="userSpaceOnUse">
      <feOffset dy="3" input="SourceAlpha"/>
      <feGaussianBlur stdDeviation="3" result="blur"/>
      <feFlood flood-opacity="0.161"/>
      <feComposite operator="in" in2="blur"/>
      <feComposite in="SourceGraphic"/>
    </filter>
  </defs>
  <g id="Grupo_174005" data-name="Grupo 174005" transform="translate(-1011 -5809.656)">
    <g transform="matrix(1, 0, 0, 1, 1011, 5809.66)" filter="url(#Rect치ngulo_44611)">
      <rect id="Rect치ngulo_44611-2" data-name="Rect치ngulo 44611" width="400" height="346" rx="45" transform="translate(9 6)" fill="#fff"/>
    </g>
    <g id="Grupo_171743" data-name="Grupo 171743" transform="translate(21.789 -208.712)">
      <g id="Grupo_171742" data-name="Grupo 171742" transform="translate(1072.211 6071.369)">
        <path id="Trazado_259185" data-name="Trazado 259185" d="M77.7,449.116,60.611,466.209a10.513,10.513,0,1,1-14.867-14.867l15.2-15.2Z" transform="translate(-21.679 -221.487)" fill="#454a52"/>
        <path id="Trazado_259186" data-name="Trazado 259186" d="M414.922,436.139l15.2,15.2a10.513,10.513,0,1,1-14.867,14.867l-17.093-17.093Z" transform="translate(-202.203 -221.487)" fill="#454a52"/>
        <path id="Trazado_259187" data-name="Trazado 259187" d="M233.264,156.5a103.509,103.509,0,0,1,18.857,59.469c0,61.485-54.514,111.295-121.794,111.295S8.533,277.455,8.533,215.97A103.509,103.509,0,0,1,27.39,156.5Z" transform="translate(-4.333 -79.477)" fill="#676e77"/>
        <path id="Trazado_259188" data-name="Trazado 259188" d="M252.523,63.131a31.15,31.15,0,0,1-6.258,18.227c-14.993,21.209-55.4,36.37-102.937,36.37S55.384,102.567,40.391,81.357a31.15,31.15,0,0,1-6.258-18.227c0-30.155,48.886-54.6,109.195-54.6S252.523,32.976,252.523,63.131Z" transform="translate(-17.334 -4.333)" fill="#454a52"/>
        <ellipse id="Elipse_6296" data-name="Elipse 6296" cx="88.196" cy="33.598" rx="88.196" ry="33.598" transform="translate(37.798 25.199)" fill="#9fc97d"/>
        <g id="Grupo_171741" data-name="Grupo 171741" transform="translate(0)">
          <path id="Trazado_259189" data-name="Trazado 259189" d="M160.662,42.667c-52.674,0-92.4,16.249-92.4,37.8s39.722,37.8,92.4,37.8,92.4-16.249,92.4-37.8S213.336,42.667,160.662,42.667Zm0,67.2c-49.5,0-84-15.493-84-29.4s34.5-29.4,84-29.4,84,15.493,84,29.4S210.161,109.864,160.662,109.864Z" transform="translate(-34.668 -21.668)" fill="#373737"/>
          <path id="Trazado_259190" data-name="Trazado 259190" d="M239.388,58.8c0-32.973-49.805-58.8-113.395-58.8S12.6,25.824,12.6,58.8a35.159,35.159,0,0,0,7.031,20.65c16.127,22.818,58.869,38.147,106.364,38.147,44.152,0,84.168-13.258,102.53-33.443a99.07,99.07,0,0,1,15.065,52.342c0,59.054-52.754,107.095-117.594,107.095S8.4,195.547,8.4,136.493a98.118,98.118,0,0,1,7.727-38.268A4.2,4.2,0,0,0,8.4,94.966,106.557,106.557,0,0,0,0,136.493a109.976,109.976,0,0,0,33.334,78.154L21.087,226.9A14.708,14.708,0,1,0,41.9,247.687l14.8-14.8a135.233,135.233,0,0,0,138.593,0l14.8,14.8a14.712,14.712,0,0,0,20.819-20.793l-12.238-12.238a109.976,109.976,0,0,0,33.317-78.162,107.616,107.616,0,0,0-18.1-59.524,34.437,34.437,0,0,0,5.5-18.172ZM35.958,241.753a6.5,6.5,0,0,1-8.912,0,6.366,6.366,0,0,1,0-8.933l12.465-12.473a123.223,123.223,0,0,0,10.017,7.837Zm188.991-8.937a6.371,6.371,0,0,1,0,8.937,6.492,6.492,0,0,1-8.92,0l-13.562-13.561a123.219,123.219,0,0,0,10.017-7.837ZM125.994,109.195c-44.892,0-84.882-13.906-99.535-34.611A26.962,26.962,0,0,1,21,58.8C21,31.5,69.078,8.4,125.994,8.4S230.989,31.5,230.989,58.8A26.984,26.984,0,0,1,225.5,74.6c-14.624,20.688-54.614,34.594-99.506,34.594Z" transform="translate(0)" fill="#373737"/>
          <path id="Trazado_259191" data-name="Trazado 259191" d="M296.9,135.244a197.456,197.456,0,0,1-45.232,4.767,4.2,4.2,0,1,0,0,8.4,205.688,205.688,0,0,0,47.164-4.993,4.2,4.2,0,1,0-1.774-8.21C297,135.219,296.951,135.231,296.9,135.244Z" transform="translate(-125.673 -68.615)" fill="#373737"/>
          <path id="Trazado_259192" data-name="Trazado 259192" d="M383.868,118.784a52.492,52.492,0,0,1-5.812,2.8,4.2,4.2,0,0,0,1.613,8.076,4.145,4.145,0,0,0,1.617-.324,63.577,63.577,0,0,0,6.72-3.242,4.2,4.2,0,0,0-4.137-7.312Z" transform="translate(-190.678 -60.046)" fill="#373737"/>
          <path id="Trazado_259193" data-name="Trazado 259193" d="M208.2,80.989a4.2,4.2,0,0,0-4.2-4.2,205.716,205.716,0,0,0-47.164,4.993,4.2,4.2,0,0,0,.966,8.286,4.27,4.27,0,0,0,.971-.113A197.442,197.442,0,0,1,204,85.189,4.2,4.2,0,0,0,208.2,80.989Z" transform="translate(-78.006 -38.991)" fill="#373737"/>
          <path id="Trazado_259194" data-name="Trazado 259194" d="M115.578,97.8a63.68,63.68,0,0,0-6.72,3.242A4.2,4.2,0,1,0,113,108.361a52.589,52.589,0,0,1,5.812-2.8,4.2,4.2,0,1,0-3.234-7.753Z" transform="translate(-54.198 -49.505)" fill="#373737"/>
          <path id="Trazado_259195" data-name="Trazado 259195" d="M101.857,413.636a4.2,4.2,0,0,0,2.7-7.421q-2.3-1.915-4.456-3.96a4.2,4.2,0,0,0-5.766,6.107q2.344,2.213,4.83,4.3a4.2,4.2,0,0,0,2.692.975Z" transform="translate(-47.259 -203.717)" fill="#373737"/>
          <path id="Trazado_259196" data-name="Trazado 259196" d="M42.629,222.021a4.2,4.2,0,0,0-5.174,2.911,89.943,89.943,0,0,0-3.322,24.233,91.36,91.36,0,0,0,15.481,50.621,4.2,4.2,0,0,0,7-4.645,83.008,83.008,0,0,1-14.078-45.975A81.475,81.475,0,0,1,45.544,227.2a4.2,4.2,0,0,0-2.911-5.177Z" transform="translate(-17.334 -112.671)" fill="#373737"/>
          <path id="Trazado_259197" data-name="Trazado 259197" d="M188.322,307.066a4.2,4.2,0,0,1,2.969,1.231l3.478,3.477a12.507,12.507,0,0,0,8.908,3.692H230.32a12.507,12.507,0,0,0,8.908-3.692l3.478-3.477a4.2,4.2,0,0,1,2.969-1.231H250.6a4.2,4.2,0,1,0,0-8.4h-4.922a12.525,12.525,0,0,0-8.908,3.691l-3.477,3.478a4.2,4.2,0,0,1-2.969,1.23H203.676a4.2,4.2,0,0,1-2.969-1.23l-3.477-3.478a12.525,12.525,0,0,0-8.908-3.691H183.4a4.2,4.2,0,1,0,0,8.4Z" transform="translate(-91.004 -151.674)" fill="#373737"/>
        </g>
      </g>
    </g>
  </g>
</svg>
