<svg xmlns="http://www.w3.org/2000/svg" width="102.467" height="117.314" viewBox="0 0 102.467 117.314">
  <g id="Grupo_173331" data-name="Grupo 173331" transform="translate(-32.4)">
    <g id="Grupo_173329" data-name="Grupo 173329" transform="translate(34.129 1.709)">
      <path id="Trazado_259515" data-name="Trazado 259515" d="M425.251,136.5h-.016l-.681.4v11.8h10.339l.566-.482V146.71A10.238,10.238,0,0,0,425.251,136.5Z" transform="translate(-336.429 -106.934)" fill="#e2872c"/>
      <path id="Trazado_259516" data-name="Trazado 259516" d="M184.177,9.1l-.73-1.643h-50.1a3.786,3.786,0,0,0-3.785,3.785v6.535l1.574,1.29h42l13.79,13.4v17.07h9.814l1.092-.8v-26.9l-1.7-.752Z" transform="translate(-109.026 -7.457)" fill="#c2a6eb"/>
      <g id="Grupo_173328" data-name="Grupo 173328" transform="translate(20.533)">
        <path id="Trazado_259517" data-name="Trazado 259517" d="M141.3,11.242a3.785,3.785,0,0,1,3.785-3.785H133.344a3.786,3.786,0,0,0-3.785,3.785v6.535l1.574,1.29h11.741l-1.574-1.29V11.242Z" transform="translate(-129.559 -7.457)" fill="#e5d9f7"/>
      </g>
      <path id="Trazado_259518" data-name="Trazado 259518" d="M50.169,136.5h-.209a10.044,10.044,0,0,0-10.014,10.014v1.7l.989.274H50.94V137.146Z" transform="translate(-39.945 -106.934)" fill="#e2872c"/>
      <path id="Trazado_259519" data-name="Trazado 259519" d="M364.741,7.457v10.6a3.785,3.785,0,0,0,3.785,3.785h10.6Z" transform="translate(-290.321 -7.457)" fill="#e5d9f7"/>
      <path id="Trazado_259520" data-name="Trazado 259520" d="M139.333,54.666l-.882-2.168h-50.1a3.786,3.786,0,0,0-3.785,3.785V83.465l1.485,1.485h62.712l4.077-1.485V66.884l-2.124-.991Z" transform="translate(-74.34 -42.178)" fill="#e5d9f7"/>
      <path id="Trazado_259521" data-name="Trazado 259521" d="M96.306,56.282a3.785,3.785,0,0,1,3.785-3.785H88.35a3.786,3.786,0,0,0-3.785,3.785V83.464l1.485,1.485H97.79l-1.485-1.485Z" transform="translate(-74.341 -42.177)" fill="#c2a6eb"/>
      <path id="Trazado_259522" data-name="Trazado 259522" d="M319.746,52.5V63.1a3.785,3.785,0,0,0,3.785,3.785h10.6Z" transform="translate(-255.635 -42.178)" fill="#e5d9f7"/>
      <path id="Trazado_259523" data-name="Trazado 259523" d="M370.928,18.058V13.643l-6.186-6.186v10.6a3.785,3.785,0,0,0,3.785,3.785h6.186A3.785,3.785,0,0,1,370.928,18.058Z" transform="translate(-290.321 -7.457)" fill="#c2a6eb"/>
      <path id="Trazado_259524" data-name="Trazado 259524" d="M325.932,63.1V58.684L319.746,52.5V63.1a3.785,3.785,0,0,0,3.785,3.785h6.186A3.786,3.786,0,0,1,325.932,63.1Z" transform="translate(-255.635 -42.178)" fill="#c2a6eb"/>
      <path id="Trazado_259525" data-name="Trazado 259525" d="M138.975,187.649H39.945V257.2a3.043,3.043,0,0,0,3.043,3.043h92.944a3.043,3.043,0,0,0,3.043-3.043Z" transform="translate(-39.945 -146.362)" fill="#f5d5b5"/>
      <path id="Trazado_259526" data-name="Trazado 259526" d="M54.541,257.2V187.649h-14.6V257.2a3.043,3.043,0,0,0,3.043,3.043h14.6A3.043,3.043,0,0,1,54.541,257.2Z" transform="translate(-39.945 -146.362)" fill="#e2872c"/>
      <path id="Trazado_259527" data-name="Trazado 259527" d="M294.462,320H257.994a1.948,1.948,0,0,0-1.948,1.948v28.706a1.948,1.948,0,0,0,1.948,1.948h36.468a1.948,1.948,0,0,0,1.948-1.948V321.95A1.948,1.948,0,0,0,294.462,320Z" transform="translate(-206.531 -248.389)" fill="#e5d9f7"/>
      <path id="Trazado_259528" data-name="Trazado 259528" d="M265.2,350.655V321.95A1.948,1.948,0,0,1,267.145,320h-9.152a1.948,1.948,0,0,0-1.948,1.948v28.706a1.948,1.948,0,0,0,1.948,1.948h9.152a1.947,1.947,0,0,1-1.948-1.947Z" transform="translate(-206.531 -248.389)" fill="#c2a6eb"/>
    </g>
    <g id="Grupo_173330" data-name="Grupo 173330" transform="translate(32.4)">
      <path id="Trazado_259529" data-name="Trazado 259529" d="M42.624,29.668A11.748,11.748,0,0,0,32.4,41.3v71.252a4.767,4.767,0,0,0,4.762,4.762h92.944a4.767,4.767,0,0,0,4.762-4.762v-31.1a1.718,1.718,0,1,0-3.437,0v31.1a1.326,1.326,0,0,1-1.325,1.325H37.162a1.326,1.326,0,0,1-1.325-1.325V44.724H131.43v28.7a1.718,1.718,0,1,0,3.437,0V41.494a11.943,11.943,0,0,0-10.224-11.8V16.1a1.727,1.727,0,0,0-.5-1.215L109.754.5a1.735,1.735,0,0,0-1.215-.5h-50.1a5.51,5.51,0,0,0-5.5,5.5V10.32H48.127a5.51,5.51,0,0,0-5.5,5.5Zm0,11.619H35.837a8.31,8.31,0,0,1,6.787-8.145Zm82.02-8.111a8.5,8.5,0,0,1,6.784,8.111h-6.784ZM110.257,5.867l8.519,8.519h-6.452a2.069,2.069,0,0,1-2.067-2.067ZM56.37,5.5a2.069,2.069,0,0,1,2.067-2.067H106.82v8.882a5.51,5.51,0,0,0,5.5,5.5h8.882V41.287h-6.873V26.425a1.727,1.727,0,0,0-.5-1.215L99.445,10.823a1.739,1.739,0,0,0-1.215-.5H56.37Zm52.1,19.2h-6.452a2.069,2.069,0,0,1-2.067-2.067V16.187ZM46.06,15.824a2.069,2.069,0,0,1,2.067-2.067H96.511v8.882a5.51,5.51,0,0,0,5.5,5.5H110.9V41.287H46.06Z" transform="translate(-32.4 0)"/>
      <path id="Trazado_259530" data-name="Trazado 259530" d="M309.587,425.126H285.3a1.718,1.718,0,1,0,0,3.437h24.288a1.718,1.718,0,1,0,0-3.437Z" transform="translate(-226.028 -327.717)"/>
      <path id="Trazado_259531" data-name="Trazado 259531" d="M309.587,397.5H285.3a1.718,1.718,0,0,0,0,3.437h24.288a1.718,1.718,0,0,0,0-3.437Z" transform="translate(-226.028 -306.42)"/>
      <path id="Trazado_259532" data-name="Trazado 259532" d="M309.587,369.873H285.3a1.718,1.718,0,1,0,0,3.437h24.288a1.718,1.718,0,1,0,0-3.437Z" transform="translate(-226.028 -285.124)"/>
      <path id="Trazado_259533" data-name="Trazado 259533" d="M309.587,342.246H285.3a1.718,1.718,0,0,0,0,3.437h24.288a1.718,1.718,0,0,0,0-3.437Z" transform="translate(-226.028 -263.827)"/>
      <path id="Trazado_259534" data-name="Trazado 259534" d="M167.582,149.617H120.308a1.718,1.718,0,0,0,0,3.437h47.273a1.718,1.718,0,0,0,0-3.437Z" transform="translate(-98.841 -115.335)"/>
      <path id="Trazado_259535" data-name="Trazado 259535" d="M120.307,125.428H160.1a1.718,1.718,0,1,0,0-3.437H120.307a1.718,1.718,0,0,0,0,3.437Z" transform="translate(-98.841 -94.039)"/>
      <path id="Trazado_259536" data-name="Trazado 259536" d="M266.391,312.545H252.166a3.67,3.67,0,0,0-3.666,3.666v28.706a3.67,3.67,0,0,0,3.666,3.666h36.468a3.67,3.67,0,0,0,3.666-3.666V316.211a3.67,3.67,0,0,0-3.666-3.666H274.41a1.718,1.718,0,1,0,0,3.437h14.224a.229.229,0,0,1,.229.229v28.706a.229.229,0,0,1-.229.229H252.166a.229.229,0,0,1-.229-.229V316.211a.229.229,0,0,1,.229-.229H266.39a1.718,1.718,0,0,0,0-3.437Z" transform="translate(-198.985 -240.932)"/>
    </g>
  </g>
</svg>
