<svg xmlns="http://www.w3.org/2000/svg" width="505" height="465.962" viewBox="0 0 505 465.962">
  <g id="Grupo_174009" data-name="Grupo 174009" transform="translate(-180 -7707)">
    <g id="Editorial_commision-pana" data-name="Editorial commision-pana" transform="translate(-42.075 7692.87)">
      <g id="freepik--background-complete--inject-101" transform="translate(377.877 34.13)">
        <path id="Trazado_259974" data-name="Trazado 259974" d="M670.374,272.27,658.55,315.133l14.487,10.333,32.6,7.937,12.913-48.384Z" transform="translate(-369.354 -27.43)" fill="#f5f5f5"/>
        <path id="Trazado_259975" data-name="Trazado 259975" d="M664.842,312.09l-6.292,1.964a19.124,19.124,0,0,0,5.141,5.932,27.555,27.555,0,0,0,9.4,4.4S666.076,320.295,664.842,312.09Z" transform="translate(-369.354 -26.309)" fill="#ebebeb"/>
        <path id="Trazado_259976" data-name="Trazado 259976" d="M708.763,298.435c0,.072-8.225-2.056-18.362-4.7s-18.3-4.894-18.28-4.976,8.225,2.056,18.363,4.688S708.783,298.353,708.763,298.435Z" transform="translate(-368.972 -26.966)" fill="#e0e0e0"/>
        <path id="Trazado_259977" data-name="Trazado 259977" d="M706.9,304.815c0,.082-8.225-2.056-18.352-4.688s-18.3-4.9-18.28-4.976,8.225,2.056,18.352,4.688S706.923,304.732,706.9,304.815Z" transform="translate(-369.025 -26.786)" fill="#e0e0e0"/>
        <path id="Trazado_259978" data-name="Trazado 259978" d="M705.6,310.565c0,.082-8.225-2.056-18.363-4.688S668.938,301,669,300.89s8.225,2.056,18.362,4.7S705.622,310.483,705.6,310.565Z" transform="translate(-369.06 -26.624)" fill="#e0e0e0"/>
        <path id="Trazado_259979" data-name="Trazado 259979" d="M704.113,316.045c0,.072-8.225-2.056-18.352-4.7s-18.3-4.894-18.28-4.976,8.225,2.056,18.352,4.688S704.133,315.963,704.113,316.045Z" transform="translate(-369.103 -26.47)" fill="#e0e0e0"/>
        <path id="Trazado_259980" data-name="Trazado 259980" d="M609.927,65.92l-15.638,4-.75,4.781a9.893,9.893,0,0,0,0,3.794,3.084,3.084,0,0,0,2.211,2.354,12.943,12.943,0,0,0,4.534-.329l.308,1.213L585.878,85.5l-.308-1.213a6.776,6.776,0,0,0,3.393-2.992q1.126-2,2.056-7.639l6.8-39.367.617-.154,25.241,32.212c2.4,3.084,4.205,4.884,5.408,5.531a5.306,5.306,0,0,0,3.434.37l.308,1.213-21.406,5.47-.308-1.2.884-.226a6.93,6.93,0,0,0,3.434-1.645,1.81,1.81,0,0,0,.339-1.686,4.235,4.235,0,0,0-.5-1.162c-.1-.185-.627-.915-1.6-2.19ZM608.2,63.812,597.712,50.261l-2.9,16.944Z" transform="translate(-371.408 -54.13)" fill="#e0e0e0"/>
        <rect id="Rectángulo_44706" data-name="Rectángulo 44706" width="63.138" height="57.452" rx="8.92" transform="translate(275.779 142.24) rotate(1.68)" fill="#ebebeb"/>
        <path id="Trazado_259981" data-name="Trazado 259981" d="M644.267,215.209l21.324-14.3a4.267,4.267,0,0,1,5.583.216l10.5,5.387,14.98-14.651a4.411,4.411,0,0,1,6.375.545l4.894,6.169-.237,25.169a7.2,7.2,0,0,1-7.433,7.135L651,229.326a7.2,7.2,0,0,1-7-7.475Z" transform="translate(-369.764 -29.723)" fill="#e0e0e0"/>
        <circle id="Elipse_6328" data-name="Elipse 6328" cx="6.313" cy="6.313" r="6.313" transform="matrix(0.679, -0.734, 0.734, 0.679, 289.764, 158.588)" fill="#e0e0e0"/>
        <path id="Trazado_259984" data-name="Trazado 259984" d="M430.281,401.875a27.472,27.472,0,1,1-35.6-15.422,27.472,27.472,0,0,1,35.6,15.422Z" transform="translate(-377.268 -24.271)" fill="#f5f5f5"/>
        <path id="Trazado_259985" data-name="Trazado 259985" d="M424.016,404.092a20.933,20.933,0,1,1-27.133-11.752,20.933,20.933,0,0,1,27.133,11.752Z" transform="translate(-377.09 -24.093)" fill="#ebebeb"/>
        <path id="Trazado_259986" data-name="Trazado 259986" d="M423.794,403.506c-.123.051-.545-.771-1.439-2.138a22.064,22.064,0,0,0-4.606-5.079,21.393,21.393,0,0,0-3.969-2.529,21.085,21.085,0,0,0-5.141-1.707,20.183,20.183,0,0,0-2.889-.36,19.874,19.874,0,0,0-3.023.072,20.446,20.446,0,0,0-9.006,3.084,21.788,21.788,0,0,0-2.509,1.871,20.057,20.057,0,0,0-2.128,2.159,19.33,19.33,0,0,0-1.727,2.344,20.758,20.758,0,0,0-3.156,9.5,22.156,22.156,0,0,0,.535,6.827,12.1,12.1,0,0,1,.566,2.519,6.25,6.25,0,0,1-1.162-2.344,19.051,19.051,0,0,1-1.028-7.063,20.56,20.56,0,0,1,.751-4.935,21.458,21.458,0,0,1,2.282-5.274,19.226,19.226,0,0,1,1.81-2.55,19.47,19.47,0,0,1,2.262-2.354,22.35,22.35,0,0,1,2.694-2.056,21.438,21.438,0,0,1,6.385-2.745,20.994,20.994,0,0,1,3.341-.555,20.338,20.338,0,0,1,3.259,0,19.853,19.853,0,0,1,3.084.442,20.974,20.974,0,0,1,9.51,4.8,19.534,19.534,0,0,1,4.4,5.634,6.364,6.364,0,0,1,.9,2.437Z" transform="translate(-377.105 -24.114)" fill="#e0e0e0"/>
        <path id="Trazado_259987" data-name="Trazado 259987" d="M411.019,422.332l1.388,3.372-2.992,1.244-1.347-3.29a15.484,15.484,0,0,1-8.492.679l.154-4.359a13.17,13.17,0,0,0,6.714-.257l-2.056-5.038c-3.671.565-7.865,1.028-9.634-3.321-1.306-3.2-.113-6.889,4.421-9.387l-1.378-3.341,3.012-1.234,1.347,3.28a14.59,14.59,0,0,1,6.868-.668v4.318a13.181,13.181,0,0,0-5.254.329l2.108,5.141c3.66-.6,7.793-1.028,9.541,3.259C416.694,416.174,415.512,419.824,411.019,422.332Zm-8.472-12.07-1.758-4.277c-1.45,1.028-1.727,2.149-1.316,3.146S401.046,410.355,402.547,410.262ZM410.7,415.4c-.432-1.028-1.532-1.265-3.023-1.193l1.717,4.164c1.367-.966,1.707-2.015,1.306-2.982Z" transform="translate(-376.79 -23.909)" fill="#e0e0e0"/>
      </g>
      <g id="freepik--Floor--inject-101" transform="translate(222.075 467.346)">
        <path id="Trazado_259993" data-name="Trazado 259993" d="M531.05,455.49h6.781v.123l-244.018.206-177.359-.082L62.7,455.655h0l53.752-.093,177.359-.072,244.018.206v.123h-5.12A8.288,8.288,0,0,0,531.05,455.49Z" transform="translate(-43 -455.49)" fill="#263238"/>
      </g>
      <g id="freepik--books-2--inject-101" transform="translate(436.071 354.816)">
        <path id="Trazado_259994" data-name="Trazado 259994" d="M530.6,376.591H681.736a2.581,2.581,0,0,1,2.581,2.581V380.2a2.581,2.581,0,0,1-2.581,2.581H530.6v-6.189Z" transform="translate(-431.148 -345.182)" fill="#e2872c"/>
        <path id="Trazado_259995" data-name="Trazado 259995" d="M530.16,380.106c0,.134-12.677.226-28.315.226s-28.315-.093-28.315-.226,12.677-.216,28.315-.216S530.16,380,530.16,380.106Z" transform="translate(-432.754 -345.088)" fill="#263238"/>
        <path id="Trazado_259996" data-name="Trazado 259996" d="M480.216,346.07h70.941V383.7H480.216a15.566,15.566,0,0,1-15.566-15.566v-6.5a15.566,15.566,0,0,1,15.566-15.566Z" transform="translate(-433.004 -346.039)" fill="#e2872c"/>
        <path id="Trazado_259997" data-name="Trazado 259997" d="M531.772,346.07H681.705a2.581,2.581,0,0,1,2.581,2.581v1.028a2.581,2.581,0,0,1-2.581,2.581H531.772a1.172,1.172,0,0,1-1.172-1.121v-3.9a1.172,1.172,0,0,1,1.172-1.172Z" transform="translate(-431.148 -346.039)" fill="#e2872c"/>
        <path id="Trazado_259998" data-name="Trazado 259998" d="M679.575,377.278H547.624a12.574,12.574,0,0,1-12.574-12.564h0a12.574,12.574,0,0,1,12.574-12.564H679.575A31.081,31.081,0,0,0,679.575,377.278Z" transform="translate(-431.023 -345.868)" fill="#f5f5f5"/>
        <g id="Grupo_173908" data-name="Grupo 173908" transform="translate(31.656)" opacity="0.3">
          <path id="Trazado_259999" data-name="Trazado 259999" d="M537.031,383.7H478.91a14.25,14.25,0,0,1-14.25-14.26v-9.253A14.137,14.137,0,0,1,478.8,346.04h59.632C524.847,354.327,525.865,374.088,537.031,383.7Z" transform="translate(-464.66 -346.04)"/>
        </g>
        <path id="Trazado_260000" data-name="Trazado 260000" d="M663.311,365.516c0,.123-27.091.226-60.485.226s-60.5-.1-60.5-.226,27.081-.226,60.5-.226S663.311,365.393,663.311,365.516Z" transform="translate(-430.818 -345.498)" fill="#263238"/>
        <path id="Trazado_260001" data-name="Trazado 260001" d="M675.451,370.946c0,.123-27.091.226-60.5.226s-60.485-.1-60.485-.226,27.071-.226,60.485-.226S675.451,370.823,675.451,370.946Z" transform="translate(-430.477 -345.346)" fill="#263238"/>
        <path id="Trazado_260002" data-name="Trazado 260002" d="M671.881,357.806c0,.123-27.091.226-60.5.226s-60.485-.1-60.485-.226,27.071-.226,60.485-.226S671.881,357.683,671.881,357.806Z" transform="translate(-430.577 -345.715)" fill="#263238"/>
        <path id="Trazado_260003" data-name="Trazado 260003" d="M530.16,349.116c0,.123-12.677.226-28.315.226s-28.315-.1-28.315-.226,12.677-.226,28.315-.226S530.16,349,530.16,349.116Z" transform="translate(-432.754 -345.96)" fill="#263238"/>
        <path id="Trazado_260004" data-name="Trazado 260004" d="M453.908,408.36h83.639a7.773,7.773,0,0,1,7.773,7.773v32.9a7.773,7.773,0,0,1-7.773,7.773H453.908a20.038,20.038,0,0,1-20.038-20.028v-8.369a20.038,20.038,0,0,1,20.038-20.049Z" transform="translate(-433.87 -344.287)" fill="#e2872c"/>
        <path id="Trazado_260005" data-name="Trazado 260005" d="M520.713,408.36H713.385a3.331,3.331,0,0,1,3.331,3.331v1.388a3.331,3.331,0,0,1-3.331,3.331H520.713a1.923,1.923,0,0,1-1.923-1.923v-4.205A1.923,1.923,0,0,1,520.713,408.36Z" transform="translate(-431.481 -344.287)" fill="#e2872c"/>
        <path id="Trazado_260006" data-name="Trazado 260006" d="M520.713,447.66H713.385a3.331,3.331,0,0,1,3.331,3.331v1.388a3.331,3.331,0,0,1-3.331,3.331H520.713a1.923,1.923,0,0,1-1.923-1.923v-4.205A1.923,1.923,0,0,1,520.713,447.66Z" transform="translate(-431.481 -343.181)" fill="#e2872c"/>
        <path id="Trazado_260007" data-name="Trazado 260007" d="M710.654,448.546H540.713a16.183,16.183,0,0,1-16.183-16.183h0a16.183,16.183,0,0,1,16.183-16.183H710.654A39.953,39.953,0,0,0,710.654,448.546Z" transform="translate(-431.319 -344.067)" fill="#f5f5f5"/>
        <g id="Grupo_173909" data-name="Grupo 173909" transform="translate(0 64.073)" opacity="0.3">
          <path id="Trazado_260008" data-name="Trazado 260008" d="M527.081,456.816H457.836A23.966,23.966,0,0,1,433.87,432.85h0a24.48,24.48,0,0,1,24.48-24.49h70.571C511.381,418.991,512.687,444.437,527.081,456.816Z" transform="translate(-433.87 -408.36)"/>
        </g>
        <path id="Trazado_260009" data-name="Trazado 260009" d="M689.744,433.386c0,.134-34.885.226-77.9.226s-77.9-.093-77.9-.226,34.864-.216,77.9-.216S689.744,433.263,689.744,433.386Z" transform="translate(-431.054 -343.589)" fill="#263238"/>
        <path id="Trazado_260010" data-name="Trazado 260010" d="M705.334,440.386c0,.123-34.885.226-77.9.226s-77.9-.1-77.9-.226,34.874-.226,77.9-.226S705.334,440.263,705.334,440.386Z" transform="translate(-430.616 -343.392)" fill="#263238"/>
        <path id="Trazado_260011" data-name="Trazado 260011" d="M700.734,426.9c0,.123-34.874.226-77.892.226s-77.912-.1-77.912-.226,34.874-.226,77.912-.226S700.734,426.773,700.734,426.9Z" transform="translate(-430.745 -343.771)" fill="#263238"/>
        <path id="Trazado_260012" data-name="Trazado 260012" d="M518.226,452.186c0,.134-16.327.226-36.458.226s-36.468-.093-36.468-.226,16.317-.216,36.468-.216S518.226,452.063,518.226,452.186Z" transform="translate(-433.548 -343.06)" fill="#263238"/>
        <path id="Trazado_260013" data-name="Trazado 260013" d="M518.226,412.276c0,.123-16.327.226-36.458.226s-36.468-.1-36.468-.226,16.317-.226,36.468-.226S518.226,412.153,518.226,412.276Z" transform="translate(-433.548 -344.183)" fill="#263238"/>
        <path id="Trazado_260014" data-name="Trazado 260014" d="M493.824,381.55h78.539a.535.535,0,0,1,.535.535v26.66a.535.535,0,0,1-.535.535H493.824a11.474,11.474,0,0,1-11.474-11.474v-4.791a11.474,11.474,0,0,1,11.474-11.474Z" transform="translate(-432.506 -345.041)" fill="#455a64"/>
        <path id="Trazado_260015" data-name="Trazado 260015" d="M552.574,381.55H709.447a2.7,2.7,0,0,1,2.7,2.7v1.131a2.7,2.7,0,0,1-2.7,2.7H552.574a1.234,1.234,0,0,1-1.234-1.234v-4.113A1.234,1.234,0,0,1,552.574,381.55Z" transform="translate(-430.565 -345.041)" fill="#455a64"/>
        <path id="Trazado_260016" data-name="Trazado 260016" d="M552.574,402.17H709.447a2.7,2.7,0,0,1,2.7,2.7v1.131a2.7,2.7,0,0,1-2.7,2.7H552.574a1.234,1.234,0,0,1-1.234-1.234v-4.113A1.234,1.234,0,0,1,552.574,402.17Z" transform="translate(-430.565 -344.461)" fill="#455a64"/>
        <path id="Trazado_260017" data-name="Trazado 260017" d="M707.229,402.573H563.289A7.331,7.331,0,0,1,556,395.2h0a7.341,7.341,0,0,1,7.331-7.341H707.27Q701.666,395.2,707.229,402.573Z" transform="translate(-430.434 -344.863)" fill="#f5f5f5"/>
        <g id="Grupo_173910" data-name="Grupo 173910" transform="translate(49.844 36.509)" opacity="0.3">
          <path id="Trazado_260018" data-name="Trazado 260018" d="M558.072,409.289H496.107a13.756,13.756,0,0,1-13.756-13.757h0a13.983,13.983,0,0,1,13.983-13.983h63.241C545.323,387.626,546.393,402.205,558.072,409.289Z" transform="translate(-482.35 -381.55)"/>
        </g>
        <path id="Trazado_260019" data-name="Trazado 260019" d="M690.234,393.916c0,.134-28.335.226-63.292.226s-63.292-.093-63.292-.226,28.335-.216,63.292-.216S690.234,393.793,690.234,393.916Z" transform="translate(-430.219 -344.699)" fill="#263238"/>
        <path id="Trazado_260020" data-name="Trazado 260020" d="M702.9,397.766c0,.123-28.335.216-63.292.216s-63.292-.093-63.292-.216,28.336-.226,63.292-.226S702.9,397.633,702.9,397.766Z" transform="translate(-429.862 -344.591)" fill="#263238"/>
        <path id="Trazado_260021" data-name="Trazado 260021" d="M550.882,405.856c0,.123-13.263.226-29.621.226s-29.631-.1-29.631-.226,13.263-.226,29.631-.226S550.882,405.733,550.882,405.856Z" transform="translate(-432.245 -344.363)" fill="#263238"/>
        <path id="Trazado_260022" data-name="Trazado 260022" d="M550.882,384.726c0,.134-13.263.226-29.621.226s-29.631-.093-29.631-.226,13.263-.216,29.631-.216S550.882,384.6,550.882,384.726Z" transform="translate(-432.245 -344.958)" fill="#263238"/>
        <path id="Trazado_260023" data-name="Trazado 260023" d="M711.858,381.556c0,.123-48.662.216-108.674.216S494.5,381.68,494.5,381.556s48.651-.226,108.684-.226S711.858,381.433,711.858,381.556Z" transform="translate(-432.164 -345.047)" fill="#263238"/>
        <path id="Trazado_260024" data-name="Trazado 260024" d="M621.03,357.4v15.073l5.223-3.352,5.83,3.352V357.4Z" transform="translate(-428.604 -345.72)" fill="#e2872c"/>
      </g>
      <g id="freepik--book-1--inject-101" transform="translate(269.89 38.798)">
        <path id="Trazado_260025" data-name="Trazado 260025" d="M329.1,70.086H276.941a4.411,4.411,0,0,1-4.411-4.627l1.028-22.095a4.421,4.421,0,0,1,4.411-4.205h52.147a4.421,4.421,0,0,1,4.421,4.627l-1.028,22.095A4.421,4.421,0,0,1,329.1,70.086Z" transform="translate(-272.229 -38.656)" fill="#fafafa"/>
        <path id="Trazado_260026" data-name="Trazado 260026" d="M329.106,70.1a5.2,5.2,0,0,0,1.717-.4,4.411,4.411,0,0,0,2.6-4.01c.2-4.483.473-10.919.812-18.866,0-1.964.648-4.236-.812-5.891a4.113,4.113,0,0,0-2.7-1.5c-1.028-.082-2.272,0-3.424,0H278.018a4.174,4.174,0,0,0-3.557,1.995,4.35,4.35,0,0,0-.607,2.056c0,.751-.072,1.491-.1,2.231-.144,2.961-.288,5.881-.422,8.739s-.278,5.686-.411,8.441c0,.689-.072,1.378-.1,2.056a5.078,5.078,0,0,0,.134,1.943,4.2,4.2,0,0,0,2.447,2.7,4.575,4.575,0,0,0,1.83.308H303.28l18.9.082h6.94a2.632,2.632,0,0,1-.463,0h-6.477l-18.9.082H277.227a4.925,4.925,0,0,1-2.056-.339,4.658,4.658,0,0,1-2.745-3.023,5.6,5.6,0,0,1-.154-2.056l.093-2.056.4-8.441c.134-2.868.278-5.788.411-8.749,0-.73.072-1.481.113-2.221a4.812,4.812,0,0,1,.668-2.262,4.719,4.719,0,0,1,4.02-2.252h49.279c1.182,0,2.293,0,3.475.051a4.637,4.637,0,0,1,4,4.781q-.072,1.563-.154,3.084c-.411,7.947-.751,14.394-1.028,18.866a4.493,4.493,0,0,1-1.028,2.786,4.308,4.308,0,0,1-1.748,1.306,4.576,4.576,0,0,1-1.306.319A3.083,3.083,0,0,1,329.106,70.1Z" transform="translate(-272.237 -38.67)" fill="#263238"/>
        <path id="Trazado_260027" data-name="Trazado 260027" d="M485.35,69.953l2.231-13.962,9.51-5.531,7.814,8.379-2.354,14.312Z" transform="translate(-266.241 -38.338)" fill="#e2872c"/>
        <path id="Trazado_260028" data-name="Trazado 260028" d="M533.833,84.258,522.287,337.612l-186.144-5.285-11.073-19.35L345.088,77.514,518.329,66.05Z" transform="translate(-270.75 -37.9)" fill="#e0e0e0"/>
        <g id="Grupo_173911" data-name="Grupo 173911" transform="translate(236.033 28.15)" opacity="0.3">
          <path id="Trazado_260029" data-name="Trazado 260029" d="M517.314,337.612,501.81,319.4,513.356,66.05l15.5,18.208Z" transform="translate(-501.81 -66.05)"/>
        </g>
        <path id="Trazado_260030" data-name="Trazado 260030" d="M518.329,66.12,506.783,319.473,325.07,313.048,338.816,63.56Z" transform="translate(-270.75 -37.97)" fill="#fafafa"/>
        <path id="Trazado_260031" data-name="Trazado 260031" d="M518.295,66.126,338.782,63.782l.216-.206c-3.825,69.718-8.564,156.081-13.695,249.5l-.257-.288,3,.1,178.711,6.344-.257.236c7-149.625,11.731-251.184,11.793-253.343-.1,2.159-4.627,103.729-11.31,253.364v.236h-.247l-178.649-6.3-3-.1h-.267v-.267c5.141-93.417,9.942-179.77,13.8-249.488V63.36h.206Z" transform="translate(-270.757 -37.975)" fill="#263238"/>
        <rect id="Rectángulo_44708" data-name="Rectángulo 44708" width="68.309" height="7.207" rx="2.35" transform="translate(154.851 88.602) rotate(-178.32)" fill="#e0e0e0"/>
        <rect id="Rectángulo_44709" data-name="Rectángulo 44709" width="68.309" height="7.207" rx="2.35" transform="translate(154.241 102.536) rotate(-178.32)" fill="#e0e0e0"/>
        <rect id="Rectángulo_44710" data-name="Rectángulo 44710" width="68.309" height="7.207" rx="2.35" transform="translate(153.621 116.46) rotate(-178.32)" fill="#e0e0e0"/>
        <rect id="Rectángulo_44711" data-name="Rectángulo 44711" width="68.309" height="7.207" rx="2.35" transform="translate(153.022 130.385) rotate(-178.32)" fill="#e0e0e0"/>
        <rect id="Rectángulo_44712" data-name="Rectángulo 44712" width="68.309" height="7.207" rx="2.35" transform="translate(152.412 144.309) rotate(-178.32)" fill="#e0e0e0"/>
        <rect id="Rectángulo_44713" data-name="Rectángulo 44713" width="68.309" height="7.207" rx="2.35" transform="translate(151.792 158.244) rotate(-178.32)" fill="#e0e0e0"/>
        <rect id="Rectángulo_44714" data-name="Rectángulo 44714" width="68.309" height="7.207" rx="2.35" transform="translate(151.192 172.168) rotate(-178.32)" fill="#e0e0e0"/>
        <rect id="Rectángulo_44715" data-name="Rectángulo 44715" width="68.309" height="7.207" rx="2.35" transform="translate(227.063 160.325) rotate(-178.32)" fill="#e0e0e0"/>
        <rect id="Rectángulo_44716" data-name="Rectángulo 44716" width="68.309" height="7.207" rx="2.35" transform="translate(226.443 174.25) rotate(-178.32)" fill="#e0e0e0"/>
        <rect id="Rectángulo_44717" data-name="Rectángulo 44717" width="68.309" height="7.207" rx="2.35" transform="translate(225.711 188.939) rotate(-178.32)" fill="#e0e0e0"/>
        <rect id="Rectángulo_44718" data-name="Rectángulo 44718" width="68.309" height="7.207" rx="2.35" transform="translate(224.969 203.618) rotate(-178.32)" fill="#e0e0e0"/>
        <rect id="Rectángulo_44719" data-name="Rectángulo 44719" width="68.309" height="7.207" rx="2.35" transform="translate(224.238 218.307) rotate(-178.32)" fill="#e0e0e0"/>
        <rect id="Rectángulo_44720" data-name="Rectángulo 44720" width="68.309" height="7.207" rx="2.35" transform="translate(223.496 232.996) rotate(-178.32)" fill="#e0e0e0"/>
        <rect id="Rectángulo_44721" data-name="Rectángulo 44721" width="68.309" height="7.207" rx="2.35" transform="translate(222.754 247.675) rotate(-178.32)" fill="#e0e0e0"/>
        <path id="Trazado_260032" data-name="Trazado 260032" d="M349.214,288.547l140.053,4.113a2.416,2.416,0,0,0,2.488-2.344l.062-2.375a2.406,2.406,0,0,0-2.334-2.478L349.43,281.35a2.416,2.416,0,0,0-2.488,2.344l-.062,2.375a2.416,2.416,0,0,0,2.334,2.478Z" transform="translate(-270.137 -31.842)" fill="#e0e0e0"/>
        <rect id="Rectángulo_44722" data-name="Rectángulo 44722" width="47.634" height="7.207" rx="2.35" transform="translate(135.28 69.87) rotate(-178.32)" fill="#e0e0e0"/>
        <path id="Trazado_260033" data-name="Trazado 260033" d="M334.84,318.167l.884.051,2.6.113,10.055.38,37.311,1.316,126.06,4.256h.267v-.267c.473-10.024.966-20.563,1.481-31.224,2.683-57.452,5.141-109.466,6.888-147.126.853-18.825,1.542-34.052,2.056-44.59.226-5.254.4-9.335.524-12.122.051-1.378.093-2.437.113-3.156s0-1.028,0-1.028A9.232,9.232,0,0,1,523,85.8c-.082.658-.1,1.768-.175,3.146-.144,2.786-.36,6.868-.627,12.122-.524,10.538-1.275,25.765-2.2,44.58-1.81,37.661-4.3,89.664-7.053,147.126-.5,10.693-1.028,21.2-1.481,31.214l.288-.257-126.06-4.113-37.321-1.1-10.055-.288-2.6-.062Z" transform="translate(-270.475 -37.373)" fill="#263238"/>
        <path id="Trazado_260034" data-name="Trazado 260034" d="M349.2,325.629s.278,0,.833.062l2.457.113,9.5.38,35.327,1.347,119.778,4.39h.267v-.267c.637-12.091,1.306-24.675,1.984-37.506,2.951-56.7,5.624-108.016,7.557-145.183.946-18.568,1.707-33.589,2.231-43.994.257-5.141.452-9.253.586-11.968.051-1.357.1-2.4.134-3.084a8.521,8.521,0,0,0,0-1.028,9.407,9.407,0,0,1-.082,1.028c-.082.668-.1,1.758-.185,3.084-.164,2.745-.391,6.775-.689,11.957-.565,10.394-1.388,25.426-2.406,43.984-1.974,37.157-4.709,88.481-7.721,145.173-.679,12.852-1.337,25.415-1.974,37.506l.278-.257-119.757-4.184L362,326l-9.5-.3-2.457-.062Z" transform="translate(-270.071 -37.257)" fill="#263238"/>
        <path id="Trazado_260035" data-name="Trazado 260035" d="M407.72,62.973l2.745-2.683,32.726.165,1.583,2.992Z" transform="translate(-268.425 -38.062)" fill="#e53935"/>
        <rect id="Rectángulo_44723" data-name="Rectángulo 44723" width="15.597" height="37.054" transform="translate(176.359 25.379) rotate(90.72)" fill="#e53935"/>
        <rect id="Rectángulo_44724" data-name="Rectángulo 44724" width="3.115" height="39.624" rx="1.25" transform="translate(177.444 39.667) rotate(90.72)" fill="#e53935"/>
        <path id="Trazado_260036" data-name="Trazado 260036" d="M434.025,75.528h0l-16.3-.206a1.439,1.439,0,0,1-1.172-.627,1.47,1.47,0,0,1-.164-1.306l4.74-12.913a8.532,8.532,0,1,1,9.973.164l4.277,13a1.44,1.44,0,0,1-.206,1.306A1.419,1.419,0,0,1,434.025,75.528Zm-7.752-29.364h-.2a7.608,7.608,0,0,0-7.289,7.6,7.5,7.5,0,0,0,3.321,6.1l.329.226-5.1,13.695a.411.411,0,0,0,.051.38.38.38,0,0,0,.329.175l16.3.206a.422.422,0,0,0,.339-.164.432.432,0,0,0,.051-.37l-4.534-13.8.35-.216a7.485,7.485,0,0,0-3.948-13.828Z" transform="translate(-268.183 -38.484)" fill="#12263f"/>
        <path id="Trazado_260037" data-name="Trazado 260037" d="M444.32,77.243h-1.409l-3.917-.082-12.924-.216-12.924-.185H408.16a1.821,1.821,0,0,0-.37,0h.37l1.028.051,3.958.2c3.311.082,7.876.165,12.924.236s9.623.113,12.934.123h4.945a1.3,1.3,0,0,0,.37-.123Z" transform="translate(-268.423 -37.599)" fill="#455a64"/>
        <path id="Trazado_260038" data-name="Trazado 260038" d="M444.829,63.062a1.521,1.521,0,0,0-.37,0h-1.028l-3.917-.082-12.924-.206-12.924-.154H408.68a1.7,1.7,0,0,0-.37,0h1.4l3.917.1c3.311.082,7.886.165,12.934.236s9.613.113,12.924.123h4.945A1.7,1.7,0,0,0,444.829,63.062Z" transform="translate(-268.408 -37.996)" fill="#455a64"/>
        <rect id="Rectángulo_44725" data-name="Rectángulo 44725" width="63.138" height="57.452" rx="8.92" transform="translate(83.189 180.59) rotate(1.68)" fill="#ebebeb"/>
        <path id="Trazado_260039" data-name="Trazado 260039" d="M351.895,257.851a1.532,1.532,0,0,1,.679-1.223l20.666-13.87a4.277,4.277,0,0,1,5.459.1,1.552,1.552,0,0,0,.267.185l9.366,4.812a1.563,1.563,0,0,0,1.789-.267L404.3,233.71a4.421,4.421,0,0,1,6.385.545l4.544,5.716a1.522,1.522,0,0,1,.339.977l-.216,23.082a8.708,8.708,0,0,1-9,8.626l-46.184-1.46a8.719,8.719,0,0,1-8.441-9.027Z" transform="translate(-270 -33.214)" fill="#e0e0e0"/>
        <circle id="Elipse_6329" data-name="Elipse 6329" cx="6.332" cy="6.332" r="6.332" transform="matrix(0.937, -0.349, 0.349, 0.937, 99.107, 194.158)" fill="#e0e0e0"/>
        <rect id="Rectángulo_44726" data-name="Rectángulo 44726" width="63.138" height="57.452" rx="8.92" transform="translate(164.846 83.71) rotate(1.718)" fill="#ebebeb"/>
        <path id="Trazado_260040" data-name="Trazado 260040" d="M431.244,162.48l21.344-14.3a4.267,4.267,0,0,1,5.583.216l10.5,5.387,14.99-14.651a4.4,4.4,0,0,1,6.375.545l4.894,6.169-.206,22.1a10.281,10.281,0,0,1-10.549,10.117L440.991,176.7a10.22,10.22,0,0,1-9.88-10.59Z" transform="translate(-267.767 -35.875)" fill="#e0e0e0"/>
        <circle id="Elipse_6330" data-name="Elipse 6330" cx="6.313" cy="6.313" r="6.313" transform="translate(181.336 93.036)" fill="#e0e0e0"/>
        <path id="Trazado_260041" data-name="Trazado 260041" d="M361.311,152.957a2.971,2.971,0,0,1-.833-.236,4.606,4.606,0,0,1-1.881-1.594,5.367,5.367,0,0,1-.915-3.773,7.474,7.474,0,0,1,2.5-4.5,13.1,13.1,0,0,1,5.614-2.766,30.637,30.637,0,0,1,7.135-.915,31.389,31.389,0,0,1,15.823,4.01A11.66,11.66,0,0,1,392.1,146a7.022,7.022,0,0,1,1.5,4,5.357,5.357,0,0,1-1.5,3.845,9,9,0,0,1-3.341,2.056,22.4,22.4,0,0,1-7.094,1.141,39.141,39.141,0,0,1-6.251-.267,38.537,38.537,0,0,1-8.78-2.118,22.913,22.913,0,0,1-2.272-.936,6.6,6.6,0,0,1-.761-.38,5.08,5.08,0,0,1,.8.288c.524.206,1.3.493,2.3.833a42.155,42.155,0,0,0,8.78,2.015,41.392,41.392,0,0,0,6.169.2,22.321,22.321,0,0,0,6.94-1.162,8.307,8.307,0,0,0,3.146-1.984,4.8,4.8,0,0,0,1.347-3.475,6.385,6.385,0,0,0-1.4-3.691,11,11,0,0,0-3.208-2.683,31.234,31.234,0,0,0-15.545-3.979,30.906,30.906,0,0,0-7.022.853,12.913,12.913,0,0,0-5.48,2.622,7.2,7.2,0,0,0-2.447,4.257,5.141,5.141,0,0,0,.792,3.619,4.73,4.73,0,0,0,1.758,1.614C361.023,152.865,361.321,152.927,361.311,152.957Z" transform="translate(-269.834 -35.842)" fill="#263238"/>
        <path id="Trazado_260042" data-name="Trazado 260042" d="M387.161,292.647a2.683,2.683,0,0,1-.833-.226,4.605,4.605,0,0,1-1.881-1.594,5.377,5.377,0,0,1-.925-3.773,7.557,7.557,0,0,1,2.5-4.5,13.2,13.2,0,0,1,5.624-2.766,30.547,30.547,0,0,1,7.125-.915,31.266,31.266,0,0,1,15.823,4.01,11.536,11.536,0,0,1,3.362,2.817,7,7,0,0,1,1.5,4,5.315,5.315,0,0,1-1.5,3.835,8.74,8.74,0,0,1-3.342,2.056,22.732,22.732,0,0,1-7.1,1.152,41.5,41.5,0,0,1-6.241-.267,39.662,39.662,0,0,1-8.78-2.118c-1.028-.37-1.768-.7-2.272-.936a4.825,4.825,0,0,1-.771-.391,5.972,5.972,0,0,1,.812.288c.514.206,1.285.5,2.293.843a41.887,41.887,0,0,0,8.76,1.933,41.281,41.281,0,0,0,6.169.206,22.342,22.342,0,0,0,6.94-1.172,8.39,8.39,0,0,0,3.146-1.984,4.822,4.822,0,0,0,1.347-3.475,6.559,6.559,0,0,0-1.4-3.691A11.135,11.135,0,0,0,414.3,283.3a31.378,31.378,0,0,0-22.619-3.084,12.789,12.789,0,0,0-5.48,2.611,7.289,7.289,0,0,0-2.457,4.267,5.141,5.141,0,0,0,.8,3.619,4.657,4.657,0,0,0,1.748,1.6C386.873,292.565,387.161,292.616,387.161,292.647Z" transform="translate(-269.107 -31.912)" fill="#263238"/>
        <path id="Trazado_260043" data-name="Trazado 260043" d="M357.151,107.207a2.972,2.972,0,0,1-.822-.236,4.524,4.524,0,0,1-1.881-1.594,5.305,5.305,0,0,1-.925-3.763,7.577,7.577,0,0,1,2.55-4.514,13.129,13.129,0,0,1,5.624-2.755,31.091,31.091,0,0,1,7.125-.925,31.471,31.471,0,0,1,15.823,4.01,11.526,11.526,0,0,1,3.352,2.817,6.96,6.96,0,0,1,1.511,4,5.336,5.336,0,0,1-1.5,3.845,8.863,8.863,0,0,1-3.341,2.056,22.465,22.465,0,0,1-7.1,1.141,39.48,39.48,0,0,1-15.031-2.385,24.038,24.038,0,0,1-2.272-.936,6.61,6.61,0,0,1-.761-.38,4.564,4.564,0,0,1,.812.288c.514.206,1.285.494,2.293.833a42.451,42.451,0,0,0,8.76,1.943,39.932,39.932,0,0,0,6.169.2,22.382,22.382,0,0,0,6.95-1.162,8.348,8.348,0,0,0,3.136-1.984,4.853,4.853,0,0,0,1.357-3.4,6.5,6.5,0,0,0-1.408-3.691,10.993,10.993,0,0,0-3.2-2.683,31.41,31.41,0,0,0-22.619-3.084,12.934,12.934,0,0,0-5.47,2.622,7.2,7.2,0,0,0-2.457,4.257,5.2,5.2,0,0,0,.792,3.619,4.812,4.812,0,0,0,1.758,1.614A5.142,5.142,0,0,1,357.151,107.207Z" transform="translate(-269.951 -37.13)" fill="#263238"/>
        <path id="Trazado_260044" data-name="Trazado 260044" d="M510.524,247.14l14.137.35,6.745,8.688-7.259,8.863-14.507-.432Z" transform="translate(-265.557 -32.804)" fill="#e2872c"/>
        <path id="Trazado_260045" data-name="Trazado 260045" d="M511.824,223.02l14.137.35,6.745,8.688-7.259,8.863-14.507-.432Z" transform="translate(-265.52 -33.483)" fill="#e53935"/>
        <rect id="Rectángulo_44727" data-name="Rectángulo 44727" width="45.773" height="1.285" rx="0.52" transform="translate(8.434 11.248)" fill="#e0e0e0"/>
        <rect id="Rectángulo_44728" data-name="Rectángulo 44728" width="45.773" height="1.285" rx="0.52" transform="translate(8.434 15.33)" fill="#e0e0e0"/>
        <rect id="Rectángulo_44729" data-name="Rectángulo 44729" width="45.773" height="1.285" rx="0.52" transform="translate(8.434 19.401)" fill="#e0e0e0"/>
        <path id="Trazado_260046" data-name="Trazado 260046" d="M333,53.31c.113-.082,7.2,9.13,15.885,20.563s15.586,20.82,15.422,20.9-7.2-9.12-15.885-20.563S332.866,53.4,333,53.31Z" transform="translate(-270.527 -38.258)" fill="#263238"/>
        <circle id="Elipse_6331" data-name="Elipse 6331" cx="1.738" cy="1.738" r="1.738" transform="translate(60.458 12.492)" fill="#263238"/>
        <path id="Trazado_260047" data-name="Trazado 260047" d="M381.388,396.576H329.241a4.421,4.421,0,0,1-4.421-4.627l1.028-22.095a4.421,4.421,0,0,1,4.421-4.205h52.147a4.411,4.411,0,0,1,4.411,4.627L385.8,392.371a4.421,4.421,0,0,1-4.411,4.205Z" transform="translate(-270.757 -29.47)" fill="#fafafa"/>
        <path id="Trazado_260048" data-name="Trazado 260048" d="M381.4,396.582a5.14,5.14,0,0,0,1.727-.411,4.38,4.38,0,0,0,2.591-4c.2-4.483.473-10.929.822-18.877,0-1.953.637-4.226-.812-5.881a4.184,4.184,0,0,0-2.7-1.511c-1.08-.072-2.272,0-3.434,0H330.308a4.113,4.113,0,0,0-3.547,1.995,4.2,4.2,0,0,0-.607,2c0,.74-.072,1.491-.1,2.231q-.216,4.442-.422,8.739t-.411,8.441c0,.689-.072,1.378-.1,2.056a5.018,5.018,0,0,0,.134,1.933,4.185,4.185,0,0,0,2.447,2.714,4.546,4.546,0,0,0,1.83.3h26.084l18.887.082,5.141.051h1.337a2.18,2.18,0,0,1,.452,0h-1.789l-5.141.051-18.887.093-13.119.267H329.527a5.069,5.069,0,0,1-2.056-.339,4.678,4.678,0,0,1-2.745-3.023,5.614,5.614,0,0,1-.164-2.056c0-.689.072-1.367.1-2.056.134-2.766.257-5.583.4-8.441s.267-5.788.411-8.749c0-.74.072-1.48.1-2.231a4.873,4.873,0,0,1,.679-2.252,4.73,4.73,0,0,1,4.01-2.262h49.279c1.193,0,2.3,0,3.485.051A4.616,4.616,0,0,1,386,367.167a4.72,4.72,0,0,1,1.028,3.084q-.082,1.553-.154,3.084c-.422,7.948-.761,14.394-1.028,18.866a4.554,4.554,0,0,1-1.028,2.786,4.452,4.452,0,0,1-1.748,1.306,4.957,4.957,0,0,1-1.306.319Z" transform="translate(-270.765 -29.476)" fill="#263238"/>
        <rect id="Rectángulo_44730" data-name="Rectángulo 44730" width="45.773" height="1.285" rx="0.52" transform="translate(62.195 346.924)" fill="#e0e0e0"/>
        <rect id="Rectángulo_44731" data-name="Rectángulo 44731" width="45.773" height="1.285" rx="0.52" transform="translate(62.195 350.996)" fill="#e0e0e0"/>
        <rect id="Rectángulo_44732" data-name="Rectángulo 44732" width="45.773" height="1.285" rx="0.52" transform="translate(62.195 355.077)" fill="#e0e0e0"/>
        <path id="Trazado_260049" data-name="Trazado 260049" d="M400.032,295.22c.134.072-8.225,16.337-18.62,36.324s-18.969,36.149-19.1,36.088,8.225-16.337,18.63-36.334S399.94,295.158,400.032,295.22Z" transform="translate(-269.702 -31.452)" fill="#263238"/>
        <path id="Trazado_260050" data-name="Trazado 260050" d="M364.146,365.7a1.748,1.748,0,1,1-1.748-1.748A1.748,1.748,0,0,1,364.146,365.7Z" transform="translate(-269.749 -29.518)" fill="#263238"/>
      </g>
      <g id="freepik--speech-bubble-3--inject-101" transform="translate(632.885 108.495)">
        <path id="Trazado_260051" data-name="Trazado 260051" d="M690.035,106.75H643.409a17.879,17.879,0,0,0-17.869,17.879h0a17.869,17.869,0,0,0,16.841,17.828c1.409,2.426,2.807,4.863,4.215,7.3l5.274-7.248h38.164a17.89,17.89,0,0,0,17.879-17.879h0a17.89,17.89,0,0,0-17.879-17.879Z" transform="translate(-625.291 -106.452)" fill="#fff"/>
        <path id="Trazado_260052" data-name="Trazado 260052" d="M690.042,106.758h1.871a18.907,18.907,0,0,1,5.223,1.316,18.507,18.507,0,0,1,6.847,5.141,19.533,19.533,0,0,1,2.766,4.627,18.106,18.106,0,0,1-3.228,18.815,18.415,18.415,0,0,1-6.3,4.585,19.37,19.37,0,0,1-8.163,1.5H651.877l.216-.1-5.274,7.2-.236.339-.206-.36-1.717-2.971-2.509-4.328.216.123a19.535,19.535,0,0,1-5.223-1.09,19.132,19.132,0,0,1-4.616-2.519,18.085,18.085,0,0,1-2.776-26.351,17.859,17.859,0,0,1,7.341-5.069c.35-.123.679-.257,1.028-.37l1.028-.267a16.45,16.45,0,0,1,2.108-.38c.7-.093,1.4-.082,2.056-.134H660.39l21.673.093h0l-21.673.082H643.313a10.69,10.69,0,0,0-2.056.134,18.039,18.039,0,0,0-2.056.38l-1.028.267c-.339.1-.668.236-1.028.36a17.4,17.4,0,0,0-7.012,5.305,17.591,17.591,0,0,0,2.724,25.611,18.94,18.94,0,0,0,4.483,2.447,19.691,19.691,0,0,0,5.069,1.028h.144l.072.123,2.509,4.328,1.717,2.971H646.4l5.274-7.259.082-.1h37.311a18.743,18.743,0,0,0,7.978-1.439,18.044,18.044,0,0,0,6.169-4.462,17.787,17.787,0,0,0,3.239-18.4,18.906,18.906,0,0,0-2.694-4.575,18.506,18.506,0,0,0-6.693-5.141,20.039,20.039,0,0,0-7.022-1.45Z" transform="translate(-625.297 -106.46)" fill="#263238"/>
        <path id="Trazado_260053" data-name="Trazado 260053" d="M645.818,118.71l1.676,3.383,3.732.545-2.7,2.632.637,3.722-3.341-1.758-3.341,1.758.637-3.722-2.7-2.632,3.732-.545Z" transform="translate(-624.872 -106.115)" fill="#e2872c"/>
        <path id="Trazado_260054" data-name="Trazado 260054" d="M659.618,118.71l1.666,3.383,3.742.545-2.7,2.632.637,3.722-3.341-1.758-3.352,1.758.637-3.722-2.7-2.632,3.742-.545Z" transform="translate(-624.484 -106.115)" fill="#e2872c"/>
        <path id="Trazado_260055" data-name="Trazado 260055" d="M673.408,118.71l1.676,3.383,3.732.545-2.7,2.632.637,3.722-3.341-1.758-3.341,1.758.637-3.722-2.7-2.632,3.732-.545Z" transform="translate(-624.096 -106.115)" fill="#e2872c"/>
        <path id="Trazado_260056" data-name="Trazado 260056" d="M687.2,118.71l1.676,3.383,3.742.545-2.7,2.632.637,3.722-3.352-1.758-3.341,1.758.637-3.722-2.7-2.632,3.742-.545Z" transform="translate(-623.708 -106.115)" fill="#e2872c"/>
      </g>
      <g id="freepik--character-3--inject-101" transform="translate(433.497 82.064)">
        <path id="Trazado_260063" data-name="Trazado 260063" d="M567.142,119.77s-4.668,17.478-5.069,29.816l-.134,4.113s10.281,8.554,18.948,9.078l7.2-17.818Z" transform="translate(-427.692 -79.654)" fill="#263238"/>
        <path id="Trazado_260064" data-name="Trazado 260064" d="M612.8,130.984c-1.974-8.523-2.735-18.434-9.808-23.986-5.264-4.113-11.248-5.274-17.92-4.986a23.483,23.483,0,0,0-9.86,3.269c-3.927,2.221-5.583,6.724-7.474,10.816-3.794,8.225-3.321,19.3-.751,22.393l34.268,18.085c6.837-3.557,11.124-4.976,12.214-14.1a33.516,33.516,0,0,0-.668-11.495Z" transform="translate(-427.607 -80.155)" fill="#263238"/>
        <path id="Trazado_260065" data-name="Trazado 260065" d="M602.556,113.616l-21.591-6.354c-6.95-1.028-11.916,7.392-12.636,14.394-.8,7.752-1.46,17.252-.771,23.092,1.4,11.741,10.281,13.582,10.281,13.582s0,.175-.051,3.64v7.2c-.093,2.272.308,3.033,1.7,4.832,3.187,4.113,8.976,4.678,15.813,2.149,3.958-1.47,6.714-4.411,7.022-8.431l3.742-49.793a4.112,4.112,0,0,0-3.506-4.308Z" transform="translate(-427.542 -80.009)" fill="#ae7461"/>
        <path id="Trazado_260066" data-name="Trazado 260066" d="M570.32,131.605a1.491,1.491,0,0,0,1.388,1.563,1.419,1.419,0,0,0,1.594-1.285,1.491,1.491,0,0,0-1.378-1.563,1.429,1.429,0,0,0-1.6,1.285Z" transform="translate(-427.456 -79.358)" fill="#263238"/>
        <path id="Trazado_260067" data-name="Trazado 260067" d="M569.721,128.12c.175.206,1.337-.6,2.951-.524s2.755.915,2.94.73-.082-.442-.586-.843a4.113,4.113,0,0,0-2.344-.823,3.969,3.969,0,0,0-2.365.658C569.813,127.678,569.628,128.038,569.721,128.12Z" transform="translate(-427.474 -79.461)" fill="#263238"/>
        <path id="Trazado_260068" data-name="Trazado 260068" d="M584.09,131.836a1.5,1.5,0,0,0,1.388,1.563,1.439,1.439,0,0,0,1.594-1.285,1.511,1.511,0,0,0-1.388-1.573,1.439,1.439,0,0,0-1.594,1.3Z" transform="translate(-427.069 -79.352)" fill="#263238"/>
        <path id="Trazado_260069" data-name="Trazado 260069" d="M585.121,128.3c.185.206,1.347-.586,2.961-.524s2.755.925,2.94.73-.093-.442-.586-.833a4.112,4.112,0,0,0-2.344-.823,3.9,3.9,0,0,0-2.365.658C585.214,127.868,585,128.218,585.121,128.3Z" transform="translate(-427.041 -79.455)" fill="#263238"/>
        <path id="Trazado_260070" data-name="Trazado 260070" d="M579.11,138.786a10.283,10.283,0,0,0-2.591-.576c-.411-.062-.8-.154-.853-.442a2.057,2.057,0,0,1,.319-1.2c.422-1.028.874-2,1.337-3.084a62.246,62.246,0,0,0,3.084-8.081,58.486,58.486,0,0,0-3.691,7.814l-1.3,3.084a2.375,2.375,0,0,0-.278,1.6,1.028,1.028,0,0,0,.658.627,2.713,2.713,0,0,0,.689.123A10.474,10.474,0,0,0,579.11,138.786Z" transform="translate(-427.322 -79.496)" fill="#263238"/>
        <path id="Trazado_260071" data-name="Trazado 260071" d="M577.531,157.007a29.724,29.724,0,0,0,15.792-3.557s-4.185,8.019-15.823,6.467Z" transform="translate(-427.254 -78.707)" fill="#6f4439"/>
        <path id="Trazado_260072" data-name="Trazado 260072" d="M584.235,141.932a2.313,2.313,0,0,0-1.9-1.131,3.023,3.023,0,0,0-2.817,1.254,1.9,1.9,0,0,0-.175,1.357c.093.236,0,.123.185.288a5.336,5.336,0,0,0,2.128,1.429,2.252,2.252,0,0,0,2.437-.792,2.313,2.313,0,0,0,.144-2.406Z" transform="translate(-427.204 -79.063)" fill="#6f4439"/>
        <path id="Trazado_260073" data-name="Trazado 260073" d="M584.016,139.75c-.267,0-.35,1.717-1.892,2.889s-3.4.9-3.434,1.141.4.36,1.182.422a4.339,4.339,0,0,0,2.858-.853,3.8,3.8,0,0,0,1.481-2.437C584.314,140.192,584.149,139.75,584.016,139.75Z" transform="translate(-427.221 -79.092)" fill="#263238"/>
        <path id="Trazado_260074" data-name="Trazado 260074" d="M584.53,122.555c.113.452,1.737.4,3.6.812s3.331,1.028,3.619.7c.123-.175-.093-.607-.668-1.09a6.4,6.4,0,0,0-5.5-1.152C584.859,122.01,584.479,122.339,584.53,122.555Z" transform="translate(-427.057 -79.602)" fill="#263238"/>
        <path id="Trazado_260075" data-name="Trazado 260075" d="M569.852,123.919c.36.319,1.532-.236,3.012-.463s2.755-.154,2.992-.576c.093-.2-.154-.535-.75-.8a4.648,4.648,0,0,0-2.539-.236,4.5,4.5,0,0,0-2.293,1.028C569.8,123.364,569.687,123.765,569.852,123.919Z" transform="translate(-427.471 -79.598)" fill="#263238"/>
        <path id="Trazado_260076" data-name="Trazado 260076" d="M580.552,106l-.062.257h0Z" transform="translate(-427.17 -80.042)" fill="#263238"/>
        <path id="Trazado_260077" data-name="Trazado 260077" d="M596.05,163.087c.329-3.084-.9-6.169-.545-9.192.38-3.239,2.478-6.015,3.341-9.161,1.378-5.038-.514-10.394-1.213-15.607a12.337,12.337,0,0,1-7.588-4.38c-2.334-2.725-3.753-6.107-5.141-9.428a15.812,15.812,0,0,0,3.177,9.068,4.277,4.277,0,0,1-3.64-1.182A9.47,9.47,0,0,1,582.3,119.9a26.091,26.091,0,0,1-2.056-9.335,33.607,33.607,0,0,0,1.532,13.623,5.9,5.9,0,0,0-2.539.1,2.8,2.8,0,0,1-2.416-.514,3.012,3.012,0,0,1-.658-1.552,34.955,34.955,0,0,1-.391-11.885,36.589,36.589,0,0,0-2.673,6.59,12.738,12.738,0,0,0,0,7.022,1.028,1.028,0,0,1-1.45,0,2.458,2.458,0,0,1-.637-1.47,17.939,17.939,0,0,1,.391-5.912c-1.172,2.056-1.553,4.472-2.2,6.755s-1.676,4.627-3.66,5.932a30.894,30.894,0,0,1,.288-8.955,26.67,26.67,0,0,1,2.632-7.1,21.015,21.015,0,0,1,4.729-6.59c3.434-3.012,4.873-1.717,7.073-.565l.257.1v-.154l.093-.473a33.024,33.024,0,0,1,17.345.812c4.113,1.347,4.524,10.281,5.531,6.025.607-2.56,3.927-.216,3.969-.144,4.884,8.8,10.055,22.773,10.281,44.837h0Z" transform="translate(-427.596 -80.078)" fill="#263238"/>
        <path id="Trazado_260078" data-name="Trazado 260078" d="M609.434,96.171a11.011,11.011,0,0,0-7.588-3.691,8.287,8.287,0,0,0-7.331,3.814,6.673,6.673,0,0,0,.9,7.989l3.609,2.889a9.88,9.88,0,0,0,8.225.792,7.125,7.125,0,0,0,4.627-6.5,8.39,8.39,0,0,0-2.447-5.295Z" transform="translate(-426.802 -80.422)" fill="#263238"/>
        <path id="Trazado_260079" data-name="Trazado 260079" d="M606.6,111.912c-.7.319-2.673-2.7-6.169-5.079s-6.991-3.228-6.94-4c0-.35,1.028-.627,2.632-.463a13.5,13.5,0,0,1,10.014,6.909C606.835,110.73,606.917,111.758,606.6,111.912Z" transform="translate(-426.804 -80.145)" fill="#455a64"/>
        <path id="Trazado_260080" data-name="Trazado 260080" d="M557.969,205.286l13.51-12.656,9.161,14.538c-.185,1.306-11.854,26.444-16.9,31.656-5.768,5.943-13.623,5.48-17.088-2.725-2.735-6.467-7.269-26.392-7.269-26.392Z" transform="translate(-428.327 -77.604)" fill="#e2872c"/>
        <path id="Trazado_260081" data-name="Trazado 260081" d="M572.349,167.976c-3.228,1.162-10.651,5.223-12.811,7.886a19.919,19.919,0,0,0-2.725,4.215c-1.7,3.722-4.9,31.3-4.9,31.3L566.3,221.789l12.533-48.22-.8-7.649Z" transform="translate(-427.974 -78.356)" fill="#e2872c"/>
        <path id="Trazado_260082" data-name="Trazado 260082" d="M567.238,247.669l.9-7.115a230.88,230.88,0,0,1-3.794-23.74c-1.614-17.54,2.961-28.449,3.578-30.289.36-1.028,9.757-20.563,9.757-20.563s1.974,5.994,9.9,4.575c11.052-1.974,15.083-7.968,15.083-7.968l14.291,3.084s5.562,22.352,6.385,29.765c.432,3.969-4.791,26.413-4.791,26.413l8.42,12.6c.257.617-3.66,17.848-4.421,18.506s-14.476,3.9-14.641,4.483-26.135,11.453-26.115,11-12.492-15.288-12.492-15.288Z" transform="translate(-427.634 -78.45)" fill="#e2872c"/>
        <path id="Trazado_260083" data-name="Trazado 260083" d="M564.044,188.47a2.861,2.861,0,0,1,0,.524c0,.391-.1.884-.175,1.47-.154,1.285-.37,3.146-.555,5.449a77.8,77.8,0,0,0,.329,17.972c.925,6.991,2.272,13.242,3.146,17.787.442,2.272.781,4.113,1.028,5.387.093.586.164,1.08.226,1.47a2.059,2.059,0,0,1,0,.524,1.749,1.749,0,0,1-.144-.5c-.093-.391-.206-.874-.329-1.45-.3-1.347-.689-3.156-1.162-5.357-.966-4.524-2.375-10.765-3.3-17.787a72.387,72.387,0,0,1-.185-18.085c.236-2.3.514-4.113.73-5.439.113-.637.206-1.131.278-1.46A1.6,1.6,0,0,1,564.044,188.47Z" transform="translate(-427.678 -77.721)" fill="#263238"/>
        <path id="Trazado_260084" data-name="Trazado 260084" d="M629.561,242.522c2.56,4.349,8.41,20.984,10.682,29.487,10.374,38.771,19.154,90.918,22.074,101.549,3.886,14.157,12.584,46.194,17.005,67.528l-21.262,9.253s-27.842-75.054-35.44-93.478c-7.876-19.123-21-55.108-21-55.108l-7.588,142.911-20.367.627s-6.971-40.272-9.736-64.351-3.084-73.625-3.084-86.209c0-15.309,6.611-49.772,6.611-49.772s7.947,5.963,22.835,3.681c11.865-1.82,36.468-10.939,36.468-10.939Z" transform="translate(-427.723 -76.336)" fill="#12263f"/>
        <path id="Trazado_260085" data-name="Trazado 260085" d="M587.41,253.18a9.713,9.713,0,0,0,.113,1.645c.113,1.028.3,2.57.545,4.452.5,3.753,1.285,8.914,2.293,14.6s2.056,10.806,2.92,14.5c.411,1.851.761,3.341,1.028,4.359a10.268,10.268,0,0,0,.452,1.583,8.748,8.748,0,0,0-.247-1.624c-.226-1.131-.514-2.611-.874-4.39-.74-3.712-1.738-8.832-2.755-14.517s-1.851-10.826-2.447-14.558c-.288-1.8-.524-3.29-.709-4.431A11.656,11.656,0,0,0,587.41,253.18Z" transform="translate(-426.976 -75.901)" fill="#455a64"/>
        <path id="Trazado_260086" data-name="Trazado 260086" d="M594.581,252.905s0-.257-.4-.411a2.622,2.622,0,0,0-1.552-.051,3.084,3.084,0,0,0-1.028.411,1.727,1.727,0,0,0-.689,1.131,2.6,2.6,0,0,0,1.162,2.591,2.683,2.683,0,0,0,2.838.123,1.84,1.84,0,0,0,.781-1.028,2.611,2.611,0,0,0,.082-1.11,2.262,2.262,0,0,0-.689-1.4c-.288-.236-.514-.257-.514-.236s.154.134.37.38a2.272,2.272,0,0,1,.452,1.3,1.789,1.789,0,0,1-.74,1.707,2.262,2.262,0,0,1-2.293-.154,2.149,2.149,0,0,1-.966-2.056,1.275,1.275,0,0,1,.463-.853,3.085,3.085,0,0,1,.853-.411,2.858,2.858,0,0,1,1.388-.113C594.437,252.761,594.54,252.936,594.581,252.905Z" transform="translate(-426.878 -75.924)" fill="#455a64"/>
        <path id="Trazado_260087" data-name="Trazado 260087" d="M581.81,288.25a20.084,20.084,0,0,0,2.457,1.686c1.542,1.028,3.65,2.426,5.912,4.113s4.236,3.259,5.655,4.431a22.514,22.514,0,0,0,2.334,1.861,13.441,13.441,0,0,0-2.056-2.138,69.764,69.764,0,0,0-5.593-4.586,66.729,66.729,0,0,0-6.025-3.979,13.729,13.729,0,0,0-2.683-1.388Z" transform="translate(-427.133 -74.914)" fill="#455a64"/>
        <path id="Trazado_260088" data-name="Trazado 260088" d="M632,363.631a2.416,2.416,0,0,0,.874,0,23.6,23.6,0,0,0,2.385-.185,42.616,42.616,0,0,0,15.021-4.709c.884-.473,1.594-.894,2.056-1.2a3.173,3.173,0,0,0,.709-.524,27.586,27.586,0,0,0-2.951,1.4,55.517,55.517,0,0,1-7.279,2.879,54.853,54.853,0,0,1-7.619,1.789,32,32,0,0,0-3.2.555Z" transform="translate(-425.721 -72.979)" fill="#455a64"/>
        <path id="Trazado_260089" data-name="Trazado 260089" d="M635.32,361.5a8.141,8.141,0,0,0,2.056-.555c1.265-.422,2.982-1.079,4.843-1.912a51.146,51.146,0,0,0,4.637-2.354,8.351,8.351,0,0,0,1.8-1.193c-.082-.134-2.971,1.409-6.652,3.084S635.279,361.361,635.32,361.5Z" transform="translate(-425.627 -73.022)" fill="#455a64"/>
        <path id="Trazado_260090" data-name="Trazado 260090" d="M573.785,425.21l-.1,21.221s-21.591,7.022-22.012,10.939l41.125,1.686,1.542-33.034Z" transform="translate(-427.981 -71.06)" fill="#12263f"/>
        <path id="Trazado_260091" data-name="Trazado 260091" d="M585.576,444.631a1.666,1.666,0,0,1,1.079,1.964,1.614,1.614,0,0,1-1.933,1.09,1.778,1.778,0,0,1-1.141-2.056,1.7,1.7,0,0,1,2.149-.915" transform="translate(-427.084 -70.515)" fill="#e0e0e0"/>
        <path id="Trazado_260092" data-name="Trazado 260092" d="M592.817,458.231V454.9l-39.46-.37s-1.861.72-1.707,2.056Z" transform="translate(-427.982 -70.235)" fill="#455a64"/>
        <path id="Trazado_260093" data-name="Trazado 260093" d="M572.44,445.624c0,.206,1.028.339,1.953,1.028s1.46,1.553,1.645,1.481-.062-1.244-1.244-2.056S572.4,445.439,572.44,445.624Z" transform="translate(-427.397 -70.49)" fill="#fff"/>
        <path id="Trazado_260094" data-name="Trazado 260094" d="M568.17,447.192c0,.2.8.565,1.45,1.45s.8,1.779,1.028,1.779.37-1.131-.452-2.21S568.18,447,568.17,447.192Z" transform="translate(-427.517 -70.444)" fill="#fff"/>
        <path id="Trazado_260095" data-name="Trazado 260095" d="M565.621,452.207c.185.051.5-.936,0-2.056s-1.388-1.6-1.481-1.439.463.781.833,1.707S565.425,452.186,565.621,452.207Z" transform="translate(-427.63 -70.4)" fill="#fff"/>
        <path id="Trazado_260096" data-name="Trazado 260096" d="M573,440.937c.082.185,1.028-.051,2.149.072s1.995.524,2.056.35-.709-.915-2.056-1.028S572.887,440.783,573,440.937Z" transform="translate(-427.381 -70.635)" fill="#fff"/>
        <path id="Trazado_260097" data-name="Trazado 260097" d="M668.149,423.05l7.886,24.439,11.8,17.53a2.632,2.632,0,0,1-.864,3.742h0a2.622,2.622,0,0,1-2.406.113c-4.935-2.262-23.051-10.662-23.524-12.482-.555-2.118-10.024-25.23-10.024-25.23Z" transform="translate(-425.186 -71.121)" fill="#12263f"/>
        <path id="Trazado_260098" data-name="Trazado 260098" d="M686.725,467.893,660.22,453.88l.36,1.028a3.917,3.917,0,0,0,1.727,2.118c2.169,1.275,8.225,4.657,21.94,11.011A2.622,2.622,0,0,0,686.725,467.893Z" transform="translate(-424.927 -70.254)" fill="#455a64"/>
        <g id="Grupo_173912" data-name="Grupo 173912" transform="translate(235.66 374.04)" opacity="0.6">
          <path id="Trazado_260099" data-name="Trazado 260099" d="M662.451,444.591a1.594,1.594,0,0,1,1.1,1.82,1.532,1.532,0,0,1-1.8,1.1,1.676,1.676,0,0,1-1.141-1.933,1.583,1.583,0,0,1,1.994-.936" transform="translate(-660.577 -444.556)" fill="#fff"/>
        </g>
        <path id="Trazado_260100" data-name="Trazado 260100" d="M677,459.195a5.7,5.7,0,0,1,4.113-4.113c0-.062-.38-.144-1.028,0a4.113,4.113,0,0,0-2.056,1.141,4.052,4.052,0,0,0-1.11,2.056A2.093,2.093,0,0,0,677,459.195Z" transform="translate(-424.457 -70.222)" fill="#fff"/>
        <path id="Trazado_260101" data-name="Trazado 260101" d="M679.791,461.732c.154.072.658-1.028,1.789-1.789a20.817,20.817,0,0,1,2.262-1.131,2.92,2.92,0,0,0-2.591.679C680.007,460.406,679.647,461.711,679.791,461.732Z" transform="translate(-424.377 -70.117)" fill="#fff"/>
        <path id="Trazado_260102" data-name="Trazado 260102" d="M672.48,456.257a25.3,25.3,0,0,1,2.56-2.951,26.511,26.511,0,0,1,3.311-2.056,7.2,7.2,0,0,0-5.871,5.038Z" transform="translate(-424.582 -70.328)" fill="#fff"/>
        <path id="Trazado_260103" data-name="Trazado 260103" d="M669.54,449.162c.113.123,1.265-.9,2.982-1.573s3.249-.73,3.249-.894a5.048,5.048,0,0,0-3.455.37,5.141,5.141,0,0,0-2.776,2.1Z" transform="translate(-424.665 -70.46)" fill="#fff"/>
        <path id="Trazado_260104" data-name="Trazado 260104" d="M667.12,442.239a12.645,12.645,0,0,1,3.084-1.717,13.174,13.174,0,0,1,3.5-.319c0-.062-.35-.267-1.028-.4a5.6,5.6,0,0,0-2.642.175,5.676,5.676,0,0,0-2.282,1.347C667.244,441.817,667.059,442.2,667.12,442.239Z" transform="translate(-424.733 -70.652)" fill="#fff"/>
        <path id="Trazado_260105" data-name="Trazado 260105" d="M669.718,439.327a2.273,2.273,0,0,0-.288-.925,6.868,6.868,0,0,0-1.563-2.149,2.992,2.992,0,0,0-1.676-.925,1.028,1.028,0,0,0-1.028.617,1.676,1.676,0,0,0,0,1.224,3.732,3.732,0,0,0,4.215,2.18,4.318,4.318,0,0,0,3.259-3.526,1.46,1.46,0,0,0-.35-1.193,1.028,1.028,0,0,0-1.2-.164,3.763,3.763,0,0,0-1.306,1.388,7.318,7.318,0,0,0-1.028,2.457,2.182,2.182,0,0,0-.082.966,11.784,11.784,0,0,1,1.409-3.208,3.578,3.578,0,0,1,1.172-1.182.555.555,0,0,1,.658.092,1.028,1.028,0,0,1,.175.792,3.815,3.815,0,0,1-2.858,3.023,3.228,3.228,0,0,1-3.6-1.789,1.254,1.254,0,0,1,0-.864.576.576,0,0,1,.576-.35,2.745,2.745,0,0,1,1.429.761,10.1,10.1,0,0,1,2.087,2.776Z" transform="translate(-424.791 -70.803)" fill="#fff"/>
        <path id="Trazado_260106" data-name="Trazado 260106" d="M542.308,188.47l9.808,10.127.4,8.832-11.392,2.622h-.576l-.74-5.7-6.56-8.729Z" transform="translate(-428.499 -77.721)" fill="#ae7461"/>
        <path id="Trazado_260107" data-name="Trazado 260107" d="M534.677,184.091a59.735,59.735,0,0,1-84.441,2.735h0a59.714,59.714,0,1,1,84.441-2.755Zm-81.706-.164a55.787,55.787,0,1,0-16.543-29.816A55.787,55.787,0,0,0,452.971,183.927Z" transform="translate(-431.366 -80.673)" fill="#455a64"/>
        <path id="Trazado_260108" data-name="Trazado 260108" d="M534.677,184.091a59.735,59.735,0,0,1-84.441,2.735h0a59.714,59.714,0,1,1,84.441-2.755Zm-81.706-.164a55.787,55.787,0,1,0-16.543-29.816A55.787,55.787,0,0,0,452.971,183.927Z" transform="translate(-431.366 -80.673)" fill="#263238"/>
        <path id="Trazado_260109" data-name="Trazado 260109" d="M536.108,181.291a59.755,59.755,0,0,1-84.441,2.766h0a59.724,59.724,0,1,1,84.441-2.766Zm-81.706-.154a55.787,55.787,0,1,0-16.543-29.816A55.787,55.787,0,0,0,454.4,181.137Z" transform="translate(-431.326 -80.752)" fill="#455a64"/>
        <path id="Trazado_260110" data-name="Trazado 260110" d="M599.827,254.025l1.9-1.84c1.7-1.635.75-5.387-1.028-7.2L533.954,176l-8.924,8.636,66.644,68.885C593.884,255.711,597.647,256.195,599.827,254.025Z" transform="translate(-428.731 -78.072)" fill="#455a64"/>
        <path id="Trazado_260111" data-name="Trazado 260111" d="M538.159,184.091a1.594,1.594,0,0,0-1.357-.36,2.684,2.684,0,0,0-1.028.74,12.111,12.111,0,0,0-3.434,8.369c0,1.326.35,2.848,1.532,3.444l1.337-.771c.422-.535,1.655-1.439,1.82-2.056.7-2.766-.3-2.653,1.439-7.454a1.656,1.656,0,0,0-.308-1.912Z" transform="translate(-428.525 -77.856)" fill="#ae7461"/>
        <path id="Trazado_260112" data-name="Trazado 260112" d="M537.718,187.963a6.33,6.33,0,0,1,1.326-1.748,1.933,1.933,0,0,1,1.768-.524c.925.288,1.378,1.614,1.265,2.858a10.614,10.614,0,0,1-1.151,3.526c-1.1,2.375-2.19,4.76-3.29,7.146l-.637-.473a.915.915,0,0,1-1.429-.308,3.692,3.692,0,0,1-.308-1.953,18.691,18.691,0,0,1,2.457-8.523Z" transform="translate(-428.443 -77.801)" fill="#ae7461"/>
        <path id="Trazado_260113" data-name="Trazado 260113" d="M539.264,194.986a16.781,16.781,0,0,1,3.3-4.421A4.113,4.113,0,0,1,544.1,189.4a1.45,1.45,0,0,1,1.727.5,2.056,2.056,0,0,1-.236,1.758,81.551,81.551,0,0,1-5.675,9.963l-1.974-1.984C537.043,198.029,538.513,196.672,539.264,194.986Z" transform="translate(-428.375 -77.698)" fill="#ae7461"/>
        <path id="Trazado_260114" data-name="Trazado 260114" d="M591.954,216.663l-1.81-.38-9.5-8.071-5.141-4.359a3.28,3.28,0,0,0-1.522-.7l-5.141-.853a2.92,2.92,0,0,0,1.532,3.516l2.817,1.46,2.57,3.084-.329.658s-16.851,2.622-17.91,3.907a1.748,1.748,0,0,0,.473,2.683,2.714,2.714,0,0,0,1.285.123s-.822,1.984,1.635,3.619c0,0-1.871,2.457,1.4,3.629a5.244,5.244,0,0,0,2.807,2.447,121.316,121.316,0,0,0,12.975,1.758h12.091l2.426.391Z" transform="translate(-427.829 -77.332)" fill="#ae7461"/>
        <path id="Trazado_260115" data-name="Trazado 260115" d="M558.85,217.293a13.212,13.212,0,0,0,4.668.257,18.8,18.8,0,0,0,4.606-.689,23.568,23.568,0,0,0-4.647.154A45.575,45.575,0,0,0,558.85,217.293Z" transform="translate(-427.779 -76.924)" fill="#6f4439"/>
        <path id="Trazado_260116" data-name="Trazado 260116" d="M560.82,220.784c0,.072.442.134,1.141.226s1.676.226,2.766.3a23.067,23.067,0,0,0,2.8-.062,4.927,4.927,0,0,0,1.151-.1c0-.072-.422-.226-1.141-.278s-1.707,0-2.776-.093-2.056-.144-2.776-.134S560.82,220.712,560.82,220.784Z" transform="translate(-427.724 -76.816)" fill="#6f4439"/>
        <path id="Trazado_260117" data-name="Trazado 260117" d="M561.86,224.232a19.536,19.536,0,0,0,4.544.617,10.334,10.334,0,0,1,3.084.483c.75.278,1.09.679,1.151.617s-.206-.555-1.028-.956a8.226,8.226,0,0,0-3.218-.679A20.562,20.562,0,0,0,561.86,224.232Z" transform="translate(-427.694 -76.718)" fill="#6f4439"/>
        <path id="Trazado_260118" data-name="Trazado 260118" d="M616.2,165.62s7.125,1.234,12.523,11.844c2.982,5.871,16.944,41.125,17.766,44.21,3.547,13.242-3.311,21.776-9.9,22.352-7.269.648-44.817-11.474-44.817-11.474l-.833-16.039L625.2,221.7l-16.45-31.944S608.11,168.53,616.2,165.62Z" transform="translate(-426.876 -78.364)" fill="#e2872c"/>
        <path id="Trazado_260119" data-name="Trazado 260119" d="M635.795,228.98a5.891,5.891,0,0,0-.915-2.139,14.322,14.322,0,0,0-3.856-4.113,14.1,14.1,0,0,0-5.141-2.313,5.932,5.932,0,0,0-2.324-.175c0,.093.884.154,2.231.545a16.06,16.06,0,0,1,4.914,2.375,16.317,16.317,0,0,1,3.845,3.866A17.341,17.341,0,0,0,635.795,228.98Z" transform="translate(-425.958 -76.829)" fill="#263238"/>
        <path id="Trazado_260120" data-name="Trazado 260120" d="M627.189,242H627l-.5-.113c-.463-.093-1.121-.288-1.974-.524-1.717-.493-4.205-1.265-7.341-2.262-6.272-2-15.144-4.925-25.559-8.451l-.154-.051v-.175c-.247-4.616-.514-9.644-.781-14.9V215.2l.329.062,8.42,1.357,25.806,4.215-.257.35c-4.657-9.12-8.585-16.82-11.381-22.269-1.347-2.694-2.426-4.832-3.187-6.333L609.6,190.9a4.122,4.122,0,0,1-.267-.6,3.026,3.026,0,0,1,.339.565l.894,1.645c.781,1.491,1.9,3.609,3.31,6.272l11.546,22.187.216.422-.473-.072-25.837-4.113-8.431-1.378.308-.267c.267,5.244.514,10.281.751,14.9l-.175-.216,25.5,8.636,7.289,2.385c.853.257,1.5.483,1.943.6l.5.154Z" transform="translate(-426.883 -77.67)" fill="#263238"/>
        <path id="Trazado_260121" data-name="Trazado 260121" d="M617.266,166.25c0,.093-.966.679-2.385,1.9a20.285,20.285,0,0,0-6.868,12.554c-.247,1.851-.185,3.033-.288,3.033a2.843,2.843,0,0,1-.113-.823,12.018,12.018,0,0,1,0-2.252,17.4,17.4,0,0,1,.617-3.3,19,19,0,0,1,3.907-7.2,18.337,18.337,0,0,1,2.426-2.313,13.649,13.649,0,0,1,1.882-1.254,2.529,2.529,0,0,1,.822-.35Z" transform="translate(-426.409 -78.347)" fill="#263238"/>
      </g>
      <g id="freepik--character-2--inject-101" transform="translate(222.075 84.488)">
        <path id="Trazado_260122" data-name="Trazado 260122" d="M232.947,187.27s-7.567,42.154-7.2,46.05,2.385,10.2,6.95,11.309a20.408,20.408,0,0,0,8.77,0l-5.48-51.715Z" transform="translate(-225.73 -80.179)" fill="#ffbf9d"/>
        <path id="Trazado_260123" data-name="Trazado 260123" d="M254.265,154.036l-.535-43.48c-.483-10.816,5.408-20.121,16.245-20.306H271a19.37,19.37,0,0,1,18.558,18.589c.36,9.377.648,19.751.38,24.758-.555,10.384-11.011,11.567-11.011,11.567s-.062,6.323-.062,9.366l-8.41,11.6v.617Z" transform="translate(-224.943 -82.909)" fill="#ffbf9d"/>
        <path id="Trazado_260124" data-name="Trazado 260124" d="M278.576,143.785a25.118,25.118,0,0,1-13.366-4.555s2.93,7.937,13.366,7.433Z" transform="translate(-224.619 -81.531)" fill="#ff9a6c"/>
        <path id="Trazado_260125" data-name="Trazado 260125" d="M285.411,117.038a1.491,1.491,0,0,1-1.491,1.439,1.409,1.409,0,0,1-1.47-1.4,1.481,1.481,0,0,1,1.48-1.439,1.429,1.429,0,0,1,1.481,1.4Z" transform="translate(-224.134 -82.194)" fill="#263238"/>
        <path id="Trazado_260126" data-name="Trazado 260126" d="M286.371,112.746c-.185.185-1.275-.689-2.868-.751s-2.807.689-2.971.483.123-.432.648-.781a4.02,4.02,0,0,1,2.385-.627,3.876,3.876,0,0,1,2.282.843C286.32,112.3,286.474,112.664,286.371,112.746Z" transform="translate(-224.189 -82.323)" fill="#263238"/>
        <path id="Trazado_260127" data-name="Trazado 260127" d="M271.551,117.038a1.491,1.491,0,0,1-1.491,1.439,1.429,1.429,0,0,1-1.481-1.4,1.491,1.491,0,0,1,1.491-1.439,1.429,1.429,0,0,1,1.481,1.4Z" transform="translate(-224.524 -82.194)" fill="#263238"/>
        <path id="Trazado_260128" data-name="Trazado 260128" d="M271.161,112.476c-.2.185-1.285-.689-2.879-.751s-2.807.689-2.971.483.123-.432.648-.781a4.113,4.113,0,0,1,2.385-.627,3.989,3.989,0,0,1,2.283.843C271.089,112.034,271.244,112.394,271.161,112.476Z" transform="translate(-224.618 -82.331)" fill="#263238"/>
        <path id="Trazado_260129" data-name="Trazado 260129" d="M276.066,124.955a10.282,10.282,0,0,1,2.611-.36c.411,0,.8-.093.874-.37a2.056,2.056,0,0,0-.216-1.213c-.35-1.028-.7-2.056-1.079-3.156-1.491-4.483-2.55-8.174-2.375-8.225s1.542,3.527,3.033,8.009l1.028,3.177a2.4,2.4,0,0,1,.144,1.6,1.028,1.028,0,0,1-.7.565,2.488,2.488,0,0,1-.689.072A10.375,10.375,0,0,1,276.066,124.955Z" transform="translate(-224.319 -82.307)" fill="#263238"/>
        <path id="Trazado_260130" data-name="Trazado 260130" d="M271.89,107.651c-.236.4-1.768-.093-3.65-.216s-3.465.113-3.64-.319c-.072-.206.257-.555.936-.864a6.169,6.169,0,0,1,2.827-.432,6,6,0,0,1,2.725.843C271.715,107.034,271.993,107.455,271.89,107.651Z" transform="translate(-224.637 -82.471)" fill="#263238"/>
        <path id="Trazado_260131" data-name="Trazado 260131" d="M286.646,108.188c-.339.35-1.624-.062-3.187-.113s-2.9.165-3.187-.226c-.134-.185.082-.545.668-.874a5.2,5.2,0,0,1,2.622-.524,4.966,4.966,0,0,1,2.529.8C286.625,107.633,286.8,108.044,286.646,108.188Z" transform="translate(-224.196 -82.453)" fill="#263238"/>
        <path id="Trazado_260132" data-name="Trazado 260132" d="M254.445,117.492c-.175-.093-7.053-2.406-7.115,4.7s7.084,5.706,7.094,5.5S254.445,117.492,254.445,117.492Z" transform="translate(-225.122 -82.154)" fill="#ffbf9d"/>
        <path id="Trazado_260133" data-name="Trazado 260133" d="M252.236,124.925a2.308,2.308,0,0,1-.339.175,1.224,1.224,0,0,1-.925,0,3.084,3.084,0,0,1-1.388-2.766,3.948,3.948,0,0,1,.36-1.768,1.439,1.439,0,0,1,.936-.936.637.637,0,0,1,.73.339c.093.206.051.339.082.36s.154-.123.1-.411a.8.8,0,0,0-.278-.452.884.884,0,0,0-.679-.185,1.737,1.737,0,0,0-1.306,1.09,4.2,4.2,0,0,0-.452,1.974,3.158,3.158,0,0,0,1.779,3.084,1.316,1.316,0,0,0,1.141-.175C252.216,125.089,252.257,124.935,252.236,124.925Z" transform="translate(-225.073 -82.092)" fill="#ff9a6c"/>
        <path id="Trazado_260134" data-name="Trazado 260134" d="M271.186,125.55c.247,0,.257,1.614,1.666,2.766s3.136.966,3.146,1.193-.38.319-1.121.35a4.113,4.113,0,0,1-2.632-.9A3.578,3.578,0,0,1,271,126.63C270.9,125.941,271.083,125.54,271.186,125.55Z" transform="translate(-224.457 -81.916)" fill="#263238"/>
        <path id="Trazado_260135" data-name="Trazado 260135" d="M304.165,99.684a1.7,1.7,0,0,0-.781-1.028,5.14,5.14,0,0,0-2.653-.463,15.083,15.083,0,0,1-6.488-1.707,7.341,7.341,0,0,0,1.933-1.326,4.442,4.442,0,0,0,1.326-4.421,1.028,1.028,0,0,0-.545-.689c-.463-.144-.874.308-1.193.658a3.835,3.835,0,0,1-3.64,1.542,6.313,6.313,0,0,1-2.694-.823l-.082-.1-1.121-1.131h0c-2.642-2.683-4.925-4.544-7.279-5.531A24.274,24.274,0,0,0,268.067,83.5c-3.629.915-6.909,3.814-7.454,7.516-2-1.738-5.058-1.758-7.536-.8h-.062c-2.766.946-4.359,3.835-5.213,6.631l-.123.463a10.929,10.929,0,0,1-3.742,3.578c-.267.154-.576.339-.617.648a.915.915,0,0,0,.463.74,5.624,5.624,0,0,0,2.221.946,12.335,12.335,0,0,1-.936,1.923c-.319.524-.689,1.152-.432,1.7a1.162,1.162,0,0,0,1.213.545,3.352,3.352,0,0,0,1.285-.565c-.308.73-.627,1.47-.946,2.2a6.59,6.59,0,0,0,3-.165c.555,2.632.936,7.5,1.594,9.253,1.882,0,2.344-.154,3.29.175,1.234.422.74,2.6,2.344,1.995.822-.3,2.056-3.383,2.385-4.205a40.343,40.343,0,0,0,1.953-17.16,13.129,13.129,0,0,1,4.061-2.869l-.123.113c2.92-.977,6.22-1.933,8.965-.535,2.118,1.028,3.352,3.321,4.935,5.141a14.908,14.908,0,0,0,10.919,5.459c.37,3.146.432,8.225.555,11.207l2.57-5.83h0a10.869,10.869,0,0,0,.535-1.028l.062-.1h0a16.73,16.73,0,0,1,.843-1.655h0a1.83,1.83,0,0,0,2.694-2.416,3.8,3.8,0,0,0-.874-.894,2.91,2.91,0,0,0,2.755.74,2.272,2.272,0,0,0,1.625-2.231,1.933,1.933,0,0,0-1.131-1.563,6.508,6.508,0,0,0,3.722-.771C303.651,101.287,304.4,100.609,304.165,99.684Z" transform="translate(-225.235 -83.11)" fill="#263238"/>
        <path id="Trazado_260136" data-name="Trazado 260136" d="M263.773,92a9.685,9.685,0,0,0-1.028.946A7.413,7.413,0,0,0,261.1,96.38a13.854,13.854,0,0,0-.288,2.642c0,.956.051,1.984.1,3.084a26.78,26.78,0,0,1,0,3.413,10.836,10.836,0,0,1-.257,1.8,3.691,3.691,0,0,1-.75,1.738,1.553,1.553,0,0,1-1.47.473,2.262,2.262,0,0,1-1.316-.761,5.357,5.357,0,0,1-.966-2.653h.216a8.546,8.546,0,0,1-1.3,2.159,3.084,3.084,0,0,1-2.056,1.028,2,2,0,0,1-1.028-.2,1.789,1.789,0,0,1-.925-1.655,1.3,1.3,0,0,1,.339-.8l.113.1a6.6,6.6,0,0,1-2.262,1.645,7.2,7.2,0,0,1-.689.267.9.9,0,0,1-.257,0l.236-.093a6.978,6.978,0,0,0,.679-.3,6.7,6.7,0,0,0,2.18-1.676l.1.1a1.337,1.337,0,0,0-.082,1.542,1.511,1.511,0,0,0,.648.648,1.82,1.82,0,0,0,.977.164,2.889,2.889,0,0,0,1.892-1.028,8.687,8.687,0,0,0,1.234-2.118l.154-.329.072.36a5.141,5.141,0,0,0,.925,2.539,2.056,2.056,0,0,0,1.172.679,1.337,1.337,0,0,0,1.254-.4,3.609,3.609,0,0,0,.7-1.624,13.153,13.153,0,0,0,.247-1.758,28.416,28.416,0,0,0,0-3.383c-.062-1.09-.113-2.118-.093-3.084a13.111,13.111,0,0,1,.329-2.673,7.33,7.33,0,0,1,1.738-3.465,4.245,4.245,0,0,1,1.1-.771Z" transform="translate(-225.095 -82.859)" fill="#455a64"/>
        <path id="Trazado_260137" data-name="Trazado 260137" d="M295.408,102.655l-.082.062-.267.2a4.309,4.309,0,0,1-.442.278,6.1,6.1,0,0,1-.637.319,9.181,9.181,0,0,1-4.462.751,11.772,11.772,0,0,1-6.251-2.385,20.635,20.635,0,0,1-5.326-6.282c-.74-1.265-1.337-2.57-2-3.763a13.715,13.715,0,0,0-2.293-3.2,7.125,7.125,0,0,0-2.971-1.851,5.326,5.326,0,0,0-1.583-.206,5.491,5.491,0,0,0-1.45.267,5.994,5.994,0,0,0-2.18,1.275,6.1,6.1,0,0,0-1.193,1.511,7.691,7.691,0,0,0-.555,1.552.843.843,0,0,1,0-.1c0-.093,0-.2,0-.319a4.885,4.885,0,0,1,.411-1.172,5.738,5.738,0,0,1,1.244-1.542,6.025,6.025,0,0,1,2.221-1.347,5.809,5.809,0,0,1,1.491-.288,5.336,5.336,0,0,1,1.645.2,7.259,7.259,0,0,1,3.084,1.892,13.808,13.808,0,0,1,2.334,3.239c.679,1.2,1.275,2.5,2.056,3.753a20.449,20.449,0,0,0,5.243,6.169,11.762,11.762,0,0,0,6.169,2.406,9.459,9.459,0,0,0,4.411-.668A15.042,15.042,0,0,0,295.408,102.655Z" transform="translate(-224.661 -83.017)" fill="#455a64"/>
        <path id="Trazado_260138" data-name="Trazado 260138" d="M295.812,97.77a1.83,1.83,0,0,1-.37.257,7.444,7.444,0,0,1-1.11.545,10.479,10.479,0,0,1-1.758.555,12.337,12.337,0,0,1-2.241.278,11.957,11.957,0,0,1-2.252-.185,10.455,10.455,0,0,1-1.779-.483,6.489,6.489,0,0,1-1.131-.5c-.257-.134-.391-.216-.38-.236s.586.267,1.573.576a12.944,12.944,0,0,0,1.727.463,13.435,13.435,0,0,0,2.2.154,12.954,12.954,0,0,0,2.2-.247,13.693,13.693,0,0,0,1.748-.494C295.287,98.058,295.791,97.729,295.812,97.77Z" transform="translate(-224.068 -82.697)" fill="#455a64"/>
        <path id="Trazado_260139" data-name="Trazado 260139" d="M269.676,419.007,268.648,442.5s23.534,8.935,23.771,13.294l-45.629-.35.093-36.684Z" transform="translate(-225.137 -73.666)" fill="#455a64"/>
        <path id="Trazado_260140" data-name="Trazado 260140" d="M254.377,439.851a1.871,1.871,0,0,0-1.306,2.118,1.789,1.789,0,0,0,2.056,1.316,1.974,1.974,0,0,0,1.367-2.252,1.851,1.851,0,0,0-2.324-1.121" transform="translate(-224.962 -73.073)" fill="#e0e0e0"/>
        <g id="Grupo_173913" data-name="Grupo 173913" transform="translate(21.653 378.108)" opacity="0.6">
          <path id="Trazado_260141" data-name="Trazado 260141" d="M246.79,454.571l.154-3.7,43.7,1.727s2.056.894,1.779,2.324Z" transform="translate(-246.79 -450.87)" fill="#fff"/>
        </g>
        <path id="Trazado_260142" data-name="Trazado 260142" d="M268.884,441.666c0,.226-1.121.319-2.231,1.028s-1.686,1.635-1.892,1.542.134-1.367,1.48-2.2S268.936,441.46,268.884,441.666Z" transform="translate(-224.633 -73.027)" fill="#263238"/>
        <path id="Trazado_260143" data-name="Trazado 260143" d="M273.493,443.622c0,.216-.915.586-1.686,1.532s-1.028,1.923-1.213,1.912-.35-1.265.627-2.416S273.493,443.417,273.493,443.622Z" transform="translate(-224.472 -72.969)" fill="#263238"/>
        <path id="Trazado_260144" data-name="Trazado 260144" d="M276.007,449.325c-.206,0-.5-1.08.082-2.293s1.624-1.686,1.717-1.5-.555.833-1.028,1.84S276.244,449.3,276.007,449.325Z" transform="translate(-224.323 -72.913)" fill="#263238"/>
        <path id="Trazado_260145" data-name="Trazado 260145" d="M268.55,436.451c-.092.2-1.121-.113-2.375,0s-2.241.463-2.365.278.843-1.028,2.324-1.028S268.663,436.276,268.55,436.451Z" transform="translate(-224.659 -73.189)" fill="#263238"/>
        <path id="Trazado_260146" data-name="Trazado 260146" d="M269.014,436.17a37.733,37.733,0,0,1,.062,5.655l-.185-.278c2.663,1.028,6.169,2.375,9.973,4.113a53.855,53.855,0,0,1,10.117,5.819,10.9,10.9,0,0,1,2.5,2.55c.473.74.411,1.3.339,1.265a3.219,3.219,0,0,0-.586-1.09,12.339,12.339,0,0,0-2.581-2.293,66.943,66.943,0,0,0-10.107-5.562c-3.742-1.758-7.248-3.187-9.86-4.308l-.2-.082v-.2A37.478,37.478,0,0,1,269.014,436.17Z" transform="translate(-224.527 -73.176)" fill="#263238"/>
        <path id="Trazado_260147" data-name="Trazado 260147" d="M240.34,259.65v21.293l8.41,68.011s-2.663,31.872-4.308,49.9c-1.419,15.638.9,42.863.9,42.863h24.912l8.9-90.805,5.531-56.63,10.035-33.548Z" transform="translate(-225.319 -78.142)" fill="#12263f"/>
        <path id="Trazado_260148" data-name="Trazado 260148" d="M284.132,415.214l-6.467,22.557s20.779,14.219,19.977,18.506L253.37,445.205l8.719-35.635Z" transform="translate(-224.952 -73.924)" fill="#455a64"/>
        <path id="Trazado_260149" data-name="Trazado 260149" d="M264.148,431.84a1.871,1.871,0,0,0-1.768,1.758,1.779,1.779,0,0,0,1.717,1.758,1.953,1.953,0,0,0,1.861-1.861,1.84,1.84,0,0,0-1.984-1.635" transform="translate(-224.699 -73.298)" fill="#e0e0e0"/>
        <g id="Grupo_173914" data-name="Grupo 173914" transform="translate(28.366 367.775)" opacity="0.6">
          <path id="Trazado_260150" data-name="Trazado 260150" d="M253.32,444.377l1.028-3.557,42.071,11.947s1.758,1.347,1.182,2.683Z" transform="translate(-253.32 -440.82)" fill="#fff"/>
        </g>
        <path id="Trazado_260151" data-name="Trazado 260151" d="M277.827,437.014c-.062.206-1.162,0-2.406.463s-2.056,1.2-2.211,1.028.463-1.306,1.964-1.8S277.919,436.818,277.827,437.014Z" transform="translate(-224.395 -73.166)" fill="#263238"/>
        <path id="Trazado_260152" data-name="Trazado 260152" d="M281.851,440.005c0,.226-1.028.36-1.995,1.09s-1.419,1.645-1.635,1.583,0-1.326,1.172-2.211S281.892,439.789,281.851,440.005Z" transform="translate(-224.255 -73.073)" fill="#263238"/>
        <path id="Trazado_260153" data-name="Trazado 260153" d="M283,446.091c-.206,0-.236-1.162.617-2.2s1.974-1.265,2.056-1.028-.74.679-1.429,1.542S283.188,446.163,283,446.091Z" transform="translate(-224.122 -72.99)" fill="#263238"/>
        <path id="Trazado_260154" data-name="Trazado 260154" d="M278.718,431.869c-.144.175-1.028-.38-2.3-.6s-2.293-.082-2.354-.288,1.028-.761,2.5-.473S278.861,431.725,278.718,431.869Z" transform="translate(-224.37 -73.337)" fill="#263238"/>
        <path id="Trazado_260155" data-name="Trazado 260155" d="M303.973,261.06l1.141,11.587-1.378,84.1-19.709,67.569-4.781,16.388L253.8,435.915l19.617-174.835Z" transform="translate(-224.94 -78.103)" fill="#12263f"/>
        <path id="Trazado_260156" data-name="Trazado 260156" d="M303.209,357.868a1.4,1.4,0,0,1-.093.4c-.093.267-.185.658-.319,1.162-.3,1.028-.73,2.56-1.285,4.524l-4.884,16.985c-4.215,14.548-10.179,35.1-17.16,59.18l-.062.2h-.2l-25.446-4.781h-.226V435.3c1.3-6.858,2.653-14.013,4.041-21.324,4.113-21.591,7.978-42.041,11.371-59.868v.072c-4.215-26.454-7.577-47.541-9.51-59.632h0l-4.246-7.732-1.028-2c-.247-.442-.36-.679-.36-.679s.144.216.4.658l1.131,1.974,4.328,7.691h0c1.974,12.1,5.418,33.178,9.736,59.632v.072c-3.362,17.838-7.2,38.247-11.309,59.889-1.378,7.3-2.745,14.466-4.041,21.324l-.185-.278,25.436,4.8-.257.154c7.053-24.048,13.068-44.58,17.324-59.118,2.139-7.248,3.845-13,5.007-16.954.586-1.953,1.028-3.465,1.357-4.5l.35-1.152C303.158,358.022,303.209,357.868,303.209,357.868Z" transform="translate(-224.948 -77.454)" fill="#455a64"/>
        <path id="Trazado_260157" data-name="Trazado 260157" d="M298.529,267.77a7.516,7.516,0,0,1-1.378,2.056,19.115,19.115,0,0,1-4.524,3.855,18.364,18.364,0,0,1-5.5,2.241,7.662,7.662,0,0,1-2.437.3,22.9,22.9,0,0,0,13.839-8.431Z" transform="translate(-224.071 -77.914)" fill="#455a64"/>
        <path id="Trazado_260158" data-name="Trazado 260158" d="M351.236,144.374a1.028,1.028,0,0,0-.247-1.481.494.494,0,0,0-.38-.113c-.5.082-1.851,1.028-2.879,1.08s-2.786-.3-3.825.658-3.547,6.169-3.866,7.351-1.439,11.166-1.439,11.166Z" transform="translate(-222.554 -81.431)" fill="#ffbf9d"/>
        <path id="Trazado_260159" data-name="Trazado 260159" d="M355.646,143.05c-.051.062-12.338,5.49-17.746,7.876a1.82,1.82,0,0,0-.524,3h0a1.912,1.912,0,0,0,2.19.35l17.643-8.6,1.46-2.21Z" transform="translate(-222.605 -81.423)" fill="#263238"/>
        <path id="Trazado_260160" data-name="Trazado 260160" d="M342.644,154.114l3.917-2.889,5.141-7.505s2.118-1.265,3.218-.463,1.46,1.707.946,2.735c0,0,2.93.7,3.136,1.676a11.312,11.312,0,0,1-.422,3.362,5.9,5.9,0,0,1,0,2.8,4.5,4.5,0,0,0-.37,1.8s1.892,2.324,1.028,4.688-4.226,7.66-6.056,9.027a39.226,39.226,0,0,1-5.285,3l-2.262,4.74-9.366-8.492Z" transform="translate(-222.62 -81.425)" fill="#ffbf9d"/>
        <path id="Trazado_260161" data-name="Trazado 260161" d="M351.361,144a2.057,2.057,0,0,1-.236.411l-.7,1.028c-.6.894-1.429,2.118-2.365,3.465l-1.316,1.9a4.988,4.988,0,0,1-.679.771,2.9,2.9,0,0,1-.75.483,5.781,5.781,0,0,1-1.213.411,1.8,1.8,0,0,1-.463.082,4.179,4.179,0,0,1,.442-.154,7.266,7.266,0,0,0,1.172-.452c1.028-.432,1.686-1.84,2.653-3.146s1.789-2.56,2.416-3.434l.74-1.028a3.082,3.082,0,0,1,.3-.339Z" transform="translate(-222.412 -81.396)" fill="#ff9a6c"/>
        <path id="Trazado_260162" data-name="Trazado 260162" d="M352.32,151.769a31.32,31.32,0,0,1,1.511-2.951,30.423,30.423,0,0,1,1.676-2.858A27.364,27.364,0,0,1,354,148.911,27.158,27.158,0,0,1,352.32,151.769Z" transform="translate(-222.168 -81.341)" fill="#ff9a6c"/>
        <path id="Trazado_260163" data-name="Trazado 260163" d="M353.578,156.215a.96.96,0,0,0-.134-.411,1.81,1.81,0,0,0-.617-.781,1.686,1.686,0,0,0-.946-.3h-.432a.833.833,0,0,1,.432-.134,1.593,1.593,0,0,1,1.028.278,1.614,1.614,0,0,1,.627.895C353.64,156.04,353.6,156.225,353.578,156.215Z" transform="translate(-222.193 -81.099)" fill="#ff9a6c"/>
        <path id="Trazado_260164" data-name="Trazado 260164" d="M357.825,157.573a2.1,2.1,0,0,1-.38-.267,4.7,4.7,0,0,0-.915-.6,1.737,1.737,0,0,0-1.028-.165c-.267.051-.36.216-.391.2s0-.226.35-.329a1.666,1.666,0,0,1,1.151.123,3.084,3.084,0,0,1,.925.679C357.732,157.419,357.845,157.553,357.825,157.573Z" transform="translate(-222.09 -81.049)" fill="#ff9a6c"/>
        <path id="Trazado_260165" data-name="Trazado 260165" d="M356.12,153.781a7.916,7.916,0,0,1,.864-1.532,8.09,8.09,0,0,1,1.028-1.439,15.606,15.606,0,0,1-1.892,2.971Z" transform="translate(-222.061 -81.205)" fill="#ff9a6c"/>
        <path id="Trazado_260166" data-name="Trazado 260166" d="M348.862,154.044a1.217,1.217,0,0,0-.092-.4,1.491,1.491,0,0,0-.535-.761,1.583,1.583,0,0,0-.884-.267h-.4a.723.723,0,0,1,.391-.154,1.388,1.388,0,0,1,1.563,1.131C348.945,153.92,348.883,154.044,348.862,154.044Z" transform="translate(-222.319 -81.159)" fill="#ff9a6c"/>
        <path id="Trazado_260167" data-name="Trazado 260167" d="M338.871,154.083a2.141,2.141,0,0,0,.339-.493,1.738,1.738,0,0,0,.092-1.367,1.779,1.779,0,0,0-.977-.966c-.339-.144-.576-.134-.576-.165a.894.894,0,0,1,.627,0,1.748,1.748,0,0,1,1.1,1.028,1.7,1.7,0,0,1-.154,1.5C339.107,154,338.881,154.083,338.871,154.083Z" transform="translate(-222.578 -81.198)" fill="#455a64"/>
        <path id="Trazado_260168" data-name="Trazado 260168" d="M307.355,177.478l14.877,12.728,18.249-27.266,11.865,7s-17.787,40.94-22.619,44.559-8.883,2.673-15.093-.185-28.284-25.107-28.284-25.107Z" transform="translate(-224.024 -80.863)" fill="#ffbf9d"/>
        <path id="Trazado_260169" data-name="Trazado 260169" d="M321.777,200.775c-.144,0,.257-2.591.082-5.768s-.843-5.686-.7-5.727a19.586,19.586,0,0,1,.617,11.495Z" transform="translate(-223.045 -80.122)" fill="#ff9a6c"/>
        <path id="Trazado_260170" data-name="Trazado 260170" d="M248.39,156.841s12.636.185,12.821,15.936-3.218,36.828-3.218,36.828l-32.263-5.686s4-29.333,7.423-37.774S243.157,155.412,248.39,156.841Z" transform="translate(-225.73 -81.046)" fill="#81af1d"/>
        <path id="Trazado_260171" data-name="Trazado 260171" d="M254.12,145.8l-.4,2.57S236.477,159.762,235.5,162.7c-1.511,4.555,1.789,43.069,3.239,53.987s1.748,34.957,1.748,34.957c-1.028,2.838-2.262,5.387-2.653,9.346s2.653,7.5,2.653,7.5c18.506,6.035,41.125,1.4,65.554-4.174l-.237-6.93-7.989-75.29s2.334-19.535-7.2-25.23c-1.028-.627-9.377-5.357-9.377-5.357Z" transform="translate(-225.466 -81.346)" fill="#81af1d"/>
        <g id="Grupo_173915" data-name="Grupo 173915" transform="translate(56.383 97.087)" opacity="0.3">
          <path id="Trazado_260172" data-name="Trazado 260172" d="M280.57,177.54a58.326,58.326,0,0,0,5.675,23.226A68.793,68.793,0,0,0,300.752,220.9l-2.591-22.526Z" transform="translate(-280.57 -177.54)"/>
        </g>
        <path id="Trazado_260173" data-name="Trazado 260173" d="M295.12,159.134c-3.023-2.447-8.647-3.784-11.854-1.583a9.592,9.592,0,0,0-3.886,4.791c-2.745,8.009-1.1,16.615,1.09,23.01s12.769,18.692,12.769,18.692L319.4,188.168s-17.478-21.221-19.339-23.421A45.949,45.949,0,0,0,295.12,159.134Z" transform="translate(-224.261 -81.046)" fill="#81af1d"/>
        <path id="Trazado_260174" data-name="Trazado 260174" d="M295.124,159.137a4,4,0,0,1,.555.442,17.771,17.771,0,0,1,1.439,1.46c1.213,1.337,2.807,3.413,4.966,5.953l17.478,21.036.154.2-.206.134-24.675,15.021-1.429.874-.175.1-.134-.154c-2.93-3.455-5.644-6.93-8.081-10.425a54.5,54.5,0,0,1-3.341-5.326,21.87,21.87,0,0,1-1.285-2.776c-.35-.946-.637-1.892-.9-2.827-2.19-7.516-2.241-14.887-.257-20.491a9.633,9.633,0,0,1,5.449-5.624,8.935,8.935,0,0,1,3.259-.38,11.473,11.473,0,0,1,2.7.463,13.283,13.283,0,0,1,3.465,1.522,6.516,6.516,0,0,1,1.028.8,10,10,0,0,0-1.1-.72,13.871,13.871,0,0,0-3.465-1.429,11.864,11.864,0,0,0-2.673-.411,8.7,8.7,0,0,0-8.369,5.881c-1.923,5.542-1.83,12.821.35,20.265.278.925.565,1.871.915,2.8a20.246,20.246,0,0,0,1.265,2.714,54.862,54.862,0,0,0,3.321,5.274c2.426,3.475,5.141,6.94,8.061,10.384l-.308-.051,1.439-.874,24.737-14.98-.051.319L301.9,167.156c-2.128-2.56-3.7-4.678-4.873-6.025a17.4,17.4,0,0,0-1.388-1.5A3.739,3.739,0,0,1,295.124,159.137Z" transform="translate(-224.265 -81.049)" fill="#263238"/>
        <path id="Trazado_260175" data-name="Trazado 260175" d="M235.16,170.72a1.47,1.47,0,0,1,.072.452c0,.36.072.792.123,1.316.093,1.213.206,2.848.35,4.843.267,4.113.617,9.757,1.028,15.957s.833,11.875,1.2,15.946c.185,1.984.339,3.609.452,4.822a12.621,12.621,0,0,0,.113,1.316,2.261,2.261,0,0,1,0,.463,1.726,1.726,0,0,1-.113-.452c-.051-.35-.113-.781-.2-1.3-.175-1.141-.38-2.786-.607-4.822-.452-4.113-.936-9.706-1.347-15.946s-.689-11.885-.874-15.977c-.082-1.984-.144-3.619-.2-4.843v-1.316A1.636,1.636,0,0,1,235.16,170.72Z" transform="translate(-225.465 -80.645)" fill="#263238"/>
        <path id="Trazado_260176" data-name="Trazado 260176" d="M292.773,259.65a2.952,2.952,0,0,1-.483.144l-1.409.35c-.617.144-1.367.308-2.252.473s-1.881.36-3,.535c-2.221.38-4.894.689-7.855.977s-6.251.432-9.7.483-6.724-.1-9.706-.3-5.655-.5-7.876-.874c-1.121-.144-2.128-.339-3-.5s-1.645-.308-2.252-.463l-1.419-.339a1.749,1.749,0,0,1-.483-.154,3.094,3.094,0,0,1,.5.062l1.429.247c.617.123,1.378.257,2.262.38s1.892.308,3,.442c2.231.319,4.894.545,7.865.761s6.231.278,9.664.257,6.7-.216,9.664-.432,5.624-.545,7.845-.884c1.121-.144,2.128-.308,3-.463s1.645-.267,2.262-.391l1.429-.257A1.7,1.7,0,0,1,292.773,259.65Z" transform="translate(-225.235 -78.142)" fill="#263238"/>
      </g>
    </g>
  </g>
</svg>
