<svg xmlns="http://www.w3.org/2000/svg" width="820" height="199" viewBox="0 0 820 199">
  <g id="Grupo_224035" data-name="Grupo 224035" transform="translate(-390 -10559)">
    <rect id="Rectángulo_44744" data-name="Rectángulo 44744" width="255" height="199" transform="translate(390 10559)" fill="#f9f7ec"/>
    <rect id="Rectángulo_44746" data-name="Rectángulo 44746" width="256" height="199" transform="translate(672 10559)" fill="#f9f7ec"/>
    <rect id="Rectángulo_44747" data-name="Rectángulo 44747" width="255" height="199" transform="translate(955 10559)" fill="#f9f7ec"/>
    <g id="Grupo_173979" data-name="Grupo 173979" transform="translate(642.911 10269.377)">
      <path id="Trazado_252792" data-name="Trazado 252792" d="M154.008,380.321c-1.366-.209-1.829-.724-1.831-2.1-.009-3.415-.026-6.83.011-10.248.011-.969-.209-1.227-1.249-1.014a56.9,56.9,0,0,1-13.375.67,30.562,30.562,0,0,0-10.468,1c-.179.058-.359.113-.536.182-3.2,1.2-3.341,1.5-2.314,4.687q2.574,7.966,5.127,15.938c.092.282.2.557.312.86,1.323,0,2.613-.013,3.9,0a2.808,2.808,0,0,1,2.916,3.343,13.512,13.512,0,0,1-12.218,11.674,49.654,49.654,0,0,1-12.6-.25,13.621,13.621,0,0,1-10.512-10.839c-.435-2.493.773-3.928,3.315-3.93,1.138,0,2.275,0,3.481,0,.984-3.027,1.968-6.03,2.937-9.042,1.037-3.23,2.043-6.472,3.1-9.7a1.97,1.97,0,0,0-.094-1.68,4.657,4.657,0,0,1,.664-5.486c2.9-3.4,6.754-5.149,10.982-6.19a33.9,33.9,0,0,1,8.22-.933c3.569.011,7.138.006,10.7.011a29.236,29.236,0,0,0,4.288-.482,1.388,1.388,0,0,0,.22-.055,14.785,14.785,0,0,0,3.178-4.382q0-8.085,0-16.169c0-3.285,2.186-5.582,5.279-5.571,3,.009,5.183,2.335,5.185,5.554q.01,8.084-.009,16.169a1.66,1.66,0,0,0,.617,1.46,5.407,5.407,0,0,1,1.39,1.633,2.616,2.616,0,0,0,2.171,1.5,47.955,47.955,0,0,0,7.6.361,99.231,99.231,0,0,1,10.807.209c5.089.6,9.842,2.043,13.753,5.552,1.607,1.443,2.856,3.067,2.412,5.428a1.89,1.89,0,0,1-.213.753c-.841,1.133-.414,2.231-.036,3.388,1.842,5.629,3.644,11.268,5.462,16.905.079.248.175.489.275.764,1.285,0,2.536-.009,3.787,0,2.017.015,3.268,1.227,3,3.24-.685,5.2-3.607,8.773-8.372,10.873a12.867,12.867,0,0,1-5.2,1.044c-3.223.006-6.45.145-9.674-.113a13.708,13.708,0,0,1-12.13-11.8,2.819,2.819,0,0,1,2.818-3.238c.681-.017,1.366,0,2.049,0h2c1.072-3.308,2.143-6.6,3.206-9.891.924-2.871,1.8-5.759,2.783-8.608a1.365,1.365,0,0,0-.655-1.861,15.66,15.66,0,0,0-7.422-2.194c-3.68-.339-7.36.006-11.04-.015a40.19,40.19,0,0,1-8.248-.792c-.9-.194-1.161.026-1.15.911.034,2.544.013,5.087.013,7.629v50.641h1.178q8.315,0,16.628,0c5.524,0,9.02,3.49,9.031,9,0,.647,0,1.291,0,1.936.384.307.815.156,1.212.156q9.679.019,19.36.011c2.252,0,3.4,1.151,3.419,3.422.011.835-.064,1.678.017,2.5a3.788,3.788,0,0,1-2.088,4.1H196.817c-.48-.527-1.061-1-.993-1.825a1.882,1.882,0,0,1,2.126-1.594c2.922.036,5.844.013,8.766.013h3.253v-3.157H104.816v3.157H106.2q41.386,0,82.772-.019a2.114,2.114,0,0,1,2.393,1.592,2.292,2.292,0,0,1-1.155,1.834h-86.8a3.79,3.79,0,0,1-2.09-4.092c.09-.939,0-1.9.023-2.843a2.969,2.969,0,0,1,3.176-3.084q9.961-.016,19.917,0h.892c0-.813,0-1.558,0-2.3.028-5.221,3.56-8.777,8.771-8.794,5.575-.017,11.153,0,16.73,0h1.336v-1.291q0-18.833,0-37.666c0-1.573.363-2.028,1.842-2.35,1.229.324,1.6,1.14,1.6,2.374q-.045,18.775-.013,37.548a2.76,2.76,0,0,0,.128,1.375h3.417V368.671a8.88,8.88,0,0,1-3.552.024c0,3.234-.021,6.378.013,9.52A1.84,1.84,0,0,1,154.008,380.321Zm31.868,56.842a33.191,33.191,0,0,0-.026-3.665,4.56,4.56,0,0,0-4.094-3.806c-.681-.053-1.366-.047-2.049-.047q-22.717,0-45.435,0a12.631,12.631,0,0,0-1.364.049,4.584,4.584,0,0,0-3.957,3.823,34.511,34.511,0,0,0-.023,3.646Zm-3.987-43.41a9.97,9.97,0,0,0,9.129,8.154c3.108.107,6.222.055,9.332.036a9.811,9.811,0,0,0,6.529-2.527,9.324,9.324,0,0,0,3.23-5.663Zm-77.131,0c.376,4.068,4.69,8,9.033,8.152,3.332.113,6.675.113,10.007,0a9.964,9.964,0,0,0,9.119-8.154Zm21.228-3.475-5.62-17.509h-3.1l-5.62,17.509Zm71.564-17.488h-3.11l-5.612,17.49h14.335Zm-48.859-12.429a52.645,52.645,0,0,1-9.17.384,54.049,54.049,0,0,0-12.229.636c-3.686.764-7.1,2.092-9.772,4.9a1.728,1.728,0,0,0-.553,2.036,1.954,1.954,0,0,0,1.994,1.033,2.481,2.481,0,0,0,1.876-.911,10.8,10.8,0,0,1,4.339-2.809c3.65-1.377,7.462-1.53,11.3-1.5,3.334.032,6.67.254,10-.03.993-.085,1.979-.237,3.031-.365A10.724,10.724,0,0,1,148.691,360.359Zm16.662,3.394c1.084.124,2.083.263,3.089.35,4.207.367,8.423-.145,12.628.055,4.892.235,9.695.762,13.343,4.666a2.251,2.251,0,0,0,3.18-.2c.664-.732.523-1.526-.508-2.549-3.5-3.477-7.955-4.649-12.666-5.159-6.075-.657-12.192.393-18.31-.555A12.257,12.257,0,0,1,165.353,363.753ZM157.4,354.98a5.227,5.227,0,0,0-5.23,5.17,5.228,5.228,0,1,0,5.23-5.17Zm1.686-3.4a2.174,2.174,0,0,0,.12-1.153q.013-5.975,0-11.951c0-.835.03-1.671-.009-2.5a1.832,1.832,0,0,0-1.823-1.928,1.852,1.852,0,0,0-1.78,1.972c-.006.115,0,.228,0,.341q0,7.23,0,14.457c0,.256-.075.534.13.764Z" transform="translate(0 0)" fill="#0b0a09"/>
      <path id="Trazado_252793" data-name="Trazado 252793" d="M142.842,386.232A2.291,2.291,0,0,0,144,384.4l4.459.006c-.068.826.512,1.3.993,1.825Z" transform="translate(47.369 61.012)" fill="#fff"/>
      <path id="Trazado_252794" data-name="Trazado 252794" d="M125.881,360.1a1.84,1.84,0,0,0,1.6-2.107c-.034-3.142-.013-6.286-.013-9.52a8.88,8.88,0,0,0,3.552-.024v57.438H127.6a2.761,2.761,0,0,1-.128-1.375q-.01-18.775.013-37.548c0-1.234-.369-2.049-1.6-2.374Q125.886,362.345,125.881,360.1Z" transform="translate(28.127 20.223)" fill="#feb150"/>
      <path id="Trazado_252795" data-name="Trazado 252795" d="M171.1,384.533H114.152a34.511,34.511,0,0,1,.023-3.646,4.584,4.584,0,0,1,3.957-3.823,12.631,12.631,0,0,1,1.364-.049q22.72,0,45.435,0c.683,0,1.368-.006,2.049.047a4.56,4.56,0,0,1,4.094,3.806A33.187,33.187,0,0,1,171.1,384.533Z" transform="translate(14.775 52.63)" fill="#feb150"/>
      <path id="Trazado_252796" data-name="Trazado 252796" d="M193.844,386.923l-4.459-.006a2.114,2.114,0,0,0-2.393-1.595q-41.386.035-82.772.019h-1.385v-3.157H207.99v3.157h-3.253c-2.922,0-5.844.023-8.766-.013A1.882,1.882,0,0,0,193.844,386.923Z" transform="translate(1.981 58.497)" fill="#feb150"/>
      <path id="Trazado_252797" data-name="Trazado 252797" d="M138.943,360.2h28.22a9.324,9.324,0,0,1-3.23,5.663,9.811,9.811,0,0,1-6.529,2.527c-3.11.019-6.224.07-9.332-.036A9.969,9.969,0,0,1,138.943,360.2Z" transform="translate(42.946 33.554)" fill="#feb150"/>
      <path id="Trazado_252798" data-name="Trazado 252798" d="M102.808,360.2h28.158a9.964,9.964,0,0,1-9.119,8.154c-3.332.111-6.675.111-10.007,0C107.5,368.2,103.184,364.266,102.808,360.2Z" transform="translate(1.95 33.553)" fill="#feb150"/>
      <path id="Trazado_252799" data-name="Trazado 252799" d="M120.372,367.876H106.037l5.62-17.509h3.1Z" transform="translate(5.613 22.4)" fill="#fff"/>
      <path id="Trazado_252800" data-name="Trazado 252800" d="M150.916,350.377l5.614,17.49H142.194l5.612-17.49Z" transform="translate(46.634 22.411)" fill="#fff"/>
      <path id="Trazado_252801" data-name="Trazado 252801" d="M140.332,344.554a10.724,10.724,0,0,0,.813,3.377c-1.052.128-2.038.28-3.031.365-3.33.284-6.666.062-10,.03-3.834-.034-7.646.12-11.3,1.5a10.8,10.8,0,0,0-4.339,2.809,2.481,2.481,0,0,1-1.876.911,1.954,1.954,0,0,1-1.994-1.033,1.728,1.728,0,0,1,.553-2.036c2.672-2.807,6.085-4.134,9.772-4.9a54.051,54.051,0,0,1,12.229-.636A52.644,52.644,0,0,0,140.332,344.554Z" transform="translate(8.358 15.805)" fill="#feb150"/>
      <path id="Trazado_252802" data-name="Trazado 252802" d="M131.2,347.944a12.257,12.257,0,0,0,.756-3.387c6.118.948,12.235-.1,18.31.555,4.711.51,9.163,1.682,12.666,5.159,1.031,1.022,1.172,1.816.508,2.549a2.251,2.251,0,0,1-3.18.2c-3.648-3.9-8.451-4.431-13.343-4.666-4.2-.2-8.421.312-12.628-.055C133.279,348.207,132.28,348.068,131.2,347.944Z" transform="translate(34.157 15.808)" fill="#feb150"/>
      <path id="Trazado_252803" data-name="Trazado 252803" d="M130.25,342.034a5.245,5.245,0,0,1,5.225,5.183,5.228,5.228,0,1,1-10.455-.013A5.227,5.227,0,0,1,130.25,342.034Z" transform="translate(27.15 12.946)" fill="#b0afb0"/>
      <path id="Trazado_252804" data-name="Trazado 252804" d="M130.12,349.759h-3.355c-.2-.231-.13-.508-.13-.764q-.006-7.23,0-14.457c0-.113,0-.226,0-.341a1.852,1.852,0,0,1,1.78-1.972,1.832,1.832,0,0,1,1.823,1.927c.038.832.009,1.669.009,2.5q0,5.978,0,11.951A2.174,2.174,0,0,1,130.12,349.759Z" transform="translate(28.966 1.816)" fill="#feb150"/>
    </g>
    <g id="Grupo_173980" data-name="Grupo 173980" transform="translate(523.928 -1167.553)">
      <path id="Trazado_252805" data-name="Trazado 252805" d="M103.162,413.4a2.929,2.929,0,0,1,2.578-1.156q50.1.027,100.191.015c1.7,0,2.149.33,2.631,1.858-.532,1.594-.915,1.86-2.755,1.86H149.244V431.7h73.7v-15.66H220.6c-1.665-.023-3.333-.038-5-.071-1.478-.03-1.969-.439-2.3-1.868.317-1.374.826-1.83,2.231-1.84,2.976-.023,5.949-.028,8.922,0,1.531.015,2.17.7,2.172,2.233q0,9.4,0,18.808c0,1.47-.621,2.089-2.114,2.157-.241.01-.482,0-.722,0q-58.895,0-117.787.013a3.113,3.113,0,0,1-2.844-1.1Zm3.675,18.248H145.48V416.037H106.837Z" transform="translate(393.911 11388.928)" fill="#060607"/>
      <path id="Trazado_252806" data-name="Trazado 252806" d="M125.1,401.267c.479-1.582.854-1.871,2.466-1.871q48.332,0,96.662,0c1.812,0,2.405.575,2.405,2.334q0,9.281,0,18.559c0,1.643-.6,2.243-2.238,2.243q-59.48,0-118.961.018a2.347,2.347,0,0,1-2.269-1.222V400.59a2.526,2.526,0,0,1,2.408-1.217c4.17.051,8.342.018,12.514.023,1.493,0,1.98.4,2.317,1.855a1.967,1.967,0,0,1-2.271,1.784c-1.523-.051-3.049-.01-4.573-.01h-6.735v15.807h38.706v-2.36l0-.469V403.046h-18.7C125.777,402.912,125.379,402.144,125.1,401.267ZM149.251,416.5v2.362h73.68V403.087h-2.35c-.36-.015-.72-.048-1.08-.048q-34.535,0-69.069,0c-.322,0-.641.02-.963.033-.167-.058-.233.005-.215.175Z" transform="translate(393.911 11369.18)" fill="#060607"/>
      <path id="Trazado_252807" data-name="Trazado 252807" d="M103.162,436.7a3.386,3.386,0,0,1,2.758-.989c6.028.048,12.055.023,18.083.025,1.691,0,2.3.613,2.3,2.327q.008,9.22,0,18.445c0,1.741-.636,2.365-2.4,2.365-6.106,0-12.215-.02-18.324.02a2.543,2.543,0,0,1-2.413-1.214Zm3.7,2.7v15.8h15.758V439.4Z" transform="translate(393.911 11424.947)" fill="#060607"/>
      <path id="Trazado_252808" data-name="Trazado 252808" d="M103.162,425.8a2.488,2.488,0,0,1,2.411-1.219c6.106.041,12.215.018,18.321.02,1.784,0,2.408.606,2.408,2.352q.008,9.224,0,18.445c0,1.751-.613,2.342-2.411,2.345-6.106,0-12.215-.02-18.321.02a2.457,2.457,0,0,1-2.408-1.224Zm3.673,18.222h15.746V428.291H106.835Z" transform="translate(393.911 11407.871)" fill="#060607"/>
      <path id="Trazado_252809" data-name="Trazado 252809" d="M185.4,412.975c.327,1.43.819,1.838,2.3,1.868,1.668.033,3.336.048,5,.071,0,3.5.005,6.993-.005,10.489a2.537,2.537,0,0,1-2.755,2.783q-34.3,0-68.6-.008V414.846H177.9c1.84,0,2.223-.266,2.755-1.86Zm-12.839,4.8c-4.9,0-9.8.008-14.7-.005a2,2,0,0,0-1.97.885c-.806,1.376.221,2.755,2.076,2.755q14.459.008,28.916,0c1.463,0,2.357-.707,2.365-1.828.005-1.143-.837-1.8-2.35-1.8Q179.732,417.773,172.564,417.778Zm-7.384,6.309c-2.446,0-4.892-.008-7.338,0-1.369.005-2.231.73-2.22,1.83s.844,1.789,2.238,1.789q7.277.011,14.555,0c1.392,0,2.205-.687,2.2-1.812s-.824-1.8-2.215-1.807C169.991,424.08,167.586,424.087,165.18,424.087Z" transform="translate(421.812 11390.056)" fill="#c0bfbf"/>
      <path id="Trazado_252810" data-name="Trazado 252810" d="M104.606,415.355V401.888h6.735c1.523,0,3.049-.04,4.573.01a1.967,1.967,0,0,0,2.271-1.784l4.694.015c.284.877.682,1.645,1.731,1.779.385.33.847.18,1.272.183,5.376.01,10.75.025,16.126-.013.892-.005,1.176.246,1.163,1.153-.048,3.45-.023,6.9-.013,10.349,0,.428-.129.885.155,1.285l0,.469Z" transform="translate(396.127 11370.317)" fill="#8acfeb"/>
      <path id="Trazado_252811" data-name="Trazado 252811" d="M128.022,435.719q4.574,0,9.153,0c1.693,0,2.365.624,2.367,2.276q.019,9.273,0,18.547c0,1.64-.71,2.312-2.362,2.314q-9.273,0-18.547,0c-1.61,0-2.269-.629-2.271-2.246q-.023-9.334,0-18.666c0-1.64.629-2.223,2.264-2.225Q123.325,435.714,128.022,435.719Zm7.733,19.441V439.41H120.129v15.751Z" transform="translate(414.152 11424.961)" fill="#060607"/>
      <path id="Trazado_252812" data-name="Trazado 252812" d="M127.868,447.734c-3.09,0-6.182,0-9.272,0-1.561,0-2.228-.608-2.231-2.147q-.03-9.395,0-18.788c.005-1.612.656-2.2,2.3-2.205q9.273,0,18.547,0c1.653,0,2.327.667,2.329,2.337q.015,9.212,0,18.428c0,1.741-.657,2.375-2.4,2.378Q132.5,447.738,127.868,447.734Zm-7.751-19.457v15.748h15.652V428.278Z" transform="translate(414.151 11407.881)" fill="#060607"/>
      <path id="Trazado_252813" data-name="Trazado 252813" d="M141.174,458.859q-4.635,0-9.272,0c-1.658,0-2.36-.672-2.362-2.312q-.015-9.273,0-18.547c0-1.617.669-2.276,2.243-2.279q9.4-.008,18.79,0c1.478,0,2.139.613,2.144,2.1q.03,9.456,0,18.909c-.005,1.516-.7,2.122-2.269,2.127Q145.81,458.867,141.174,458.859Zm7.789-3.7V439.433H133.352v15.723Z" transform="translate(434.382 11424.961)" fill="#060607"/>
      <path id="Trazado_252814" data-name="Trazado 252814" d="M141.314,424.592q4.574,0,9.153,0c1.6.005,2.251.631,2.253,2.258q.023,9.334,0,18.666c-.005,1.62-.649,2.215-2.286,2.215q-9.273.008-18.547,0c-1.67,0-2.345-.646-2.347-2.309q-.015-9.273,0-18.547c0-1.632.7-2.281,2.38-2.284Q136.616,424.589,141.314,424.592Zm-8.043,19.459h15.71V428.28h-15.71Z" transform="translate(434.381 11407.881)" fill="#060607"/>
      <path id="Trazado_252815" data-name="Trazado 252815" d="M154.412,435.72q4.635,0,9.275,0c1.572,0,2.2.611,2.2,2.157q.008,9.395,0,18.787c0,1.541-.644,2.19-2.185,2.19q-9.4.011-18.79,0a1.878,1.878,0,0,1-2.16-2.116q-.015-9.456,0-18.909c0-1.455.677-2.1,2.147-2.109C148.068,435.715,151.241,435.72,154.412,435.72Zm7.782,19.457V439.436H146.471v15.741Z" transform="translate(454.656 11424.961)" fill="#060607"/>
      <path id="Trazado_252816" data-name="Trazado 252816" d="M165.883,436.156q0,4.7,0,9.394c-.005,1.554-.626,2.18-2.182,2.182q-9.4.008-18.79,0c-1.516,0-2.162-.667-2.165-2.22q-.008-9.334,0-18.668c0-1.6.654-2.248,2.264-2.248q9.334-.008,18.668,0c1.569,0,2.2.624,2.205,2.165C165.891,429.892,165.883,433.023,165.883,436.156Zm-3.7,7.911V428.311H146.434v15.756Z" transform="translate(454.657 11407.881)" fill="#060607"/>
      <path id="Trazado_252817" data-name="Trazado 252817" d="M104.612,429.344V413.738h38.642v15.606Z" transform="translate(396.136 11391.227)" fill="#e86673"/>
      <path id="Trazado_252818" data-name="Trazado 252818" d="M121.342,427q34.3,0,68.6.008a2.537,2.537,0,0,0,2.755-2.783c.01-3.5.005-6.993.005-10.489h2.342V429.4h-73.7Z" transform="translate(421.812 11391.229)" fill="#9a9a9a"/>
      <path id="Trazado_252819" data-name="Trazado 252819" d="M121.563,400.853c.322-.013.641-.033.963-.033q34.535,0,69.069,0c.36,0,.72.033,1.08.048q.011,5.125.018,10.245c0,2.223-.933,3.168-3.13,3.168l-68.218,0q0-6.627,0-13.252Zm50.872,2.9H171.35c-4.459,0-8.915-.008-13.371,0-1.463,0-2.357.717-2.36,1.835s.88,1.8,2.355,1.843c.122,0,.241,0,.362,0q14.094,0,28.189-.005a5.724,5.724,0,0,0,1.43-.137,1.651,1.651,0,0,0,1.27-1.7,1.625,1.625,0,0,0-1.156-1.66,4.752,4.752,0,0,0-1.419-.175Q179.54,403.743,172.435,403.753Zm-7.348,6.385c-2.405,0-4.811-.008-7.214,0-1.4.005-2.243.674-2.253,1.767a1.957,1.957,0,0,0,2.208,1.866q7.273.023,14.549,0c1.4-.005,2.21-.7,2.231-1.82s-.781-1.807-2.185-1.815C169.977,410.128,167.533,410.138,165.087,410.138Z" transform="translate(421.817 11371.397)" fill="#c0bfbf"/>
      <path id="Trazado_252820" data-name="Trazado 252820" d="M121.345,414.249l68.218,0c2.2,0,3.128-.946,3.13-3.168q0-5.122-.018-10.245h2.35v15.774h-73.68Z" transform="translate(421.817 11371.429)" fill="#9a9a9a"/>
      <path id="Trazado_252821" data-name="Trazado 252821" d="M104.606,406.139l38.706-.02v2.36H104.606Z" transform="translate(396.127 11379.533)" fill="#2fb3e3"/>
      <path id="Trazado_252822" data-name="Trazado 252822" d="M131.2,413.78c-.284-.4-.152-.857-.155-1.285-.01-3.45-.035-6.9.013-10.349.013-.907-.271-1.158-1.163-1.153-5.376.038-10.75.023-16.126.013-.426,0-.887.147-1.272-.183h18.7Z" transform="translate(408.239 11371.403)" fill="#2fb3e3"/>
      <path id="Trazado_252823" data-name="Trazado 252823" d="M121.563,400.845l-.215.175C121.33,400.85,121.4,400.786,121.563,400.845Z" transform="translate(421.817 11371.405)" fill="#9a9a9a"/>
      <path id="Trazado_252824" data-name="Trazado 252824" d="M104.623,437.164h15.758v15.8H104.623Z" transform="translate(396.153 11427.179)" fill="#174290"/>
      <path id="Trazado_252825" data-name="Trazado 252825" d="M104.611,441.779V426.046h15.746v15.733Z" transform="translate(396.135 11410.115)" fill="#e86673"/>
      <path id="Trazado_252826" data-name="Trazado 252826" d="M151.811,414.873q7.171,0,14.339,0c1.513,0,2.355.661,2.35,1.8-.008,1.12-.9,1.828-2.365,1.828q-14.456.008-28.916,0c-1.855,0-2.882-1.379-2.076-2.755a2,2,0,0,1,1.97-.885C142.011,414.881,146.911,414.873,151.811,414.873Z" transform="translate(442.566 11392.96)" fill="#060607"/>
      <path id="Trazado_252827" data-name="Trazado 252827" d="M144.425,417.361c2.405,0,4.811-.008,7.216,0,1.392.005,2.208.684,2.215,1.807s-.806,1.81-2.2,1.812q-7.277.011-14.555,0c-1.394,0-2.231-.687-2.238-1.79s.852-1.825,2.22-1.83C139.533,417.353,141.979,417.361,144.425,417.361Z" transform="translate(442.568 11396.781)" fill="#060607"/>
      <path id="Trazado_252828" data-name="Trazado 252828" d="M133.468,452.926H117.841V437.175h15.627Z" transform="translate(416.439 11427.196)" fill="#c32f81"/>
      <path id="Trazado_252829" data-name="Trazado 252829" d="M117.836,426.045h15.652v15.748H117.836Z" transform="translate(416.431 11410.114)" fill="#ffd944"/>
      <path id="Trazado_252830" data-name="Trazado 252830" d="M146.65,452.907H131.039V437.184H146.65Z" transform="translate(436.695 11427.21)" fill="#f89107"/>
      <path id="Trazado_252831" data-name="Trazado 252831" d="M131.007,441.817V426.046h15.71v15.771Z" transform="translate(436.646 11410.115)" fill="#8acfeb"/>
      <path id="Trazado_252832" data-name="Trazado 252832" d="M159.936,452.926H144.213V437.185h15.723Z" transform="translate(456.913 11427.212)" fill="#febd6d"/>
      <path id="Trazado_252833" data-name="Trazado 252833" d="M159.95,441.814H144.2V426.058H159.95Z" transform="translate(456.892 11410.135)" fill="#b4c853"/>
      <path id="Trazado_252834" data-name="Trazado 252834" d="M151.683,401.978q7.106,0,14.215.005a4.75,4.75,0,0,1,1.419.175,1.625,1.625,0,0,1,1.156,1.66,1.651,1.651,0,0,1-1.27,1.7,5.723,5.723,0,0,1-1.43.137q-14.094.011-28.189.005c-.122,0-.241,0-.362,0-1.475-.038-2.357-.73-2.355-1.843s.9-1.833,2.36-1.835c4.456-.01,8.912,0,13.371,0Z" transform="translate(442.57 11373.173)" fill="#060607"/>
      <path id="Trazado_252835" data-name="Trazado 252835" d="M144.334,404.5c2.446,0,4.89-.01,7.336,0,1.4.008,2.205.69,2.185,1.815s-.831,1.815-2.231,1.82q-7.273.019-14.549,0a1.957,1.957,0,0,1-2.208-1.866c.01-1.092.849-1.762,2.253-1.767C139.523,404.49,141.929,404.5,144.334,404.5Z" transform="translate(442.57 11377.038)" fill="#060607"/>
    </g>
    <g id="Grupo_173981" data-name="Grupo 173981" transform="translate(-32.653 -1032)">
      <g id="Grupo_149398" data-name="Grupo 149398" transform="translate(566.345 11701.071)">
        <path id="Trazado_252836" data-name="Trazado 252836" d="M137.24,293.591h30.2v17.234l-3.427,9.539V341.14H141.1V320.364l-3.979-9.539Z" transform="translate(-137.116 -293.591)" fill="#ffcb1f" stroke="#040405" stroke-linecap="round" stroke-linejoin="round" stroke-width="2"/>
        <rect id="Rectángulo_44534" data-name="Rectángulo 44534" width="25.565" height="9.206" transform="translate(2.454 1.648)" fill="#fff"/>
      </g>
      <g id="Grupo_149399" data-name="Grupo 149399" transform="translate(502.653 11632)">
        <path id="Trazado_252837" data-name="Trazado 252837" d="M109.5,269.936h54.76v98.939H109.5Z" transform="translate(-107.795 -253.962)" fill="#8bd0eb"/>
        <path id="Trazado_252838" data-name="Trazado 252838" d="M131.746,269.936h4.831v98.939h-4.831Z" transform="translate(-80.108 -253.962)" fill="#29b5e7"/>
        <path id="Trazado_252839" data-name="Trazado 252839" d="M153.533,273.011v41.418H112.578V273.011Z" transform="translate(-103.967 -250.135)" fill="#b5c853"/>
        <path id="Trazado_252840" data-name="Trazado 252840" d="M149.163,273.011v34.744a2.3,2.3,0,0,1-2.3,2.3H112.578v4.373h40.955V273.011Z" transform="translate(-103.967 -250.135)" fill="#93b61f"/>
        <circle id="Elipse_6228" data-name="Elipse 6228" cx="5.522" cy="5.522" r="5.522" transform="translate(8.611 74.647)" fill="#e86673"/>
        <circle id="Elipse_6229" data-name="Elipse 6229" cx="5.522" cy="5.522" r="5.522" transform="translate(38.522 74.647)" fill="#e86673"/>
        <path id="Trazado_252841" data-name="Trazado 252841" d="M140.663,276.086h13.805V308.9H140.663Z" transform="translate(-69.009 -246.307)" fill="#c1c0c0"/>
        <path id="Trazado_252842" data-name="Trazado 252842" d="M145.174,276.086h3.681V308.9h-3.681Z" transform="translate(-63.394 -246.307)" fill="#9a9b9b"/>
        <path id="Trazado_252843" data-name="Trazado 252843" d="M142.2,291.462h6.9v16.566h-6.9Z" transform="translate(-67.094 -227.168)" fill="#645b67"/>
        <path id="Trazado_252844" data-name="Trazado 252844" d="M141.688,271.781h9.206v9.664h-9.206Z" transform="translate(-67.733 -251.666)" fill="#443e46"/>
        <path id="Trazado_252845" data-name="Trazado 252845" d="M142.2,291.462h6.9v2.415h-6.9Z" transform="translate(-67.094 -227.168)" fill="#564d55"/>
        <path id="Trazado_252846" data-name="Trazado 252846" d="M113.525,300.574a1.709,1.709,0,0,0-1.708,1.708v13.094a1.709,1.709,0,0,0,1.708,1.708h40.955a1.708,1.708,0,0,0,1.708-1.708V273.958a1.708,1.708,0,0,0-1.708-1.708H113.525a1.709,1.709,0,0,0-1.708,1.708v20.25a1.708,1.708,0,0,0,3.416,0V275.667h37.539v38H115.233V302.282a1.709,1.709,0,0,0-1.708-1.708Z" transform="translate(-104.914 -251.082)" fill="#040506"/>
        <path id="Trazado_252847" data-name="Trazado 252847" d="M119.047,309.774a7.23,7.23,0,1,0-7.23-7.23A7.239,7.239,0,0,0,119.047,309.774Zm0-11.044a3.814,3.814,0,1,1-3.814,3.814A3.819,3.819,0,0,1,119.047,298.729Z" transform="translate(-104.914 -222.375)" fill="#040506"/>
        <path id="Trazado_252848" data-name="Trazado 252848" d="M132.372,295.313a7.23,7.23,0,1,0,7.23,7.23A7.239,7.239,0,0,0,132.372,295.313Zm0,11.044a3.814,3.814,0,1,1,3.814-3.814A3.818,3.818,0,0,1,132.372,306.357Z" transform="translate(-88.328 -222.375)" fill="#040506"/>
        <path id="Trazado_252849" data-name="Trazado 252849" d="M129.8,295.313h-9.2a1.708,1.708,0,1,0,0,3.416h9.2a1.708,1.708,0,1,0,0-3.416Z" transform="translate(-96.112 -222.375)" fill="#040506"/>
        <path id="Trazado_252850" data-name="Trazado 252850" d="M129.8,300.233h-9.2a1.708,1.708,0,1,0,0,3.416h9.2a1.708,1.708,0,1,0,0-3.416Z" transform="translate(-96.112 -216.251)" fill="#040506"/>
        <path id="Trazado_252851" data-name="Trazado 252851" d="M117.625,294.85a1.709,1.709,0,0,0,1.708-1.708v-5.194h7.5a1.71,1.71,0,0,0,1.708-1.71v-9.2a1.709,1.709,0,0,0-1.708-1.708h-9.2a1.709,1.709,0,0,0-1.708,1.708v16.108a1.709,1.709,0,0,0,1.708,1.708Zm1.708-16.108h5.787v5.787h-5.787Z" transform="translate(-99.811 -247.255)" fill="#040506"/>
        <path id="Trazado_252852" data-name="Trazado 252852" d="M124.6,277.375a1.709,1.709,0,0,0-1.708,1.708V290.59a1.708,1.708,0,1,0,3.416,0v-3.814h3.486v3.814a1.708,1.708,0,1,0,3.417,0v-5.524a1.708,1.708,0,0,0-1.708-1.708H126.3v-4.274a1.709,1.709,0,0,0-1.708-1.708Z" transform="translate(-91.135 -244.703)" fill="#040506"/>
        <path id="Trazado_252853" data-name="Trazado 252853" d="M117.625,288.479h15.646a1.708,1.708,0,0,0,0-3.417H117.625a1.708,1.708,0,0,0,0,3.417Z" transform="translate(-99.811 -235.133)" fill="#040506"/>
        <path id="Trazado_252854" data-name="Trazado 252854" d="M117.625,291.042h7.592a1.708,1.708,0,0,0,0-3.417h-7.592a1.708,1.708,0,1,0,0,3.417Z" transform="translate(-99.811 -231.943)" fill="#040506"/>
        <path id="Trazado_252855" data-name="Trazado 252855" d="M194.5,303.43a1.709,1.709,0,0,0,1.708-1.708V292.6a1.709,1.709,0,0,0-1.708-1.708h-.593v-7.955a1.71,1.71,0,0,0-1.71-1.708H189.3v-7.5a10.922,10.922,0,0,0-10.912-10.912H163.141a10.924,10.924,0,0,0-10.912,10.912v3.354H110.45a1.709,1.709,0,0,0-1.708,1.708v69.845a1.708,1.708,0,1,0,3.417,0V280.5H163.5v95.523H112.159v-19.2a1.708,1.708,0,0,0-3.417,0v20.905a1.708,1.708,0,0,0,1.708,1.708h54.76a1.706,1.706,0,0,0,1.708-1.708V278.794a1.708,1.708,0,0,0-1.708-1.708h-9.565v-3.354a7.5,7.5,0,0,1,7.5-7.5h15.251a7.5,7.5,0,0,1,7.5,7.5v7.5h-2.893a1.709,1.709,0,0,0-1.708,1.708v7.955h-.593a1.709,1.709,0,0,0-1.708,1.708v32.807a1.709,1.709,0,0,0,1.708,1.708h1.744v16.631a1.708,1.708,0,0,0,1.708,1.708h1.742v7.955a1.708,1.708,0,1,0,3.416,0v-7.955h1.744a1.709,1.709,0,0,0,1.708-1.708V327.114H194.5a1.708,1.708,0,0,0,1.708-1.708v-15.63a1.708,1.708,0,1,0-3.416,0V323.7H182.4v-29.39H192.79v7.414a1.711,1.711,0,0,0,1.711,1.708Zm-5.161,23.684v14.923h-3.486V327.114ZM184.7,290.891v-6.247h5.787v6.247Z" transform="translate(-108.742 -262.82)" fill="#040506"/>
      </g>
    </g>
  </g>
</svg>
